<?xml version="1.0" encoding="UTF-8"?>
<svg xmlns="http://www.w3.org/2000/svg" version="1.1" width="200" height="200" viewBox="0 0 200 200"><rect x="0" y="0" width="200" height="200" fill="#ffffff"/><g transform="scale(6.897)"><g transform="translate(0,0)"><path fill-rule="evenodd" d="M8 0.25L8 1.75A0.25 0.25 0 0 0 8.25 2L9.75 2A0.25 0.25 0 0 0 10 1.75L10 1.25A0.25 0.25 0 0 0 9.75 1L9.25 1A0.25 0.25 0 0 1 9 0.75L9 0.25A0.25 0.25 0 0 0 8.75 0L8.25 0A0.25 0.25 0 0 0 8 0.25ZM13 0.25L13 0.75A0.25 0.25 0 0 1 12.75 1L11.25 1A0.25 0.25 0 0 0 11 1.25L11 1.75A0.25 0.25 0 0 0 11.25 2L12.75 2A0.25 0.25 0 0 1 13 2.25L13 2.75A0.25 0.25 0 0 1 12.75 3L12.25 3A0.25 0.25 0 0 0 12 3.25L12 3.75A0.25 0.25 0 0 0 12.25 4L13.75 4A0.25 0.25 0 0 0 14 3.75L14 3.25A0.25 0.25 0 0 1 14.25 3L14.75 3A0.25 0.25 0 0 1 15 3.25L15 4.75A0.25 0.25 0 0 1 14.75 5L13.25 5A0.25 0.25 0 0 0 13 5.25L13 5.75A0.25 0.25 0 0 1 12.75 6L12.25 6A0.25 0.25 0 0 0 12 6.25L12 6.75A0.25 0.25 0 0 0 12.25 7L12.75 7A0.25 0.25 0 0 1 13 7.25L13 8.75A0.25 0.25 0 0 1 12.75 9L12.25 9A0.25 0.25 0 0 1 12 8.75L12 8.25A0.25 0.25 0 0 0 11.75 8L11.25 8A0.25 0.25 0 0 0 11 8.25L11 8.75A0.25 0.25 0 0 1 10.75 9L9.25 9A0.25 0.25 0 0 0 9 9.25L9 10.75A0.25 0.25 0 0 0 9.25 11L9.75 11A0.25 0.25 0 0 1 10 11.25L10 11.75A0.25 0.25 0 0 1 9.75 12L9.25 12A0.25 0.25 0 0 0 9 12.25L9 13.75A0.25 0.25 0 0 1 8.75 14L8.25 14A0.25 0.25 0 0 1 8 13.75L8 13.25A0.25 0.25 0 0 0 7.75 13L7.25 13A0.25 0.25 0 0 1 7 12.75L7 12.25A0.25 0.25 0 0 0 6.75 12L5.25 12A0.25 0.25 0 0 1 5 11.75L5 11.25A0.25 0.25 0 0 0 4.75 11L4.25 11A0.25 0.25 0 0 0 4 11.25L4 11.75A0.25 0.25 0 0 0 4.25 12L4.75 12A0.25 0.25 0 0 1 5 12.25L5 13.75A0.25 0.25 0 0 1 4.75 14L4.25 14A0.25 0.25 0 0 1 4 13.75L4 13.25A0.25 0.25 0 0 0 3.75 13L3.25 13A0.25 0.25 0 0 1 3 12.75L3 11.25A0.25 0.25 0 0 0 2.75 11L1.25 11A0.25 0.25 0 0 1 1 10.75L1 10.25A0.25 0.25 0 0 1 1.25 10L1.75 10A0.25 0.25 0 0 0 2 9.75L2 9.25A0.25 0.25 0 0 0 1.75 9L1.25 9A0.25 0.25 0 0 0 1 9.25L1 9.75A0.25 0.25 0 0 1 0.75 10L0.25 10A0.25 0.25 0 0 0 0 10.25L0 10.75A0.25 0.25 0 0 0 0.25 11L0.75 11A0.25 0.25 0 0 1 1 11.25L1 12.75A0.25 0.25 0 0 1 0.75 13L0.25 13A0.25 0.25 0 0 0 0 13.25L0 13.75A0.25 0.25 0 0 0 0.25 14L1.75 14A0.25 0.25 0 0 1 2 14.25L2 14.75A0.25 0.25 0 0 0 2.25 15L2.75 15A0.25 0.25 0 0 1 3 15.25L3 15.75A0.25 0.25 0 0 0 3.25 16L3.75 16A0.25 0.25 0 0 1 4 16.25L4 17.75A0.25 0.25 0 0 0 4.25 18L4.75 18A0.25 0.25 0 0 0 5 17.75L5 14.25A0.25 0.25 0 0 1 5.25 14L5.75 14A0.25 0.25 0 0 1 6 14.25L6 14.75A0.25 0.25 0 0 0 6.25 15L6.75 15A0.25 0.25 0 0 1 7 15.25L7 15.75A0.25 0.25 0 0 1 6.75 16L6.25 16A0.25 0.25 0 0 0 6 16.25L6 16.75A0.25 0.25 0 0 0 6.25 17L6.75 17A0.25 0.25 0 0 1 7 17.25L7 17.75A0.25 0.25 0 0 1 6.75 18L6.25 18A0.25 0.25 0 0 0 6 18.25L6 18.75A0.25 0.25 0 0 1 5.75 19L4.25 19A0.25 0.25 0 0 0 4 19.25L4 19.75A0.25 0.25 0 0 1 3.75 20L3.25 20A0.25 0.25 0 0 1 3 19.75L3 17.25A0.25 0.25 0 0 0 2.75 17L2.25 17A0.25 0.25 0 0 0 2 17.25L2 19.75A0.25 0.25 0 0 0 2.25 20L2.75 20A0.25 0.25 0 0 1 3 20.25L3 20.75A0.25 0.25 0 0 0 3.25 21L4.75 21A0.25 0.25 0 0 0 5 20.75L5 20.25A0.25 0.25 0 0 1 5.25 20L5.75 20A0.25 0.25 0 0 1 6 20.25L6 20.75A0.25 0.25 0 0 0 6.25 21L7.75 21A0.25 0.25 0 0 1 8 21.25L8 21.75A0.25 0.25 0 0 0 8.25 22L9.75 22A0.25 0.25 0 0 1 10 22.25L10 22.75A0.25 0.25 0 0 0 10.25 23L10.75 23A0.25 0.25 0 0 1 11 23.25L11 23.75A0.25 0.25 0 0 1 10.75 24L10.25 24A0.25 0.25 0 0 0 10 24.25L10 24.75A0.25 0.25 0 0 1 9.75 25L8.25 25A0.25 0.25 0 0 0 8 25.25L8 25.75A0.25 0.25 0 0 0 8.25 26L9.75 26A0.25 0.25 0 0 1 10 26.25L10 26.75A0.25 0.25 0 0 0 10.25 27L12.75 27A0.25 0.25 0 0 1 13 27.25L13 27.75A0.25 0.25 0 0 1 12.75 28L9.25 28A0.25 0.25 0 0 0 9 28.25L9 28.75A0.25 0.25 0 0 0 9.25 29L13.75 29A0.25 0.25 0 0 0 14 28.75L14 28.25A0.25 0.25 0 0 1 14.25 28L15.75 28A0.25 0.25 0 0 0 16 27.75L16 27.25A0.25 0.25 0 0 0 15.75 27L14.25 27A0.25 0.25 0 0 1 14 26.75L14 26.25A0.25 0.25 0 0 1 14.25 26L14.75 26A0.25 0.25 0 0 0 15 25.75L15 25.25A0.25 0.25 0 0 0 14.75 25L14.25 25A0.25 0.25 0 0 1 14 24.75L14 20.25A0.25 0.25 0 0 1 14.25 20L14.75 20A0.25 0.25 0 0 1 15 20.25L15 20.75A0.25 0.25 0 0 0 15.25 21L15.75 21A0.25 0.25 0 0 1 16 21.25L16 21.75A0.25 0.25 0 0 0 16.25 22L16.75 22A0.25 0.25 0 0 0 17 21.75L17 21.25A0.25 0.25 0 0 0 16.75 21L16.25 21A0.25 0.25 0 0 1 16 20.75L16 20.25A0.25 0.25 0 0 1 16.25 20L17.75 20A0.25 0.25 0 0 1 18 20.25L18 20.75A0.25 0.25 0 0 0 18.25 21L19.75 21A0.25 0.25 0 0 1 20 21.25L20 22.75A0.25 0.25 0 0 1 19.75 23L19.25 23A0.25 0.25 0 0 1 19 22.75L19 22.25A0.25 0.25 0 0 0 18.75 22L18.25 22A0.25 0.25 0 0 0 18 22.25L18 22.75A0.25 0.25 0 0 1 17.75 23L17.25 23A0.25 0.25 0 0 0 17 23.25L17 24.75A0.25 0.25 0 0 1 16.75 25L16.25 25A0.25 0.25 0 0 0 16 25.25L16 25.75A0.25 0.25 0 0 0 16.25 26L16.75 26A0.25 0.25 0 0 1 17 26.25L17 27.75A0.25 0.25 0 0 0 17.25 28L17.75 28A0.25 0.25 0 0 0 18 27.75L18 26.25A0.25 0.25 0 0 1 18.25 26L18.75 26A0.25 0.25 0 0 1 19 26.25L19 28.75A0.25 0.25 0 0 0 19.25 29L20.75 29A0.25 0.25 0 0 0 21 28.75L21 28.25A0.25 0.25 0 0 0 20.75 28L20.25 28A0.25 0.25 0 0 1 20 27.75L20 26.25A0.25 0.25 0 0 0 19.75 26L19.25 26A0.25 0.25 0 0 1 19 25.75L19 25.25A0.25 0.25 0 0 0 18.75 25L18.25 25A0.25 0.25 0 0 1 18 24.75L18 23.25A0.25 0.25 0 0 1 18.25 23L18.75 23A0.25 0.25 0 0 1 19 23.25L19 23.75A0.25 0.25 0 0 0 19.25 24L19.75 24A0.25 0.25 0 0 1 20 24.25L20 24.75A0.25 0.25 0 0 0 20.25 25L20.75 25A0.25 0.25 0 0 1 21 25.25L21 26.75A0.25 0.25 0 0 0 21.25 27L21.75 27A0.25 0.25 0 0 0 22 26.75L22 26.25A0.25 0.25 0 0 1 22.25 26L23.75 26A0.25 0.25 0 0 1 24 26.25L24 26.75A0.25 0.25 0 0 0 24.25 27L24.75 27A0.25 0.25 0 0 0 25 26.75L25 25.25A0.25 0.25 0 0 1 25.25 25L25.75 25A0.25 0.25 0 0 0 26 24.75L26 24.25A0.25 0.25 0 0 1 26.25 24L26.75 24A0.25 0.25 0 0 0 27 23.75L27 23.25A0.25 0.25 0 0 1 27.25 23L27.75 23A0.25 0.25 0 0 1 28 23.25L28 26.75A0.25 0.25 0 0 1 27.75 27L27.25 27A0.25 0.25 0 0 1 27 26.75L27 26.25A0.25 0.25 0 0 0 26.75 26L26.25 26A0.25 0.25 0 0 0 26 26.25L26 26.75A0.25 0.25 0 0 0 26.25 27L26.75 27A0.25 0.25 0 0 1 27 27.25L27 28.75A0.25 0.25 0 0 0 27.25 29L27.75 29A0.25 0.25 0 0 0 28 28.75L28 27.25A0.25 0.25 0 0 1 28.25 27L28.75 27A0.25 0.25 0 0 0 29 26.75L29 23.25A0.25 0.25 0 0 0 28.75 23L28.25 23A0.25 0.25 0 0 1 28 22.75L28 22.25A0.25 0.25 0 0 1 28.25 22L28.75 22A0.25 0.25 0 0 0 29 21.75L29 17.25A0.25 0.25 0 0 0 28.75 17L28.25 17A0.25 0.25 0 0 0 28 17.25L28 18.75A0.25 0.25 0 0 1 27.75 19L27.25 19A0.25 0.25 0 0 1 27 18.75L27 17.25A0.25 0.25 0 0 0 26.75 17L26.25 17A0.25 0.25 0 0 1 26 16.75L26 16.25A0.25 0.25 0 0 0 25.75 16L25.25 16A0.25 0.25 0 0 0 25 16.25L25 17.75A0.25 0.25 0 0 1 24.75 18L24.25 18A0.25 0.25 0 0 0 24 18.25L24 18.75A0.25 0.25 0 0 0 24.25 19L24.75 19A0.25 0.25 0 0 1 25 19.25L25 19.75A0.25 0.25 0 0 1 24.75 20L21.25 20A0.25 0.25 0 0 1 21 19.75L21 18.25A0.25 0.25 0 0 0 20.75 18L20.25 18A0.25 0.25 0 0 1 20 17.75L20 17.25A0.25 0.25 0 0 1 20.25 17L20.75 17A0.25 0.25 0 0 0 21 16.75L21 16.25A0.25 0.25 0 0 0 20.75 16L20.25 16A0.25 0.25 0 0 1 20 15.75L20 15.25A0.25 0.25 0 0 1 20.25 15L20.75 15A0.25 0.25 0 0 0 21 14.75L21 14.25A0.25 0.25 0 0 0 20.75 14L20.25 14A0.25 0.25 0 0 1 20 13.75L20 13.25A0.25 0.25 0 0 0 19.75 13L19.25 13A0.25 0.25 0 0 1 19 12.75L19 12.25A0.25 0.25 0 0 1 19.25 12L21.75 12A0.25 0.25 0 0 1 22 12.25L22 12.75A0.25 0.25 0 0 0 22.25 13L22.75 13A0.25 0.25 0 0 1 23 13.25L23 13.75A0.25 0.25 0 0 1 22.75 14L22.25 14A0.25 0.25 0 0 0 22 14.25L22 15.75A0.25 0.25 0 0 0 22.25 16L22.75 16A0.25 0.25 0 0 1 23 16.25L23 16.75A0.25 0.25 0 0 1 22.75 17L22.25 17A0.25 0.25 0 0 0 22 17.25L22 18.75A0.25 0.25 0 0 0 22.25 19L22.75 19A0.25 0.25 0 0 0 23 18.75L23 17.25A0.25 0.25 0 0 1 23.25 17L23.75 17A0.25 0.25 0 0 0 24 16.75L24 16.25A0.25 0.25 0 0 0 23.75 16L23.25 16A0.25 0.25 0 0 1 23 15.75L23 14.25A0.25 0.25 0 0 1 23.25 14L23.75 14A0.25 0.25 0 0 1 24 14.25L24 14.75A0.25 0.25 0 0 0 24.25 15L24.75 15A0.25 0.25 0 0 0 25 14.75L25 14.25A0.25 0.25 0 0 1 25.25 14L25.75 14A0.25 0.25 0 0 0 26 13.75L26 12.25A0.25 0.25 0 0 1 26.25 12L27.75 12A0.25 0.25 0 0 1 28 12.25L28 12.75A0.25 0.25 0 0 1 27.75 13L27.25 13A0.25 0.25 0 0 0 27 13.25L27 14.75A0.25 0.25 0 0 0 27.25 15L28.75 15A0.25 0.25 0 0 0 29 14.75L29 14.25A0.25 0.25 0 0 0 28.75 14L28.25 14A0.25 0.25 0 0 1 28 13.75L28 13.25A0.25 0.25 0 0 1 28.25 13L28.75 13A0.25 0.25 0 0 0 29 12.75L29 11.25A0.25 0.25 0 0 0 28.75 11L26.25 11A0.25 0.25 0 0 1 26 10.75L26 10.25A0.25 0.25 0 0 0 25.75 10L24.25 10A0.25 0.25 0 0 1 24 9.75L24 9.25A0.25 0.25 0 0 1 24.25 9L25.75 9A0.25 0.25 0 0 0 26 8.75L26 8.25A0.25 0.25 0 0 0 25.75 8L23.25 8A0.25 0.25 0 0 0 23 8.25L23 8.75A0.25 0.25 0 0 1 22.75 9L22.25 9A0.25 0.25 0 0 0 22 9.25L22 9.75A0.25 0.25 0 0 1 21.75 10L21.25 10A0.25 0.25 0 0 0 21 10.25L21 10.75A0.25 0.25 0 0 1 20.75 11L20.25 11A0.25 0.25 0 0 1 20 10.75L20 9.25A0.25 0.25 0 0 1 20.25 9L20.75 9A0.25 0.25 0 0 0 21 8.75L21 5.25A0.25 0.25 0 0 0 20.75 5L19.25 5A0.25 0.25 0 0 1 19 4.75L19 3.25A0.25 0.25 0 0 1 19.25 3L20.75 3A0.25 0.25 0 0 0 21 2.75L21 2.25A0.25 0.25 0 0 0 20.75 2L20.25 2A0.25 0.25 0 0 1 20 1.75L20 1.25A0.25 0.25 0 0 0 19.75 1L19.25 1A0.25 0.25 0 0 1 19 0.75L19 0.25A0.25 0.25 0 0 0 18.75 0L18.25 0A0.25 0.25 0 0 0 18 0.25L18 0.75A0.25 0.25 0 0 1 17.75 1L17.25 1A0.25 0.25 0 0 1 17 0.75L17 0.25A0.25 0.25 0 0 0 16.75 0L16.25 0A0.25 0.25 0 0 0 16 0.25L16 0.75A0.25 0.25 0 0 0 16.25 1L16.75 1A0.25 0.25 0 0 1 17 1.25L17 1.75A0.25 0.25 0 0 1 16.75 2L16.25 2A0.25 0.25 0 0 0 16 2.25L16 2.75A0.25 0.25 0 0 1 15.75 3L15.25 3A0.25 0.25 0 0 1 15 2.75L15 2.25A0.25 0.25 0 0 0 14.75 2L13.25 2A0.25 0.25 0 0 1 13 1.75L13 1.25A0.25 0.25 0 0 1 13.25 1L13.75 1A0.25 0.25 0 0 0 14 0.75L14 0.25A0.25 0.25 0 0 0 13.75 0L13.25 0A0.25 0.25 0 0 0 13 0.25ZM18 2.25L18 2.75A0.25 0.25 0 0 1 17.75 3L16.25 3A0.25 0.25 0 0 0 16 3.25L16 3.75A0.25 0.25 0 0 0 16.25 4L16.75 4A0.25 0.25 0 0 1 17 4.25L17 4.75A0.25 0.25 0 0 1 16.75 5L15.25 5A0.25 0.25 0 0 0 15 5.25L15 6.75A0.25 0.25 0 0 0 15.25 7L15.75 7A0.25 0.25 0 0 0 16 6.75L16 6.25A0.25 0.25 0 0 1 16.25 6L16.75 6A0.25 0.25 0 0 1 17 6.25L17 6.75A0.25 0.25 0 0 0 17.25 7L17.75 7A0.25 0.25 0 0 0 18 6.75L18 6.25A0.25 0.25 0 0 1 18.25 6L18.75 6A0.25 0.25 0 0 1 19 6.25L19 8.75A0.25 0.25 0 0 0 19.25 9L19.75 9A0.25 0.25 0 0 0 20 8.75L20 6.25A0.25 0.25 0 0 0 19.75 6L19.25 6A0.25 0.25 0 0 1 19 5.75L19 5.25A0.25 0.25 0 0 0 18.75 5L18.25 5A0.25 0.25 0 0 1 18 4.75L18 3.25A0.25 0.25 0 0 1 18.25 3L18.75 3A0.25 0.25 0 0 0 19 2.75L19 2.25A0.25 0.25 0 0 0 18.75 2L18.25 2A0.25 0.25 0 0 0 18 2.25ZM8 3.25L8 6.75A0.25 0.25 0 0 0 8.25 7L8.75 7A0.25 0.25 0 0 1 9 7.25L9 7.75A0.25 0.25 0 0 0 9.25 8L9.75 8A0.25 0.25 0 0 0 10 7.75L10 7.25A0.25 0.25 0 0 1 10.25 7L10.75 7A0.25 0.25 0 0 0 11 6.75L11 6.25A0.25 0.25 0 0 0 10.75 6L10.25 6A0.25 0.25 0 0 0 10 6.25L10 6.75A0.25 0.25 0 0 1 9.75 7L9.25 7A0.25 0.25 0 0 1 9 6.75L9 5.25A0.25 0.25 0 0 1 9.25 5L9.75 5A0.25 0.25 0 0 0 10 4.75L10 4.25A0.25 0.25 0 0 1 10.25 4L10.75 4A0.25 0.25 0 0 0 11 3.75L11 3.25A0.25 0.25 0 0 0 10.75 3L10.25 3A0.25 0.25 0 0 0 10 3.25L10 3.75A0.25 0.25 0 0 1 9.75 4L9.25 4A0.25 0.25 0 0 1 9 3.75L9 3.25A0.25 0.25 0 0 0 8.75 3L8.25 3A0.25 0.25 0 0 0 8 3.25ZM13 6.25L13 6.75A0.25 0.25 0 0 0 13.25 7L13.75 7A0.25 0.25 0 0 0 14 6.75L14 6.25A0.25 0.25 0 0 0 13.75 6L13.25 6A0.25 0.25 0 0 0 13 6.25ZM3 8.25L3 9.75A0.25 0.25 0 0 0 3.25 10L5.75 10A0.25 0.25 0 0 1 6 10.25L6 10.75A0.25 0.25 0 0 0 6.25 11L7.75 11A0.25 0.25 0 0 0 8 10.75L8 10.25A0.25 0.25 0 0 0 7.75 10L6.25 10A0.25 0.25 0 0 1 6 9.75L6 9.25A0.25 0.25 0 0 1 6.25 9L6.75 9A0.25 0.25 0 0 0 7 8.75L7 8.25A0.25 0.25 0 0 0 6.75 8L6.25 8A0.25 0.25 0 0 0 6 8.25L6 8.75A0.25 0.25 0 0 1 5.75 9L4.25 9A0.25 0.25 0 0 1 4 8.75L4 8.25A0.25 0.25 0 0 0 3.75 8L3.25 8A0.25 0.25 0 0 0 3 8.25ZM14 8.25L14 9.75A0.25 0.25 0 0 0 14.25 10L15.75 10A0.25 0.25 0 0 0 16 9.75L16 9.25A0.25 0.25 0 0 1 16.25 9L16.75 9A0.25 0.25 0 0 1 17 9.25L17 11.75A0.25 0.25 0 0 1 16.75 12L16.25 12A0.25 0.25 0 0 1 16 11.75L16 11.25A0.25 0.25 0 0 0 15.75 11L13.25 11A0.25 0.25 0 0 1 13 10.75L13 10.25A0.25 0.25 0 0 0 12.75 10L12.25 10A0.25 0.25 0 0 1 12 9.75L12 9.25A0.25 0.25 0 0 0 11.75 9L11.25 9A0.25 0.25 0 0 0 11 9.25L11 11.75A0.25 0.25 0 0 0 11.25 12L11.75 12A0.25 0.25 0 0 1 12 12.25L12 12.75A0.25 0.25 0 0 1 11.75 13L11.25 13A0.25 0.25 0 0 0 11 13.25L11 13.75A0.25 0.25 0 0 1 10.75 14L9.25 14A0.25 0.25 0 0 0 9 14.25L9 14.75A0.25 0.25 0 0 1 8.75 15L8.25 15A0.25 0.25 0 0 1 8 14.75L8 14.25A0.25 0.25 0 0 0 7.75 14L7.25 14A0.25 0.25 0 0 1 7 13.75L7 13.25A0.25 0.25 0 0 0 6.75 13L6.25 13A0.25 0.25 0 0 0 6 13.25L6 13.75A0.25 0.25 0 0 0 6.25 14L6.75 14A0.25 0.25 0 0 1 7 14.25L7 14.75A0.25 0.25 0 0 0 7.25 15L7.75 15A0.25 0.25 0 0 1 8 15.25L8 15.75A0.25 0.25 0 0 1 7.75 16L7.25 16A0.25 0.25 0 0 0 7 16.25L7 16.75A0.25 0.25 0 0 0 7.25 17L7.75 17A0.25 0.25 0 0 0 8 16.75L8 16.25A0.25 0.25 0 0 1 8.25 16L9.75 16A0.25 0.25 0 0 1 10 16.25L10 17.75A0.25 0.25 0 0 1 9.75 18L9.25 18A0.25 0.25 0 0 0 9 18.25L9 19.75A0.25 0.25 0 0 0 9.25 20L10.75 20A0.25 0.25 0 0 0 11 19.75L11 18.25A0.25 0.25 0 0 1 11.25 18L12.75 18A0.25 0.25 0 0 1 13 18.25L13 18.75A0.25 0.25 0 0 1 12.75 19L12.25 19A0.25 0.25 0 0 0 12 19.25L12 20.75A0.25 0.25 0 0 0 12.25 21L12.75 21A0.25 0.25 0 0 0 13 20.75L13 20.25A0.25 0.25 0 0 1 13.25 20L13.75 20A0.25 0.25 0 0 0 14 19.75L14 18.25A0.25 0.25 0 0 0 13.75 18L13.25 18A0.25 0.25 0 0 1 13 17.75L13 17.25A0.25 0.25 0 0 1 13.25 17L14.75 17A0.25 0.25 0 0 1 15 17.25L15 17.75A0.25 0.25 0 0 0 15.25 18L15.75 18A0.25 0.25 0 0 1 16 18.25L16 18.75A0.25 0.25 0 0 0 16.25 19L16.75 19A0.25 0.25 0 0 0 17 18.75L17 18.25A0.25 0.25 0 0 1 17.25 18L17.75 18A0.25 0.25 0 0 1 18 18.25L18 18.75A0.25 0.25 0 0 0 18.25 19L18.75 19A0.25 0.25 0 0 0 19 18.75L19 18.25A0.25 0.25 0 0 0 18.75 18L18.25 18A0.25 0.25 0 0 1 18 17.75L18 17.25A0.25 0.25 0 0 1 18.25 17L18.75 17A0.25 0.25 0 0 0 19 16.75L19 16.25A0.25 0.25 0 0 0 18.75 16L16.25 16A0.25 0.25 0 0 1 16 15.75L16 15.25A0.25 0.25 0 0 0 15.75 15L13.25 15A0.25 0.25 0 0 1 13 14.75L13 14.25A0.25 0.25 0 0 0 12.75 14L12.25 14A0.25 0.25 0 0 1 12 13.75L12 13.25A0.25 0.25 0 0 1 12.25 13L12.75 13A0.25 0.25 0 0 0 13 12.75L13 12.25A0.25 0.25 0 0 1 13.25 12L15.75 12A0.25 0.25 0 0 1 16 12.25L16 12.75A0.25 0.25 0 0 1 15.75 13L15.25 13A0.25 0.25 0 0 0 15 13.25L15 13.75A0.25 0.25 0 0 0 15.25 14L15.75 14A0.25 0.25 0 0 0 16 13.75L16 13.25A0.25 0.25 0 0 1 16.25 13L16.75 13A0.25 0.25 0 0 0 17 12.75L17 12.25A0.25 0.25 0 0 1 17.25 12L18.75 12A0.25 0.25 0 0 0 19 11.75L19 11.25A0.25 0.25 0 0 0 18.75 11L18.25 11A0.25 0.25 0 0 1 18 10.75L18 9.25A0.25 0.25 0 0 0 17.75 9L17.25 9A0.25 0.25 0 0 1 17 8.75L17 8.25A0.25 0.25 0 0 0 16.75 8L16.25 8A0.25 0.25 0 0 0 16 8.25L16 8.75A0.25 0.25 0 0 1 15.75 9L15.25 9A0.25 0.25 0 0 1 15 8.75L15 8.25A0.25 0.25 0 0 0 14.75 8L14.25 8A0.25 0.25 0 0 0 14 8.25ZM27 8.25L27 8.75A0.25 0.25 0 0 0 27.25 9L27.75 9A0.25 0.25 0 0 1 28 9.25L28 9.75A0.25 0.25 0 0 0 28.25 10L28.75 10A0.25 0.25 0 0 0 29 9.75L29 8.25A0.25 0.25 0 0 0 28.75 8L27.25 8A0.25 0.25 0 0 0 27 8.25ZM22 10.25L22 11.75A0.25 0.25 0 0 0 22.25 12L22.75 12A0.25 0.25 0 0 0 23 11.75L23 10.25A0.25 0.25 0 0 0 22.75 10L22.25 10A0.25 0.25 0 0 0 22 10.25ZM12 11.25L12 11.75A0.25 0.25 0 0 0 12.25 12L12.75 12A0.25 0.25 0 0 0 13 11.75L13 11.25A0.25 0.25 0 0 0 12.75 11L12.25 11A0.25 0.25 0 0 0 12 11.25ZM24 11.25L24 13.75A0.25 0.25 0 0 0 24.25 14L24.75 14A0.25 0.25 0 0 0 25 13.75L25 11.25A0.25 0.25 0 0 0 24.75 11L24.25 11A0.25 0.25 0 0 0 24 11.25ZM3 14.25L3 14.75A0.25 0.25 0 0 0 3.25 15L3.75 15A0.25 0.25 0 0 0 4 14.75L4 14.25A0.25 0.25 0 0 0 3.75 14L3.25 14A0.25 0.25 0 0 0 3 14.25ZM11 14.25L11 15.75A0.25 0.25 0 0 0 11.25 16L11.75 16A0.25 0.25 0 0 1 12 16.25L12 16.75A0.25 0.25 0 0 0 12.25 17L12.75 17A0.25 0.25 0 0 0 13 16.75L13 16.25A0.25 0.25 0 0 0 12.75 16L12.25 16A0.25 0.25 0 0 1 12 15.75L12 14.25A0.25 0.25 0 0 0 11.75 14L11.25 14A0.25 0.25 0 0 0 11 14.25ZM19 14.25L19 14.75A0.25 0.25 0 0 0 19.25 15L19.75 15A0.25 0.25 0 0 0 20 14.75L20 14.25A0.25 0.25 0 0 0 19.75 14L19.25 14A0.25 0.25 0 0 0 19 14.25ZM0 16.25L0 16.75A0.25 0.25 0 0 0 0.25 17L0.75 17A0.25 0.25 0 0 0 1 16.75L1 16.25A0.25 0.25 0 0 0 0.75 16L0.25 16A0.25 0.25 0 0 0 0 16.25ZM15 16.25L15 16.75A0.25 0.25 0 0 0 15.25 17L15.75 17A0.25 0.25 0 0 1 16 17.25L16 17.75A0.25 0.25 0 0 0 16.25 18L16.75 18A0.25 0.25 0 0 0 17 17.75L17 17.25A0.25 0.25 0 0 0 16.75 17L16.25 17A0.25 0.25 0 0 1 16 16.75L16 16.25A0.25 0.25 0 0 0 15.75 16L15.25 16A0.25 0.25 0 0 0 15 16.25ZM0 18.25L0 18.75A0.25 0.25 0 0 0 0.25 19L0.75 19A0.25 0.25 0 0 0 1 18.75L1 18.25A0.25 0.25 0 0 0 0.75 18L0.25 18A0.25 0.25 0 0 0 0 18.25ZM6 19.25L6 19.75A0.25 0.25 0 0 0 6.25 20L7.75 20A0.25 0.25 0 0 0 8 19.75L8 19.25A0.25 0.25 0 0 0 7.75 19L6.25 19A0.25 0.25 0 0 0 6 19.25ZM26 19.25L26 19.75A0.25 0.25 0 0 1 25.75 20L25.25 20A0.25 0.25 0 0 0 25 20.25L25 21.75A0.25 0.25 0 0 0 25.25 22L26.75 22A0.25 0.25 0 0 0 27 21.75L27 21.25A0.25 0.25 0 0 0 26.75 21L26.25 21A0.25 0.25 0 0 1 26 20.75L26 20.25A0.25 0.25 0 0 1 26.25 20L26.75 20A0.25 0.25 0 0 0 27 19.75L27 19.25A0.25 0.25 0 0 0 26.75 19L26.25 19A0.25 0.25 0 0 0 26 19.25ZM0 20.25L0 20.75A0.25 0.25 0 0 0 0.25 21L0.75 21A0.25 0.25 0 0 0 1 20.75L1 20.25A0.25 0.25 0 0 0 0.75 20L0.25 20A0.25 0.25 0 0 0 0 20.25ZM21 21.25L21 23.75A0.25 0.25 0 0 0 21.25 24L23.75 24A0.25 0.25 0 0 0 24 23.75L24 21.25A0.25 0.25 0 0 0 23.75 21L21.25 21A0.25 0.25 0 0 0 21 21.25ZM12 22.25L12 22.75A0.25 0.25 0 0 0 12.25 23L12.75 23A0.25 0.25 0 0 0 13 22.75L13 22.25A0.25 0.25 0 0 0 12.75 22L12.25 22A0.25 0.25 0 0 0 12 22.25ZM22 22.25L22 22.75A0.25 0.25 0 0 0 22.25 23L22.75 23A0.25 0.25 0 0 0 23 22.75L23 22.25A0.25 0.25 0 0 0 22.75 22L22.25 22A0.25 0.25 0 0 0 22 22.25ZM11 24.25L11 24.75A0.25 0.25 0 0 1 10.75 25L10.25 25A0.25 0.25 0 0 0 10 25.25L10 25.75A0.25 0.25 0 0 0 10.25 26L11.75 26A0.25 0.25 0 0 0 12 25.75L12 25.25A0.25 0.25 0 0 1 12.25 25L12.75 25A0.25 0.25 0 0 1 13 25.25L13 25.75A0.25 0.25 0 0 0 13.25 26L13.75 26A0.25 0.25 0 0 0 14 25.75L14 25.25A0.25 0.25 0 0 0 13.75 25L13.25 25A0.25 0.25 0 0 1 13 24.75L13 24.25A0.25 0.25 0 0 0 12.75 24L11.25 24A0.25 0.25 0 0 0 11 24.25ZM23 28.25L23 28.75A0.25 0.25 0 0 0 23.25 29L25.75 29A0.25 0.25 0 0 0 26 28.75L26 28.25A0.25 0.25 0 0 0 25.75 28L23.25 28A0.25 0.25 0 0 0 23 28.25ZM0 0.25L0 6.75A0.25 0.25 0 0 0 0.25 7L6.75 7A0.25 0.25 0 0 0 7 6.75L7 0.25A0.25 0.25 0 0 0 6.75 0L0.25 0A0.25 0.25 0 0 0 0 0.25ZM1 1.25L1 5.75A0.25 0.25 0 0 0 1.25 6L5.75 6A0.25 0.25 0 0 0 6 5.75L6 1.25A0.25 0.25 0 0 0 5.75 1L1.25 1A0.25 0.25 0 0 0 1 1.25ZM2 2.25L2 4.75A0.25 0.25 0 0 0 2.25 5L4.75 5A0.25 0.25 0 0 0 5 4.75L5 2.25A0.25 0.25 0 0 0 4.75 2L2.25 2A0.25 0.25 0 0 0 2 2.25ZM22 0.25L22 6.75A0.25 0.25 0 0 0 22.25 7L28.75 7A0.25 0.25 0 0 0 29 6.75L29 0.25A0.25 0.25 0 0 0 28.75 0L22.25 0A0.25 0.25 0 0 0 22 0.25ZM23 1.25L23 5.75A0.25 0.25 0 0 0 23.25 6L27.75 6A0.25 0.25 0 0 0 28 5.75L28 1.25A0.25 0.25 0 0 0 27.75 1L23.25 1A0.25 0.25 0 0 0 23 1.25ZM24 2.25L24 4.75A0.25 0.25 0 0 0 24.25 5L26.75 5A0.25 0.25 0 0 0 27 4.75L27 2.25A0.25 0.25 0 0 0 26.75 2L24.25 2A0.25 0.25 0 0 0 24 2.25ZM0 22.25L0 28.75A0.25 0.25 0 0 0 0.25 29L6.75 29A0.25 0.25 0 0 0 7 28.75L7 22.25A0.25 0.25 0 0 0 6.75 22L0.25 22A0.25 0.25 0 0 0 0 22.25ZM1 23.25L1 27.75A0.25 0.25 0 0 0 1.25 28L5.75 28A0.25 0.25 0 0 0 6 27.75L6 23.25A0.25 0.25 0 0 0 5.75 23L1.25 23A0.25 0.25 0 0 0 1 23.25ZM2 24.25L2 26.75A0.25 0.25 0 0 0 2.25 27L4.75 27A0.25 0.25 0 0 0 5 26.75L5 24.25A0.25 0.25 0 0 0 4.75 24L2.25 24A0.25 0.25 0 0 0 2 24.25Z" fill="#000000"/></g></g></svg>
