<?xml version="1.0" encoding="UTF-8"?>
<svg xmlns="http://www.w3.org/2000/svg" version="1.1" width="200" height="200" viewBox="0 0 200 200"><rect x="0" y="0" width="200" height="200" fill="#ffffff"/><g transform="scale(6.897)"><g transform="translate(0,0)"><path fill-rule="evenodd" d="M11 0.25L11 0.75A0.25 0.25 0 0 1 10.75 1L8.25 1A0.25 0.25 0 0 0 8 1.25L8 6.75A0.25 0.25 0 0 0 8.25 7L8.75 7A0.25 0.25 0 0 0 9 6.75L9 5.25A0.25 0.25 0 0 1 9.25 5L9.75 5A0.25 0.25 0 0 0 10 4.75L10 4.25A0.25 0.25 0 0 1 10.25 4L10.75 4A0.25 0.25 0 0 0 11 3.75L11 3.25A0.25 0.25 0 0 1 11.25 3L11.75 3A0.25 0.25 0 0 1 12 3.25L12 4.75A0.25 0.25 0 0 1 11.75 5L11.25 5A0.25 0.25 0 0 0 11 5.25L11 5.75A0.25 0.25 0 0 1 10.75 6L10.25 6A0.25 0.25 0 0 0 10 6.25L10 7.75A0.25 0.25 0 0 0 10.25 8L11.75 8A0.25 0.25 0 0 1 12 8.25L12 8.75A0.25 0.25 0 0 1 11.75 9L11.25 9A0.25 0.25 0 0 0 11 9.25L11 9.75A0.25 0.25 0 0 0 11.25 10L11.75 10A0.25 0.25 0 0 0 12 9.75L12 9.25A0.25 0.25 0 0 1 12.25 9L12.75 9A0.25 0.25 0 0 1 13 9.25L13 10.75A0.25 0.25 0 0 1 12.75 11L12.25 11A0.25 0.25 0 0 0 12 11.25L12 11.75A0.25 0.25 0 0 1 11.75 12L11.25 12A0.25 0.25 0 0 1 11 11.75L11 11.25A0.25 0.25 0 0 0 10.75 11L10.25 11A0.25 0.25 0 0 1 10 10.75L10 9.25A0.25 0.25 0 0 0 9.75 9L9.25 9A0.25 0.25 0 0 1 9 8.75L9 8.25A0.25 0.25 0 0 0 8.75 8L5.25 8A0.25 0.25 0 0 0 5 8.25L5 8.75A0.25 0.25 0 0 1 4.75 9L3.25 9A0.25 0.25 0 0 1 3 8.75L3 8.25A0.25 0.25 0 0 0 2.75 8L2.25 8A0.25 0.25 0 0 0 2 8.25L2 8.75A0.25 0.25 0 0 1 1.75 9L1.25 9A0.25 0.25 0 0 0 1 9.25L1 9.75A0.25 0.25 0 0 1 0.75 10L0.25 10A0.25 0.25 0 0 0 0 10.25L0 10.75A0.25 0.25 0 0 0 0.25 11L1.75 11A0.25 0.25 0 0 1 2 11.25L2 11.75A0.25 0.25 0 0 0 2.25 12L2.75 12A0.25 0.25 0 0 0 3 11.75L3 11.25A0.25 0.25 0 0 1 3.25 11L3.75 11A0.25 0.25 0 0 1 4 11.25L4 11.75A0.25 0.25 0 0 0 4.25 12L4.75 12A0.25 0.25 0 0 0 5 11.75L5 11.25A0.25 0.25 0 0 0 4.75 11L4.25 11A0.25 0.25 0 0 1 4 10.75L4 10.25A0.25 0.25 0 0 1 4.25 10L4.75 10A0.25 0.25 0 0 0 5 9.75L5 9.25A0.25 0.25 0 0 1 5.25 9L6.75 9A0.25 0.25 0 0 1 7 9.25L7 9.75A0.25 0.25 0 0 1 6.75 10L6.25 10A0.25 0.25 0 0 0 6 10.25L6 10.75A0.25 0.25 0 0 0 6.25 11L7.75 11A0.25 0.25 0 0 0 8 10.75L8 10.25A0.25 0.25 0 0 1 8.25 10L8.75 10A0.25 0.25 0 0 1 9 10.25L9 10.75A0.25 0.25 0 0 0 9.25 11L9.75 11A0.25 0.25 0 0 1 10 11.25L10 11.75A0.25 0.25 0 0 0 10.25 12L10.75 12A0.25 0.25 0 0 1 11 12.25L11 15.75A0.25 0.25 0 0 0 11.25 16L11.75 16A0.25 0.25 0 0 1 12 16.25L12 17.75A0.25 0.25 0 0 1 11.75 18L9.25 18A0.25 0.25 0 0 1 9 17.75L9 17.25A0.25 0.25 0 0 1 9.25 17L9.75 17A0.25 0.25 0 0 0 10 16.75L10 15.25A0.25 0.25 0 0 0 9.75 15L9.25 15A0.25 0.25 0 0 1 9 14.75L9 14.25A0.25 0.25 0 0 1 9.25 14L9.75 14A0.25 0.25 0 0 0 10 13.75L10 13.25A0.25 0.25 0 0 0 9.75 13L9.25 13A0.25 0.25 0 0 1 9 12.75L9 12.25A0.25 0.25 0 0 0 8.75 12L8.25 12A0.25 0.25 0 0 0 8 12.25L8 12.75A0.25 0.25 0 0 0 8.25 13L8.75 13A0.25 0.25 0 0 1 9 13.25L9 13.75A0.25 0.25 0 0 1 8.75 14L6.25 14A0.25 0.25 0 0 1 6 13.75L6 13.25A0.25 0.25 0 0 1 6.25 13L6.75 13A0.25 0.25 0 0 0 7 12.75L7 12.25A0.25 0.25 0 0 0 6.75 12L6.25 12A0.25 0.25 0 0 0 6 12.25L6 12.75A0.25 0.25 0 0 1 5.75 13L4.25 13A0.25 0.25 0 0 0 4 13.25L4 13.75A0.25 0.25 0 0 0 4.25 14L5.75 14A0.25 0.25 0 0 1 6 14.25L6 14.75A0.25 0.25 0 0 1 5.75 15L5.25 15A0.25 0.25 0 0 0 5 15.25L5 15.75A0.25 0.25 0 0 1 4.75 16L4.25 16A0.25 0.25 0 0 1 4 15.75L4 15.25A0.25 0.25 0 0 0 3.75 15L3.25 15A0.25 0.25 0 0 1 3 14.75L3 13.25A0.25 0.25 0 0 0 2.75 13L1.25 13A0.25 0.25 0 0 0 1 13.25L1 15.75A0.25 0.25 0 0 1 0.75 16L0.25 16A0.25 0.25 0 0 0 0 16.25L0 16.75A0.25 0.25 0 0 0 0.25 17L0.75 17A0.25 0.25 0 0 0 1 16.75L1 16.25A0.25 0.25 0 0 1 1.25 16L2.75 16A0.25 0.25 0 0 1 3 16.25L3 16.75A0.25 0.25 0 0 0 3.25 17L4.75 17A0.25 0.25 0 0 0 5 16.75L5 16.25A0.25 0.25 0 0 1 5.25 16L5.75 16A0.25 0.25 0 0 1 6 16.25L6 16.75A0.25 0.25 0 0 0 6.25 17L7.75 17A0.25 0.25 0 0 1 8 17.25L8 17.75A0.25 0.25 0 0 1 7.75 18L6.25 18A0.25 0.25 0 0 0 6 18.25L6 18.75A0.25 0.25 0 0 0 6.25 19L7.75 19A0.25 0.25 0 0 0 8 18.75L8 18.25A0.25 0.25 0 0 1 8.25 18L8.75 18A0.25 0.25 0 0 1 9 18.25L9 20.75A0.25 0.25 0 0 1 8.75 21L8.25 21A0.25 0.25 0 0 1 8 20.75L8 20.25A0.25 0.25 0 0 0 7.75 20L6.25 20A0.25 0.25 0 0 0 6 20.25L6 20.75A0.25 0.25 0 0 0 6.25 21L7.75 21A0.25 0.25 0 0 1 8 21.25L8 23.75A0.25 0.25 0 0 0 8.25 24L8.75 24A0.25 0.25 0 0 0 9 23.75L9 21.25A0.25 0.25 0 0 1 9.25 21L9.75 21A0.25 0.25 0 0 0 10 20.75L10 20.25A0.25 0.25 0 0 1 10.25 20L11.75 20A0.25 0.25 0 0 1 12 20.25L12 20.75A0.25 0.25 0 0 1 11.75 21L11.25 21A0.25 0.25 0 0 0 11 21.25L11 21.75A0.25 0.25 0 0 0 11.25 22L11.75 22A0.25 0.25 0 0 1 12 22.25L12 22.75A0.25 0.25 0 0 1 11.75 23L10.25 23A0.25 0.25 0 0 0 10 23.25L10 28.75A0.25 0.25 0 0 0 10.25 29L10.75 29A0.25 0.25 0 0 0 11 28.75L11 28.25A0.25 0.25 0 0 1 11.25 28L11.75 28A0.25 0.25 0 0 0 12 27.75L12 27.25A0.25 0.25 0 0 0 11.75 27L11.25 27A0.25 0.25 0 0 1 11 26.75L11 26.25A0.25 0.25 0 0 1 11.25 26L11.75 26A0.25 0.25 0 0 0 12 25.75L12 25.25A0.25 0.25 0 0 1 12.25 25L12.75 25A0.25 0.25 0 0 1 13 25.25L13 28.75A0.25 0.25 0 0 0 13.25 29L13.75 29A0.25 0.25 0 0 0 14 28.75L14 26.25A0.25 0.25 0 0 1 14.25 26L14.75 26A0.25 0.25 0 0 1 15 26.25L15 27.75A0.25 0.25 0 0 0 15.25 28L16.75 28A0.25 0.25 0 0 1 17 28.25L17 28.75A0.25 0.25 0 0 0 17.25 29L22.75 29A0.25 0.25 0 0 0 23 28.75L23 28.25A0.25 0.25 0 0 0 22.75 28L22.25 28A0.25 0.25 0 0 1 22 27.75L22 25.25A0.25 0.25 0 0 1 22.25 25L22.75 25A0.25 0.25 0 0 1 23 25.25L23 26.75A0.25 0.25 0 0 0 23.25 27L23.75 27A0.25 0.25 0 0 1 24 27.25L24 28.75A0.25 0.25 0 0 0 24.25 29L24.75 29A0.25 0.25 0 0 0 25 28.75L25 25.25A0.25 0.25 0 0 1 25.25 25L25.75 25A0.25 0.25 0 0 0 26 24.75L26 23.25A0.25 0.25 0 0 0 25.75 23L25.25 23A0.25 0.25 0 0 1 25 22.75L25 19.25A0.25 0.25 0 0 1 25.25 19L26.75 19A0.25 0.25 0 0 0 27 18.75L27 18.25A0.25 0.25 0 0 0 26.75 18L26.25 18A0.25 0.25 0 0 1 26 17.75L26 17.25A0.25 0.25 0 0 0 25.75 17L25.25 17A0.25 0.25 0 0 0 25 17.25L25 17.75A0.25 0.25 0 0 1 24.75 18L24.25 18A0.25 0.25 0 0 1 24 17.75L24 16.25A0.25 0.25 0 0 1 24.25 16L24.75 16A0.25 0.25 0 0 0 25 15.75L25 15.25A0.25 0.25 0 0 1 25.25 15L26.75 15A0.25 0.25 0 0 1 27 15.25L27 15.75A0.25 0.25 0 0 0 27.25 16L27.75 16A0.25 0.25 0 0 1 28 16.25L28 18.75A0.25 0.25 0 0 0 28.25 19L28.75 19A0.25 0.25 0 0 0 29 18.75L29 12.25A0.25 0.25 0 0 0 28.75 12L28.25 12A0.25 0.25 0 0 1 28 11.75L28 11.25A0.25 0.25 0 0 1 28.25 11L28.75 11A0.25 0.25 0 0 0 29 10.75L29 9.25A0.25 0.25 0 0 0 28.75 9L28.25 9A0.25 0.25 0 0 1 28 8.75L28 8.25A0.25 0.25 0 0 0 27.75 8L23.25 8A0.25 0.25 0 0 0 23 8.25L23 8.75A0.25 0.25 0 0 1 22.75 9L22.25 9A0.25 0.25 0 0 1 22 8.75L22 8.25A0.25 0.25 0 0 0 21.75 8L21.25 8A0.25 0.25 0 0 1 21 7.75L21 6.25A0.25 0.25 0 0 0 20.75 6L20.25 6A0.25 0.25 0 0 0 20 6.25L20 7.75A0.25 0.25 0 0 1 19.75 8L19.25 8A0.25 0.25 0 0 1 19 7.75L19 6.25A0.25 0.25 0 0 0 18.75 6L18.25 6A0.25 0.25 0 0 0 18 6.25L18 7.75A0.25 0.25 0 0 1 17.75 8L17.25 8A0.25 0.25 0 0 0 17 8.25L17 8.75A0.25 0.25 0 0 1 16.75 9L16.25 9A0.25 0.25 0 0 1 16 8.75L16 8.25A0.25 0.25 0 0 0 15.75 8L15.25 8A0.25 0.25 0 0 1 15 7.75L15 6.25A0.25 0.25 0 0 1 15.25 6L15.75 6A0.25 0.25 0 0 1 16 6.25L16 6.75A0.25 0.25 0 0 0 16.25 7L16.75 7A0.25 0.25 0 0 0 17 6.75L17 6.25A0.25 0.25 0 0 0 16.75 6L16.25 6A0.25 0.25 0 0 1 16 5.75L16 4.25A0.25 0.25 0 0 1 16.25 4L16.75 4A0.25 0.25 0 0 1 17 4.25L17 4.75A0.25 0.25 0 0 0 17.25 5L17.75 5A0.25 0.25 0 0 0 18 4.75L18 3.25A0.25 0.25 0 0 1 18.25 3L18.75 3A0.25 0.25 0 0 1 19 3.25L19 3.75A0.25 0.25 0 0 0 19.25 4L19.75 4A0.25 0.25 0 0 1 20 4.25L20 4.75A0.25 0.25 0 0 0 20.25 5L20.75 5A0.25 0.25 0 0 0 21 4.75L21 3.25A0.25 0.25 0 0 0 20.75 3L19.25 3A0.25 0.25 0 0 1 19 2.75L19 2.25A0.25 0.25 0 0 1 19.25 2L19.75 2A0.25 0.25 0 0 0 20 1.75L20 0.25A0.25 0.25 0 0 0 19.75 0L18.25 0A0.25 0.25 0 0 0 18 0.25L18 0.75A0.25 0.25 0 0 0 18.25 1L18.75 1A0.25 0.25 0 0 1 19 1.25L19 1.75A0.25 0.25 0 0 1 18.75 2L17.25 2A0.25 0.25 0 0 1 17 1.75L17 0.25A0.25 0.25 0 0 0 16.75 0L16.25 0A0.25 0.25 0 0 0 16 0.25L16 2.75A0.25 0.25 0 0 1 15.75 3L14.25 3A0.25 0.25 0 0 1 14 2.75L14 1.25A0.25 0.25 0 0 1 14.25 1L14.75 1A0.25 0.25 0 0 0 15 0.75L15 0.25A0.25 0.25 0 0 0 14.75 0L13.25 0A0.25 0.25 0 0 0 13 0.25L13 0.75A0.25 0.25 0 0 1 12.75 1L12.25 1A0.25 0.25 0 0 1 12 0.75L12 0.25A0.25 0.25 0 0 0 11.75 0L11.25 0A0.25 0.25 0 0 0 11 0.25ZM9 2.25L9 3.75A0.25 0.25 0 0 0 9.25 4L9.75 4A0.25 0.25 0 0 0 10 3.75L10 3.25A0.25 0.25 0 0 1 10.25 3L10.75 3A0.25 0.25 0 0 0 11 2.75L11 2.25A0.25 0.25 0 0 0 10.75 2L9.25 2A0.25 0.25 0 0 0 9 2.25ZM12 2.25L12 2.75A0.25 0.25 0 0 0 12.25 3L12.75 3A0.25 0.25 0 0 1 13 3.25L13 4.75A0.25 0.25 0 0 1 12.75 5L12.25 5A0.25 0.25 0 0 0 12 5.25L12 5.75A0.25 0.25 0 0 1 11.75 6L11.25 6A0.25 0.25 0 0 0 11 6.25L11 6.75A0.25 0.25 0 0 0 11.25 7L11.75 7A0.25 0.25 0 0 0 12 6.75L12 6.25A0.25 0.25 0 0 1 12.25 6L12.75 6A0.25 0.25 0 0 1 13 6.25L13 6.75A0.25 0.25 0 0 0 13.25 7L13.75 7A0.25 0.25 0 0 0 14 6.75L14 6.25A0.25 0.25 0 0 1 14.25 6L14.75 6A0.25 0.25 0 0 0 15 5.75L15 4.25A0.25 0.25 0 0 0 14.75 4L14.25 4A0.25 0.25 0 0 1 14 3.75L14 3.25A0.25 0.25 0 0 0 13.75 3L13.25 3A0.25 0.25 0 0 1 13 2.75L13 2.25A0.25 0.25 0 0 0 12.75 2L12.25 2A0.25 0.25 0 0 0 12 2.25ZM13 5.25L13 5.75A0.25 0.25 0 0 0 13.25 6L13.75 6A0.25 0.25 0 0 0 14 5.75L14 5.25A0.25 0.25 0 0 0 13.75 5L13.25 5A0.25 0.25 0 0 0 13 5.25ZM20 8.25L20 8.75A0.25 0.25 0 0 1 19.75 9L19.25 9A0.25 0.25 0 0 0 19 9.25L19 9.75A0.25 0.25 0 0 0 19.25 10L19.75 10A0.25 0.25 0 0 1 20 10.25L20 10.75A0.25 0.25 0 0 1 19.75 11L19.25 11A0.25 0.25 0 0 0 19 11.25L19 11.75A0.25 0.25 0 0 0 19.25 12L19.75 12A0.25 0.25 0 0 1 20 12.25L20 13.75A0.25 0.25 0 0 0 20.25 14L20.75 14A0.25 0.25 0 0 0 21 13.75L21 12.25A0.25 0.25 0 0 1 21.25 12L22.75 12A0.25 0.25 0 0 1 23 12.25L23 13.75A0.25 0.25 0 0 1 22.75 14L22.25 14A0.25 0.25 0 0 0 22 14.25L22 14.75A0.25 0.25 0 0 1 21.75 15L20.25 15A0.25 0.25 0 0 0 20 15.25L20 15.75A0.25 0.25 0 0 0 20.25 16L20.75 16A0.25 0.25 0 0 1 21 16.25L21 17.75A0.25 0.25 0 0 0 21.25 18L21.75 18A0.25 0.25 0 0 0 22 17.75L22 16.25A0.25 0.25 0 0 1 22.25 16L23.75 16A0.25 0.25 0 0 0 24 15.75L24 14.25A0.25 0.25 0 0 1 24.25 14L26.75 14A0.25 0.25 0 0 1 27 14.25L27 14.75A0.25 0.25 0 0 0 27.25 15L27.75 15A0.25 0.25 0 0 0 28 14.75L28 12.25A0.25 0.25 0 0 0 27.75 12L27.25 12A0.25 0.25 0 0 1 27 11.75L27 9.25A0.25 0.25 0 0 0 26.75 9L23.25 9A0.25 0.25 0 0 0 23 9.25L23 9.75A0.25 0.25 0 0 1 22.75 10L22.25 10A0.25 0.25 0 0 0 22 10.25L22 10.75A0.25 0.25 0 0 1 21.75 11L21.25 11A0.25 0.25 0 0 1 21 10.75L21 8.25A0.25 0.25 0 0 0 20.75 8L20.25 8A0.25 0.25 0 0 0 20 8.25ZM2 9.25L2 10.75A0.25 0.25 0 0 0 2.25 11L2.75 11A0.25 0.25 0 0 0 3 10.75L3 9.25A0.25 0.25 0 0 0 2.75 9L2.25 9A0.25 0.25 0 0 0 2 9.25ZM15 9.25L15 9.75A0.25 0.25 0 0 0 15.25 10L15.75 10A0.25 0.25 0 0 1 16 10.25L16 11.75A0.25 0.25 0 0 1 15.75 12L15.25 12A0.25 0.25 0 0 1 15 11.75L15 11.25A0.25 0.25 0 0 0 14.75 11L14.25 11A0.25 0.25 0 0 0 14 11.25L14 11.75A0.25 0.25 0 0 1 13.75 12L13.25 12A0.25 0.25 0 0 0 13 12.25L13 12.75A0.25 0.25 0 0 0 13.25 13L13.75 13A0.25 0.25 0 0 0 14 12.75L14 12.25A0.25 0.25 0 0 1 14.25 12L14.75 12A0.25 0.25 0 0 1 15 12.25L15 13.75A0.25 0.25 0 0 1 14.75 14L12.25 14A0.25 0.25 0 0 0 12 14.25L12 15.75A0.25 0.25 0 0 0 12.25 16L12.75 16A0.25 0.25 0 0 1 13 16.25L13 17.75A0.25 0.25 0 0 0 13.25 18L13.75 18A0.25 0.25 0 0 0 14 17.75L14 17.25A0.25 0.25 0 0 1 14.25 17L14.75 17A0.25 0.25 0 0 1 15 17.25L15 18.75A0.25 0.25 0 0 0 15.25 19L16.75 19A0.25 0.25 0 0 1 17 19.25L17 19.75A0.25 0.25 0 0 1 16.75 20L16.25 20A0.25 0.25 0 0 0 16 20.25L16 20.75A0.25 0.25 0 0 1 15.75 21L15.25 21A0.25 0.25 0 0 0 15 21.25L15 21.75A0.25 0.25 0 0 1 14.75 22L13.25 22A0.25 0.25 0 0 1 13 21.75L13 21.25A0.25 0.25 0 0 0 12.75 21L12.25 21A0.25 0.25 0 0 0 12 21.25L12 21.75A0.25 0.25 0 0 0 12.25 22L12.75 22A0.25 0.25 0 0 1 13 22.25L13 24.75A0.25 0.25 0 0 0 13.25 25L13.75 25A0.25 0.25 0 0 0 14 24.75L14 24.25A0.25 0.25 0 0 1 14.25 24L14.75 24A0.25 0.25 0 0 1 15 24.25L15 25.75A0.25 0.25 0 0 0 15.25 26L16.75 26A0.25 0.25 0 0 1 17 26.25L17 27.75A0.25 0.25 0 0 0 17.25 28L20.75 28A0.25 0.25 0 0 0 21 27.75L21 27.25A0.25 0.25 0 0 0 20.75 27L19.25 27A0.25 0.25 0 0 1 19 26.75L19 25.25A0.25 0.25 0 0 0 18.75 25L18.25 25A0.25 0.25 0 0 1 18 24.75L18 24.25A0.25 0.25 0 0 1 18.25 24L19.75 24A0.25 0.25 0 0 0 20 23.75L20 22.25A0.25 0.25 0 0 0 19.75 22L19.25 22A0.25 0.25 0 0 1 19 21.75L19 21.25A0.25 0.25 0 0 1 19.25 21L19.75 21A0.25 0.25 0 0 0 20 20.75L20 20.25A0.25 0.25 0 0 0 19.75 20L19.25 20A0.25 0.25 0 0 1 19 19.75L19 19.25A0.25 0.25 0 0 1 19.25 19L19.75 19A0.25 0.25 0 0 0 20 18.75L20 17.25A0.25 0.25 0 0 0 19.75 17L19.25 17A0.25 0.25 0 0 0 19 17.25L19 17.75A0.25 0.25 0 0 1 18.75 18L16.25 18A0.25 0.25 0 0 1 16 17.75L16 17.25A0.25 0.25 0 0 1 16.25 17L17.75 17A0.25 0.25 0 0 0 18 16.75L18 15.25A0.25 0.25 0 0 0 17.75 15L15.25 15A0.25 0.25 0 0 1 15 14.75L15 14.25A0.25 0.25 0 0 1 15.25 14L15.75 14A0.25 0.25 0 0 0 16 13.75L16 12.25A0.25 0.25 0 0 1 16.25 12L16.75 12A0.25 0.25 0 0 1 17 12.25L17 12.75A0.25 0.25 0 0 0 17.25 13L17.75 13A0.25 0.25 0 0 1 18 13.25L18 13.75A0.25 0.25 0 0 0 18.25 14L18.75 14A0.25 0.25 0 0 0 19 13.75L19 13.25A0.25 0.25 0 0 0 18.75 13L18.25 13A0.25 0.25 0 0 1 18 12.75L18 12.25A0.25 0.25 0 0 0 17.75 12L17.25 12A0.25 0.25 0 0 1 17 11.75L17 11.25A0.25 0.25 0 0 1 17.25 11L17.75 11A0.25 0.25 0 0 0 18 10.75L18 10.25A0.25 0.25 0 0 0 17.75 10L16.25 10A0.25 0.25 0 0 1 16 9.75L16 9.25A0.25 0.25 0 0 0 15.75 9L15.25 9A0.25 0.25 0 0 0 15 9.25ZM23 10.25L23 11.75A0.25 0.25 0 0 0 23.25 12L23.75 12A0.25 0.25 0 0 0 24 11.75L24 10.25A0.25 0.25 0 0 0 23.75 10L23.25 10A0.25 0.25 0 0 0 23 10.25ZM25 10.25L25 12.75A0.25 0.25 0 0 0 25.25 13L25.75 13A0.25 0.25 0 0 0 26 12.75L26 10.25A0.25 0.25 0 0 0 25.75 10L25.25 10A0.25 0.25 0 0 0 25 10.25ZM6 15.25L6 15.75A0.25 0.25 0 0 0 6.25 16L8.75 16A0.25 0.25 0 0 0 9 15.75L9 15.25A0.25 0.25 0 0 0 8.75 15L6.25 15A0.25 0.25 0 0 0 6 15.25ZM0 18.25L0 18.75A0.25 0.25 0 0 0 0.25 19L1.75 19A0.25 0.25 0 0 1 2 19.25L2 19.75A0.25 0.25 0 0 1 1.75 20L0.25 20A0.25 0.25 0 0 0 0 20.25L0 20.75A0.25 0.25 0 0 0 0.25 21L1.75 21A0.25 0.25 0 0 0 2 20.75L2 20.25A0.25 0.25 0 0 1 2.25 20L2.75 20A0.25 0.25 0 0 0 3 19.75L3 18.25A0.25 0.25 0 0 0 2.75 18L0.25 18A0.25 0.25 0 0 0 0 18.25ZM23 19.25L23 19.75A0.25 0.25 0 0 0 23.25 20L23.75 20A0.25 0.25 0 0 0 24 19.75L24 19.25A0.25 0.25 0 0 0 23.75 19L23.25 19A0.25 0.25 0 0 0 23 19.25ZM4 20.25L4 20.75A0.25 0.25 0 0 0 4.25 21L4.75 21A0.25 0.25 0 0 0 5 20.75L5 20.25A0.25 0.25 0 0 0 4.75 20L4.25 20A0.25 0.25 0 0 0 4 20.25ZM17 20.25L17 20.75A0.25 0.25 0 0 1 16.75 21L16.25 21A0.25 0.25 0 0 0 16 21.25L16 21.75A0.25 0.25 0 0 1 15.75 22L15.25 22A0.25 0.25 0 0 0 15 22.25L15 23.75A0.25 0.25 0 0 0 15.25 24L17.75 24A0.25 0.25 0 0 0 18 23.75L18 23.25A0.25 0.25 0 0 0 17.75 23L17.25 23A0.25 0.25 0 0 1 17 22.75L17 21.25A0.25 0.25 0 0 1 17.25 21L17.75 21A0.25 0.25 0 0 0 18 20.75L18 20.25A0.25 0.25 0 0 0 17.75 20L17.25 20A0.25 0.25 0 0 0 17 20.25ZM28 20.25L28 20.75A0.25 0.25 0 0 1 27.75 21L27.25 21A0.25 0.25 0 0 0 27 21.25L27 23.75A0.25 0.25 0 0 0 27.25 24L27.75 24A0.25 0.25 0 0 1 28 24.25L28 24.75A0.25 0.25 0 0 1 27.75 25L27.25 25A0.25 0.25 0 0 0 27 25.25L27 25.75A0.25 0.25 0 0 1 26.75 26L26.25 26A0.25 0.25 0 0 0 26 26.25L26 26.75A0.25 0.25 0 0 0 26.25 27L28.75 27A0.25 0.25 0 0 0 29 26.75L29 26.25A0.25 0.25 0 0 0 28.75 26L28.25 26A0.25 0.25 0 0 1 28 25.75L28 25.25A0.25 0.25 0 0 1 28.25 25L28.75 25A0.25 0.25 0 0 0 29 24.75L29 20.25A0.25 0.25 0 0 0 28.75 20L28.25 20A0.25 0.25 0 0 0 28 20.25ZM21 21.25L21 23.75A0.25 0.25 0 0 0 21.25 24L23.75 24A0.25 0.25 0 0 0 24 23.75L24 21.25A0.25 0.25 0 0 0 23.75 21L21.25 21A0.25 0.25 0 0 0 21 21.25ZM22 22.25L22 22.75A0.25 0.25 0 0 0 22.25 23L22.75 23A0.25 0.25 0 0 0 23 22.75L23 22.25A0.25 0.25 0 0 0 22.75 22L22.25 22A0.25 0.25 0 0 0 22 22.25ZM17 25.25L17 25.75A0.25 0.25 0 0 0 17.25 26L17.75 26A0.25 0.25 0 0 0 18 25.75L18 25.25A0.25 0.25 0 0 0 17.75 25L17.25 25A0.25 0.25 0 0 0 17 25.25ZM8 26.25L8 26.75A0.25 0.25 0 0 0 8.25 27L8.75 27A0.25 0.25 0 0 0 9 26.75L9 26.25A0.25 0.25 0 0 0 8.75 26L8.25 26A0.25 0.25 0 0 0 8 26.25ZM28 28.25L28 28.75A0.25 0.25 0 0 0 28.25 29L28.75 29A0.25 0.25 0 0 0 29 28.75L29 28.25A0.25 0.25 0 0 0 28.75 28L28.25 28A0.25 0.25 0 0 0 28 28.25ZM0 0.25L0 6.75A0.25 0.25 0 0 0 0.25 7L6.75 7A0.25 0.25 0 0 0 7 6.75L7 0.25A0.25 0.25 0 0 0 6.75 0L0.25 0A0.25 0.25 0 0 0 0 0.25ZM1 1.25L1 5.75A0.25 0.25 0 0 0 1.25 6L5.75 6A0.25 0.25 0 0 0 6 5.75L6 1.25A0.25 0.25 0 0 0 5.75 1L1.25 1A0.25 0.25 0 0 0 1 1.25ZM2 2.25L2 4.75A0.25 0.25 0 0 0 2.25 5L4.75 5A0.25 0.25 0 0 0 5 4.75L5 2.25A0.25 0.25 0 0 0 4.75 2L2.25 2A0.25 0.25 0 0 0 2 2.25ZM22 0.25L22 6.75A0.25 0.25 0 0 0 22.25 7L28.75 7A0.25 0.25 0 0 0 29 6.75L29 0.25A0.25 0.25 0 0 0 28.75 0L22.25 0A0.25 0.25 0 0 0 22 0.25ZM23 1.25L23 5.75A0.25 0.25 0 0 0 23.25 6L27.75 6A0.25 0.25 0 0 0 28 5.75L28 1.25A0.25 0.25 0 0 0 27.75 1L23.25 1A0.25 0.25 0 0 0 23 1.25ZM24 2.25L24 4.75A0.25 0.25 0 0 0 24.25 5L26.75 5A0.25 0.25 0 0 0 27 4.75L27 2.25A0.25 0.25 0 0 0 26.75 2L24.25 2A0.25 0.25 0 0 0 24 2.25ZM0 22.25L0 28.75A0.25 0.25 0 0 0 0.25 29L6.75 29A0.25 0.25 0 0 0 7 28.75L7 22.25A0.25 0.25 0 0 0 6.75 22L0.25 22A0.25 0.25 0 0 0 0 22.25ZM1 23.25L1 27.75A0.25 0.25 0 0 0 1.25 28L5.75 28A0.25 0.25 0 0 0 6 27.75L6 23.25A0.25 0.25 0 0 0 5.75 23L1.25 23A0.25 0.25 0 0 0 1 23.25ZM2 24.25L2 26.75A0.25 0.25 0 0 0 2.25 27L4.75 27A0.25 0.25 0 0 0 5 26.75L5 24.25A0.25 0.25 0 0 0 4.75 24L2.25 24A0.25 0.25 0 0 0 2 24.25Z" fill="#000000"/></g></g></svg>
