<?xml version="1.0" encoding="UTF-8"?>
<svg xmlns="http://www.w3.org/2000/svg" version="1.1" width="200" height="200" viewBox="0 0 200 200"><rect x="0" y="0" width="200" height="200" fill="#ffffff"/><g transform="scale(6.897)"><g transform="translate(0,0)"><path fill-rule="evenodd" d="M9 0.25L9 1.75A0.25 0.25 0 0 1 8.75 2L8.25 2A0.25 0.25 0 0 0 8 2.25L8 3.75A0.25 0.25 0 0 0 8.25 4L8.75 4A0.25 0.25 0 0 0 9 3.75L9 3.25A0.25 0.25 0 0 1 9.25 3L9.75 3A0.25 0.25 0 0 1 10 3.25L10 4.75A0.25 0.25 0 0 1 9.75 5L9.25 5A0.25 0.25 0 0 0 9 5.25L9 5.75A0.25 0.25 0 0 1 8.75 6L8.25 6A0.25 0.25 0 0 0 8 6.25L8 6.75A0.25 0.25 0 0 0 8.25 7L8.75 7A0.25 0.25 0 0 0 9 6.75L9 6.25A0.25 0.25 0 0 1 9.25 6L9.75 6A0.25 0.25 0 0 1 10 6.25L10 6.75A0.25 0.25 0 0 0 10.25 7L10.75 7A0.25 0.25 0 0 0 11 6.75L11 6.25A0.25 0.25 0 0 1 11.25 6L11.75 6A0.25 0.25 0 0 1 12 6.25L12 6.75A0.25 0.25 0 0 0 12.25 7L12.75 7A0.25 0.25 0 0 1 13 7.25L13 9.75A0.25 0.25 0 0 1 12.75 10L12.25 10A0.25 0.25 0 0 1 12 9.75L12 8.25A0.25 0.25 0 0 0 11.75 8L11.25 8A0.25 0.25 0 0 0 11 8.25L11 8.75A0.25 0.25 0 0 1 10.75 9L10.25 9A0.25 0.25 0 0 1 10 8.75L10 8.25A0.25 0.25 0 0 0 9.75 8L9.25 8A0.25 0.25 0 0 0 9 8.25L9 8.75A0.25 0.25 0 0 1 8.75 9L8.25 9A0.25 0.25 0 0 1 8 8.75L8 8.25A0.25 0.25 0 0 0 7.75 8L6.25 8A0.25 0.25 0 0 0 6 8.25L6 8.75A0.25 0.25 0 0 0 6.25 9L7.75 9A0.25 0.25 0 0 1 8 9.25L8 9.75A0.25 0.25 0 0 1 7.75 10L5.25 10A0.25 0.25 0 0 0 5 10.25L5 10.75A0.25 0.25 0 0 1 4.75 11L3.25 11A0.25 0.25 0 0 1 3 10.75L3 10.25A0.25 0.25 0 0 0 2.75 10L2.25 10A0.25 0.25 0 0 1 2 9.75L2 9.25A0.25 0.25 0 0 0 1.75 9L0.25 9A0.25 0.25 0 0 0 0 9.25L0 11.75A0.25 0.25 0 0 0 0.25 12L0.75 12A0.25 0.25 0 0 1 1 12.25L1 13.75A0.25 0.25 0 0 1 0.75 14L0.25 14A0.25 0.25 0 0 0 0 14.25L0 14.75A0.25 0.25 0 0 0 0.25 15L2.75 15A0.25 0.25 0 0 1 3 15.25L3 15.75A0.25 0.25 0 0 1 2.75 16L0.25 16A0.25 0.25 0 0 0 0 16.25L0 20.75A0.25 0.25 0 0 0 0.25 21L1.75 21A0.25 0.25 0 0 0 2 20.75L2 20.25A0.25 0.25 0 0 1 2.25 20L2.75 20A0.25 0.25 0 0 1 3 20.25L3 20.75A0.25 0.25 0 0 0 3.25 21L3.75 21A0.25 0.25 0 0 0 4 20.75L4 20.25A0.25 0.25 0 0 1 4.25 20L5.75 20A0.25 0.25 0 0 1 6 20.25L6 20.75A0.25 0.25 0 0 0 6.25 21L6.75 21A0.25 0.25 0 0 0 7 20.75L7 20.25A0.25 0.25 0 0 0 6.75 20L6.25 20A0.25 0.25 0 0 1 6 19.75L6 19.25A0.25 0.25 0 0 1 6.25 19L7.75 19A0.25 0.25 0 0 0 8 18.75L8 17.25A0.25 0.25 0 0 1 8.25 17L8.75 17A0.25 0.25 0 0 1 9 17.25L9 18.75A0.25 0.25 0 0 0 9.25 19L9.75 19A0.25 0.25 0 0 1 10 19.25L10 20.75A0.25 0.25 0 0 0 10.25 21L10.75 21A0.25 0.25 0 0 0 11 20.75L11 20.25A0.25 0.25 0 0 1 11.25 20L12.75 20A0.25 0.25 0 0 0 13 19.75L13 18.25A0.25 0.25 0 0 1 13.25 18L13.75 18A0.25 0.25 0 0 1 14 18.25L14 19.75A0.25 0.25 0 0 0 14.25 20L14.75 20A0.25 0.25 0 0 1 15 20.25L15 20.75A0.25 0.25 0 0 1 14.75 21L13.25 21A0.25 0.25 0 0 0 13 21.25L13 22.75A0.25 0.25 0 0 0 13.25 23L14.75 23A0.25 0.25 0 0 1 15 23.25L15 23.75A0.25 0.25 0 0 0 15.25 24L16.75 24A0.25 0.25 0 0 1 17 24.25L17 24.75A0.25 0.25 0 0 1 16.75 25L16.25 25A0.25 0.25 0 0 0 16 25.25L16 28.75A0.25 0.25 0 0 0 16.25 29L18.75 29A0.25 0.25 0 0 0 19 28.75L19 28.25A0.25 0.25 0 0 0 18.75 28L17.25 28A0.25 0.25 0 0 1 17 27.75L17 27.25A0.25 0.25 0 0 1 17.25 27L17.75 27A0.25 0.25 0 0 0 18 26.75L18 25.25A0.25 0.25 0 0 1 18.25 25L18.75 25A0.25 0.25 0 0 1 19 25.25L19 25.75A0.25 0.25 0 0 0 19.25 26L19.75 26A0.25 0.25 0 0 0 20 25.75L20 25.25A0.25 0.25 0 0 1 20.25 25L22.75 25A0.25 0.25 0 0 1 23 25.25L23 25.75A0.25 0.25 0 0 0 23.25 26L23.75 26A0.25 0.25 0 0 1 24 26.25L24 26.75A0.25 0.25 0 0 1 23.75 27L20.25 27A0.25 0.25 0 0 0 20 27.25L20 28.75A0.25 0.25 0 0 0 20.25 29L20.75 29A0.25 0.25 0 0 0 21 28.75L21 28.25A0.25 0.25 0 0 1 21.25 28L21.75 28A0.25 0.25 0 0 1 22 28.25L22 28.75A0.25 0.25 0 0 0 22.25 29L24.75 29A0.25 0.25 0 0 0 25 28.75L25 28.25A0.25 0.25 0 0 1 25.25 28L26.75 28A0.25 0.25 0 0 0 27 27.75L27 27.25A0.25 0.25 0 0 1 27.25 27L27.75 27A0.25 0.25 0 0 1 28 27.25L28 27.75A0.25 0.25 0 0 0 28.25 28L28.75 28A0.25 0.25 0 0 0 29 27.75L29 26.25A0.25 0.25 0 0 0 28.75 26L28.25 26A0.25 0.25 0 0 1 28 25.75L28 25.25A0.25 0.25 0 0 1 28.25 25L28.75 25A0.25 0.25 0 0 0 29 24.75L29 23.25A0.25 0.25 0 0 0 28.75 23L28.25 23A0.25 0.25 0 0 1 28 22.75L28 21.25A0.25 0.25 0 0 1 28.25 21L28.75 21A0.25 0.25 0 0 0 29 20.75L29 20.25A0.25 0.25 0 0 0 28.75 20L28.25 20A0.25 0.25 0 0 0 28 20.25L28 20.75A0.25 0.25 0 0 1 27.75 21L27.25 21A0.25 0.25 0 0 1 27 20.75L27 19.25A0.25 0.25 0 0 1 27.25 19L28.75 19A0.25 0.25 0 0 0 29 18.75L29 18.25A0.25 0.25 0 0 0 28.75 18L28.25 18A0.25 0.25 0 0 1 28 17.75L28 17.25A0.25 0.25 0 0 0 27.75 17L27.25 17A0.25 0.25 0 0 0 27 17.25L27 17.75A0.25 0.25 0 0 1 26.75 18L26.25 18A0.25 0.25 0 0 1 26 17.75L26 17.25A0.25 0.25 0 0 0 25.75 17L24.25 17A0.25 0.25 0 0 1 24 16.75L24 16.25A0.25 0.25 0 0 1 24.25 16L26.75 16A0.25 0.25 0 0 0 27 15.75L27 13.25A0.25 0.25 0 0 1 27.25 13L27.75 13A0.25 0.25 0 0 1 28 13.25L28 14.75A0.25 0.25 0 0 0 28.25 15L28.75 15A0.25 0.25 0 0 0 29 14.75L29 11.25A0.25 0.25 0 0 0 28.75 11L27.25 11A0.25 0.25 0 0 0 27 11.25L27 12.75A0.25 0.25 0 0 1 26.75 13L24.25 13A0.25 0.25 0 0 0 24 13.25L24 13.75A0.25 0.25 0 0 1 23.75 14L23.25 14A0.25 0.25 0 0 1 23 13.75L23 12.25A0.25 0.25 0 0 1 23.25 12L24.75 12A0.25 0.25 0 0 0 25 11.75L25 11.25A0.25 0.25 0 0 0 24.75 11L24.25 11A0.25 0.25 0 0 1 24 10.75L24 10.25A0.25 0.25 0 0 1 24.25 10L26.75 10A0.25 0.25 0 0 0 27 9.75L27 8.25A0.25 0.25 0 0 0 26.75 8L25.25 8A0.25 0.25 0 0 0 25 8.25L25 8.75A0.25 0.25 0 0 1 24.75 9L24.25 9A0.25 0.25 0 0 0 24 9.25L24 9.75A0.25 0.25 0 0 1 23.75 10L23.25 10A0.25 0.25 0 0 0 23 10.25L23 10.75A0.25 0.25 0 0 1 22.75 11L22.25 11A0.25 0.25 0 0 0 22 11.25L22 14.75A0.25 0.25 0 0 1 21.75 15L21.25 15A0.25 0.25 0 0 0 21 15.25L21 15.75A0.25 0.25 0 0 1 20.75 16L20.25 16A0.25 0.25 0 0 1 20 15.75L20 14.25A0.25 0.25 0 0 1 20.25 14L20.75 14A0.25 0.25 0 0 0 21 13.75L21 13.25A0.25 0.25 0 0 0 20.75 13L20.25 13A0.25 0.25 0 0 1 20 12.75L20 12.25A0.25 0.25 0 0 0 19.75 12L19.25 12A0.25 0.25 0 0 1 19 11.75L19 10.25A0.25 0.25 0 0 0 18.75 10L18.25 10A0.25 0.25 0 0 0 18 10.25L18 11.75A0.25 0.25 0 0 1 17.75 12L17.25 12A0.25 0.25 0 0 1 17 11.75L17 11.25A0.25 0.25 0 0 0 16.75 11L15.25 11A0.25 0.25 0 0 1 15 10.75L15 10.25A0.25 0.25 0 0 1 15.25 10L15.75 10A0.25 0.25 0 0 0 16 9.75L16 7.25A0.25 0.25 0 0 1 16.25 7L16.75 7A0.25 0.25 0 0 0 17 6.75L17 6.25A0.25 0.25 0 0 1 17.25 6L17.75 6A0.25 0.25 0 0 1 18 6.25L18 6.75A0.25 0.25 0 0 0 18.25 7L18.75 7A0.25 0.25 0 0 0 19 6.75L19 5.25A0.25 0.25 0 0 1 19.25 5L19.75 5A0.25 0.25 0 0 0 20 4.75L20 4.25A0.25 0.25 0 0 1 20.25 4L20.75 4A0.25 0.25 0 0 0 21 3.75L21 1.25A0.25 0.25 0 0 0 20.75 1L20.25 1A0.25 0.25 0 0 1 20 0.75L20 0.25A0.25 0.25 0 0 0 19.75 0L17.25 0A0.25 0.25 0 0 0 17 0.25L17 1.75A0.25 0.25 0 0 1 16.75 2L15.25 2A0.25 0.25 0 0 0 15 2.25L15 2.75A0.25 0.25 0 0 1 14.75 3L14.25 3A0.25 0.25 0 0 0 14 3.25L14 3.75A0.25 0.25 0 0 0 14.25 4L14.75 4A0.25 0.25 0 0 1 15 4.25L15 4.75A0.25 0.25 0 0 1 14.75 5L14.25 5A0.25 0.25 0 0 0 14 5.25L14 6.75A0.25 0.25 0 0 1 13.75 7L13.25 7A0.25 0.25 0 0 1 13 6.75L13 6.25A0.25 0.25 0 0 0 12.75 6L12.25 6A0.25 0.25 0 0 1 12 5.75L12 4.25A0.25 0.25 0 0 0 11.75 4L11.25 4A0.25 0.25 0 0 1 11 3.75L11 3.25A0.25 0.25 0 0 1 11.25 3L12.75 3A0.25 0.25 0 0 0 13 2.75L13 2.25A0.25 0.25 0 0 1 13.25 2L13.75 2A0.25 0.25 0 0 0 14 1.75L14 0.25A0.25 0.25 0 0 0 13.75 0L9.25 0A0.25 0.25 0 0 0 9 0.25ZM15 0.25L15 0.75A0.25 0.25 0 0 0 15.25 1L15.75 1A0.25 0.25 0 0 0 16 0.75L16 0.25A0.25 0.25 0 0 0 15.75 0L15.25 0A0.25 0.25 0 0 0 15 0.25ZM12 1.25L12 1.75A0.25 0.25 0 0 0 12.25 2L12.75 2A0.25 0.25 0 0 0 13 1.75L13 1.25A0.25 0.25 0 0 0 12.75 1L12.25 1A0.25 0.25 0 0 0 12 1.25ZM18 1.25L18 1.75A0.25 0.25 0 0 1 17.75 2L17.25 2A0.25 0.25 0 0 0 17 2.25L17 2.75A0.25 0.25 0 0 0 17.25 3L17.75 3A0.25 0.25 0 0 1 18 3.25L18 3.75A0.25 0.25 0 0 0 18.25 4L18.75 4A0.25 0.25 0 0 0 19 3.75L19 3.25A0.25 0.25 0 0 1 19.25 3L19.75 3A0.25 0.25 0 0 0 20 2.75L20 1.25A0.25 0.25 0 0 0 19.75 1L18.25 1A0.25 0.25 0 0 0 18 1.25ZM10 2.25L10 2.75A0.25 0.25 0 0 0 10.25 3L10.75 3A0.25 0.25 0 0 0 11 2.75L11 2.25A0.25 0.25 0 0 0 10.75 2L10.25 2A0.25 0.25 0 0 0 10 2.25ZM18 2.25L18 2.75A0.25 0.25 0 0 0 18.25 3L18.75 3A0.25 0.25 0 0 0 19 2.75L19 2.25A0.25 0.25 0 0 0 18.75 2L18.25 2A0.25 0.25 0 0 0 18 2.25ZM15 3.25L15 3.75A0.25 0.25 0 0 0 15.25 4L15.75 4A0.25 0.25 0 0 0 16 3.75L16 3.25A0.25 0.25 0 0 0 15.75 3L15.25 3A0.25 0.25 0 0 0 15 3.25ZM15 5.25L15 6.75A0.25 0.25 0 0 1 14.75 7L14.25 7A0.25 0.25 0 0 0 14 7.25L14 8.75A0.25 0.25 0 0 0 14.25 9L14.75 9A0.25 0.25 0 0 0 15 8.75L15 7.25A0.25 0.25 0 0 1 15.25 7L15.75 7A0.25 0.25 0 0 0 16 6.75L16 5.25A0.25 0.25 0 0 0 15.75 5L15.25 5A0.25 0.25 0 0 0 15 5.25ZM20 6.25L20 7.75A0.25 0.25 0 0 1 19.75 8L18.25 8A0.25 0.25 0 0 0 18 8.25L18 8.75A0.25 0.25 0 0 0 18.25 9L19.75 9A0.25 0.25 0 0 1 20 9.25L20 9.75A0.25 0.25 0 0 0 20.25 10L21.75 10A0.25 0.25 0 0 0 22 9.75L22 9.25A0.25 0.25 0 0 0 21.75 9L21.25 9A0.25 0.25 0 0 1 21 8.75L21 6.25A0.25 0.25 0 0 0 20.75 6L20.25 6A0.25 0.25 0 0 0 20 6.25ZM3 8.25L3 8.75A0.25 0.25 0 0 0 3.25 9L4.75 9A0.25 0.25 0 0 0 5 8.75L5 8.25A0.25 0.25 0 0 0 4.75 8L3.25 8A0.25 0.25 0 0 0 3 8.25ZM9 9.25L9 9.75A0.25 0.25 0 0 1 8.75 10L8.25 10A0.25 0.25 0 0 0 8 10.25L8 10.75A0.25 0.25 0 0 0 8.25 11L8.75 11A0.25 0.25 0 0 1 9 11.25L9 11.75A0.25 0.25 0 0 1 8.75 12L7.25 12A0.25 0.25 0 0 1 7 11.75L7 11.25A0.25 0.25 0 0 0 6.75 11L6.25 11A0.25 0.25 0 0 0 6 11.25L6 11.75A0.25 0.25 0 0 0 6.25 12L6.75 12A0.25 0.25 0 0 1 7 12.25L7 12.75A0.25 0.25 0 0 1 6.75 13L5.25 13A0.25 0.25 0 0 1 5 12.75L5 12.25A0.25 0.25 0 0 0 4.75 12L4.25 12A0.25 0.25 0 0 0 4 12.25L4 13.75A0.25 0.25 0 0 1 3.75 14L3.25 14A0.25 0.25 0 0 1 3 13.75L3 13.25A0.25 0.25 0 0 0 2.75 13L2.25 13A0.25 0.25 0 0 0 2 13.25L2 13.75A0.25 0.25 0 0 0 2.25 14L2.75 14A0.25 0.25 0 0 1 3 14.25L3 14.75A0.25 0.25 0 0 0 3.25 15L5.75 15A0.25 0.25 0 0 1 6 15.25L6 15.75A0.25 0.25 0 0 1 5.75 16L5.25 16A0.25 0.25 0 0 0 5 16.25L5 16.75A0.25 0.25 0 0 1 4.75 17L4.25 17A0.25 0.25 0 0 1 4 16.75L4 16.25A0.25 0.25 0 0 0 3.75 16L3.25 16A0.25 0.25 0 0 0 3 16.25L3 16.75A0.25 0.25 0 0 1 2.75 17L2.25 17A0.25 0.25 0 0 0 2 17.25L2 17.75A0.25 0.25 0 0 0 2.25 18L3.75 18A0.25 0.25 0 0 1 4 18.25L4 18.75A0.25 0.25 0 0 1 3.75 19L3.25 19A0.25 0.25 0 0 0 3 19.25L3 19.75A0.25 0.25 0 0 0 3.25 20L3.75 20A0.25 0.25 0 0 0 4 19.75L4 19.25A0.25 0.25 0 0 1 4.25 19L4.75 19A0.25 0.25 0 0 0 5 18.75L5 18.25A0.25 0.25 0 0 1 5.25 18L6.75 18A0.25 0.25 0 0 0 7 17.75L7 17.25A0.25 0.25 0 0 1 7.25 17L7.75 17A0.25 0.25 0 0 0 8 16.75L8 15.25A0.25 0.25 0 0 1 8.25 15L8.75 15A0.25 0.25 0 0 1 9 15.25L9 16.75A0.25 0.25 0 0 0 9.25 17L10.75 17A0.25 0.25 0 0 1 11 17.25L11 17.75A0.25 0.25 0 0 0 11.25 18L11.75 18A0.25 0.25 0 0 0 12 17.75L12 17.25A0.25 0.25 0 0 0 11.75 17L11.25 17A0.25 0.25 0 0 1 11 16.75L11 16.25A0.25 0.25 0 0 0 10.75 16L10.25 16A0.25 0.25 0 0 1 10 15.75L10 14.25A0.25 0.25 0 0 1 10.25 14L10.75 14A0.25 0.25 0 0 1 11 14.25L11 14.75A0.25 0.25 0 0 0 11.25 15L11.75 15A0.25 0.25 0 0 1 12 15.25L12 15.75A0.25 0.25 0 0 0 12.25 16L12.75 16A0.25 0.25 0 0 1 13 16.25L13 16.75A0.25 0.25 0 0 0 13.25 17L13.75 17A0.25 0.25 0 0 0 14 16.75L14 15.25A0.25 0.25 0 0 1 14.25 15L17.75 15A0.25 0.25 0 0 1 18 15.25L18 16.75A0.25 0.25 0 0 1 17.75 17L16.25 17A0.25 0.25 0 0 0 16 17.25L16 18.75A0.25 0.25 0 0 1 15.75 19L15.25 19A0.25 0.25 0 0 0 15 19.25L15 19.75A0.25 0.25 0 0 0 15.25 20L15.75 20A0.25 0.25 0 0 1 16 20.25L16 21.75A0.25 0.25 0 0 1 15.75 22L15.25 22A0.25 0.25 0 0 0 15 22.25L15 22.75A0.25 0.25 0 0 0 15.25 23L16.75 23A0.25 0.25 0 0 0 17 22.75L17 21.25A0.25 0.25 0 0 1 17.25 21L17.75 21A0.25 0.25 0 0 0 18 20.75L18 17.25A0.25 0.25 0 0 1 18.25 17L18.75 17A0.25 0.25 0 0 1 19 17.25L19 21.75A0.25 0.25 0 0 0 19.25 22L19.75 22A0.25 0.25 0 0 0 20 21.75L20 20.25A0.25 0.25 0 0 1 20.25 20L21.75 20A0.25 0.25 0 0 0 22 19.75L22 18.25A0.25 0.25 0 0 1 22.25 18L22.75 18A0.25 0.25 0 0 1 23 18.25L23 18.75A0.25 0.25 0 0 0 23.25 19L23.75 19A0.25 0.25 0 0 0 24 18.75L24 17.25A0.25 0.25 0 0 0 23.75 17L23.25 17A0.25 0.25 0 0 1 23 16.75L23 16.25A0.25 0.25 0 0 1 23.25 16L23.75 16A0.25 0.25 0 0 0 24 15.75L24 15.25A0.25 0.25 0 0 0 23.75 15L23.25 15A0.25 0.25 0 0 0 23 15.25L23 15.75A0.25 0.25 0 0 1 22.75 16L22.25 16A0.25 0.25 0 0 0 22 16.25L22 17.75A0.25 0.25 0 0 1 21.75 18L21.25 18A0.25 0.25 0 0 0 21 18.25L21 18.75A0.25 0.25 0 0 1 20.75 19L20.25 19A0.25 0.25 0 0 1 20 18.75L20 16.25A0.25 0.25 0 0 0 19.75 16L19.25 16A0.25 0.25 0 0 1 19 15.75L19 14.25A0.25 0.25 0 0 1 19.25 14L19.75 14A0.25 0.25 0 0 0 20 13.75L20 13.25A0.25 0.25 0 0 0 19.75 13L16.25 13A0.25 0.25 0 0 0 16 13.25L16 13.75A0.25 0.25 0 0 1 15.75 14L14.25 14A0.25 0.25 0 0 1 14 13.75L14 13.25A0.25 0.25 0 0 1 14.25 13L14.75 13A0.25 0.25 0 0 0 15 12.75L15 11.25A0.25 0.25 0 0 0 14.75 11L14.25 11A0.25 0.25 0 0 1 14 10.75L14 10.25A0.25 0.25 0 0 0 13.75 10L13.25 10A0.25 0.25 0 0 0 13 10.25L13 11.75A0.25 0.25 0 0 1 12.75 12L12.25 12A0.25 0.25 0 0 1 12 11.75L12 11.25A0.25 0.25 0 0 0 11.75 11L11.25 11A0.25 0.25 0 0 0 11 11.25L11 12.75A0.25 0.25 0 0 1 10.75 13L10.25 13A0.25 0.25 0 0 1 10 12.75L10 11.25A0.25 0.25 0 0 0 9.75 11L9.25 11A0.25 0.25 0 0 1 9 10.75L9 10.25A0.25 0.25 0 0 1 9.25 10L9.75 10A0.25 0.25 0 0 0 10 9.75L10 9.25A0.25 0.25 0 0 0 9.75 9L9.25 9A0.25 0.25 0 0 0 9 9.25ZM13 12.25L13 12.75A0.25 0.25 0 0 0 13.25 13L13.75 13A0.25 0.25 0 0 0 14 12.75L14 12.25A0.25 0.25 0 0 0 13.75 12L13.25 12A0.25 0.25 0 0 0 13 12.25ZM8 13.25L8 13.75A0.25 0.25 0 0 1 7.75 14L6.25 14A0.25 0.25 0 0 0 6 14.25L6 14.75A0.25 0.25 0 0 0 6.25 15L7.75 15A0.25 0.25 0 0 0 8 14.75L8 14.25A0.25 0.25 0 0 1 8.25 14L8.75 14A0.25 0.25 0 0 0 9 13.75L9 13.25A0.25 0.25 0 0 0 8.75 13L8.25 13A0.25 0.25 0 0 0 8 13.25ZM11 13.25L11 13.75A0.25 0.25 0 0 0 11.25 14L11.75 14A0.25 0.25 0 0 1 12 14.25L12 14.75A0.25 0.25 0 0 0 12.25 15L12.75 15A0.25 0.25 0 0 0 13 14.75L13 14.25A0.25 0.25 0 0 0 12.75 14L12.25 14A0.25 0.25 0 0 1 12 13.75L12 13.25A0.25 0.25 0 0 0 11.75 13L11.25 13A0.25 0.25 0 0 0 11 13.25ZM6 16.25L6 16.75A0.25 0.25 0 0 0 6.25 17L6.75 17A0.25 0.25 0 0 0 7 16.75L7 16.25A0.25 0.25 0 0 0 6.75 16L6.25 16A0.25 0.25 0 0 0 6 16.25ZM25 18.25L25 18.75A0.25 0.25 0 0 0 25.25 19L25.75 19A0.25 0.25 0 0 0 26 18.75L26 18.25A0.25 0.25 0 0 0 25.75 18L25.25 18A0.25 0.25 0 0 0 25 18.25ZM16 19.25L16 19.75A0.25 0.25 0 0 0 16.25 20L16.75 20A0.25 0.25 0 0 0 17 19.75L17 19.25A0.25 0.25 0 0 0 16.75 19L16.25 19A0.25 0.25 0 0 0 16 19.25ZM8 20.25L8 22.75A0.25 0.25 0 0 0 8.25 23L8.75 23A0.25 0.25 0 0 1 9 23.25L9 23.75A0.25 0.25 0 0 1 8.75 24L8.25 24A0.25 0.25 0 0 0 8 24.25L8 25.75A0.25 0.25 0 0 0 8.25 26L8.75 26A0.25 0.25 0 0 1 9 26.25L9 27.75A0.25 0.25 0 0 0 9.25 28L9.75 28A0.25 0.25 0 0 1 10 28.25L10 28.75A0.25 0.25 0 0 0 10.25 29L10.75 29A0.25 0.25 0 0 0 11 28.75L11 27.25A0.25 0.25 0 0 1 11.25 27L14.75 27A0.25 0.25 0 0 0 15 26.75L15 25.25A0.25 0.25 0 0 0 14.75 25L13.25 25A0.25 0.25 0 0 0 13 25.25L13 25.75A0.25 0.25 0 0 1 12.75 26L11.25 26A0.25 0.25 0 0 1 11 25.75L11 23.25A0.25 0.25 0 0 1 11.25 23L11.75 23A0.25 0.25 0 0 0 12 22.75L12 22.25A0.25 0.25 0 0 0 11.75 22L11.25 22A0.25 0.25 0 0 0 11 22.25L11 22.75A0.25 0.25 0 0 1 10.75 23L10.25 23A0.25 0.25 0 0 1 10 22.75L10 22.25A0.25 0.25 0 0 0 9.75 22L9.25 22A0.25 0.25 0 0 1 9 21.75L9 20.25A0.25 0.25 0 0 0 8.75 20L8.25 20A0.25 0.25 0 0 0 8 20.25ZM25 20.25L25 21.75A0.25 0.25 0 0 0 25.25 22L25.75 22A0.25 0.25 0 0 0 26 21.75L26 20.25A0.25 0.25 0 0 0 25.75 20L25.25 20A0.25 0.25 0 0 0 25 20.25ZM21 21.25L21 23.75A0.25 0.25 0 0 0 21.25 24L23.75 24A0.25 0.25 0 0 0 24 23.75L24 21.25A0.25 0.25 0 0 0 23.75 21L21.25 21A0.25 0.25 0 0 0 21 21.25ZM22 22.25L22 22.75A0.25 0.25 0 0 0 22.25 23L22.75 23A0.25 0.25 0 0 0 23 22.75L23 22.25A0.25 0.25 0 0 0 22.75 22L22.25 22A0.25 0.25 0 0 0 22 22.25ZM26 23.25L26 24.75A0.25 0.25 0 0 0 26.25 25L27.75 25A0.25 0.25 0 0 0 28 24.75L28 24.25A0.25 0.25 0 0 0 27.75 24L27.25 24A0.25 0.25 0 0 1 27 23.75L27 23.25A0.25 0.25 0 0 0 26.75 23L26.25 23A0.25 0.25 0 0 0 26 23.25ZM9 24.25L9 25.75A0.25 0.25 0 0 0 9.25 26L9.75 26A0.25 0.25 0 0 1 10 26.25L10 26.75A0.25 0.25 0 0 0 10.25 27L10.75 27A0.25 0.25 0 0 0 11 26.75L11 26.25A0.25 0.25 0 0 0 10.75 26L10.25 26A0.25 0.25 0 0 1 10 25.75L10 24.25A0.25 0.25 0 0 0 9.75 24L9.25 24A0.25 0.25 0 0 0 9 24.25ZM24 25.25L24 25.75A0.25 0.25 0 0 0 24.25 26L24.75 26A0.25 0.25 0 0 1 25 26.25L25 26.75A0.25 0.25 0 0 0 25.25 27L26.75 27A0.25 0.25 0 0 0 27 26.75L27 26.25A0.25 0.25 0 0 0 26.75 26L25.25 26A0.25 0.25 0 0 1 25 25.75L25 25.25A0.25 0.25 0 0 0 24.75 25L24.25 25A0.25 0.25 0 0 0 24 25.25ZM0 0.25L0 6.75A0.25 0.25 0 0 0 0.25 7L6.75 7A0.25 0.25 0 0 0 7 6.75L7 0.25A0.25 0.25 0 0 0 6.75 0L0.25 0A0.25 0.25 0 0 0 0 0.25ZM1 1.25L1 5.75A0.25 0.25 0 0 0 1.25 6L5.75 6A0.25 0.25 0 0 0 6 5.75L6 1.25A0.25 0.25 0 0 0 5.75 1L1.25 1A0.25 0.25 0 0 0 1 1.25ZM2 2.25L2 4.75A0.25 0.25 0 0 0 2.25 5L4.75 5A0.25 0.25 0 0 0 5 4.75L5 2.25A0.25 0.25 0 0 0 4.75 2L2.25 2A0.25 0.25 0 0 0 2 2.25ZM22 0.25L22 6.75A0.25 0.25 0 0 0 22.25 7L28.75 7A0.25 0.25 0 0 0 29 6.75L29 0.25A0.25 0.25 0 0 0 28.75 0L22.25 0A0.25 0.25 0 0 0 22 0.25ZM23 1.25L23 5.75A0.25 0.25 0 0 0 23.25 6L27.75 6A0.25 0.25 0 0 0 28 5.75L28 1.25A0.25 0.25 0 0 0 27.75 1L23.25 1A0.25 0.25 0 0 0 23 1.25ZM24 2.25L24 4.75A0.25 0.25 0 0 0 24.25 5L26.75 5A0.25 0.25 0 0 0 27 4.75L27 2.25A0.25 0.25 0 0 0 26.75 2L24.25 2A0.25 0.25 0 0 0 24 2.25ZM0 22.25L0 28.75A0.25 0.25 0 0 0 0.25 29L6.75 29A0.25 0.25 0 0 0 7 28.75L7 22.25A0.25 0.25 0 0 0 6.75 22L0.25 22A0.25 0.25 0 0 0 0 22.25ZM1 23.25L1 27.75A0.25 0.25 0 0 0 1.25 28L5.75 28A0.25 0.25 0 0 0 6 27.75L6 23.25A0.25 0.25 0 0 0 5.75 23L1.25 23A0.25 0.25 0 0 0 1 23.25ZM2 24.25L2 26.75A0.25 0.25 0 0 0 2.25 27L4.75 27A0.25 0.25 0 0 0 5 26.75L5 24.25A0.25 0.25 0 0 0 4.75 24L2.25 24A0.25 0.25 0 0 0 2 24.25Z" fill="#000000"/></g></g></svg>
