<?xml version="1.0" encoding="UTF-8"?>
<svg xmlns="http://www.w3.org/2000/svg" version="1.1" width="200" height="200" viewBox="0 0 200 200"><rect x="0" y="0" width="200" height="200" fill="#ffffff"/><g transform="scale(6.897)"><g transform="translate(0,0)"><path fill-rule="evenodd" d="M8 0.25L8 2.75A0.25 0.25 0 0 0 8.25 3L8.75 3A0.25 0.25 0 0 1 9 3.25L9 3.75A0.25 0.25 0 0 0 9.25 4L9.75 4A0.25 0.25 0 0 0 10 3.75L10 3.25A0.25 0.25 0 0 1 10.25 3L10.75 3A0.25 0.25 0 0 0 11 2.75L11 0.25A0.25 0.25 0 0 0 10.75 0L8.25 0A0.25 0.25 0 0 0 8 0.25ZM12 0.25L12 0.75A0.25 0.25 0 0 0 12.25 1L12.75 1A0.25 0.25 0 0 1 13 1.25L13 1.75A0.25 0.25 0 0 1 12.75 2L12.25 2A0.25 0.25 0 0 0 12 2.25L12 2.75A0.25 0.25 0 0 0 12.25 3L12.75 3A0.25 0.25 0 0 1 13 3.25L13 3.75A0.25 0.25 0 0 0 13.25 4L18.75 4A0.25 0.25 0 0 1 19 4.25L19 4.75A0.25 0.25 0 0 1 18.75 5L18.25 5A0.25 0.25 0 0 0 18 5.25L18 6.75A0.25 0.25 0 0 0 18.25 7L18.75 7A0.25 0.25 0 0 1 19 7.25L19 7.75A0.25 0.25 0 0 1 18.75 8L18.25 8A0.25 0.25 0 0 0 18 8.25L18 8.75A0.25 0.25 0 0 1 17.75 9L17.25 9A0.25 0.25 0 0 1 17 8.75L17 8.25A0.25 0.25 0 0 0 16.75 8L14.25 8A0.25 0.25 0 0 1 14 7.75L14 7.25A0.25 0.25 0 0 1 14.25 7L14.75 7A0.25 0.25 0 0 0 15 6.75L15 5.25A0.25 0.25 0 0 0 14.75 5L13.25 5A0.25 0.25 0 0 0 13 5.25L13 5.75A0.25 0.25 0 0 1 12.75 6L12.25 6A0.25 0.25 0 0 0 12 6.25L12 6.75A0.25 0.25 0 0 1 11.75 7L11.25 7A0.25 0.25 0 0 1 11 6.75L11 5.25A0.25 0.25 0 0 0 10.75 5L8.25 5A0.25 0.25 0 0 0 8 5.25L8 8.75A0.25 0.25 0 0 1 7.75 9L7.25 9A0.25 0.25 0 0 1 7 8.75L7 8.25A0.25 0.25 0 0 0 6.75 8L6.25 8A0.25 0.25 0 0 0 6 8.25L6 8.75A0.25 0.25 0 0 1 5.75 9L5.25 9A0.25 0.25 0 0 1 5 8.75L5 8.25A0.25 0.25 0 0 0 4.75 8L2.25 8A0.25 0.25 0 0 0 2 8.25L2 8.75A0.25 0.25 0 0 1 1.75 9L0.25 9A0.25 0.25 0 0 0 0 9.25L0 9.75A0.25 0.25 0 0 0 0.25 10L1.75 10A0.25 0.25 0 0 1 2 10.25L2 10.75A0.25 0.25 0 0 0 2.25 11L2.75 11A0.25 0.25 0 0 0 3 10.75L3 10.25A0.25 0.25 0 0 1 3.25 10L3.75 10A0.25 0.25 0 0 1 4 10.25L4 11.75A0.25 0.25 0 0 1 3.75 12L2.25 12A0.25 0.25 0 0 0 2 12.25L2 12.75A0.25 0.25 0 0 0 2.25 13L6.75 13A0.25 0.25 0 0 1 7 13.25L7 13.75A0.25 0.25 0 0 1 6.75 14L5.25 14A0.25 0.25 0 0 0 5 14.25L5 14.75A0.25 0.25 0 0 0 5.25 15L6.75 15A0.25 0.25 0 0 1 7 15.25L7 15.75A0.25 0.25 0 0 1 6.75 16L6.25 16A0.25 0.25 0 0 0 6 16.25L6 16.75A0.25 0.25 0 0 0 6.25 17L7.75 17A0.25 0.25 0 0 1 8 17.25L8 17.75A0.25 0.25 0 0 1 7.75 18L6.25 18A0.25 0.25 0 0 0 6 18.25L6 18.75A0.25 0.25 0 0 1 5.75 19L5.25 19A0.25 0.25 0 0 0 5 19.25L5 19.75A0.25 0.25 0 0 1 4.75 20L4.25 20A0.25 0.25 0 0 1 4 19.75L4 19.25A0.25 0.25 0 0 0 3.75 19L3.25 19A0.25 0.25 0 0 1 3 18.75L3 18.25A0.25 0.25 0 0 1 3.25 18L4.75 18A0.25 0.25 0 0 0 5 17.75L5 17.25A0.25 0.25 0 0 0 4.75 17L4.25 17A0.25 0.25 0 0 1 4 16.75L4 15.25A0.25 0.25 0 0 0 3.75 15L3.25 15A0.25 0.25 0 0 1 3 14.75L3 14.25A0.25 0.25 0 0 0 2.75 14L0.25 14A0.25 0.25 0 0 0 0 14.25L0 20.75A0.25 0.25 0 0 0 0.25 21L0.75 21A0.25 0.25 0 0 0 1 20.75L1 17.25A0.25 0.25 0 0 1 1.25 17L1.75 17A0.25 0.25 0 0 1 2 17.25L2 18.75A0.25 0.25 0 0 0 2.25 19L2.75 19A0.25 0.25 0 0 1 3 19.25L3 19.75A0.25 0.25 0 0 1 2.75 20L2.25 20A0.25 0.25 0 0 0 2 20.25L2 20.75A0.25 0.25 0 0 0 2.25 21L4.75 21A0.25 0.25 0 0 0 5 20.75L5 20.25A0.25 0.25 0 0 1 5.25 20L5.75 20A0.25 0.25 0 0 1 6 20.25L6 20.75A0.25 0.25 0 0 0 6.25 21L7.75 21A0.25 0.25 0 0 1 8 21.25L8 21.75A0.25 0.25 0 0 0 8.25 22L8.75 22A0.25 0.25 0 0 1 9 22.25L9 22.75A0.25 0.25 0 0 0 9.25 23L9.75 23A0.25 0.25 0 0 1 10 23.25L10 23.75A0.25 0.25 0 0 1 9.75 24L8.25 24A0.25 0.25 0 0 0 8 24.25L8 26.75A0.25 0.25 0 0 0 8.25 27L8.75 27A0.25 0.25 0 0 0 9 26.75L9 26.25A0.25 0.25 0 0 1 9.25 26L10.75 26A0.25 0.25 0 0 1 11 26.25L11 26.75A0.25 0.25 0 0 1 10.75 27L10.25 27A0.25 0.25 0 0 0 10 27.25L10 27.75A0.25 0.25 0 0 1 9.75 28L9.25 28A0.25 0.25 0 0 0 9 28.25L9 28.75A0.25 0.25 0 0 0 9.25 29L10.75 29A0.25 0.25 0 0 0 11 28.75L11 28.25A0.25 0.25 0 0 1 11.25 28L11.75 28A0.25 0.25 0 0 1 12 28.25L12 28.75A0.25 0.25 0 0 0 12.25 29L12.75 29A0.25 0.25 0 0 0 13 28.75L13 28.25A0.25 0.25 0 0 1 13.25 28L14.75 28A0.25 0.25 0 0 1 15 28.25L15 28.75A0.25 0.25 0 0 0 15.25 29L15.75 29A0.25 0.25 0 0 0 16 28.75L16 28.25A0.25 0.25 0 0 1 16.25 28L16.75 28A0.25 0.25 0 0 0 17 27.75L17 27.25A0.25 0.25 0 0 0 16.75 27L16.25 27A0.25 0.25 0 0 0 16 27.25L16 27.75A0.25 0.25 0 0 1 15.75 28L15.25 28A0.25 0.25 0 0 1 15 27.75L15 25.25A0.25 0.25 0 0 1 15.25 25L15.75 25A0.25 0.25 0 0 1 16 25.25L16 25.75A0.25 0.25 0 0 0 16.25 26L18.75 26A0.25 0.25 0 0 1 19 26.25L19 26.75A0.25 0.25 0 0 1 18.75 27L18.25 27A0.25 0.25 0 0 0 18 27.25L18 27.75A0.25 0.25 0 0 0 18.25 28L18.75 28A0.25 0.25 0 0 0 19 27.75L19 27.25A0.25 0.25 0 0 1 19.25 27L19.75 27A0.25 0.25 0 0 0 20 26.75L20 25.25A0.25 0.25 0 0 1 20.25 25L22.75 25A0.25 0.25 0 0 1 23 25.25L23 25.75A0.25 0.25 0 0 1 22.75 26L21.25 26A0.25 0.25 0 0 0 21 26.25L21 27.75A0.25 0.25 0 0 0 21.25 28L21.75 28A0.25 0.25 0 0 1 22 28.25L22 28.75A0.25 0.25 0 0 0 22.25 29L22.75 29A0.25 0.25 0 0 0 23 28.75L23 28.25A0.25 0.25 0 0 1 23.25 28L23.75 28A0.25 0.25 0 0 1 24 28.25L24 28.75A0.25 0.25 0 0 0 24.25 29L26.75 29A0.25 0.25 0 0 0 27 28.75L27 28.25A0.25 0.25 0 0 1 27.25 28L27.75 28A0.25 0.25 0 0 0 28 27.75L28 26.25A0.25 0.25 0 0 0 27.75 26L24.25 26A0.25 0.25 0 0 1 24 25.75L24 25.25A0.25 0.25 0 0 1 24.25 25L26.75 25A0.25 0.25 0 0 0 27 24.75L27 24.25A0.25 0.25 0 0 1 27.25 24L28.75 24A0.25 0.25 0 0 0 29 23.75L29 23.25A0.25 0.25 0 0 0 28.75 23L28.25 23A0.25 0.25 0 0 1 28 22.75L28 22.25A0.25 0.25 0 0 1 28.25 22L28.75 22A0.25 0.25 0 0 0 29 21.75L29 21.25A0.25 0.25 0 0 0 28.75 21L28.25 21A0.25 0.25 0 0 0 28 21.25L28 21.75A0.25 0.25 0 0 1 27.75 22L26.25 22A0.25 0.25 0 0 0 26 22.25L26 22.75A0.25 0.25 0 0 0 26.25 23L26.75 23A0.25 0.25 0 0 1 27 23.25L27 23.75A0.25 0.25 0 0 1 26.75 24L25.25 24A0.25 0.25 0 0 1 25 23.75L25 20.25A0.25 0.25 0 0 1 25.25 20L25.75 20A0.25 0.25 0 0 1 26 20.25L26 20.75A0.25 0.25 0 0 0 26.25 21L26.75 21A0.25 0.25 0 0 0 27 20.75L27 20.25A0.25 0.25 0 0 1 27.25 20L27.75 20A0.25 0.25 0 0 0 28 19.75L28 18.25A0.25 0.25 0 0 1 28.25 18L28.75 18A0.25 0.25 0 0 0 29 17.75L29 17.25A0.25 0.25 0 0 0 28.75 17L28.25 17A0.25 0.25 0 0 1 28 16.75L28 16.25A0.25 0.25 0 0 1 28.25 16L28.75 16A0.25 0.25 0 0 0 29 15.75L29 15.25A0.25 0.25 0 0 0 28.75 15L28.25 15A0.25 0.25 0 0 0 28 15.25L28 15.75A0.25 0.25 0 0 1 27.75 16L25.25 16A0.25 0.25 0 0 1 25 15.75L25 15.25A0.25 0.25 0 0 1 25.25 15L25.75 15A0.25 0.25 0 0 0 26 14.75L26 14.25A0.25 0.25 0 0 0 25.75 14L25.25 14A0.25 0.25 0 0 1 25 13.75L25 13.25A0.25 0.25 0 0 0 24.75 13L24.25 13A0.25 0.25 0 0 1 24 12.75L24 12.25A0.25 0.25 0 0 1 24.25 12L25.75 12A0.25 0.25 0 0 1 26 12.25L26 12.75A0.25 0.25 0 0 0 26.25 13L26.75 13A0.25 0.25 0 0 1 27 13.25L27 13.75A0.25 0.25 0 0 0 27.25 14L28.75 14A0.25 0.25 0 0 0 29 13.75L29 13.25A0.25 0.25 0 0 0 28.75 13L28.25 13A0.25 0.25 0 0 1 28 12.75L28 12.25A0.25 0.25 0 0 1 28.25 12L28.75 12A0.25 0.25 0 0 0 29 11.75L29 11.25A0.25 0.25 0 0 0 28.75 11L28.25 11A0.25 0.25 0 0 0 28 11.25L28 11.75A0.25 0.25 0 0 1 27.75 12L26.25 12A0.25 0.25 0 0 1 26 11.75L26 11.25A0.25 0.25 0 0 1 26.25 11L26.75 11A0.25 0.25 0 0 0 27 10.75L27 10.25A0.25 0.25 0 0 1 27.25 10L28.75 10A0.25 0.25 0 0 0 29 9.75L29 8.25A0.25 0.25 0 0 0 28.75 8L26.25 8A0.25 0.25 0 0 0 26 8.25L26 8.75A0.25 0.25 0 0 0 26.25 9L26.75 9A0.25 0.25 0 0 1 27 9.25L27 9.75A0.25 0.25 0 0 1 26.75 10L26.25 10A0.25 0.25 0 0 0 26 10.25L26 10.75A0.25 0.25 0 0 1 25.75 11L23.25 11A0.25 0.25 0 0 0 23 11.25L23 12.75A0.25 0.25 0 0 1 22.75 13L22.25 13A0.25 0.25 0 0 1 22 12.75L22 12.25A0.25 0.25 0 0 0 21.75 12L20.25 12A0.25 0.25 0 0 0 20 12.25L20 12.75A0.25 0.25 0 0 1 19.75 13L17.25 13A0.25 0.25 0 0 1 17 12.75L17 12.25A0.25 0.25 0 0 0 16.75 12L16.25 12A0.25 0.25 0 0 0 16 12.25L16 12.75A0.25 0.25 0 0 0 16.25 13L16.75 13A0.25 0.25 0 0 1 17 13.25L17 14.75A0.25 0.25 0 0 1 16.75 15L16.25 15A0.25 0.25 0 0 1 16 14.75L16 14.25A0.25 0.25 0 0 0 15.75 14L13.25 14A0.25 0.25 0 0 1 13 13.75L13 13.25A0.25 0.25 0 0 0 12.75 13L11.25 13A0.25 0.25 0 0 1 11 12.75L11 12.25A0.25 0.25 0 0 1 11.25 12L11.75 12A0.25 0.25 0 0 0 12 11.75L12 11.25A0.25 0.25 0 0 1 12.25 11L12.75 11A0.25 0.25 0 0 0 13 10.75L13 10.25A0.25 0.25 0 0 1 13.25 10L13.75 10A0.25 0.25 0 0 1 14 10.25L14 12.75A0.25 0.25 0 0 0 14.25 13L14.75 13A0.25 0.25 0 0 0 15 12.75L15 11.25A0.25 0.25 0 0 1 15.25 11L15.75 11A0.25 0.25 0 0 0 16 10.75L16 9.25A0.25 0.25 0 0 1 16.25 9L16.75 9A0.25 0.25 0 0 1 17 9.25L17 9.75A0.25 0.25 0 0 0 17.25 10L17.75 10A0.25 0.25 0 0 0 18 9.75L18 9.25A0.25 0.25 0 0 1 18.25 9L18.75 9A0.25 0.25 0 0 0 19 8.75L19 8.25A0.25 0.25 0 0 1 19.25 8L19.75 8A0.25 0.25 0 0 1 20 8.25L20 8.75A0.25 0.25 0 0 0 20.25 9L20.75 9A0.25 0.25 0 0 1 21 9.25L21 9.75A0.25 0.25 0 0 1 20.75 10L20.25 10A0.25 0.25 0 0 0 20 10.25L20 10.75A0.25 0.25 0 0 0 20.25 11L20.75 11A0.25 0.25 0 0 0 21 10.75L21 10.25A0.25 0.25 0 0 1 21.25 10L24.75 10A0.25 0.25 0 0 0 25 9.75L25 9.25A0.25 0.25 0 0 0 24.75 9L24.25 9A0.25 0.25 0 0 1 24 8.75L24 8.25A0.25 0.25 0 0 0 23.75 8L20.25 8A0.25 0.25 0 0 1 20 7.75L20 7.25A0.25 0.25 0 0 1 20.25 7L20.75 7A0.25 0.25 0 0 0 21 6.75L21 5.25A0.25 0.25 0 0 0 20.75 5L20.25 5A0.25 0.25 0 0 1 20 4.75L20 4.25A0.25 0.25 0 0 1 20.25 4L20.75 4A0.25 0.25 0 0 0 21 3.75L21 2.25A0.25 0.25 0 0 0 20.75 2L20.25 2A0.25 0.25 0 0 1 20 1.75L20 1.25A0.25 0.25 0 0 1 20.25 1L20.75 1A0.25 0.25 0 0 0 21 0.75L21 0.25A0.25 0.25 0 0 0 20.75 0L20.25 0A0.25 0.25 0 0 0 20 0.25L20 0.75A0.25 0.25 0 0 1 19.75 1L19.25 1A0.25 0.25 0 0 1 19 0.75L19 0.25A0.25 0.25 0 0 0 18.75 0L18.25 0A0.25 0.25 0 0 0 18 0.25L18 0.75A0.25 0.25 0 0 1 17.75 1L17.25 1A0.25 0.25 0 0 1 17 0.75L17 0.25A0.25 0.25 0 0 0 16.75 0L15.25 0A0.25 0.25 0 0 0 15 0.25L15 0.75A0.25 0.25 0 0 1 14.75 1L14.25 1A0.25 0.25 0 0 1 14 0.75L14 0.25A0.25 0.25 0 0 0 13.75 0L12.25 0A0.25 0.25 0 0 0 12 0.25ZM16 1.25L16 2.75A0.25 0.25 0 0 0 16.25 3L17.75 3A0.25 0.25 0 0 0 18 2.75L18 2.25A0.25 0.25 0 0 0 17.75 2L17.25 2A0.25 0.25 0 0 1 17 1.75L17 1.25A0.25 0.25 0 0 0 16.75 1L16.25 1A0.25 0.25 0 0 0 16 1.25ZM9 2.25L9 2.75A0.25 0.25 0 0 0 9.25 3L9.75 3A0.25 0.25 0 0 0 10 2.75L10 2.25A0.25 0.25 0 0 0 9.75 2L9.25 2A0.25 0.25 0 0 0 9 2.25ZM13 2.25L13 2.75A0.25 0.25 0 0 0 13.25 3L14.75 3A0.25 0.25 0 0 0 15 2.75L15 2.25A0.25 0.25 0 0 0 14.75 2L13.25 2A0.25 0.25 0 0 0 13 2.25ZM16 5.25L16 6.75A0.25 0.25 0 0 0 16.25 7L16.75 7A0.25 0.25 0 0 0 17 6.75L17 5.25A0.25 0.25 0 0 0 16.75 5L16.25 5A0.25 0.25 0 0 0 16 5.25ZM19 5.25L19 6.75A0.25 0.25 0 0 0 19.25 7L19.75 7A0.25 0.25 0 0 0 20 6.75L20 5.25A0.25 0.25 0 0 0 19.75 5L19.25 5A0.25 0.25 0 0 0 19 5.25ZM9 6.25L9 7.75A0.25 0.25 0 0 0 9.25 8L9.75 8A0.25 0.25 0 0 1 10 8.25L10 8.75A0.25 0.25 0 0 0 10.25 9L10.75 9A0.25 0.25 0 0 0 11 8.75L11 8.25A0.25 0.25 0 0 0 10.75 8L10.25 8A0.25 0.25 0 0 1 10 7.75L10 6.25A0.25 0.25 0 0 0 9.75 6L9.25 6A0.25 0.25 0 0 0 9 6.25ZM13 6.25L13 6.75A0.25 0.25 0 0 0 13.25 7L13.75 7A0.25 0.25 0 0 0 14 6.75L14 6.25A0.25 0.25 0 0 0 13.75 6L13.25 6A0.25 0.25 0 0 0 13 6.25ZM12 8.25L12 8.75A0.25 0.25 0 0 0 12.25 9L13.75 9A0.25 0.25 0 0 1 14 9.25L14 9.75A0.25 0.25 0 0 0 14.25 10L14.75 10A0.25 0.25 0 0 0 15 9.75L15 9.25A0.25 0.25 0 0 0 14.75 9L14.25 9A0.25 0.25 0 0 1 14 8.75L14 8.25A0.25 0.25 0 0 0 13.75 8L12.25 8A0.25 0.25 0 0 0 12 8.25ZM6 9.25L6 9.75A0.25 0.25 0 0 1 5.75 10L5.25 10A0.25 0.25 0 0 0 5 10.25L5 11.75A0.25 0.25 0 0 0 5.25 12L6.75 12A0.25 0.25 0 0 1 7 12.25L7 12.75A0.25 0.25 0 0 0 7.25 13L7.75 13A0.25 0.25 0 0 1 8 13.25L8 13.75A0.25 0.25 0 0 0 8.25 14L8.75 14A0.25 0.25 0 0 0 9 13.75L9 13.25A0.25 0.25 0 0 1 9.25 13L9.75 13A0.25 0.25 0 0 1 10 13.25L10 15.75A0.25 0.25 0 0 1 9.75 16L8.25 16A0.25 0.25 0 0 0 8 16.25L8 16.75A0.25 0.25 0 0 0 8.25 17L9.75 17A0.25 0.25 0 0 1 10 17.25L10 17.75A0.25 0.25 0 0 1 9.75 18L8.25 18A0.25 0.25 0 0 0 8 18.25L8 18.75A0.25 0.25 0 0 0 8.25 19L10.75 19A0.25 0.25 0 0 0 11 18.75L11 18.25A0.25 0.25 0 0 1 11.25 18L11.75 18A0.25 0.25 0 0 0 12 17.75L12 17.25A0.25 0.25 0 0 0 11.75 17L10.25 17A0.25 0.25 0 0 1 10 16.75L10 16.25A0.25 0.25 0 0 1 10.25 16L10.75 16A0.25 0.25 0 0 0 11 15.75L11 13.25A0.25 0.25 0 0 0 10.75 13L10.25 13A0.25 0.25 0 0 1 10 12.75L10 12.25A0.25 0.25 0 0 0 9.75 12L8.25 12A0.25 0.25 0 0 1 8 11.75L8 10.25A0.25 0.25 0 0 1 8.25 10L8.75 10A0.25 0.25 0 0 0 9 9.75L9 9.25A0.25 0.25 0 0 0 8.75 9L8.25 9A0.25 0.25 0 0 0 8 9.25L8 9.75A0.25 0.25 0 0 1 7.75 10L7.25 10A0.25 0.25 0 0 1 7 9.75L7 9.25A0.25 0.25 0 0 0 6.75 9L6.25 9A0.25 0.25 0 0 0 6 9.25ZM6 10.25L6 10.75A0.25 0.25 0 0 0 6.25 11L6.75 11A0.25 0.25 0 0 0 7 10.75L7 10.25A0.25 0.25 0 0 0 6.75 10L6.25 10A0.25 0.25 0 0 0 6 10.25ZM10 10.25L10 10.75A0.25 0.25 0 0 0 10.25 11L11.75 11A0.25 0.25 0 0 0 12 10.75L12 10.25A0.25 0.25 0 0 0 11.75 10L10.25 10A0.25 0.25 0 0 0 10 10.25ZM0 11.25L0 12.75A0.25 0.25 0 0 0 0.25 13L0.75 13A0.25 0.25 0 0 0 1 12.75L1 11.25A0.25 0.25 0 0 0 0.75 11L0.25 11A0.25 0.25 0 0 0 0 11.25ZM18 11.25L18 11.75A0.25 0.25 0 0 0 18.25 12L18.75 12A0.25 0.25 0 0 0 19 11.75L19 11.25A0.25 0.25 0 0 0 18.75 11L18.25 11A0.25 0.25 0 0 0 18 11.25ZM20 13.25L20 13.75A0.25 0.25 0 0 1 19.75 14L18.25 14A0.25 0.25 0 0 0 18 14.25L18 15.75A0.25 0.25 0 0 0 18.25 16L18.75 16A0.25 0.25 0 0 1 19 16.25L19 17.75A0.25 0.25 0 0 0 19.25 18L19.75 18A0.25 0.25 0 0 1 20 18.25L20 18.75A0.25 0.25 0 0 0 20.25 19L21.75 19A0.25 0.25 0 0 1 22 19.25L22 19.75A0.25 0.25 0 0 0 22.25 20L23.75 20A0.25 0.25 0 0 0 24 19.75L24 19.25A0.25 0.25 0 0 0 23.75 19L23.25 19A0.25 0.25 0 0 1 23 18.75L23 18.25A0.25 0.25 0 0 1 23.25 18L23.75 18A0.25 0.25 0 0 0 24 17.75L24 17.25A0.25 0.25 0 0 1 24.25 17L24.75 17A0.25 0.25 0 0 0 25 16.75L25 16.25A0.25 0.25 0 0 0 24.75 16L24.25 16A0.25 0.25 0 0 1 24 15.75L24 15.25A0.25 0.25 0 0 1 24.25 15L24.75 15A0.25 0.25 0 0 0 25 14.75L25 14.25A0.25 0.25 0 0 0 24.75 14L24.25 14A0.25 0.25 0 0 1 24 13.75L24 13.25A0.25 0.25 0 0 0 23.75 13L23.25 13A0.25 0.25 0 0 0 23 13.25L23 13.75A0.25 0.25 0 0 1 22.75 14L22.25 14A0.25 0.25 0 0 1 22 13.75L22 13.25A0.25 0.25 0 0 0 21.75 13L20.25 13A0.25 0.25 0 0 0 20 13.25ZM21 14.25L21 14.75A0.25 0.25 0 0 1 20.75 15L20.25 15A0.25 0.25 0 0 0 20 15.25L20 15.75A0.25 0.25 0 0 0 20.25 16L20.75 16A0.25 0.25 0 0 1 21 16.25L21 16.75A0.25 0.25 0 0 1 20.75 17L20.25 17A0.25 0.25 0 0 0 20 17.25L20 17.75A0.25 0.25 0 0 0 20.25 18L20.75 18A0.25 0.25 0 0 0 21 17.75L21 17.25A0.25 0.25 0 0 1 21.25 17L21.75 17A0.25 0.25 0 0 1 22 17.25L22 17.75A0.25 0.25 0 0 0 22.25 18L22.75 18A0.25 0.25 0 0 0 23 17.75L23 17.25A0.25 0.25 0 0 1 23.25 17L23.75 17A0.25 0.25 0 0 0 24 16.75L24 16.25A0.25 0.25 0 0 0 23.75 16L23.25 16A0.25 0.25 0 0 0 23 16.25L23 16.75A0.25 0.25 0 0 1 22.75 17L22.25 17A0.25 0.25 0 0 1 22 16.75L22 16.25A0.25 0.25 0 0 0 21.75 16L21.25 16A0.25 0.25 0 0 1 21 15.75L21 15.25A0.25 0.25 0 0 1 21.25 15L21.75 15A0.25 0.25 0 0 0 22 14.75L22 14.25A0.25 0.25 0 0 0 21.75 14L21.25 14A0.25 0.25 0 0 0 21 14.25ZM23 14.25L23 14.75A0.25 0.25 0 0 0 23.25 15L23.75 15A0.25 0.25 0 0 0 24 14.75L24 14.25A0.25 0.25 0 0 0 23.75 14L23.25 14A0.25 0.25 0 0 0 23 14.25ZM2 15.25L2 15.75A0.25 0.25 0 0 0 2.25 16L2.75 16A0.25 0.25 0 0 0 3 15.75L3 15.25A0.25 0.25 0 0 0 2.75 15L2.25 15A0.25 0.25 0 0 0 2 15.25ZM14 16.25L14 16.75A0.25 0.25 0 0 1 13.75 17L13.25 17A0.25 0.25 0 0 0 13 17.25L13 17.75A0.25 0.25 0 0 0 13.25 18L13.75 18A0.25 0.25 0 0 1 14 18.25L14 19.75A0.25 0.25 0 0 1 13.75 20L13.25 20A0.25 0.25 0 0 0 13 20.25L13 20.75A0.25 0.25 0 0 0 13.25 21L13.75 21A0.25 0.25 0 0 0 14 20.75L14 20.25A0.25 0.25 0 0 1 14.25 20L14.75 20A0.25 0.25 0 0 1 15 20.25L15 22.75A0.25 0.25 0 0 1 14.75 23L14.25 23A0.25 0.25 0 0 1 14 22.75L14 22.25A0.25 0.25 0 0 0 13.75 22L12.25 22A0.25 0.25 0 0 0 12 22.25L12 22.75A0.25 0.25 0 0 1 11.75 23L11.25 23A0.25 0.25 0 0 1 11 22.75L11 22.25A0.25 0.25 0 0 0 10.75 22L10.25 22A0.25 0.25 0 0 0 10 22.25L10 22.75A0.25 0.25 0 0 0 10.25 23L10.75 23A0.25 0.25 0 0 1 11 23.25L11 23.75A0.25 0.25 0 0 1 10.75 24L10.25 24A0.25 0.25 0 0 0 10 24.25L10 24.75A0.25 0.25 0 0 0 10.25 25L11.75 25A0.25 0.25 0 0 0 12 24.75L12 24.25A0.25 0.25 0 0 1 12.25 24L12.75 24A0.25 0.25 0 0 1 13 24.25L13 25.75A0.25 0.25 0 0 1 12.75 26L12.25 26A0.25 0.25 0 0 0 12 26.25L12 27.75A0.25 0.25 0 0 0 12.25 28L12.75 28A0.25 0.25 0 0 0 13 27.75L13 26.25A0.25 0.25 0 0 1 13.25 26L13.75 26A0.25 0.25 0 0 0 14 25.75L14 25.25A0.25 0.25 0 0 1 14.25 25L14.75 25A0.25 0.25 0 0 0 15 24.75L15 23.25A0.25 0.25 0 0 1 15.25 23L16.75 23A0.25 0.25 0 0 1 17 23.25L17 23.75A0.25 0.25 0 0 0 17.25 24L17.75 24A0.25 0.25 0 0 1 18 24.25L18 24.75A0.25 0.25 0 0 0 18.25 25L19.75 25A0.25 0.25 0 0 0 20 24.75L20 23.25A0.25 0.25 0 0 0 19.75 23L17.25 23A0.25 0.25 0 0 1 17 22.75L17 22.25A0.25 0.25 0 0 1 17.25 22L18.75 22A0.25 0.25 0 0 0 19 21.75L19 21.25A0.25 0.25 0 0 0 18.75 21L17.25 21A0.25 0.25 0 0 1 17 20.75L17 18.25A0.25 0.25 0 0 1 17.25 18L17.75 18A0.25 0.25 0 0 0 18 17.75L18 17.25A0.25 0.25 0 0 0 17.75 17L17.25 17A0.25 0.25 0 0 1 17 16.75L17 16.25A0.25 0.25 0 0 0 16.75 16L16.25 16A0.25 0.25 0 0 0 16 16.25L16 16.75A0.25 0.25 0 0 0 16.25 17L16.75 17A0.25 0.25 0 0 1 17 17.25L17 17.75A0.25 0.25 0 0 1 16.75 18L16.25 18A0.25 0.25 0 0 0 16 18.25L16 19.75A0.25 0.25 0 0 1 15.75 20L15.25 20A0.25 0.25 0 0 1 15 19.75L15 18.25A0.25 0.25 0 0 0 14.75 18L14.25 18A0.25 0.25 0 0 1 14 17.75L14 17.25A0.25 0.25 0 0 1 14.25 17L14.75 17A0.25 0.25 0 0 0 15 16.75L15 16.25A0.25 0.25 0 0 0 14.75 16L14.25 16A0.25 0.25 0 0 0 14 16.25ZM26 17.25L26 17.75A0.25 0.25 0 0 1 25.75 18L25.25 18A0.25 0.25 0 0 0 25 18.25L25 18.75A0.25 0.25 0 0 0 25.25 19L25.75 19A0.25 0.25 0 0 1 26 19.25L26 19.75A0.25 0.25 0 0 0 26.25 20L26.75 20A0.25 0.25 0 0 0 27 19.75L27 18.25A0.25 0.25 0 0 1 27.25 18L27.75 18A0.25 0.25 0 0 0 28 17.75L28 17.25A0.25 0.25 0 0 0 27.75 17L26.25 17A0.25 0.25 0 0 0 26 17.25ZM6 19.25L6 19.75A0.25 0.25 0 0 0 6.25 20L6.75 20A0.25 0.25 0 0 0 7 19.75L7 19.25A0.25 0.25 0 0 0 6.75 19L6.25 19A0.25 0.25 0 0 0 6 19.25ZM18 19.25L18 19.75A0.25 0.25 0 0 0 18.25 20L18.75 20A0.25 0.25 0 0 0 19 19.75L19 19.25A0.25 0.25 0 0 0 18.75 19L18.25 19A0.25 0.25 0 0 0 18 19.25ZM8 20.25L8 20.75A0.25 0.25 0 0 0 8.25 21L10.75 21A0.25 0.25 0 0 0 11 20.75L11 20.25A0.25 0.25 0 0 0 10.75 20L8.25 20A0.25 0.25 0 0 0 8 20.25ZM21 21.25L21 23.75A0.25 0.25 0 0 0 21.25 24L23.75 24A0.25 0.25 0 0 0 24 23.75L24 21.25A0.25 0.25 0 0 0 23.75 21L21.25 21A0.25 0.25 0 0 0 21 21.25ZM22 22.25L22 22.75A0.25 0.25 0 0 0 22.25 23L22.75 23A0.25 0.25 0 0 0 23 22.75L23 22.25A0.25 0.25 0 0 0 22.75 22L22.25 22A0.25 0.25 0 0 0 22 22.25ZM13 23.25L13 23.75A0.25 0.25 0 0 0 13.25 24L13.75 24A0.25 0.25 0 0 0 14 23.75L14 23.25A0.25 0.25 0 0 0 13.75 23L13.25 23A0.25 0.25 0 0 0 13 23.25ZM23 26.25L23 26.75A0.25 0.25 0 0 1 22.75 27L22.25 27A0.25 0.25 0 0 0 22 27.25L22 27.75A0.25 0.25 0 0 0 22.25 28L22.75 28A0.25 0.25 0 0 0 23 27.75L23 27.25A0.25 0.25 0 0 1 23.25 27L23.75 27A0.25 0.25 0 0 1 24 27.25L24 27.75A0.25 0.25 0 0 0 24.25 28L26.75 28A0.25 0.25 0 0 0 27 27.75L27 27.25A0.25 0.25 0 0 0 26.75 27L24.25 27A0.25 0.25 0 0 1 24 26.75L24 26.25A0.25 0.25 0 0 0 23.75 26L23.25 26A0.25 0.25 0 0 0 23 26.25ZM0 0.25L0 6.75A0.25 0.25 0 0 0 0.25 7L6.75 7A0.25 0.25 0 0 0 7 6.75L7 0.25A0.25 0.25 0 0 0 6.75 0L0.25 0A0.25 0.25 0 0 0 0 0.25ZM1 1.25L1 5.75A0.25 0.25 0 0 0 1.25 6L5.75 6A0.25 0.25 0 0 0 6 5.75L6 1.25A0.25 0.25 0 0 0 5.75 1L1.25 1A0.25 0.25 0 0 0 1 1.25ZM2 2.25L2 4.75A0.25 0.25 0 0 0 2.25 5L4.75 5A0.25 0.25 0 0 0 5 4.75L5 2.25A0.25 0.25 0 0 0 4.75 2L2.25 2A0.25 0.25 0 0 0 2 2.25ZM22 0.25L22 6.75A0.25 0.25 0 0 0 22.25 7L28.75 7A0.25 0.25 0 0 0 29 6.75L29 0.25A0.25 0.25 0 0 0 28.75 0L22.25 0A0.25 0.25 0 0 0 22 0.25ZM23 1.25L23 5.75A0.25 0.25 0 0 0 23.25 6L27.75 6A0.25 0.25 0 0 0 28 5.75L28 1.25A0.25 0.25 0 0 0 27.75 1L23.25 1A0.25 0.25 0 0 0 23 1.25ZM24 2.25L24 4.75A0.25 0.25 0 0 0 24.25 5L26.75 5A0.25 0.25 0 0 0 27 4.75L27 2.25A0.25 0.25 0 0 0 26.75 2L24.25 2A0.25 0.25 0 0 0 24 2.25ZM0 22.25L0 28.75A0.25 0.25 0 0 0 0.25 29L6.75 29A0.25 0.25 0 0 0 7 28.75L7 22.25A0.25 0.25 0 0 0 6.75 22L0.25 22A0.25 0.25 0 0 0 0 22.25ZM1 23.25L1 27.75A0.25 0.25 0 0 0 1.25 28L5.75 28A0.25 0.25 0 0 0 6 27.75L6 23.25A0.25 0.25 0 0 0 5.75 23L1.25 23A0.25 0.25 0 0 0 1 23.25ZM2 24.25L2 26.75A0.25 0.25 0 0 0 2.25 27L4.75 27A0.25 0.25 0 0 0 5 26.75L5 24.25A0.25 0.25 0 0 0 4.75 24L2.25 24A0.25 0.25 0 0 0 2 24.25Z" fill="#000000"/></g></g></svg>
