<?xml version="1.0" encoding="UTF-8"?>
<svg xmlns="http://www.w3.org/2000/svg" version="1.1" width="200" height="200" viewBox="0 0 200 200"><rect x="0" y="0" width="200" height="200" fill="#ffffff"/><g transform="scale(6.897)"><g transform="translate(0,0)"><path fill-rule="evenodd" d="M9 0.25L9 1.75A0.25 0.25 0 0 1 8.75 2L8.25 2A0.25 0.25 0 0 0 8 2.25L8 3.75A0.25 0.25 0 0 0 8.25 4L9.75 4A0.25 0.25 0 0 1 10 4.25L10 4.75A0.25 0.25 0 0 1 9.75 5L9.25 5A0.25 0.25 0 0 0 9 5.25L9 5.75A0.25 0.25 0 0 1 8.75 6L8.25 6A0.25 0.25 0 0 0 8 6.25L8 6.75A0.25 0.25 0 0 0 8.25 7L8.75 7A0.25 0.25 0 0 1 9 7.25L9 8.75A0.25 0.25 0 0 0 9.25 9L9.75 9A0.25 0.25 0 0 1 10 9.25L10 9.75A0.25 0.25 0 0 0 10.25 10L10.75 10A0.25 0.25 0 0 1 11 10.25L11 10.75A0.25 0.25 0 0 0 11.25 11L11.75 11A0.25 0.25 0 0 1 12 11.25L12 11.75A0.25 0.25 0 0 0 12.25 12L13.75 12A0.25 0.25 0 0 1 14 12.25L14 12.75A0.25 0.25 0 0 1 13.75 13L11.25 13A0.25 0.25 0 0 1 11 12.75L11 12.25A0.25 0.25 0 0 0 10.75 12L10.25 12A0.25 0.25 0 0 0 10 12.25L10 13.75A0.25 0.25 0 0 0 10.25 14L10.75 14A0.25 0.25 0 0 1 11 14.25L11 14.75A0.25 0.25 0 0 1 10.75 15L8.25 15A0.25 0.25 0 0 1 8 14.75L8 14.25A0.25 0.25 0 0 0 7.75 14L6.25 14A0.25 0.25 0 0 0 6 14.25L6 14.75A0.25 0.25 0 0 0 6.25 15L7.75 15A0.25 0.25 0 0 1 8 15.25L8 15.75A0.25 0.25 0 0 1 7.75 16L5.25 16A0.25 0.25 0 0 1 5 15.75L5 13.25A0.25 0.25 0 0 1 5.25 13L7.75 13A0.25 0.25 0 0 0 8 12.75L8 12.25A0.25 0.25 0 0 1 8.25 12L8.75 12A0.25 0.25 0 0 0 9 11.75L9 11.25A0.25 0.25 0 0 0 8.75 11L8.25 11A0.25 0.25 0 0 0 8 11.25L8 11.75A0.25 0.25 0 0 1 7.75 12L6.25 12A0.25 0.25 0 0 1 6 11.75L6 11.25A0.25 0.25 0 0 1 6.25 11L6.75 11A0.25 0.25 0 0 0 7 10.75L7 10.25A0.25 0.25 0 0 1 7.25 10L7.75 10A0.25 0.25 0 0 0 8 9.75L8 8.25A0.25 0.25 0 0 0 7.75 8L6.25 8A0.25 0.25 0 0 0 6 8.25L6 8.75A0.25 0.25 0 0 0 6.25 9L6.75 9A0.25 0.25 0 0 1 7 9.25L7 9.75A0.25 0.25 0 0 1 6.75 10L6.25 10A0.25 0.25 0 0 0 6 10.25L6 10.75A0.25 0.25 0 0 1 5.75 11L5.25 11A0.25 0.25 0 0 0 5 11.25L5 11.75A0.25 0.25 0 0 1 4.75 12L4.25 12A0.25 0.25 0 0 1 4 11.75L4 11.25A0.25 0.25 0 0 0 3.75 11L3.25 11A0.25 0.25 0 0 1 3 10.75L3 10.25A0.25 0.25 0 0 0 2.75 10L2.25 10A0.25 0.25 0 0 1 2 9.75L2 9.25A0.25 0.25 0 0 0 1.75 9L1.25 9A0.25 0.25 0 0 0 1 9.25L1 9.75A0.25 0.25 0 0 1 0.75 10L0.25 10A0.25 0.25 0 0 0 0 10.25L0 12.75A0.25 0.25 0 0 0 0.25 13L0.75 13A0.25 0.25 0 0 0 1 12.75L1 12.25A0.25 0.25 0 0 1 1.25 12L1.75 12A0.25 0.25 0 0 0 2 11.75L2 11.25A0.25 0.25 0 0 1 2.25 11L2.75 11A0.25 0.25 0 0 1 3 11.25L3 13.75A0.25 0.25 0 0 0 3.25 14L3.75 14A0.25 0.25 0 0 1 4 14.25L4 14.75A0.25 0.25 0 0 1 3.75 15L3.25 15A0.25 0.25 0 0 0 3 15.25L3 15.75A0.25 0.25 0 0 1 2.75 16L2.25 16A0.25 0.25 0 0 1 2 15.75L2 14.25A0.25 0.25 0 0 0 1.75 14L1.25 14A0.25 0.25 0 0 0 1 14.25L1 15.75A0.25 0.25 0 0 0 1.25 16L1.75 16A0.25 0.25 0 0 1 2 16.25L2 16.75A0.25 0.25 0 0 1 1.75 17L0.25 17A0.25 0.25 0 0 0 0 17.25L0 20.75A0.25 0.25 0 0 0 0.25 21L1.75 21A0.25 0.25 0 0 0 2 20.75L2 19.25A0.25 0.25 0 0 1 2.25 19L2.75 19A0.25 0.25 0 0 1 3 19.25L3 19.75A0.25 0.25 0 0 0 3.25 20L3.75 20A0.25 0.25 0 0 0 4 19.75L4 19.25A0.25 0.25 0 0 1 4.25 19L4.75 19A0.25 0.25 0 0 1 5 19.25L5 19.75A0.25 0.25 0 0 0 5.25 20L5.75 20A0.25 0.25 0 0 1 6 20.25L6 20.75A0.25 0.25 0 0 0 6.25 21L6.75 21A0.25 0.25 0 0 0 7 20.75L7 20.25A0.25 0.25 0 0 1 7.25 20L7.75 20A0.25 0.25 0 0 1 8 20.25L8 22.75A0.25 0.25 0 0 0 8.25 23L9.75 23A0.25 0.25 0 0 1 10 23.25L10 24.75A0.25 0.25 0 0 1 9.75 25L9.25 25A0.25 0.25 0 0 1 9 24.75L9 24.25A0.25 0.25 0 0 0 8.75 24L8.25 24A0.25 0.25 0 0 0 8 24.25L8 25.75A0.25 0.25 0 0 0 8.25 26L9.75 26A0.25 0.25 0 0 0 10 25.75L10 25.25A0.25 0.25 0 0 1 10.25 25L10.75 25A0.25 0.25 0 0 1 11 25.25L11 27.75A0.25 0.25 0 0 1 10.75 28L10.25 28A0.25 0.25 0 0 0 10 28.25L10 28.75A0.25 0.25 0 0 0 10.25 29L11.75 29A0.25 0.25 0 0 0 12 28.75L12 26.25A0.25 0.25 0 0 1 12.25 26L13.75 26A0.25 0.25 0 0 1 14 26.25L14 26.75A0.25 0.25 0 0 1 13.75 27L13.25 27A0.25 0.25 0 0 0 13 27.25L13 27.75A0.25 0.25 0 0 0 13.25 28L13.75 28A0.25 0.25 0 0 0 14 27.75L14 27.25A0.25 0.25 0 0 1 14.25 27L14.75 27A0.25 0.25 0 0 0 15 26.75L15 26.25A0.25 0.25 0 0 1 15.25 26L15.75 26A0.25 0.25 0 0 1 16 26.25L16 26.75A0.25 0.25 0 0 0 16.25 27L17.75 27A0.25 0.25 0 0 1 18 27.25L18 27.75A0.25 0.25 0 0 1 17.75 28L17.25 28A0.25 0.25 0 0 0 17 28.25L17 28.75A0.25 0.25 0 0 0 17.25 29L18.75 29A0.25 0.25 0 0 0 19 28.75L19 27.25A0.25 0.25 0 0 1 19.25 27L19.75 27A0.25 0.25 0 0 1 20 27.25L20 28.75A0.25 0.25 0 0 0 20.25 29L21.75 29A0.25 0.25 0 0 0 22 28.75L22 28.25A0.25 0.25 0 0 1 22.25 28L22.75 28A0.25 0.25 0 0 0 23 27.75L23 27.25A0.25 0.25 0 0 0 22.75 27L20.25 27A0.25 0.25 0 0 1 20 26.75L20 25.25A0.25 0.25 0 0 1 20.25 25L22.75 25A0.25 0.25 0 0 1 23 25.25L23 25.75A0.25 0.25 0 0 0 23.25 26L23.75 26A0.25 0.25 0 0 1 24 26.25L24 26.75A0.25 0.25 0 0 0 24.25 27L24.75 27A0.25 0.25 0 0 0 25 26.75L25 26.25A0.25 0.25 0 0 1 25.25 26L25.75 26A0.25 0.25 0 0 1 26 26.25L26 27.75A0.25 0.25 0 0 1 25.75 28L24.25 28A0.25 0.25 0 0 0 24 28.25L24 28.75A0.25 0.25 0 0 0 24.25 29L25.75 29A0.25 0.25 0 0 0 26 28.75L26 28.25A0.25 0.25 0 0 1 26.25 28L26.75 28A0.25 0.25 0 0 0 27 27.75L27 27.25A0.25 0.25 0 0 1 27.25 27L27.75 27A0.25 0.25 0 0 1 28 27.25L28 27.75A0.25 0.25 0 0 0 28.25 28L28.75 28A0.25 0.25 0 0 0 29 27.75L29 26.25A0.25 0.25 0 0 0 28.75 26L28.25 26A0.25 0.25 0 0 1 28 25.75L28 25.25A0.25 0.25 0 0 1 28.25 25L28.75 25A0.25 0.25 0 0 0 29 24.75L29 23.25A0.25 0.25 0 0 0 28.75 23L28.25 23A0.25 0.25 0 0 1 28 22.75L28 21.25A0.25 0.25 0 0 1 28.25 21L28.75 21A0.25 0.25 0 0 0 29 20.75L29 20.25A0.25 0.25 0 0 0 28.75 20L28.25 20A0.25 0.25 0 0 0 28 20.25L28 20.75A0.25 0.25 0 0 1 27.75 21L27.25 21A0.25 0.25 0 0 1 27 20.75L27 19.25A0.25 0.25 0 0 0 26.75 19L26.25 19A0.25 0.25 0 0 1 26 18.75L26 16.25A0.25 0.25 0 0 1 26.25 16L26.75 16A0.25 0.25 0 0 1 27 16.25L27 16.75A0.25 0.25 0 0 0 27.25 17L27.75 17A0.25 0.25 0 0 0 28 16.75L28 16.25A0.25 0.25 0 0 1 28.25 16L28.75 16A0.25 0.25 0 0 0 29 15.75L29 11.25A0.25 0.25 0 0 0 28.75 11L28.25 11A0.25 0.25 0 0 1 28 10.75L28 9.25A0.25 0.25 0 0 0 27.75 9L27.25 9A0.25 0.25 0 0 1 27 8.75L27 8.25A0.25 0.25 0 0 0 26.75 8L25.25 8A0.25 0.25 0 0 0 25 8.25L25 8.75A0.25 0.25 0 0 1 24.75 9L24.25 9A0.25 0.25 0 0 0 24 9.25L24 9.75A0.25 0.25 0 0 1 23.75 10L23.25 10A0.25 0.25 0 0 0 23 10.25L23 10.75A0.25 0.25 0 0 0 23.25 11L23.75 11A0.25 0.25 0 0 1 24 11.25L24 11.75A0.25 0.25 0 0 0 24.25 12L24.75 12A0.25 0.25 0 0 1 25 12.25L25 12.75A0.25 0.25 0 0 1 24.75 13L24.25 13A0.25 0.25 0 0 0 24 13.25L24 14.75A0.25 0.25 0 0 1 23.75 15L23.25 15A0.25 0.25 0 0 1 23 14.75L23 12.25A0.25 0.25 0 0 0 22.75 12L22.25 12A0.25 0.25 0 0 1 22 11.75L22 9.25A0.25 0.25 0 0 0 21.75 9L21.25 9A0.25 0.25 0 0 1 21 8.75L21 6.25A0.25 0.25 0 0 0 20.75 6L20.25 6A0.25 0.25 0 0 0 20 6.25L20 6.75A0.25 0.25 0 0 1 19.75 7L19.25 7A0.25 0.25 0 0 1 19 6.75L19 5.25A0.25 0.25 0 0 1 19.25 5L20.75 5A0.25 0.25 0 0 0 21 4.75L21 4.25A0.25 0.25 0 0 0 20.75 4L20.25 4A0.25 0.25 0 0 1 20 3.75L20 3.25A0.25 0.25 0 0 1 20.25 3L20.75 3A0.25 0.25 0 0 0 21 2.75L21 1.25A0.25 0.25 0 0 0 20.75 1L20.25 1A0.25 0.25 0 0 1 20 0.75L20 0.25A0.25 0.25 0 0 0 19.75 0L14.25 0A0.25 0.25 0 0 0 14 0.25L14 0.75A0.25 0.25 0 0 0 14.25 1L15.75 1A0.25 0.25 0 0 1 16 1.25L16 1.75A0.25 0.25 0 0 1 15.75 2L15.25 2A0.25 0.25 0 0 0 15 2.25L15 2.75A0.25 0.25 0 0 0 15.25 3L15.75 3A0.25 0.25 0 0 0 16 2.75L16 2.25A0.25 0.25 0 0 1 16.25 2L16.75 2A0.25 0.25 0 0 0 17 1.75L17 1.25A0.25 0.25 0 0 1 17.25 1L17.75 1A0.25 0.25 0 0 1 18 1.25L18 2.75A0.25 0.25 0 0 1 17.75 3L17.25 3A0.25 0.25 0 0 0 17 3.25L17 4.75A0.25 0.25 0 0 1 16.75 5L16.25 5A0.25 0.25 0 0 0 16 5.25L16 6.75A0.25 0.25 0 0 1 15.75 7L15.25 7A0.25 0.25 0 0 1 15 6.75L15 6.25A0.25 0.25 0 0 0 14.75 6L14.25 6A0.25 0.25 0 0 1 14 5.75L14 5.25A0.25 0.25 0 0 0 13.75 5L13.25 5A0.25 0.25 0 0 1 13 4.75L13 4.25A0.25 0.25 0 0 1 13.25 4L13.75 4A0.25 0.25 0 0 0 14 3.75L14 3.25A0.25 0.25 0 0 0 13.75 3L9.25 3A0.25 0.25 0 0 1 9 2.75L9 2.25A0.25 0.25 0 0 1 9.25 2L10.75 2A0.25 0.25 0 0 0 11 1.75L11 1.25A0.25 0.25 0 0 1 11.25 1L11.75 1A0.25 0.25 0 0 1 12 1.25L12 1.75A0.25 0.25 0 0 0 12.25 2L12.75 2A0.25 0.25 0 0 0 13 1.75L13 0.25A0.25 0.25 0 0 0 12.75 0L11.25 0A0.25 0.25 0 0 0 11 0.25L11 0.75A0.25 0.25 0 0 1 10.75 1L10.25 1A0.25 0.25 0 0 1 10 0.75L10 0.25A0.25 0.25 0 0 0 9.75 0L9.25 0A0.25 0.25 0 0 0 9 0.25ZM19 1.25L19 2.75A0.25 0.25 0 0 0 19.25 3L19.75 3A0.25 0.25 0 0 0 20 2.75L20 1.25A0.25 0.25 0 0 0 19.75 1L19.25 1A0.25 0.25 0 0 0 19 1.25ZM18 4.25L18 4.75A0.25 0.25 0 0 0 18.25 5L18.75 5A0.25 0.25 0 0 0 19 4.75L19 4.25A0.25 0.25 0 0 0 18.75 4L18.25 4A0.25 0.25 0 0 0 18 4.25ZM11 5.25L11 6.75A0.25 0.25 0 0 0 11.25 7L11.75 7A0.25 0.25 0 0 1 12 7.25L12 9.75A0.25 0.25 0 0 0 12.25 10L13.75 10A0.25 0.25 0 0 0 14 9.75L14 9.25A0.25 0.25 0 0 1 14.25 9L14.75 9A0.25 0.25 0 0 1 15 9.25L15 9.75A0.25 0.25 0 0 0 15.25 10L16.75 10A0.25 0.25 0 0 1 17 10.25L17 10.75A0.25 0.25 0 0 0 17.25 11L17.75 11A0.25 0.25 0 0 1 18 11.25L18 11.75A0.25 0.25 0 0 1 17.75 12L16.25 12A0.25 0.25 0 0 1 16 11.75L16 11.25A0.25 0.25 0 0 0 15.75 11L14.25 11A0.25 0.25 0 0 0 14 11.25L14 11.75A0.25 0.25 0 0 0 14.25 12L14.75 12A0.25 0.25 0 0 1 15 12.25L15 12.75A0.25 0.25 0 0 0 15.25 13L16.75 13A0.25 0.25 0 0 1 17 13.25L17 14.75A0.25 0.25 0 0 1 16.75 15L16.25 15A0.25 0.25 0 0 1 16 14.75L16 14.25A0.25 0.25 0 0 0 15.75 14L12.25 14A0.25 0.25 0 0 0 12 14.25L12 14.75A0.25 0.25 0 0 1 11.75 15L11.25 15A0.25 0.25 0 0 0 11 15.25L11 15.75A0.25 0.25 0 0 1 10.75 16L9.25 16A0.25 0.25 0 0 0 9 16.25L9 17.75A0.25 0.25 0 0 0 9.25 18L9.75 18A0.25 0.25 0 0 1 10 18.25L10 18.75A0.25 0.25 0 0 1 9.75 19L9.25 19A0.25 0.25 0 0 0 9 19.25L9 21.75A0.25 0.25 0 0 0 9.25 22L9.75 22A0.25 0.25 0 0 1 10 22.25L10 22.75A0.25 0.25 0 0 0 10.25 23L10.75 23A0.25 0.25 0 0 1 11 23.25L11 23.75A0.25 0.25 0 0 0 11.25 24L13.75 24A0.25 0.25 0 0 1 14 24.25L14 24.75A0.25 0.25 0 0 0 14.25 25L14.75 25A0.25 0.25 0 0 0 15 24.75L15 24.25A0.25 0.25 0 0 1 15.25 24L15.75 24A0.25 0.25 0 0 1 16 24.25L16 24.75A0.25 0.25 0 0 0 16.25 25L16.75 25A0.25 0.25 0 0 0 17 24.75L17 24.25A0.25 0.25 0 0 1 17.25 24L17.75 24A0.25 0.25 0 0 0 18 23.75L18 21.25A0.25 0.25 0 0 0 17.75 21L17.25 21A0.25 0.25 0 0 1 17 20.75L17 20.25A0.25 0.25 0 0 0 16.75 20L16.25 20A0.25 0.25 0 0 1 16 19.75L16 19.25A0.25 0.25 0 0 0 15.75 19L15.25 19A0.25 0.25 0 0 1 15 18.75L15 18.25A0.25 0.25 0 0 0 14.75 18L14.25 18A0.25 0.25 0 0 0 14 18.25L14 18.75A0.25 0.25 0 0 1 13.75 19L13.25 19A0.25 0.25 0 0 1 13 18.75L13 17.25A0.25 0.25 0 0 1 13.25 17L14.75 17A0.25 0.25 0 0 0 15 16.75L15 16.25A0.25 0.25 0 0 0 14.75 16L14.25 16A0.25 0.25 0 0 1 14 15.75L14 15.25A0.25 0.25 0 0 1 14.25 15L15.75 15A0.25 0.25 0 0 1 16 15.25L16 15.75A0.25 0.25 0 0 0 16.25 16L16.75 16A0.25 0.25 0 0 1 17 16.25L17 16.75A0.25 0.25 0 0 0 17.25 17L17.75 17A0.25 0.25 0 0 0 18 16.75L18 16.25A0.25 0.25 0 0 1 18.25 16L18.75 16A0.25 0.25 0 0 1 19 16.25L19 18.75A0.25 0.25 0 0 1 18.75 19L18.25 19A0.25 0.25 0 0 0 18 19.25L18 19.75A0.25 0.25 0 0 0 18.25 20L18.75 20A0.25 0.25 0 0 1 19 20.25L19 20.75A0.25 0.25 0 0 0 19.25 21L19.75 21A0.25 0.25 0 0 0 20 20.75L20 20.25A0.25 0.25 0 0 1 20.25 20L20.75 20A0.25 0.25 0 0 0 21 19.75L21 19.25A0.25 0.25 0 0 0 20.75 19L20.25 19A0.25 0.25 0 0 1 20 18.75L20 16.25A0.25 0.25 0 0 0 19.75 16L19.25 16A0.25 0.25 0 0 1 19 15.75L19 14.25A0.25 0.25 0 0 1 19.25 14L19.75 14A0.25 0.25 0 0 1 20 14.25L20 14.75A0.25 0.25 0 0 0 20.25 15L21.75 15A0.25 0.25 0 0 0 22 14.75L22 12.25A0.25 0.25 0 0 0 21.75 12L21.25 12A0.25 0.25 0 0 1 21 11.75L21 10.25A0.25 0.25 0 0 0 20.75 10L20.25 10A0.25 0.25 0 0 1 20 9.75L20 8.25A0.25 0.25 0 0 0 19.75 8L19.25 8A0.25 0.25 0 0 1 19 7.75L19 7.25A0.25 0.25 0 0 0 18.75 7L18.25 7A0.25 0.25 0 0 1 18 6.75L18 6.25A0.25 0.25 0 0 0 17.75 6L17.25 6A0.25 0.25 0 0 0 17 6.25L17 6.75A0.25 0.25 0 0 1 16.75 7L16.25 7A0.25 0.25 0 0 0 16 7.25L16 7.75A0.25 0.25 0 0 1 15.75 8L15.25 8A0.25 0.25 0 0 1 15 7.75L15 7.25A0.25 0.25 0 0 0 14.75 7L14.25 7A0.25 0.25 0 0 1 14 6.75L14 6.25A0.25 0.25 0 0 0 13.75 6L13.25 6A0.25 0.25 0 0 1 13 5.75L13 5.25A0.25 0.25 0 0 0 12.75 5L11.25 5A0.25 0.25 0 0 0 11 5.25ZM9 6.25L9 6.75A0.25 0.25 0 0 0 9.25 7L9.75 7A0.25 0.25 0 0 0 10 6.75L10 6.25A0.25 0.25 0 0 0 9.75 6L9.25 6A0.25 0.25 0 0 0 9 6.25ZM12 6.25L12 6.75A0.25 0.25 0 0 0 12.25 7L12.75 7A0.25 0.25 0 0 0 13 6.75L13 6.25A0.25 0.25 0 0 0 12.75 6L12.25 6A0.25 0.25 0 0 0 12 6.25ZM3 8.25L3 8.75A0.25 0.25 0 0 0 3.25 9L4.75 9A0.25 0.25 0 0 0 5 8.75L5 8.25A0.25 0.25 0 0 0 4.75 8L3.25 8A0.25 0.25 0 0 0 3 8.25ZM10 8.25L10 8.75A0.25 0.25 0 0 0 10.25 9L10.75 9A0.25 0.25 0 0 0 11 8.75L11 8.25A0.25 0.25 0 0 0 10.75 8L10.25 8A0.25 0.25 0 0 0 10 8.25ZM13 8.25L13 8.75A0.25 0.25 0 0 0 13.25 9L13.75 9A0.25 0.25 0 0 0 14 8.75L14 8.25A0.25 0.25 0 0 0 13.75 8L13.25 8A0.25 0.25 0 0 0 13 8.25ZM16 8.25L16 8.75A0.25 0.25 0 0 0 16.25 9L16.75 9A0.25 0.25 0 0 0 17 8.75L17 8.25A0.25 0.25 0 0 0 16.75 8L16.25 8A0.25 0.25 0 0 0 16 8.25ZM18 8.25L18 8.75A0.25 0.25 0 0 0 18.25 9L18.75 9A0.25 0.25 0 0 0 19 8.75L19 8.25A0.25 0.25 0 0 0 18.75 8L18.25 8A0.25 0.25 0 0 0 18 8.25ZM25 9.25L25 10.75A0.25 0.25 0 0 0 25.25 11L25.75 11A0.25 0.25 0 0 1 26 11.25L26 12.75A0.25 0.25 0 0 1 25.75 13L25.25 13A0.25 0.25 0 0 0 25 13.25L25 13.75A0.25 0.25 0 0 0 25.25 14L25.75 14A0.25 0.25 0 0 0 26 13.75L26 13.25A0.25 0.25 0 0 1 26.25 13L26.75 13A0.25 0.25 0 0 1 27 13.25L27 15.75A0.25 0.25 0 0 0 27.25 16L27.75 16A0.25 0.25 0 0 0 28 15.75L28 11.25A0.25 0.25 0 0 0 27.75 11L27.25 11A0.25 0.25 0 0 1 27 10.75L27 10.25A0.25 0.25 0 0 0 26.75 10L26.25 10A0.25 0.25 0 0 1 26 9.75L26 9.25A0.25 0.25 0 0 0 25.75 9L25.25 9A0.25 0.25 0 0 0 25 9.25ZM1 10.25L1 10.75A0.25 0.25 0 0 0 1.25 11L1.75 11A0.25 0.25 0 0 0 2 10.75L2 10.25A0.25 0.25 0 0 0 1.75 10L1.25 10A0.25 0.25 0 0 0 1 10.25ZM19 12.25L19 12.75A0.25 0.25 0 0 0 19.25 13L19.75 13A0.25 0.25 0 0 1 20 13.25L20 13.75A0.25 0.25 0 0 0 20.25 14L20.75 14A0.25 0.25 0 0 0 21 13.75L21 13.25A0.25 0.25 0 0 0 20.75 13L20.25 13A0.25 0.25 0 0 1 20 12.75L20 12.25A0.25 0.25 0 0 0 19.75 12L19.25 12A0.25 0.25 0 0 0 19 12.25ZM17 15.25L17 15.75A0.25 0.25 0 0 0 17.25 16L17.75 16A0.25 0.25 0 0 0 18 15.75L18 15.25A0.25 0.25 0 0 0 17.75 15L17.25 15A0.25 0.25 0 0 0 17 15.25ZM25 15.25L25 15.75A0.25 0.25 0 0 1 24.75 16L24.25 16A0.25 0.25 0 0 0 24 16.25L24 16.75A0.25 0.25 0 0 1 23.75 17L23.25 17A0.25 0.25 0 0 1 23 16.75L23 16.25A0.25 0.25 0 0 0 22.75 16L21.25 16A0.25 0.25 0 0 0 21 16.25L21 17.75A0.25 0.25 0 0 0 21.25 18L22.75 18A0.25 0.25 0 0 1 23 18.25L23 18.75A0.25 0.25 0 0 1 22.75 19L22.25 19A0.25 0.25 0 0 0 22 19.25L22 19.75A0.25 0.25 0 0 0 22.25 20L22.75 20A0.25 0.25 0 0 0 23 19.75L23 19.25A0.25 0.25 0 0 1 23.25 19L23.75 19A0.25 0.25 0 0 0 24 18.75L24 17.25A0.25 0.25 0 0 1 24.25 17L24.75 17A0.25 0.25 0 0 0 25 16.75L25 16.25A0.25 0.25 0 0 1 25.25 16L25.75 16A0.25 0.25 0 0 0 26 15.75L26 15.25A0.25 0.25 0 0 0 25.75 15L25.25 15A0.25 0.25 0 0 0 25 15.25ZM3 16.25L3 16.75A0.25 0.25 0 0 0 3.25 17L3.75 17A0.25 0.25 0 0 1 4 17.25L4 17.75A0.25 0.25 0 0 0 4.25 18L4.75 18A0.25 0.25 0 0 1 5 18.25L5 18.75A0.25 0.25 0 0 0 5.25 19L5.75 19A0.25 0.25 0 0 1 6 19.25L6 19.75A0.25 0.25 0 0 0 6.25 20L6.75 20A0.25 0.25 0 0 0 7 19.75L7 19.25A0.25 0.25 0 0 0 6.75 19L6.25 19A0.25 0.25 0 0 1 6 18.75L6 18.25A0.25 0.25 0 0 1 6.25 18L6.75 18A0.25 0.25 0 0 0 7 17.75L7 17.25A0.25 0.25 0 0 0 6.75 17L6.25 17A0.25 0.25 0 0 0 6 17.25L6 17.75A0.25 0.25 0 0 1 5.75 18L5.25 18A0.25 0.25 0 0 1 5 17.75L5 16.25A0.25 0.25 0 0 0 4.75 16L3.25 16A0.25 0.25 0 0 0 3 16.25ZM10 17.25L10 17.75A0.25 0.25 0 0 0 10.25 18L10.75 18A0.25 0.25 0 0 1 11 18.25L11 19.75A0.25 0.25 0 0 1 10.75 20L10.25 20A0.25 0.25 0 0 0 10 20.25L10 20.75A0.25 0.25 0 0 0 10.25 21L10.75 21A0.25 0.25 0 0 0 11 20.75L11 20.25A0.25 0.25 0 0 1 11.25 20L11.75 20A0.25 0.25 0 0 1 12 20.25L12 20.75A0.25 0.25 0 0 0 12.25 21L12.75 21A0.25 0.25 0 0 1 13 21.25L13 22.75A0.25 0.25 0 0 0 13.25 23L14.75 23A0.25 0.25 0 0 0 15 22.75L15 21.25A0.25 0.25 0 0 1 15.25 21L15.75 21A0.25 0.25 0 0 0 16 20.75L16 20.25A0.25 0.25 0 0 0 15.75 20L15.25 20A0.25 0.25 0 0 1 15 19.75L15 19.25A0.25 0.25 0 0 0 14.75 19L14.25 19A0.25 0.25 0 0 0 14 19.25L14 19.75A0.25 0.25 0 0 1 13.75 20L12.25 20A0.25 0.25 0 0 1 12 19.75L12 17.25A0.25 0.25 0 0 0 11.75 17L10.25 17A0.25 0.25 0 0 0 10 17.25ZM28 18.25L28 18.75A0.25 0.25 0 0 0 28.25 19L28.75 19A0.25 0.25 0 0 0 29 18.75L29 18.25A0.25 0.25 0 0 0 28.75 18L28.25 18A0.25 0.25 0 0 0 28 18.25ZM25 20.25L25 22.75A0.25 0.25 0 0 0 25.25 23L25.75 23A0.25 0.25 0 0 1 26 23.25L26 24.75A0.25 0.25 0 0 0 26.25 25L26.75 25A0.25 0.25 0 0 0 27 24.75L27 23.25A0.25 0.25 0 0 0 26.75 23L26.25 23A0.25 0.25 0 0 1 26 22.75L26 20.25A0.25 0.25 0 0 0 25.75 20L25.25 20A0.25 0.25 0 0 0 25 20.25ZM21 21.25L21 23.75A0.25 0.25 0 0 0 21.25 24L23.75 24A0.25 0.25 0 0 0 24 23.75L24 21.25A0.25 0.25 0 0 0 23.75 21L21.25 21A0.25 0.25 0 0 0 21 21.25ZM22 22.25L22 22.75A0.25 0.25 0 0 0 22.25 23L22.75 23A0.25 0.25 0 0 0 23 22.75L23 22.25A0.25 0.25 0 0 0 22.75 22L22.25 22A0.25 0.25 0 0 0 22 22.25ZM19 23.25L19 23.75A0.25 0.25 0 0 0 19.25 24L19.75 24A0.25 0.25 0 0 0 20 23.75L20 23.25A0.25 0.25 0 0 0 19.75 23L19.25 23A0.25 0.25 0 0 0 19 23.25ZM18 25.25L18 26.75A0.25 0.25 0 0 0 18.25 27L18.75 27A0.25 0.25 0 0 0 19 26.75L19 25.25A0.25 0.25 0 0 0 18.75 25L18.25 25A0.25 0.25 0 0 0 18 25.25ZM24 25.25L24 25.75A0.25 0.25 0 0 0 24.25 26L24.75 26A0.25 0.25 0 0 0 25 25.75L25 25.25A0.25 0.25 0 0 0 24.75 25L24.25 25A0.25 0.25 0 0 0 24 25.25ZM0 0.25L0 6.75A0.25 0.25 0 0 0 0.25 7L6.75 7A0.25 0.25 0 0 0 7 6.75L7 0.25A0.25 0.25 0 0 0 6.75 0L0.25 0A0.25 0.25 0 0 0 0 0.25ZM1 1.25L1 5.75A0.25 0.25 0 0 0 1.25 6L5.75 6A0.25 0.25 0 0 0 6 5.75L6 1.25A0.25 0.25 0 0 0 5.75 1L1.25 1A0.25 0.25 0 0 0 1 1.25ZM2 2.25L2 4.75A0.25 0.25 0 0 0 2.25 5L4.75 5A0.25 0.25 0 0 0 5 4.75L5 2.25A0.25 0.25 0 0 0 4.75 2L2.25 2A0.25 0.25 0 0 0 2 2.25ZM22 0.25L22 6.75A0.25 0.25 0 0 0 22.25 7L28.75 7A0.25 0.25 0 0 0 29 6.75L29 0.25A0.25 0.25 0 0 0 28.75 0L22.25 0A0.25 0.25 0 0 0 22 0.25ZM23 1.25L23 5.75A0.25 0.25 0 0 0 23.25 6L27.75 6A0.25 0.25 0 0 0 28 5.75L28 1.25A0.25 0.25 0 0 0 27.75 1L23.25 1A0.25 0.25 0 0 0 23 1.25ZM24 2.25L24 4.75A0.25 0.25 0 0 0 24.25 5L26.75 5A0.25 0.25 0 0 0 27 4.75L27 2.25A0.25 0.25 0 0 0 26.75 2L24.25 2A0.25 0.25 0 0 0 24 2.25ZM0 22.25L0 28.75A0.25 0.25 0 0 0 0.25 29L6.75 29A0.25 0.25 0 0 0 7 28.75L7 22.25A0.25 0.25 0 0 0 6.75 22L0.25 22A0.25 0.25 0 0 0 0 22.25ZM1 23.25L1 27.75A0.25 0.25 0 0 0 1.25 28L5.75 28A0.25 0.25 0 0 0 6 27.75L6 23.25A0.25 0.25 0 0 0 5.75 23L1.25 23A0.25 0.25 0 0 0 1 23.25ZM2 24.25L2 26.75A0.25 0.25 0 0 0 2.25 27L4.75 27A0.25 0.25 0 0 0 5 26.75L5 24.25A0.25 0.25 0 0 0 4.75 24L2.25 24A0.25 0.25 0 0 0 2 24.25Z" fill="#000000"/></g></g></svg>
