<?xml version="1.0" encoding="UTF-8"?>
<svg xmlns="http://www.w3.org/2000/svg" version="1.1" width="200" height="200" viewBox="0 0 200 200"><rect x="0" y="0" width="200" height="200" fill="#ffffff"/><g transform="scale(6.897)"><g transform="translate(0,0)"><path fill-rule="evenodd" d="M11 0.25L11 1.75A0.25 0.25 0 0 0 11.25 2L11.75 2A0.25 0.25 0 0 0 12 1.75L12 1.25A0.25 0.25 0 0 1 12.25 1L12.75 1A0.25 0.25 0 0 0 13 0.75L13 0.25A0.25 0.25 0 0 0 12.75 0L11.25 0A0.25 0.25 0 0 0 11 0.25ZM14 0.25L14 0.75A0.25 0.25 0 0 0 14.25 1L14.75 1A0.25 0.25 0 0 0 15 0.75L15 0.25A0.25 0.25 0 0 0 14.75 0L14.25 0A0.25 0.25 0 0 0 14 0.25ZM16 0.25L16 0.75A0.25 0.25 0 0 0 16.25 1L19.75 1A0.25 0.25 0 0 1 20 1.25L20 2.75A0.25 0.25 0 0 1 19.75 3L19.25 3A0.25 0.25 0 0 0 19 3.25L19 3.75A0.25 0.25 0 0 1 18.75 4L18.25 4A0.25 0.25 0 0 1 18 3.75L18 3.25A0.25 0.25 0 0 0 17.75 3L17.25 3A0.25 0.25 0 0 1 17 2.75L17 2.25A0.25 0.25 0 0 0 16.75 2L16.25 2A0.25 0.25 0 0 0 16 2.25L16 3.75A0.25 0.25 0 0 0 16.25 4L16.75 4A0.25 0.25 0 0 1 17 4.25L17 5.75A0.25 0.25 0 0 1 16.75 6L16.25 6A0.25 0.25 0 0 0 16 6.25L16 6.75A0.25 0.25 0 0 1 15.75 7L15.25 7A0.25 0.25 0 0 1 15 6.75L15 6.25A0.25 0.25 0 0 0 14.75 6L14.25 6A0.25 0.25 0 0 1 14 5.75L14 5.25A0.25 0.25 0 0 1 14.25 5L14.75 5A0.25 0.25 0 0 0 15 4.75L15 4.25A0.25 0.25 0 0 0 14.75 4L14.25 4A0.25 0.25 0 0 0 14 4.25L14 4.75A0.25 0.25 0 0 1 13.75 5L13.25 5A0.25 0.25 0 0 1 13 4.75L13 4.25A0.25 0.25 0 0 0 12.75 4L12.25 4A0.25 0.25 0 0 1 12 3.75L12 3.25A0.25 0.25 0 0 0 11.75 3L10.25 3A0.25 0.25 0 0 1 10 2.75L10 1.25A0.25 0.25 0 0 0 9.75 1L9.25 1A0.25 0.25 0 0 0 9 1.25L9 1.75A0.25 0.25 0 0 1 8.75 2L8.25 2A0.25 0.25 0 0 0 8 2.25L8 3.75A0.25 0.25 0 0 0 8.25 4L8.75 4A0.25 0.25 0 0 1 9 4.25L9 5.75A0.25 0.25 0 0 1 8.75 6L8.25 6A0.25 0.25 0 0 0 8 6.25L8 6.75A0.25 0.25 0 0 0 8.25 7L8.75 7A0.25 0.25 0 0 1 9 7.25L9 8.75A0.25 0.25 0 0 1 8.75 9L8.25 9A0.25 0.25 0 0 1 8 8.75L8 8.25A0.25 0.25 0 0 0 7.75 8L6.25 8A0.25 0.25 0 0 0 6 8.25L6 8.75A0.25 0.25 0 0 1 5.75 9L5.25 9A0.25 0.25 0 0 1 5 8.75L5 8.25A0.25 0.25 0 0 0 4.75 8L3.25 8A0.25 0.25 0 0 0 3 8.25L3 8.75A0.25 0.25 0 0 0 3.25 9L3.75 9A0.25 0.25 0 0 1 4 9.25L4 9.75A0.25 0.25 0 0 1 3.75 10L2.25 10A0.25 0.25 0 0 0 2 10.25L2 10.75A0.25 0.25 0 0 0 2.25 11L2.75 11A0.25 0.25 0 0 1 3 11.25L3 11.75A0.25 0.25 0 0 0 3.25 12L3.75 12A0.25 0.25 0 0 1 4 12.25L4 12.75A0.25 0.25 0 0 1 3.75 13L2.25 13A0.25 0.25 0 0 1 2 12.75L2 12.25A0.25 0.25 0 0 0 1.75 12L1.25 12A0.25 0.25 0 0 0 1 12.25L1 12.75A0.25 0.25 0 0 1 0.75 13L0.25 13A0.25 0.25 0 0 0 0 13.25L0 13.75A0.25 0.25 0 0 0 0.25 14L0.75 14A0.25 0.25 0 0 1 1 14.25L1 14.75A0.25 0.25 0 0 1 0.75 15L0.25 15A0.25 0.25 0 0 0 0 15.25L0 20.75A0.25 0.25 0 0 0 0.25 21L3.75 21A0.25 0.25 0 0 0 4 20.75L4 20.25A0.25 0.25 0 0 0 3.75 20L2.25 20A0.25 0.25 0 0 1 2 19.75L2 19.25A0.25 0.25 0 0 1 2.25 19L4.75 19A0.25 0.25 0 0 1 5 19.25L5 20.75A0.25 0.25 0 0 0 5.25 21L7.75 21A0.25 0.25 0 0 1 8 21.25L8 22.75A0.25 0.25 0 0 0 8.25 23L10.75 23A0.25 0.25 0 0 0 11 22.75L11 22.25A0.25 0.25 0 0 1 11.25 22L11.75 22A0.25 0.25 0 0 1 12 22.25L12 23.75A0.25 0.25 0 0 1 11.75 24L8.25 24A0.25 0.25 0 0 0 8 24.25L8 25.75A0.25 0.25 0 0 0 8.25 26L8.75 26A0.25 0.25 0 0 1 9 26.25L9 26.75A0.25 0.25 0 0 0 9.25 27L9.75 27A0.25 0.25 0 0 1 10 27.25L10 27.75A0.25 0.25 0 0 1 9.75 28L9.25 28A0.25 0.25 0 0 0 9 28.25L9 28.75A0.25 0.25 0 0 0 9.25 29L9.75 29A0.25 0.25 0 0 0 10 28.75L10 28.25A0.25 0.25 0 0 1 10.25 28L10.75 28A0.25 0.25 0 0 1 11 28.25L11 28.75A0.25 0.25 0 0 0 11.25 29L11.75 29A0.25 0.25 0 0 0 12 28.75L12 27.25A0.25 0.25 0 0 0 11.75 27L11.25 27A0.25 0.25 0 0 1 11 26.75L11 25.25A0.25 0.25 0 0 1 11.25 25L11.75 25A0.25 0.25 0 0 0 12 24.75L12 24.25A0.25 0.25 0 0 1 12.25 24L12.75 24A0.25 0.25 0 0 1 13 24.25L13 24.75A0.25 0.25 0 0 0 13.25 25L13.75 25A0.25 0.25 0 0 1 14 25.25L14 25.75A0.25 0.25 0 0 0 14.25 26L14.75 26A0.25 0.25 0 0 1 15 26.25L15 26.75A0.25 0.25 0 0 1 14.75 27L13.25 27A0.25 0.25 0 0 0 13 27.25L13 28.75A0.25 0.25 0 0 0 13.25 29L13.75 29A0.25 0.25 0 0 0 14 28.75L14 28.25A0.25 0.25 0 0 1 14.25 28L15.75 28A0.25 0.25 0 0 1 16 28.25L16 28.75A0.25 0.25 0 0 0 16.25 29L16.75 29A0.25 0.25 0 0 0 17 28.75L17 27.25A0.25 0.25 0 0 1 17.25 27L17.75 27A0.25 0.25 0 0 1 18 27.25L18 28.75A0.25 0.25 0 0 0 18.25 29L18.75 29A0.25 0.25 0 0 0 19 28.75L19 25.25A0.25 0.25 0 0 1 19.25 25L19.75 25A0.25 0.25 0 0 1 20 25.25L20 25.75A0.25 0.25 0 0 0 20.25 26L20.75 26A0.25 0.25 0 0 1 21 26.25L21 26.75A0.25 0.25 0 0 1 20.75 27L20.25 27A0.25 0.25 0 0 0 20 27.25L20 28.75A0.25 0.25 0 0 0 20.25 29L21.75 29A0.25 0.25 0 0 0 22 28.75L22 28.25A0.25 0.25 0 0 1 22.25 28L22.75 28A0.25 0.25 0 0 1 23 28.25L23 28.75A0.25 0.25 0 0 0 23.25 29L25.75 29A0.25 0.25 0 0 0 26 28.75L26 28.25A0.25 0.25 0 0 1 26.25 28L26.75 28A0.25 0.25 0 0 0 27 27.75L27 27.25A0.25 0.25 0 0 1 27.25 27L27.75 27A0.25 0.25 0 0 1 28 27.25L28 27.75A0.25 0.25 0 0 0 28.25 28L28.75 28A0.25 0.25 0 0 0 29 27.75L29 26.25A0.25 0.25 0 0 0 28.75 26L28.25 26A0.25 0.25 0 0 1 28 25.75L28 25.25A0.25 0.25 0 0 1 28.25 25L28.75 25A0.25 0.25 0 0 0 29 24.75L29 23.25A0.25 0.25 0 0 0 28.75 23L27.25 23A0.25 0.25 0 0 1 27 22.75L27 19.25A0.25 0.25 0 0 1 27.25 19L28.75 19A0.25 0.25 0 0 0 29 18.75L29 18.25A0.25 0.25 0 0 0 28.75 18L28.25 18A0.25 0.25 0 0 1 28 17.75L28 15.25A0.25 0.25 0 0 1 28.25 15L28.75 15A0.25 0.25 0 0 0 29 14.75L29 12.25A0.25 0.25 0 0 0 28.75 12L27.25 12A0.25 0.25 0 0 0 27 12.25L27 12.75A0.25 0.25 0 0 1 26.75 13L24.25 13A0.25 0.25 0 0 0 24 13.25L24 13.75A0.25 0.25 0 0 0 24.25 14L25.75 14A0.25 0.25 0 0 1 26 14.25L26 15.75A0.25 0.25 0 0 1 25.75 16L25.25 16A0.25 0.25 0 0 1 25 15.75L25 15.25A0.25 0.25 0 0 0 24.75 15L23.25 15A0.25 0.25 0 0 1 23 14.75L23 12.25A0.25 0.25 0 0 1 23.25 12L23.75 12A0.25 0.25 0 0 0 24 11.75L24 11.25A0.25 0.25 0 0 1 24.25 11L24.75 11A0.25 0.25 0 0 0 25 10.75L25 9.25A0.25 0.25 0 0 1 25.25 9L25.75 9A0.25 0.25 0 0 1 26 9.25L26 9.75A0.25 0.25 0 0 0 26.25 10L26.75 10A0.25 0.25 0 0 1 27 10.25L27 10.75A0.25 0.25 0 0 0 27.25 11L27.75 11A0.25 0.25 0 0 0 28 10.75L28 9.25A0.25 0.25 0 0 0 27.75 9L27.25 9A0.25 0.25 0 0 1 27 8.75L27 8.25A0.25 0.25 0 0 0 26.75 8L25.25 8A0.25 0.25 0 0 0 25 8.25L25 8.75A0.25 0.25 0 0 1 24.75 9L24.25 9A0.25 0.25 0 0 0 24 9.25L24 10.75A0.25 0.25 0 0 1 23.75 11L23.25 11A0.25 0.25 0 0 1 23 10.75L23 10.25A0.25 0.25 0 0 0 22.75 10L22.25 10A0.25 0.25 0 0 1 22 9.75L22 9.25A0.25 0.25 0 0 0 21.75 9L21.25 9A0.25 0.25 0 0 1 21 8.75L21 5.25A0.25 0.25 0 0 0 20.75 5L20.25 5A0.25 0.25 0 0 1 20 4.75L20 4.25A0.25 0.25 0 0 1 20.25 4L20.75 4A0.25 0.25 0 0 0 21 3.75L21 1.25A0.25 0.25 0 0 0 20.75 1L20.25 1A0.25 0.25 0 0 1 20 0.75L20 0.25A0.25 0.25 0 0 0 19.75 0L16.25 0A0.25 0.25 0 0 0 16 0.25ZM13 2.25L13 2.75A0.25 0.25 0 0 0 13.25 3L13.75 3A0.25 0.25 0 0 0 14 2.75L14 2.25A0.25 0.25 0 0 0 13.75 2L13.25 2A0.25 0.25 0 0 0 13 2.25ZM10 5.25L10 5.75A0.25 0.25 0 0 1 9.75 6L9.25 6A0.25 0.25 0 0 0 9 6.25L9 6.75A0.25 0.25 0 0 0 9.25 7L9.75 7A0.25 0.25 0 0 1 10 7.25L10 7.75A0.25 0.25 0 0 0 10.25 8L10.75 8A0.25 0.25 0 0 0 11 7.75L11 7.25A0.25 0.25 0 0 1 11.25 7L11.75 7A0.25 0.25 0 0 1 12 7.25L12 7.75A0.25 0.25 0 0 0 12.25 8L12.75 8A0.25 0.25 0 0 1 13 8.25L13 8.75A0.25 0.25 0 0 1 12.75 9L9.25 9A0.25 0.25 0 0 0 9 9.25L9 9.75A0.25 0.25 0 0 1 8.75 10L8.25 10A0.25 0.25 0 0 0 8 10.25L8 10.75A0.25 0.25 0 0 1 7.75 11L6.25 11A0.25 0.25 0 0 1 6 10.75L6 10.25A0.25 0.25 0 0 1 6.25 10L6.75 10A0.25 0.25 0 0 0 7 9.75L7 9.25A0.25 0.25 0 0 0 6.75 9L6.25 9A0.25 0.25 0 0 0 6 9.25L6 9.75A0.25 0.25 0 0 1 5.75 10L5.25 10A0.25 0.25 0 0 0 5 10.25L5 10.75A0.25 0.25 0 0 1 4.75 11L4.25 11A0.25 0.25 0 0 0 4 11.25L4 11.75A0.25 0.25 0 0 0 4.25 12L4.75 12A0.25 0.25 0 0 1 5 12.25L5 12.75A0.25 0.25 0 0 1 4.75 13L4.25 13A0.25 0.25 0 0 0 4 13.25L4 13.75A0.25 0.25 0 0 0 4.25 14L4.75 14A0.25 0.25 0 0 0 5 13.75L5 13.25A0.25 0.25 0 0 1 5.25 13L5.75 13A0.25 0.25 0 0 1 6 13.25L6 13.75A0.25 0.25 0 0 0 6.25 14L6.75 14A0.25 0.25 0 0 1 7 14.25L7 14.75A0.25 0.25 0 0 1 6.75 15L3.25 15A0.25 0.25 0 0 1 3 14.75L3 14.25A0.25 0.25 0 0 0 2.75 14L2.25 14A0.25 0.25 0 0 1 2 13.75L2 13.25A0.25 0.25 0 0 0 1.75 13L1.25 13A0.25 0.25 0 0 0 1 13.25L1 13.75A0.25 0.25 0 0 0 1.25 14L1.75 14A0.25 0.25 0 0 1 2 14.25L2 14.75A0.25 0.25 0 0 0 2.25 15L2.75 15A0.25 0.25 0 0 1 3 15.25L3 15.75A0.25 0.25 0 0 1 2.75 16L1.25 16A0.25 0.25 0 0 0 1 16.25L1 16.75A0.25 0.25 0 0 0 1.25 17L2.75 17A0.25 0.25 0 0 0 3 16.75L3 16.25A0.25 0.25 0 0 1 3.25 16L3.75 16A0.25 0.25 0 0 1 4 16.25L4 17.75A0.25 0.25 0 0 0 4.25 18L6.75 18A0.25 0.25 0 0 1 7 18.25L7 18.75A0.25 0.25 0 0 1 6.75 19L6.25 19A0.25 0.25 0 0 0 6 19.25L6 19.75A0.25 0.25 0 0 0 6.25 20L8.75 20A0.25 0.25 0 0 0 9 19.75L9 19.25A0.25 0.25 0 0 1 9.25 19L9.75 19A0.25 0.25 0 0 1 10 19.25L10 19.75A0.25 0.25 0 0 0 10.25 20L10.75 20A0.25 0.25 0 0 1 11 20.25L11 20.75A0.25 0.25 0 0 0 11.25 21L11.75 21A0.25 0.25 0 0 0 12 20.75L12 20.25A0.25 0.25 0 0 1 12.25 20L12.75 20A0.25 0.25 0 0 1 13 20.25L13 20.75A0.25 0.25 0 0 0 13.25 21L13.75 21A0.25 0.25 0 0 1 14 21.25L14 22.75A0.25 0.25 0 0 1 13.75 23L13.25 23A0.25 0.25 0 0 0 13 23.25L13 23.75A0.25 0.25 0 0 0 13.25 24L13.75 24A0.25 0.25 0 0 1 14 24.25L14 24.75A0.25 0.25 0 0 0 14.25 25L14.75 25A0.25 0.25 0 0 0 15 24.75L15 24.25A0.25 0.25 0 0 1 15.25 24L15.75 24A0.25 0.25 0 0 1 16 24.25L16 24.75A0.25 0.25 0 0 0 16.25 25L16.75 25A0.25 0.25 0 0 1 17 25.25L17 25.75A0.25 0.25 0 0 0 17.25 26L17.75 26A0.25 0.25 0 0 0 18 25.75L18 25.25A0.25 0.25 0 0 1 18.25 25L18.75 25A0.25 0.25 0 0 0 19 24.75L19 24.25A0.25 0.25 0 0 1 19.25 24L19.75 24A0.25 0.25 0 0 0 20 23.75L20 23.25A0.25 0.25 0 0 0 19.75 23L19.25 23A0.25 0.25 0 0 1 19 22.75L19 21.25A0.25 0.25 0 0 1 19.25 21L19.75 21A0.25 0.25 0 0 0 20 20.75L20 20.25A0.25 0.25 0 0 1 20.25 20L20.75 20A0.25 0.25 0 0 0 21 19.75L21 19.25A0.25 0.25 0 0 1 21.25 19L21.75 19A0.25 0.25 0 0 1 22 19.25L22 19.75A0.25 0.25 0 0 0 22.25 20L22.75 20A0.25 0.25 0 0 0 23 19.75L23 19.25A0.25 0.25 0 0 0 22.75 19L22.25 19A0.25 0.25 0 0 1 22 18.75L22 18.25A0.25 0.25 0 0 1 22.25 18L22.75 18A0.25 0.25 0 0 0 23 17.75L23 17.25A0.25 0.25 0 0 1 23.25 17L24.75 17A0.25 0.25 0 0 1 25 17.25L25 19.75A0.25 0.25 0 0 0 25.25 20L25.75 20A0.25 0.25 0 0 0 26 19.75L26 19.25A0.25 0.25 0 0 1 26.25 19L26.75 19A0.25 0.25 0 0 0 27 18.75L27 16.25A0.25 0.25 0 0 0 26.75 16L26.25 16A0.25 0.25 0 0 0 26 16.25L26 16.75A0.25 0.25 0 0 1 25.75 17L25.25 17A0.25 0.25 0 0 1 25 16.75L25 16.25A0.25 0.25 0 0 0 24.75 16L23.25 16A0.25 0.25 0 0 1 23 15.75L23 15.25A0.25 0.25 0 0 0 22.75 15L22.25 15A0.25 0.25 0 0 1 22 14.75L22 14.25A0.25 0.25 0 0 0 21.75 14L21.25 14A0.25 0.25 0 0 1 21 13.75L21 13.25A0.25 0.25 0 0 0 20.75 13L19.25 13A0.25 0.25 0 0 1 19 12.75L19 12.25A0.25 0.25 0 0 1 19.25 12L20.75 12A0.25 0.25 0 0 0 21 11.75L21 10.25A0.25 0.25 0 0 0 20.75 10L20.25 10A0.25 0.25 0 0 1 20 9.75L20 9.25A0.25 0.25 0 0 0 19.75 9L18.25 9A0.25 0.25 0 0 1 18 8.75L18 8.25A0.25 0.25 0 0 1 18.25 8L19.75 8A0.25 0.25 0 0 0 20 7.75L20 5.25A0.25 0.25 0 0 0 19.75 5L19.25 5A0.25 0.25 0 0 0 19 5.25L19 6.75A0.25 0.25 0 0 1 18.75 7L18.25 7A0.25 0.25 0 0 1 18 6.75L18 6.25A0.25 0.25 0 0 0 17.75 6L17.25 6A0.25 0.25 0 0 0 17 6.25L17 6.75A0.25 0.25 0 0 1 16.75 7L16.25 7A0.25 0.25 0 0 0 16 7.25L16 7.75A0.25 0.25 0 0 1 15.75 8L13.25 8A0.25 0.25 0 0 1 13 7.75L13 7.25A0.25 0.25 0 0 1 13.25 7L13.75 7A0.25 0.25 0 0 0 14 6.75L14 6.25A0.25 0.25 0 0 0 13.75 6L13.25 6A0.25 0.25 0 0 0 13 6.25L13 6.75A0.25 0.25 0 0 1 12.75 7L12.25 7A0.25 0.25 0 0 1 12 6.75L12 6.25A0.25 0.25 0 0 0 11.75 6L11.25 6A0.25 0.25 0 0 1 11 5.75L11 5.25A0.25 0.25 0 0 0 10.75 5L10.25 5A0.25 0.25 0 0 0 10 5.25ZM10 6.25L10 6.75A0.25 0.25 0 0 0 10.25 7L10.75 7A0.25 0.25 0 0 0 11 6.75L11 6.25A0.25 0.25 0 0 0 10.75 6L10.25 6A0.25 0.25 0 0 0 10 6.25ZM13 9.25L13 10.75A0.25 0.25 0 0 0 13.25 11L13.75 11A0.25 0.25 0 0 0 14 10.75L14 10.25A0.25 0.25 0 0 1 14.25 10L14.75 10A0.25 0.25 0 0 1 15 10.25L15 10.75A0.25 0.25 0 0 0 15.25 11L15.75 11A0.25 0.25 0 0 1 16 11.25L16 12.75A0.25 0.25 0 0 0 16.25 13L16.75 13A0.25 0.25 0 0 0 17 12.75L17 12.25A0.25 0.25 0 0 1 17.25 12L17.75 12A0.25 0.25 0 0 0 18 11.75L18 11.25A0.25 0.25 0 0 1 18.25 11L18.75 11A0.25 0.25 0 0 0 19 10.75L19 10.25A0.25 0.25 0 0 0 18.75 10L18.25 10A0.25 0.25 0 0 0 18 10.25L18 10.75A0.25 0.25 0 0 1 17.75 11L16.25 11A0.25 0.25 0 0 1 16 10.75L16 10.25A0.25 0.25 0 0 0 15.75 10L15.25 10A0.25 0.25 0 0 1 15 9.75L15 9.25A0.25 0.25 0 0 0 14.75 9L13.25 9A0.25 0.25 0 0 0 13 9.25ZM10 10.25L10 10.75A0.25 0.25 0 0 1 9.75 11L9.25 11A0.25 0.25 0 0 0 9 11.25L9 11.75A0.25 0.25 0 0 0 9.25 12L9.75 12A0.25 0.25 0 0 1 10 12.25L10 12.75A0.25 0.25 0 0 1 9.75 13L9.25 13A0.25 0.25 0 0 0 9 13.25L9 13.75A0.25 0.25 0 0 1 8.75 14L8.25 14A0.25 0.25 0 0 1 8 13.75L8 13.25A0.25 0.25 0 0 0 7.75 13L7.25 13A0.25 0.25 0 0 1 7 12.75L7 12.25A0.25 0.25 0 0 0 6.75 12L6.25 12A0.25 0.25 0 0 1 6 11.75L6 11.25A0.25 0.25 0 0 0 5.75 11L5.25 11A0.25 0.25 0 0 0 5 11.25L5 11.75A0.25 0.25 0 0 0 5.25 12L5.75 12A0.25 0.25 0 0 1 6 12.25L6 12.75A0.25 0.25 0 0 0 6.25 13L6.75 13A0.25 0.25 0 0 1 7 13.25L7 13.75A0.25 0.25 0 0 0 7.25 14L7.75 14A0.25 0.25 0 0 1 8 14.25L8 14.75A0.25 0.25 0 0 0 8.25 15L8.75 15A0.25 0.25 0 0 1 9 15.25L9 16.75A0.25 0.25 0 0 1 8.75 17L7.25 17A0.25 0.25 0 0 1 7 16.75L7 16.25A0.25 0.25 0 0 0 6.75 16L6.25 16A0.25 0.25 0 0 0 6 16.25L6 16.75A0.25 0.25 0 0 0 6.25 17L6.75 17A0.25 0.25 0 0 1 7 17.25L7 17.75A0.25 0.25 0 0 0 7.25 18L8.75 18A0.25 0.25 0 0 0 9 17.75L9 17.25A0.25 0.25 0 0 1 9.25 17L10.75 17A0.25 0.25 0 0 1 11 17.25L11 17.75A0.25 0.25 0 0 0 11.25 18L11.75 18A0.25 0.25 0 0 0 12 17.75L12 16.25A0.25 0.25 0 0 1 12.25 16L13.75 16A0.25 0.25 0 0 0 14 15.75L14 15.25A0.25 0.25 0 0 0 13.75 15L11.25 15A0.25 0.25 0 0 1 11 14.75L11 13.25A0.25 0.25 0 0 1 11.25 13L11.75 13A0.25 0.25 0 0 1 12 13.25L12 13.75A0.25 0.25 0 0 0 12.25 14L13.75 14A0.25 0.25 0 0 0 14 13.75L14 13.25A0.25 0.25 0 0 1 14.25 13L14.75 13A0.25 0.25 0 0 0 15 12.75L15 12.25A0.25 0.25 0 0 0 14.75 12L14.25 12A0.25 0.25 0 0 0 14 12.25L14 12.75A0.25 0.25 0 0 1 13.75 13L13.25 13A0.25 0.25 0 0 1 13 12.75L13 12.25A0.25 0.25 0 0 0 12.75 12L10.25 12A0.25 0.25 0 0 1 10 11.75L10 11.25A0.25 0.25 0 0 1 10.25 11L10.75 11A0.25 0.25 0 0 0 11 10.75L11 10.25A0.25 0.25 0 0 0 10.75 10L10.25 10A0.25 0.25 0 0 0 10 10.25ZM18 13.25L18 13.75A0.25 0.25 0 0 1 17.75 14L17.25 14A0.25 0.25 0 0 0 17 14.25L17 14.75A0.25 0.25 0 0 1 16.75 15L16.25 15A0.25 0.25 0 0 1 16 14.75L16 14.25A0.25 0.25 0 0 0 15.75 14L15.25 14A0.25 0.25 0 0 0 15 14.25L15 14.75A0.25 0.25 0 0 0 15.25 15L15.75 15A0.25 0.25 0 0 1 16 15.25L16 15.75A0.25 0.25 0 0 1 15.75 16L15.25 16A0.25 0.25 0 0 0 15 16.25L15 16.75A0.25 0.25 0 0 1 14.75 17L14.25 17A0.25 0.25 0 0 0 14 17.25L14 17.75A0.25 0.25 0 0 1 13.75 18L13.25 18A0.25 0.25 0 0 0 13 18.25L13 18.75A0.25 0.25 0 0 0 13.25 19L13.75 19A0.25 0.25 0 0 1 14 19.25L14 20.75A0.25 0.25 0 0 0 14.25 21L14.75 21A0.25 0.25 0 0 1 15 21.25L15 22.75A0.25 0.25 0 0 0 15.25 23L15.75 23A0.25 0.25 0 0 1 16 23.25L16 23.75A0.25 0.25 0 0 0 16.25 24L18.75 24A0.25 0.25 0 0 0 19 23.75L19 23.25A0.25 0.25 0 0 0 18.75 23L17.25 23A0.25 0.25 0 0 1 17 22.75L17 22.25A0.25 0.25 0 0 0 16.75 22L16.25 22A0.25 0.25 0 0 1 16 21.75L16 21.25A0.25 0.25 0 0 1 16.25 21L16.75 21A0.25 0.25 0 0 0 17 20.75L17 19.25A0.25 0.25 0 0 0 16.75 19L16.25 19A0.25 0.25 0 0 1 16 18.75L16 18.25A0.25 0.25 0 0 1 16.25 18L16.75 18A0.25 0.25 0 0 0 17 17.75L17 17.25A0.25 0.25 0 0 1 17.25 17L18.75 17A0.25 0.25 0 0 0 19 16.75L19 16.25A0.25 0.25 0 0 0 18.75 16L18.25 16A0.25 0.25 0 0 1 18 15.75L18 15.25A0.25 0.25 0 0 1 18.25 15L19.75 15A0.25 0.25 0 0 0 20 14.75L20 14.25A0.25 0.25 0 0 0 19.75 14L19.25 14A0.25 0.25 0 0 1 19 13.75L19 13.25A0.25 0.25 0 0 0 18.75 13L18.25 13A0.25 0.25 0 0 0 18 13.25ZM27 13.25L27 14.75A0.25 0.25 0 0 0 27.25 15L27.75 15A0.25 0.25 0 0 0 28 14.75L28 13.25A0.25 0.25 0 0 0 27.75 13L27.25 13A0.25 0.25 0 0 0 27 13.25ZM9 14.25L9 14.75A0.25 0.25 0 0 0 9.25 15L9.75 15A0.25 0.25 0 0 1 10 15.25L10 15.75A0.25 0.25 0 0 0 10.25 16L10.75 16A0.25 0.25 0 0 0 11 15.75L11 15.25A0.25 0.25 0 0 0 10.75 15L10.25 15A0.25 0.25 0 0 1 10 14.75L10 14.25A0.25 0.25 0 0 0 9.75 14L9.25 14A0.25 0.25 0 0 0 9 14.25ZM16 16.25L16 16.75A0.25 0.25 0 0 1 15.75 17L15.25 17A0.25 0.25 0 0 0 15 17.25L15 17.75A0.25 0.25 0 0 0 15.25 18L15.75 18A0.25 0.25 0 0 0 16 17.75L16 17.25A0.25 0.25 0 0 1 16.25 17L16.75 17A0.25 0.25 0 0 0 17 16.75L17 16.25A0.25 0.25 0 0 0 16.75 16L16.25 16A0.25 0.25 0 0 0 16 16.25ZM20 16.25L20 18.75A0.25 0.25 0 0 0 20.25 19L20.75 19A0.25 0.25 0 0 0 21 18.75L21 16.25A0.25 0.25 0 0 0 20.75 16L20.25 16A0.25 0.25 0 0 0 20 16.25ZM18 18.25L18 19.75A0.25 0.25 0 0 0 18.25 20L18.75 20A0.25 0.25 0 0 0 19 19.75L19 18.25A0.25 0.25 0 0 0 18.75 18L18.25 18A0.25 0.25 0 0 0 18 18.25ZM11 19.25L11 19.75A0.25 0.25 0 0 0 11.25 20L11.75 20A0.25 0.25 0 0 0 12 19.75L12 19.25A0.25 0.25 0 0 0 11.75 19L11.25 19A0.25 0.25 0 0 0 11 19.25ZM15 19.25L15 19.75A0.25 0.25 0 0 0 15.25 20L15.75 20A0.25 0.25 0 0 0 16 19.75L16 19.25A0.25 0.25 0 0 0 15.75 19L15.25 19A0.25 0.25 0 0 0 15 19.25ZM28 20.25L28 20.75A0.25 0.25 0 0 0 28.25 21L28.75 21A0.25 0.25 0 0 0 29 20.75L29 20.25A0.25 0.25 0 0 0 28.75 20L28.25 20A0.25 0.25 0 0 0 28 20.25ZM21 21.25L21 23.75A0.25 0.25 0 0 0 21.25 24L23.75 24A0.25 0.25 0 0 0 24 23.75L24 21.25A0.25 0.25 0 0 0 23.75 21L21.25 21A0.25 0.25 0 0 0 21 21.25ZM25 21.25L25 24.75A0.25 0.25 0 0 1 24.75 25L24.25 25A0.25 0.25 0 0 0 24 25.25L24 25.75A0.25 0.25 0 0 1 23.75 26L23.25 26A0.25 0.25 0 0 1 23 25.75L23 25.25A0.25 0.25 0 0 0 22.75 25L22.25 25A0.25 0.25 0 0 0 22 25.25L22 26.75A0.25 0.25 0 0 0 22.25 27L23.75 27A0.25 0.25 0 0 1 24 27.25L24 27.75A0.25 0.25 0 0 0 24.25 28L25.75 28A0.25 0.25 0 0 0 26 27.75L26 27.25A0.25 0.25 0 0 0 25.75 27L24.25 27A0.25 0.25 0 0 1 24 26.75L24 26.25A0.25 0.25 0 0 1 24.25 26L25.75 26A0.25 0.25 0 0 0 26 25.75L26 25.25A0.25 0.25 0 0 1 26.25 25L26.75 25A0.25 0.25 0 0 0 27 24.75L27 23.25A0.25 0.25 0 0 0 26.75 23L26.25 23A0.25 0.25 0 0 1 26 22.75L26 21.25A0.25 0.25 0 0 0 25.75 21L25.25 21A0.25 0.25 0 0 0 25 21.25ZM22 22.25L22 22.75A0.25 0.25 0 0 0 22.25 23L22.75 23A0.25 0.25 0 0 0 23 22.75L23 22.25A0.25 0.25 0 0 0 22.75 22L22.25 22A0.25 0.25 0 0 0 22 22.25ZM0 0.25L0 6.75A0.25 0.25 0 0 0 0.25 7L6.75 7A0.25 0.25 0 0 0 7 6.75L7 0.25A0.25 0.25 0 0 0 6.75 0L0.25 0A0.25 0.25 0 0 0 0 0.25ZM1 1.25L1 5.75A0.25 0.25 0 0 0 1.25 6L5.75 6A0.25 0.25 0 0 0 6 5.75L6 1.25A0.25 0.25 0 0 0 5.75 1L1.25 1A0.25 0.25 0 0 0 1 1.25ZM2 2.25L2 4.75A0.25 0.25 0 0 0 2.25 5L4.75 5A0.25 0.25 0 0 0 5 4.75L5 2.25A0.25 0.25 0 0 0 4.75 2L2.25 2A0.25 0.25 0 0 0 2 2.25ZM22 0.25L22 6.75A0.25 0.25 0 0 0 22.25 7L28.75 7A0.25 0.25 0 0 0 29 6.75L29 0.25A0.25 0.25 0 0 0 28.75 0L22.25 0A0.25 0.25 0 0 0 22 0.25ZM23 1.25L23 5.75A0.25 0.25 0 0 0 23.25 6L27.75 6A0.25 0.25 0 0 0 28 5.75L28 1.25A0.25 0.25 0 0 0 27.75 1L23.25 1A0.25 0.25 0 0 0 23 1.25ZM24 2.25L24 4.75A0.25 0.25 0 0 0 24.25 5L26.75 5A0.25 0.25 0 0 0 27 4.75L27 2.25A0.25 0.25 0 0 0 26.75 2L24.25 2A0.25 0.25 0 0 0 24 2.25ZM0 22.25L0 28.75A0.25 0.25 0 0 0 0.25 29L6.75 29A0.25 0.25 0 0 0 7 28.75L7 22.25A0.25 0.25 0 0 0 6.75 22L0.25 22A0.25 0.25 0 0 0 0 22.25ZM1 23.25L1 27.75A0.25 0.25 0 0 0 1.25 28L5.75 28A0.25 0.25 0 0 0 6 27.75L6 23.25A0.25 0.25 0 0 0 5.75 23L1.25 23A0.25 0.25 0 0 0 1 23.25ZM2 24.25L2 26.75A0.25 0.25 0 0 0 2.25 27L4.75 27A0.25 0.25 0 0 0 5 26.75L5 24.25A0.25 0.25 0 0 0 4.75 24L2.25 24A0.25 0.25 0 0 0 2 24.25Z" fill="#000000"/></g></g></svg>
