<?xml version="1.0" encoding="UTF-8"?>
<svg xmlns="http://www.w3.org/2000/svg" version="1.1" width="200" height="200" viewBox="0 0 200 200"><rect x="0" y="0" width="200" height="200" fill="#ffffff"/><g transform="scale(6.897)"><g transform="translate(0,0)"><path fill-rule="evenodd" d="M9 0.25L9 0.75A0.25 0.25 0 0 1 8.75 1L8.25 1A0.25 0.25 0 0 0 8 1.25L8 1.75A0.25 0.25 0 0 0 8.25 2L8.75 2A0.25 0.25 0 0 1 9 2.25L9 4.75A0.25 0.25 0 0 1 8.75 5L8.25 5A0.25 0.25 0 0 0 8 5.25L8 7.75A0.25 0.25 0 0 1 7.75 8L4.25 8A0.25 0.25 0 0 0 4 8.25L4 8.75A0.25 0.25 0 0 1 3.75 9L3.25 9A0.25 0.25 0 0 0 3 9.25L3 9.75A0.25 0.25 0 0 1 2.75 10L2.25 10A0.25 0.25 0 0 1 2 9.75L2 9.25A0.25 0.25 0 0 0 1.75 9L0.25 9A0.25 0.25 0 0 0 0 9.25L0 10.75A0.25 0.25 0 0 0 0.25 11L0.75 11A0.25 0.25 0 0 0 1 10.75L1 10.25A0.25 0.25 0 0 1 1.25 10L1.75 10A0.25 0.25 0 0 1 2 10.25L2 10.75A0.25 0.25 0 0 0 2.25 11L2.75 11A0.25 0.25 0 0 1 3 11.25L3 11.75A0.25 0.25 0 0 0 3.25 12L3.75 12A0.25 0.25 0 0 1 4 12.25L4 12.75A0.25 0.25 0 0 1 3.75 13L2.25 13A0.25 0.25 0 0 0 2 13.25L2 13.75A0.25 0.25 0 0 0 2.25 14L2.75 14A0.25 0.25 0 0 1 3 14.25L3 14.75A0.25 0.25 0 0 1 2.75 15L2.25 15A0.25 0.25 0 0 0 2 15.25L2 15.75A0.25 0.25 0 0 1 1.75 16L1.25 16A0.25 0.25 0 0 1 1 15.75L1 15.25A0.25 0.25 0 0 0 0.75 15L0.25 15A0.25 0.25 0 0 0 0 15.25L0 17.75A0.25 0.25 0 0 0 0.25 18L0.75 18A0.25 0.25 0 0 0 1 17.75L1 17.25A0.25 0.25 0 0 1 1.25 17L1.75 17A0.25 0.25 0 0 1 2 17.25L2 18.75A0.25 0.25 0 0 0 2.25 19L3.75 19A0.25 0.25 0 0 1 4 19.25L4 20.75A0.25 0.25 0 0 0 4.25 21L6.75 21A0.25 0.25 0 0 0 7 20.75L7 20.25A0.25 0.25 0 0 1 7.25 20L9.75 20A0.25 0.25 0 0 1 10 20.25L10 20.75A0.25 0.25 0 0 0 10.25 21L10.75 21A0.25 0.25 0 0 1 11 21.25L11 21.75A0.25 0.25 0 0 0 11.25 22L11.75 22A0.25 0.25 0 0 1 12 22.25L12 22.75A0.25 0.25 0 0 1 11.75 23L11.25 23A0.25 0.25 0 0 0 11 23.25L11 24.75A0.25 0.25 0 0 0 11.25 25L11.75 25A0.25 0.25 0 0 1 12 25.25L12 25.75A0.25 0.25 0 0 1 11.75 26L10.25 26A0.25 0.25 0 0 1 10 25.75L10 22.25A0.25 0.25 0 0 0 9.75 22L9.25 22A0.25 0.25 0 0 1 9 21.75L9 21.25A0.25 0.25 0 0 0 8.75 21L8.25 21A0.25 0.25 0 0 0 8 21.25L8 24.75A0.25 0.25 0 0 0 8.25 25L8.75 25A0.25 0.25 0 0 1 9 25.25L9 25.75A0.25 0.25 0 0 0 9.25 26L9.75 26A0.25 0.25 0 0 1 10 26.25L10 26.75A0.25 0.25 0 0 1 9.75 27L9.25 27A0.25 0.25 0 0 0 9 27.25L9 27.75A0.25 0.25 0 0 0 9.25 28L9.75 28A0.25 0.25 0 0 0 10 27.75L10 27.25A0.25 0.25 0 0 1 10.25 27L10.75 27A0.25 0.25 0 0 1 11 27.25L11 27.75A0.25 0.25 0 0 0 11.25 28L11.75 28A0.25 0.25 0 0 1 12 28.25L12 28.75A0.25 0.25 0 0 0 12.25 29L12.75 29A0.25 0.25 0 0 0 13 28.75L13 27.25A0.25 0.25 0 0 1 13.25 27L15.75 27A0.25 0.25 0 0 1 16 27.25L16 27.75A0.25 0.25 0 0 0 16.25 28L16.75 28A0.25 0.25 0 0 1 17 28.25L17 28.75A0.25 0.25 0 0 0 17.25 29L17.75 29A0.25 0.25 0 0 0 18 28.75L18 27.25A0.25 0.25 0 0 1 18.25 27L18.75 27A0.25 0.25 0 0 0 19 26.75L19 26.25A0.25 0.25 0 0 1 19.25 26L19.75 26A0.25 0.25 0 0 0 20 25.75L20 25.25A0.25 0.25 0 0 1 20.25 25L24.75 25A0.25 0.25 0 0 1 25 25.25L25 27.75A0.25 0.25 0 0 1 24.75 28L24.25 28A0.25 0.25 0 0 0 24 28.25L24 28.75A0.25 0.25 0 0 0 24.25 29L25.75 29A0.25 0.25 0 0 0 26 28.75L26 26.25A0.25 0.25 0 0 1 26.25 26L26.75 26A0.25 0.25 0 0 1 27 26.25L27 28.75A0.25 0.25 0 0 0 27.25 29L27.75 29A0.25 0.25 0 0 0 28 28.75L28 28.25A0.25 0.25 0 0 1 28.25 28L28.75 28A0.25 0.25 0 0 0 29 27.75L29 26.25A0.25 0.25 0 0 0 28.75 26L28.25 26A0.25 0.25 0 0 1 28 25.75L28 23.25A0.25 0.25 0 0 1 28.25 23L28.75 23A0.25 0.25 0 0 0 29 22.75L29 21.25A0.25 0.25 0 0 0 28.75 21L28.25 21A0.25 0.25 0 0 1 28 20.75L28 20.25A0.25 0.25 0 0 1 28.25 20L28.75 20A0.25 0.25 0 0 0 29 19.75L29 17.25A0.25 0.25 0 0 0 28.75 17L28.25 17A0.25 0.25 0 0 1 28 16.75L28 16.25A0.25 0.25 0 0 0 27.75 16L27.25 16A0.25 0.25 0 0 0 27 16.25L27 24.75A0.25 0.25 0 0 1 26.75 25L26.25 25A0.25 0.25 0 0 1 26 24.75L26 23.25A0.25 0.25 0 0 0 25.75 23L25.25 23A0.25 0.25 0 0 1 25 22.75L25 22.25A0.25 0.25 0 0 1 25.25 22L25.75 22A0.25 0.25 0 0 0 26 21.75L26 21.25A0.25 0.25 0 0 0 25.75 21L25.25 21A0.25 0.25 0 0 1 25 20.75L25 20.25A0.25 0.25 0 0 0 24.75 20L24.25 20A0.25 0.25 0 0 1 24 19.75L24 19.25A0.25 0.25 0 0 0 23.75 19L22.25 19A0.25 0.25 0 0 1 22 18.75L22 18.25A0.25 0.25 0 0 1 22.25 18L22.75 18A0.25 0.25 0 0 0 23 17.75L23 17.25A0.25 0.25 0 0 1 23.25 17L23.75 17A0.25 0.25 0 0 1 24 17.25L24 17.75A0.25 0.25 0 0 0 24.25 18L25.75 18A0.25 0.25 0 0 0 26 17.75L26 17.25A0.25 0.25 0 0 0 25.75 17L24.25 17A0.25 0.25 0 0 1 24 16.75L24 16.25A0.25 0.25 0 0 0 23.75 16L23.25 16A0.25 0.25 0 0 0 23 16.25L23 16.75A0.25 0.25 0 0 1 22.75 17L22.25 17A0.25 0.25 0 0 1 22 16.75L22 15.25A0.25 0.25 0 0 1 22.25 15L26.75 15A0.25 0.25 0 0 0 27 14.75L27 13.25A0.25 0.25 0 0 0 26.75 13L26.25 13A0.25 0.25 0 0 0 26 13.25L26 13.75A0.25 0.25 0 0 1 25.75 14L25.25 14A0.25 0.25 0 0 1 25 13.75L25 13.25A0.25 0.25 0 0 0 24.75 13L24.25 13A0.25 0.25 0 0 1 24 12.75L24 10.25A0.25 0.25 0 0 1 24.25 10L24.75 10A0.25 0.25 0 0 1 25 10.25L25 10.75A0.25 0.25 0 0 0 25.25 11L25.75 11A0.25 0.25 0 0 0 26 10.75L26 10.25A0.25 0.25 0 0 1 26.25 10L26.75 10A0.25 0.25 0 0 1 27 10.25L27 11.75A0.25 0.25 0 0 0 27.25 12L28.75 12A0.25 0.25 0 0 0 29 11.75L29 9.25A0.25 0.25 0 0 0 28.75 9L28.25 9A0.25 0.25 0 0 1 28 8.75L28 8.25A0.25 0.25 0 0 0 27.75 8L27.25 8A0.25 0.25 0 0 0 27 8.25L27 8.75A0.25 0.25 0 0 1 26.75 9L26.25 9A0.25 0.25 0 0 0 26 9.25L26 9.75A0.25 0.25 0 0 1 25.75 10L25.25 10A0.25 0.25 0 0 1 25 9.75L25 9.25A0.25 0.25 0 0 0 24.75 9L24.25 9A0.25 0.25 0 0 1 24 8.75L24 8.25A0.25 0.25 0 0 0 23.75 8L22.25 8A0.25 0.25 0 0 0 22 8.25L22 10.75A0.25 0.25 0 0 0 22.25 11L22.75 11A0.25 0.25 0 0 1 23 11.25L23 12.75A0.25 0.25 0 0 1 22.75 13L21.25 13A0.25 0.25 0 0 1 21 12.75L21 12.25A0.25 0.25 0 0 0 20.75 12L19.25 12A0.25 0.25 0 0 1 19 11.75L19 10.25A0.25 0.25 0 0 1 19.25 10L19.75 10A0.25 0.25 0 0 1 20 10.25L20 10.75A0.25 0.25 0 0 0 20.25 11L20.75 11A0.25 0.25 0 0 0 21 10.75L21 9.25A0.25 0.25 0 0 0 20.75 9L20.25 9A0.25 0.25 0 0 1 20 8.75L20 8.25A0.25 0.25 0 0 1 20.25 8L20.75 8A0.25 0.25 0 0 0 21 7.75L21 1.25A0.25 0.25 0 0 0 20.75 1L20.25 1A0.25 0.25 0 0 1 20 0.75L20 0.25A0.25 0.25 0 0 0 19.75 0L18.25 0A0.25 0.25 0 0 0 18 0.25L18 0.75A0.25 0.25 0 0 0 18.25 1L19.75 1A0.25 0.25 0 0 1 20 1.25L20 1.75A0.25 0.25 0 0 1 19.75 2L17.25 2A0.25 0.25 0 0 1 17 1.75L17 0.25A0.25 0.25 0 0 0 16.75 0L14.25 0A0.25 0.25 0 0 0 14 0.25L14 2.75A0.25 0.25 0 0 1 13.75 3L12.25 3A0.25 0.25 0 0 1 12 2.75L12 2.25A0.25 0.25 0 0 1 12.25 2L12.75 2A0.25 0.25 0 0 0 13 1.75L13 1.25A0.25 0.25 0 0 0 12.75 1L12.25 1A0.25 0.25 0 0 1 12 0.75L12 0.25A0.25 0.25 0 0 0 11.75 0L11.25 0A0.25 0.25 0 0 0 11 0.25L11 0.75A0.25 0.25 0 0 1 10.75 1L10.25 1A0.25 0.25 0 0 1 10 0.75L10 0.25A0.25 0.25 0 0 0 9.75 0L9.25 0A0.25 0.25 0 0 0 9 0.25ZM9 1.25L9 1.75A0.25 0.25 0 0 0 9.25 2L9.75 2A0.25 0.25 0 0 0 10 1.75L10 1.25A0.25 0.25 0 0 0 9.75 1L9.25 1A0.25 0.25 0 0 0 9 1.25ZM15 3.25L15 4.75A0.25 0.25 0 0 1 14.75 5L14.25 5A0.25 0.25 0 0 1 14 4.75L14 4.25A0.25 0.25 0 0 0 13.75 4L13.25 4A0.25 0.25 0 0 0 13 4.25L13 4.75A0.25 0.25 0 0 1 12.75 5L11.25 5A0.25 0.25 0 0 1 11 4.75L11 4.25A0.25 0.25 0 0 0 10.75 4L10.25 4A0.25 0.25 0 0 0 10 4.25L10 5.75A0.25 0.25 0 0 1 9.75 6L9.25 6A0.25 0.25 0 0 0 9 6.25L9 6.75A0.25 0.25 0 0 0 9.25 7L9.75 7A0.25 0.25 0 0 0 10 6.75L10 6.25A0.25 0.25 0 0 1 10.25 6L10.75 6A0.25 0.25 0 0 1 11 6.25L11 7.75A0.25 0.25 0 0 1 10.75 8L10.25 8A0.25 0.25 0 0 0 10 8.25L10 8.75A0.25 0.25 0 0 1 9.75 9L9.25 9A0.25 0.25 0 0 1 9 8.75L9 8.25A0.25 0.25 0 0 0 8.75 8L8.25 8A0.25 0.25 0 0 0 8 8.25L8 8.75A0.25 0.25 0 0 1 7.75 9L6.25 9A0.25 0.25 0 0 0 6 9.25L6 9.75A0.25 0.25 0 0 0 6.25 10L6.75 10A0.25 0.25 0 0 1 7 10.25L7 10.75A0.25 0.25 0 0 1 6.75 11L4.25 11A0.25 0.25 0 0 1 4 10.75L4 10.25A0.25 0.25 0 0 0 3.75 10L3.25 10A0.25 0.25 0 0 0 3 10.25L3 10.75A0.25 0.25 0 0 0 3.25 11L3.75 11A0.25 0.25 0 0 1 4 11.25L4 11.75A0.25 0.25 0 0 0 4.25 12L4.75 12A0.25 0.25 0 0 1 5 12.25L5 12.75A0.25 0.25 0 0 1 4.75 13L4.25 13A0.25 0.25 0 0 0 4 13.25L4 13.75A0.25 0.25 0 0 0 4.25 14L4.75 14A0.25 0.25 0 0 1 5 14.25L5 14.75A0.25 0.25 0 0 1 4.75 15L3.25 15A0.25 0.25 0 0 0 3 15.25L3 16.75A0.25 0.25 0 0 0 3.25 17L3.75 17A0.25 0.25 0 0 0 4 16.75L4 16.25A0.25 0.25 0 0 1 4.25 16L4.75 16A0.25 0.25 0 0 1 5 16.25L5 16.75A0.25 0.25 0 0 0 5.25 17L5.75 17A0.25 0.25 0 0 1 6 17.25L6 17.75A0.25 0.25 0 0 0 6.25 18L6.75 18A0.25 0.25 0 0 0 7 17.75L7 17.25A0.25 0.25 0 0 0 6.75 17L6.25 17A0.25 0.25 0 0 1 6 16.75L6 16.25A0.25 0.25 0 0 1 6.25 16L8.75 16A0.25 0.25 0 0 0 9 15.75L9 15.25A0.25 0.25 0 0 1 9.25 15L9.75 15A0.25 0.25 0 0 0 10 14.75L10 14.25A0.25 0.25 0 0 1 10.25 14L10.75 14A0.25 0.25 0 0 0 11 13.75L11 13.25A0.25 0.25 0 0 1 11.25 13L11.75 13A0.25 0.25 0 0 1 12 13.25L12 13.75A0.25 0.25 0 0 0 12.25 14L12.75 14A0.25 0.25 0 0 0 13 13.75L13 13.25A0.25 0.25 0 0 1 13.25 13L13.75 13A0.25 0.25 0 0 1 14 13.25L14 13.75A0.25 0.25 0 0 0 14.25 14L15.75 14A0.25 0.25 0 0 1 16 14.25L16 15.75A0.25 0.25 0 0 0 16.25 16L16.75 16A0.25 0.25 0 0 1 17 16.25L17 16.75A0.25 0.25 0 0 1 16.75 17L16.25 17A0.25 0.25 0 0 0 16 17.25L16 18.75A0.25 0.25 0 0 0 16.25 19L16.75 19A0.25 0.25 0 0 0 17 18.75L17 18.25A0.25 0.25 0 0 1 17.25 18L17.75 18A0.25 0.25 0 0 1 18 18.25L18 18.75A0.25 0.25 0 0 0 18.25 19L18.75 19A0.25 0.25 0 0 0 19 18.75L19 18.25A0.25 0.25 0 0 0 18.75 18L18.25 18A0.25 0.25 0 0 1 18 17.75L18 14.25A0.25 0.25 0 0 1 18.25 14L18.75 14A0.25 0.25 0 0 1 19 14.25L19 14.75A0.25 0.25 0 0 0 19.25 15L20.75 15A0.25 0.25 0 0 0 21 14.75L21 13.25A0.25 0.25 0 0 0 20.75 13L18.25 13A0.25 0.25 0 0 1 18 12.75L18 11.25A0.25 0.25 0 0 0 17.75 11L17.25 11A0.25 0.25 0 0 1 17 10.75L17 9.25A0.25 0.25 0 0 1 17.25 9L17.75 9A0.25 0.25 0 0 1 18 9.25L18 9.75A0.25 0.25 0 0 0 18.25 10L18.75 10A0.25 0.25 0 0 0 19 9.75L19 9.25A0.25 0.25 0 0 0 18.75 9L18.25 9A0.25 0.25 0 0 1 18 8.75L18 8.25A0.25 0.25 0 0 0 17.75 8L17.25 8A0.25 0.25 0 0 0 17 8.25L17 8.75A0.25 0.25 0 0 1 16.75 9L16.25 9A0.25 0.25 0 0 1 16 8.75L16 6.25A0.25 0.25 0 0 1 16.25 6L16.75 6A0.25 0.25 0 0 1 17 6.25L17 6.75A0.25 0.25 0 0 0 17.25 7L17.75 7A0.25 0.25 0 0 0 18 6.75L18 5.25A0.25 0.25 0 0 1 18.25 5L19.75 5A0.25 0.25 0 0 0 20 4.75L20 4.25A0.25 0.25 0 0 0 19.75 4L19.25 4A0.25 0.25 0 0 1 19 3.75L19 3.25A0.25 0.25 0 0 0 18.75 3L15.25 3A0.25 0.25 0 0 0 15 3.25ZM13 5.25L13 5.75A0.25 0.25 0 0 1 12.75 6L12.25 6A0.25 0.25 0 0 0 12 6.25L12 8.75A0.25 0.25 0 0 1 11.75 9L11.25 9A0.25 0.25 0 0 0 11 9.25L11 9.75A0.25 0.25 0 0 0 11.25 10L11.75 10A0.25 0.25 0 0 1 12 10.25L12 10.75A0.25 0.25 0 0 1 11.75 11L10.25 11A0.25 0.25 0 0 1 10 10.75L10 10.25A0.25 0.25 0 0 0 9.75 10L9.25 10A0.25 0.25 0 0 0 9 10.25L9 10.75A0.25 0.25 0 0 1 8.75 11L8.25 11A0.25 0.25 0 0 0 8 11.25L8 12.75A0.25 0.25 0 0 1 7.75 13L7.25 13A0.25 0.25 0 0 1 7 12.75L7 12.25A0.25 0.25 0 0 0 6.75 12L6.25 12A0.25 0.25 0 0 0 6 12.25L6 12.75A0.25 0.25 0 0 0 6.25 13L6.75 13A0.25 0.25 0 0 1 7 13.25L7 13.75A0.25 0.25 0 0 1 6.75 14L6.25 14A0.25 0.25 0 0 0 6 14.25L6 14.75A0.25 0.25 0 0 1 5.75 15L5.25 15A0.25 0.25 0 0 0 5 15.25L5 15.75A0.25 0.25 0 0 0 5.25 16L5.75 16A0.25 0.25 0 0 0 6 15.75L6 15.25A0.25 0.25 0 0 1 6.25 15L8.75 15A0.25 0.25 0 0 0 9 14.75L9 12.25A0.25 0.25 0 0 1 9.25 12L11.75 12A0.25 0.25 0 0 1 12 12.25L12 12.75A0.25 0.25 0 0 0 12.25 13L12.75 13A0.25 0.25 0 0 0 13 12.75L13 12.25A0.25 0.25 0 0 1 13.25 12L14.75 12A0.25 0.25 0 0 0 15 11.75L15 10.25A0.25 0.25 0 0 1 15.25 10L15.75 10A0.25 0.25 0 0 0 16 9.75L16 9.25A0.25 0.25 0 0 0 15.75 9L15.25 9A0.25 0.25 0 0 1 15 8.75L15 8.25A0.25 0.25 0 0 0 14.75 8L14.25 8A0.25 0.25 0 0 1 14 7.75L14 7.25A0.25 0.25 0 0 1 14.25 7L14.75 7A0.25 0.25 0 0 0 15 6.75L15 6.25A0.25 0.25 0 0 1 15.25 6L15.75 6A0.25 0.25 0 0 0 16 5.75L16 5.25A0.25 0.25 0 0 0 15.75 5L15.25 5A0.25 0.25 0 0 0 15 5.25L15 5.75A0.25 0.25 0 0 1 14.75 6L14.25 6A0.25 0.25 0 0 1 14 5.75L14 5.25A0.25 0.25 0 0 0 13.75 5L13.25 5A0.25 0.25 0 0 0 13 5.25ZM13 6.25L13 6.75A0.25 0.25 0 0 0 13.25 7L13.75 7A0.25 0.25 0 0 0 14 6.75L14 6.25A0.25 0.25 0 0 0 13.75 6L13.25 6A0.25 0.25 0 0 0 13 6.25ZM19 6.25L19 7.75A0.25 0.25 0 0 0 19.25 8L19.75 8A0.25 0.25 0 0 0 20 7.75L20 6.25A0.25 0.25 0 0 0 19.75 6L19.25 6A0.25 0.25 0 0 0 19 6.25ZM13 8.25L13 8.75A0.25 0.25 0 0 0 13.25 9L13.75 9A0.25 0.25 0 0 1 14 9.25L14 9.75A0.25 0.25 0 0 0 14.25 10L14.75 10A0.25 0.25 0 0 0 15 9.75L15 9.25A0.25 0.25 0 0 0 14.75 9L14.25 9A0.25 0.25 0 0 1 14 8.75L14 8.25A0.25 0.25 0 0 0 13.75 8L13.25 8A0.25 0.25 0 0 0 13 8.25ZM0 13.25L0 13.75A0.25 0.25 0 0 0 0.25 14L0.75 14A0.25 0.25 0 0 0 1 13.75L1 13.25A0.25 0.25 0 0 0 0.75 13L0.25 13A0.25 0.25 0 0 0 0 13.25ZM17 13.25L17 13.75A0.25 0.25 0 0 0 17.25 14L17.75 14A0.25 0.25 0 0 0 18 13.75L18 13.25A0.25 0.25 0 0 0 17.75 13L17.25 13A0.25 0.25 0 0 0 17 13.25ZM23 13.25L23 13.75A0.25 0.25 0 0 0 23.25 14L23.75 14A0.25 0.25 0 0 0 24 13.75L24 13.25A0.25 0.25 0 0 0 23.75 13L23.25 13A0.25 0.25 0 0 0 23 13.25ZM28 13.25L28 14.75A0.25 0.25 0 0 0 28.25 15L28.75 15A0.25 0.25 0 0 0 29 14.75L29 13.25A0.25 0.25 0 0 0 28.75 13L28.25 13A0.25 0.25 0 0 0 28 13.25ZM11 15.25L11 16.75A0.25 0.25 0 0 1 10.75 17L10.25 17A0.25 0.25 0 0 0 10 17.25L10 19.75A0.25 0.25 0 0 0 10.25 20L10.75 20A0.25 0.25 0 0 0 11 19.75L11 19.25A0.25 0.25 0 0 1 11.25 19L12.75 19A0.25 0.25 0 0 0 13 18.75L13 17.25A0.25 0.25 0 0 1 13.25 17L13.75 17A0.25 0.25 0 0 1 14 17.25L14 17.75A0.25 0.25 0 0 0 14.25 18L14.75 18A0.25 0.25 0 0 0 15 17.75L15 15.25A0.25 0.25 0 0 0 14.75 15L14.25 15A0.25 0.25 0 0 0 14 15.25L14 15.75A0.25 0.25 0 0 1 13.75 16L13.25 16A0.25 0.25 0 0 1 13 15.75L13 15.25A0.25 0.25 0 0 0 12.75 15L11.25 15A0.25 0.25 0 0 0 11 15.25ZM8 17.25L8 18.75A0.25 0.25 0 0 0 8.25 19L8.75 19A0.25 0.25 0 0 0 9 18.75L9 17.25A0.25 0.25 0 0 0 8.75 17L8.25 17A0.25 0.25 0 0 0 8 17.25ZM11 17.25L11 17.75A0.25 0.25 0 0 0 11.25 18L11.75 18A0.25 0.25 0 0 0 12 17.75L12 17.25A0.25 0.25 0 0 0 11.75 17L11.25 17A0.25 0.25 0 0 0 11 17.25ZM20 17.25L20 18.75A0.25 0.25 0 0 0 20.25 19L20.75 19A0.25 0.25 0 0 1 21 19.25L21 19.75A0.25 0.25 0 0 0 21.25 20L21.75 20A0.25 0.25 0 0 0 22 19.75L22 19.25A0.25 0.25 0 0 0 21.75 19L21.25 19A0.25 0.25 0 0 1 21 18.75L21 18.25A0.25 0.25 0 0 1 21.25 18L21.75 18A0.25 0.25 0 0 0 22 17.75L22 17.25A0.25 0.25 0 0 0 21.75 17L20.25 17A0.25 0.25 0 0 0 20 17.25ZM4 18.25L4 18.75A0.25 0.25 0 0 0 4.25 19L4.75 19A0.25 0.25 0 0 1 5 19.25L5 19.75A0.25 0.25 0 0 0 5.25 20L6.75 20A0.25 0.25 0 0 0 7 19.75L7 19.25A0.25 0.25 0 0 0 6.75 19L5.25 19A0.25 0.25 0 0 1 5 18.75L5 18.25A0.25 0.25 0 0 0 4.75 18L4.25 18A0.25 0.25 0 0 0 4 18.25ZM14 19.25L14 19.75A0.25 0.25 0 0 0 14.25 20L14.75 20A0.25 0.25 0 0 0 15 19.75L15 19.25A0.25 0.25 0 0 0 14.75 19L14.25 19A0.25 0.25 0 0 0 14 19.25ZM0 20.25L0 20.75A0.25 0.25 0 0 0 0.25 21L1.75 21A0.25 0.25 0 0 0 2 20.75L2 20.25A0.25 0.25 0 0 0 1.75 20L0.25 20A0.25 0.25 0 0 0 0 20.25ZM17 20.25L17 20.75A0.25 0.25 0 0 0 17.25 21L17.75 21A0.25 0.25 0 0 1 18 21.25L18 21.75A0.25 0.25 0 0 1 17.75 22L17.25 22A0.25 0.25 0 0 0 17 22.25L17 22.75A0.25 0.25 0 0 1 16.75 23L16.25 23A0.25 0.25 0 0 1 16 22.75L16 21.25A0.25 0.25 0 0 0 15.75 21L15.25 21A0.25 0.25 0 0 0 15 21.25L15 21.75A0.25 0.25 0 0 1 14.75 22L13.25 22A0.25 0.25 0 0 0 13 22.25L13 22.75A0.25 0.25 0 0 1 12.75 23L12.25 23A0.25 0.25 0 0 0 12 23.25L12 24.75A0.25 0.25 0 0 0 12.25 25L14.75 25A0.25 0.25 0 0 1 15 25.25L15 25.75A0.25 0.25 0 0 0 15.25 26L15.75 26A0.25 0.25 0 0 1 16 26.25L16 26.75A0.25 0.25 0 0 0 16.25 27L16.75 27A0.25 0.25 0 0 0 17 26.75L17 24.25A0.25 0.25 0 0 1 17.25 24L19.75 24A0.25 0.25 0 0 0 20 23.75L20 23.25A0.25 0.25 0 0 0 19.75 23L18.25 23A0.25 0.25 0 0 1 18 22.75L18 22.25A0.25 0.25 0 0 1 18.25 22L19.75 22A0.25 0.25 0 0 0 20 21.75L20 20.25A0.25 0.25 0 0 0 19.75 20L19.25 20A0.25 0.25 0 0 0 19 20.25L19 20.75A0.25 0.25 0 0 1 18.75 21L18.25 21A0.25 0.25 0 0 1 18 20.75L18 20.25A0.25 0.25 0 0 0 17.75 20L17.25 20A0.25 0.25 0 0 0 17 20.25ZM21 21.25L21 23.75A0.25 0.25 0 0 0 21.25 24L23.75 24A0.25 0.25 0 0 0 24 23.75L24 21.25A0.25 0.25 0 0 0 23.75 21L21.25 21A0.25 0.25 0 0 0 21 21.25ZM22 22.25L22 22.75A0.25 0.25 0 0 0 22.25 23L22.75 23A0.25 0.25 0 0 0 23 22.75L23 22.25A0.25 0.25 0 0 0 22.75 22L22.25 22A0.25 0.25 0 0 0 22 22.25ZM14 23.25L14 23.75A0.25 0.25 0 0 0 14.25 24L15.75 24A0.25 0.25 0 0 0 16 23.75L16 23.25A0.25 0.25 0 0 0 15.75 23L14.25 23A0.25 0.25 0 0 0 14 23.25ZM18 25.25L18 25.75A0.25 0.25 0 0 0 18.25 26L18.75 26A0.25 0.25 0 0 0 19 25.75L19 25.25A0.25 0.25 0 0 0 18.75 25L18.25 25A0.25 0.25 0 0 0 18 25.25ZM12 26.25L12 26.75A0.25 0.25 0 0 0 12.25 27L12.75 27A0.25 0.25 0 0 0 13 26.75L13 26.25A0.25 0.25 0 0 0 12.75 26L12.25 26A0.25 0.25 0 0 0 12 26.25ZM21 27.25L21 27.75A0.25 0.25 0 0 1 20.75 28L19.25 28A0.25 0.25 0 0 0 19 28.25L19 28.75A0.25 0.25 0 0 0 19.25 29L22.75 29A0.25 0.25 0 0 0 23 28.75L23 27.25A0.25 0.25 0 0 0 22.75 27L21.25 27A0.25 0.25 0 0 0 21 27.25ZM14 28.25L14 28.75A0.25 0.25 0 0 0 14.25 29L14.75 29A0.25 0.25 0 0 0 15 28.75L15 28.25A0.25 0.25 0 0 0 14.75 28L14.25 28A0.25 0.25 0 0 0 14 28.25ZM0 0.25L0 6.75A0.25 0.25 0 0 0 0.25 7L6.75 7A0.25 0.25 0 0 0 7 6.75L7 0.25A0.25 0.25 0 0 0 6.75 0L0.25 0A0.25 0.25 0 0 0 0 0.25ZM1 1.25L1 5.75A0.25 0.25 0 0 0 1.25 6L5.75 6A0.25 0.25 0 0 0 6 5.75L6 1.25A0.25 0.25 0 0 0 5.75 1L1.25 1A0.25 0.25 0 0 0 1 1.25ZM2 2.25L2 4.75A0.25 0.25 0 0 0 2.25 5L4.75 5A0.25 0.25 0 0 0 5 4.75L5 2.25A0.25 0.25 0 0 0 4.75 2L2.25 2A0.25 0.25 0 0 0 2 2.25ZM22 0.25L22 6.75A0.25 0.25 0 0 0 22.25 7L28.75 7A0.25 0.25 0 0 0 29 6.75L29 0.25A0.25 0.25 0 0 0 28.75 0L22.25 0A0.25 0.25 0 0 0 22 0.25ZM23 1.25L23 5.75A0.25 0.25 0 0 0 23.25 6L27.75 6A0.25 0.25 0 0 0 28 5.75L28 1.25A0.25 0.25 0 0 0 27.75 1L23.25 1A0.25 0.25 0 0 0 23 1.25ZM24 2.25L24 4.75A0.25 0.25 0 0 0 24.25 5L26.75 5A0.25 0.25 0 0 0 27 4.75L27 2.25A0.25 0.25 0 0 0 26.75 2L24.25 2A0.25 0.25 0 0 0 24 2.25ZM0 22.25L0 28.75A0.25 0.25 0 0 0 0.25 29L6.75 29A0.25 0.25 0 0 0 7 28.75L7 22.25A0.25 0.25 0 0 0 6.75 22L0.25 22A0.25 0.25 0 0 0 0 22.25ZM1 23.25L1 27.75A0.25 0.25 0 0 0 1.25 28L5.75 28A0.25 0.25 0 0 0 6 27.75L6 23.25A0.25 0.25 0 0 0 5.75 23L1.25 23A0.25 0.25 0 0 0 1 23.25ZM2 24.25L2 26.75A0.25 0.25 0 0 0 2.25 27L4.75 27A0.25 0.25 0 0 0 5 26.75L5 24.25A0.25 0.25 0 0 0 4.75 24L2.25 24A0.25 0.25 0 0 0 2 24.25Z" fill="#000000"/></g></g></svg>
