<?xml version="1.0" encoding="UTF-8"?>
<svg xmlns="http://www.w3.org/2000/svg" version="1.1" width="200" height="200" viewBox="0 0 200 200"><rect x="0" y="0" width="200" height="200" fill="#ffffff"/><g transform="scale(6.897)"><g transform="translate(0,0)"><path fill-rule="evenodd" d="M8 0.25L8 0.75A0.25 0.25 0 0 0 8.25 1L9.75 1A0.25 0.25 0 0 1 10 1.25L10 1.75A0.25 0.25 0 0 1 9.75 2L8.25 2A0.25 0.25 0 0 0 8 2.25L8 2.75A0.25 0.25 0 0 0 8.25 3L9.75 3A0.25 0.25 0 0 0 10 2.75L10 2.25A0.25 0.25 0 0 1 10.25 2L10.75 2A0.25 0.25 0 0 0 11 1.75L11 0.25A0.25 0.25 0 0 0 10.75 0L8.25 0A0.25 0.25 0 0 0 8 0.25ZM16 0.25L16 0.75A0.25 0.25 0 0 1 15.75 1L15.25 1A0.25 0.25 0 0 0 15 1.25L15 4.75A0.25 0.25 0 0 1 14.75 5L14.25 5A0.25 0.25 0 0 1 14 4.75L14 4.25A0.25 0.25 0 0 0 13.75 4L13.25 4A0.25 0.25 0 0 0 13 4.25L13 5.75A0.25 0.25 0 0 1 12.75 6L12.25 6A0.25 0.25 0 0 0 12 6.25L12 7.75A0.25 0.25 0 0 0 12.25 8L12.75 8A0.25 0.25 0 0 1 13 8.25L13 9.75A0.25 0.25 0 0 1 12.75 10L11.25 10A0.25 0.25 0 0 1 11 9.75L11 9.25A0.25 0.25 0 0 0 10.75 9L7.25 9A0.25 0.25 0 0 1 7 8.75L7 8.25A0.25 0.25 0 0 0 6.75 8L5.25 8A0.25 0.25 0 0 0 5 8.25L5 8.75A0.25 0.25 0 0 1 4.75 9L1.25 9A0.25 0.25 0 0 0 1 9.25L1 9.75A0.25 0.25 0 0 1 0.75 10L0.25 10A0.25 0.25 0 0 0 0 10.25L0 20.75A0.25 0.25 0 0 0 0.25 21L0.75 21A0.25 0.25 0 0 0 1 20.75L1 19.25A0.25 0.25 0 0 1 1.25 19L1.75 19A0.25 0.25 0 0 0 2 18.75L2 18.25A0.25 0.25 0 0 1 2.25 18L2.75 18A0.25 0.25 0 0 0 3 17.75L3 17.25A0.25 0.25 0 0 1 3.25 17L3.75 17A0.25 0.25 0 0 0 4 16.75L4 15.25A0.25 0.25 0 0 0 3.75 15L2.25 15A0.25 0.25 0 0 1 2 14.75L2 14.25A0.25 0.25 0 0 1 2.25 14L5.75 14A0.25 0.25 0 0 1 6 14.25L6 14.75A0.25 0.25 0 0 1 5.75 15L5.25 15A0.25 0.25 0 0 0 5 15.25L5 15.75A0.25 0.25 0 0 0 5.25 16L5.75 16A0.25 0.25 0 0 1 6 16.25L6 16.75A0.25 0.25 0 0 0 6.25 17L7.75 17A0.25 0.25 0 0 1 8 17.25L8 18.75A0.25 0.25 0 0 0 8.25 19L9.75 19A0.25 0.25 0 0 1 10 19.25L10 19.75A0.25 0.25 0 0 0 10.25 20L10.75 20A0.25 0.25 0 0 1 11 20.25L11 20.75A0.25 0.25 0 0 0 11.25 21L11.75 21A0.25 0.25 0 0 0 12 20.75L12 19.25A0.25 0.25 0 0 1 12.25 19L12.75 19A0.25 0.25 0 0 1 13 19.25L13 21.75A0.25 0.25 0 0 1 12.75 22L12.25 22A0.25 0.25 0 0 0 12 22.25L12 22.75A0.25 0.25 0 0 0 12.25 23L12.75 23A0.25 0.25 0 0 1 13 23.25L13 23.75A0.25 0.25 0 0 1 12.75 24L11.25 24A0.25 0.25 0 0 1 11 23.75L11 23.25A0.25 0.25 0 0 0 10.75 23L10.25 23A0.25 0.25 0 0 1 10 22.75L10 21.25A0.25 0.25 0 0 0 9.75 21L8.25 21A0.25 0.25 0 0 1 8 20.75L8 20.25A0.25 0.25 0 0 0 7.75 20L5.25 20A0.25 0.25 0 0 1 5 19.75L5 19.25A0.25 0.25 0 0 1 5.25 19L6.75 19A0.25 0.25 0 0 0 7 18.75L7 18.25A0.25 0.25 0 0 0 6.75 18L5.25 18A0.25 0.25 0 0 0 5 18.25L5 18.75A0.25 0.25 0 0 1 4.75 19L3.25 19A0.25 0.25 0 0 0 3 19.25L3 19.75A0.25 0.25 0 0 1 2.75 20L2.25 20A0.25 0.25 0 0 0 2 20.25L2 20.75A0.25 0.25 0 0 0 2.25 21L2.75 21A0.25 0.25 0 0 0 3 20.75L3 20.25A0.25 0.25 0 0 1 3.25 20L4.75 20A0.25 0.25 0 0 1 5 20.25L5 20.75A0.25 0.25 0 0 0 5.25 21L7.75 21A0.25 0.25 0 0 1 8 21.25L8 21.75A0.25 0.25 0 0 0 8.25 22L8.75 22A0.25 0.25 0 0 1 9 22.25L9 22.75A0.25 0.25 0 0 1 8.75 23L8.25 23A0.25 0.25 0 0 0 8 23.25L8 23.75A0.25 0.25 0 0 0 8.25 24L9.75 24A0.25 0.25 0 0 1 10 24.25L10 24.75A0.25 0.25 0 0 1 9.75 25L9.25 25A0.25 0.25 0 0 0 9 25.25L9 28.75A0.25 0.25 0 0 0 9.25 29L9.75 29A0.25 0.25 0 0 0 10 28.75L10 28.25A0.25 0.25 0 0 1 10.25 28L10.75 28A0.25 0.25 0 0 0 11 27.75L11 27.25A0.25 0.25 0 0 1 11.25 27L12.75 27A0.25 0.25 0 0 1 13 27.25L13 27.75A0.25 0.25 0 0 1 12.75 28L12.25 28A0.25 0.25 0 0 0 12 28.25L12 28.75A0.25 0.25 0 0 0 12.25 29L12.75 29A0.25 0.25 0 0 0 13 28.75L13 28.25A0.25 0.25 0 0 1 13.25 28L14.75 28A0.25 0.25 0 0 0 15 27.75L15 27.25A0.25 0.25 0 0 1 15.25 27L17.75 27A0.25 0.25 0 0 1 18 27.25L18 27.75A0.25 0.25 0 0 1 17.75 28L16.25 28A0.25 0.25 0 0 0 16 28.25L16 28.75A0.25 0.25 0 0 0 16.25 29L18.75 29A0.25 0.25 0 0 0 19 28.75L19 27.25A0.25 0.25 0 0 1 19.25 27L19.75 27A0.25 0.25 0 0 1 20 27.25L20 27.75A0.25 0.25 0 0 0 20.25 28L20.75 28A0.25 0.25 0 0 1 21 28.25L21 28.75A0.25 0.25 0 0 0 21.25 29L24.75 29A0.25 0.25 0 0 0 25 28.75L25 28.25A0.25 0.25 0 0 1 25.25 28L25.75 28A0.25 0.25 0 0 1 26 28.25L26 28.75A0.25 0.25 0 0 0 26.25 29L26.75 29A0.25 0.25 0 0 0 27 28.75L27 27.25A0.25 0.25 0 0 1 27.25 27L27.75 27A0.25 0.25 0 0 1 28 27.25L28 27.75A0.25 0.25 0 0 0 28.25 28L28.75 28A0.25 0.25 0 0 0 29 27.75L29 27.25A0.25 0.25 0 0 0 28.75 27L28.25 27A0.25 0.25 0 0 1 28 26.75L28 25.25A0.25 0.25 0 0 1 28.25 25L28.75 25A0.25 0.25 0 0 0 29 24.75L29 24.25A0.25 0.25 0 0 0 28.75 24L28.25 24A0.25 0.25 0 0 0 28 24.25L28 24.75A0.25 0.25 0 0 1 27.75 25L27.25 25A0.25 0.25 0 0 0 27 25.25L27 25.75A0.25 0.25 0 0 1 26.75 26L22.25 26A0.25 0.25 0 0 0 22 26.25L22 27.75A0.25 0.25 0 0 1 21.75 28L21.25 28A0.25 0.25 0 0 1 21 27.75L21 27.25A0.25 0.25 0 0 0 20.75 27L20.25 27A0.25 0.25 0 0 1 20 26.75L20 26.25A0.25 0.25 0 0 1 20.25 26L20.75 26A0.25 0.25 0 0 0 21 25.75L21 25.25A0.25 0.25 0 0 1 21.25 25L25.75 25A0.25 0.25 0 0 0 26 24.75L26 23.25A0.25 0.25 0 0 0 25.75 23L25.25 23A0.25 0.25 0 0 1 25 22.75L25 22.25A0.25 0.25 0 0 1 25.25 22L26.75 22A0.25 0.25 0 0 1 27 22.25L27 22.75A0.25 0.25 0 0 0 27.25 23L27.75 23A0.25 0.25 0 0 0 28 22.75L28 21.25A0.25 0.25 0 0 0 27.75 21L27.25 21A0.25 0.25 0 0 1 27 20.75L27 20.25A0.25 0.25 0 0 0 26.75 20L26.25 20A0.25 0.25 0 0 1 26 19.75L26 19.25A0.25 0.25 0 0 0 25.75 19L24.25 19A0.25 0.25 0 0 0 24 19.25L24 19.75A0.25 0.25 0 0 1 23.75 20L22.25 20A0.25 0.25 0 0 1 22 19.75L22 19.25A0.25 0.25 0 0 1 22.25 19L22.75 19A0.25 0.25 0 0 0 23 18.75L23 17.25A0.25 0.25 0 0 1 23.25 17L23.75 17A0.25 0.25 0 0 1 24 17.25L24 17.75A0.25 0.25 0 0 0 24.25 18L24.75 18A0.25 0.25 0 0 0 25 17.75L25 17.25A0.25 0.25 0 0 0 24.75 17L24.25 17A0.25 0.25 0 0 1 24 16.75L24 16.25A0.25 0.25 0 0 1 24.25 16L25.75 16A0.25 0.25 0 0 1 26 16.25L26 16.75A0.25 0.25 0 0 0 26.25 17L27.75 17A0.25 0.25 0 0 1 28 17.25L28 18.75A0.25 0.25 0 0 0 28.25 19L28.75 19A0.25 0.25 0 0 0 29 18.75L29 17.25A0.25 0.25 0 0 0 28.75 17L28.25 17A0.25 0.25 0 0 1 28 16.75L28 16.25A0.25 0.25 0 0 0 27.75 16L27.25 16A0.25 0.25 0 0 1 27 15.75L27 15.25A0.25 0.25 0 0 1 27.25 15L27.75 15A0.25 0.25 0 0 0 28 14.75L28 14.25A0.25 0.25 0 0 1 28.25 14L28.75 14A0.25 0.25 0 0 0 29 13.75L29 12.25A0.25 0.25 0 0 0 28.75 12L28.25 12A0.25 0.25 0 0 1 28 11.75L28 9.25A0.25 0.25 0 0 1 28.25 9L28.75 9A0.25 0.25 0 0 0 29 8.75L29 8.25A0.25 0.25 0 0 0 28.75 8L28.25 8A0.25 0.25 0 0 0 28 8.25L28 8.75A0.25 0.25 0 0 1 27.75 9L27.25 9A0.25 0.25 0 0 1 27 8.75L27 8.25A0.25 0.25 0 0 0 26.75 8L26.25 8A0.25 0.25 0 0 0 26 8.25L26 8.75A0.25 0.25 0 0 1 25.75 9L25.25 9A0.25 0.25 0 0 1 25 8.75L25 8.25A0.25 0.25 0 0 0 24.75 8L24.25 8A0.25 0.25 0 0 0 24 8.25L24 9.75A0.25 0.25 0 0 1 23.75 10L23.25 10A0.25 0.25 0 0 0 23 10.25L23 11.75A0.25 0.25 0 0 1 22.75 12L22.25 12A0.25 0.25 0 0 0 22 12.25L22 13.75A0.25 0.25 0 0 1 21.75 14L21.25 14A0.25 0.25 0 0 0 21 14.25L21 14.75A0.25 0.25 0 0 1 20.75 15L20.25 15A0.25 0.25 0 0 0 20 15.25L20 15.75A0.25 0.25 0 0 0 20.25 16L20.75 16A0.25 0.25 0 0 0 21 15.75L21 15.25A0.25 0.25 0 0 1 21.25 15L21.75 15A0.25 0.25 0 0 0 22 14.75L22 14.25A0.25 0.25 0 0 1 22.25 14L22.75 14A0.25 0.25 0 0 0 23 13.75L23 12.25A0.25 0.25 0 0 1 23.25 12L24.75 12A0.25 0.25 0 0 1 25 12.25L25 12.75A0.25 0.25 0 0 1 24.75 13L24.25 13A0.25 0.25 0 0 0 24 13.25L24 13.75A0.25 0.25 0 0 0 24.25 14L24.75 14A0.25 0.25 0 0 0 25 13.75L25 13.25A0.25 0.25 0 0 1 25.25 13L25.75 13A0.25 0.25 0 0 0 26 12.75L26 10.25A0.25 0.25 0 0 1 26.25 10L26.75 10A0.25 0.25 0 0 1 27 10.25L27 13.75A0.25 0.25 0 0 1 26.75 14L26.25 14A0.25 0.25 0 0 0 26 14.25L26 14.75A0.25 0.25 0 0 1 25.75 15L23.25 15A0.25 0.25 0 0 0 23 15.25L23 16.75A0.25 0.25 0 0 1 22.75 17L22.25 17A0.25 0.25 0 0 0 22 17.25L22 18.75A0.25 0.25 0 0 1 21.75 19L21.25 19A0.25 0.25 0 0 1 21 18.75L21 17.25A0.25 0.25 0 0 0 20.75 17L20.25 17A0.25 0.25 0 0 0 20 17.25L20 18.75A0.25 0.25 0 0 1 19.75 19L19.25 19A0.25 0.25 0 0 1 19 18.75L19 17.25A0.25 0.25 0 0 0 18.75 17L18.25 17A0.25 0.25 0 0 1 18 16.75L18 16.25A0.25 0.25 0 0 0 17.75 16L17.25 16A0.25 0.25 0 0 1 17 15.75L17 15.25A0.25 0.25 0 0 1 17.25 15L17.75 15A0.25 0.25 0 0 0 18 14.75L18 14.25A0.25 0.25 0 0 1 18.25 14L19.75 14A0.25 0.25 0 0 0 20 13.75L20 12.25A0.25 0.25 0 0 0 19.75 12L19.25 12A0.25 0.25 0 0 0 19 12.25L19 12.75A0.25 0.25 0 0 1 18.75 13L18.25 13A0.25 0.25 0 0 0 18 13.25L18 13.75A0.25 0.25 0 0 1 17.75 14L14.25 14A0.25 0.25 0 0 0 14 14.25L14 14.75A0.25 0.25 0 0 0 14.25 15L15.75 15A0.25 0.25 0 0 1 16 15.25L16 15.75A0.25 0.25 0 0 1 15.75 16L14.25 16A0.25 0.25 0 0 0 14 16.25L14 17.75A0.25 0.25 0 0 0 14.25 18L17.75 18A0.25 0.25 0 0 1 18 18.25L18 18.75A0.25 0.25 0 0 1 17.75 19L17.25 19A0.25 0.25 0 0 0 17 19.25L17 20.75A0.25 0.25 0 0 0 17.25 21L17.75 21A0.25 0.25 0 0 0 18 20.75L18 20.25A0.25 0.25 0 0 1 18.25 20L18.75 20A0.25 0.25 0 0 1 19 20.25L19 21.75A0.25 0.25 0 0 1 18.75 22L18.25 22A0.25 0.25 0 0 0 18 22.25L18 22.75A0.25 0.25 0 0 1 17.75 23L17.25 23A0.25 0.25 0 0 0 17 23.25L17 23.75A0.25 0.25 0 0 0 17.25 24L17.75 24A0.25 0.25 0 0 0 18 23.75L18 23.25A0.25 0.25 0 0 1 18.25 23L19.75 23A0.25 0.25 0 0 1 20 23.25L20 23.75A0.25 0.25 0 0 1 19.75 24L19.25 24A0.25 0.25 0 0 0 19 24.25L19 24.75A0.25 0.25 0 0 1 18.75 25L18.25 25A0.25 0.25 0 0 0 18 25.25L18 25.75A0.25 0.25 0 0 1 17.75 26L17.25 26A0.25 0.25 0 0 1 17 25.75L17 25.25A0.25 0.25 0 0 0 16.75 25L16.25 25A0.25 0.25 0 0 0 16 25.25L16 25.75A0.25 0.25 0 0 1 15.75 26L15.25 26A0.25 0.25 0 0 1 15 25.75L15 25.25A0.25 0.25 0 0 0 14.75 25L14.25 25A0.25 0.25 0 0 1 14 24.75L14 23.25A0.25 0.25 0 0 1 14.25 23L15.75 23A0.25 0.25 0 0 0 16 22.75L16 22.25A0.25 0.25 0 0 0 15.75 22L15.25 22A0.25 0.25 0 0 1 15 21.75L15 21.25A0.25 0.25 0 0 1 15.25 21L15.75 21A0.25 0.25 0 0 0 16 20.75L16 19.25A0.25 0.25 0 0 0 15.75 19L13.25 19A0.25 0.25 0 0 1 13 18.75L13 18.25A0.25 0.25 0 0 0 12.75 18L12.25 18A0.25 0.25 0 0 1 12 17.75L12 17.25A0.25 0.25 0 0 1 12.25 17L12.75 17A0.25 0.25 0 0 0 13 16.75L13 13.25A0.25 0.25 0 0 1 13.25 13L16.75 13A0.25 0.25 0 0 0 17 12.75L17 12.25A0.25 0.25 0 0 1 17.25 12L17.75 12A0.25 0.25 0 0 0 18 11.75L18 11.25A0.25 0.25 0 0 0 17.75 11L17.25 11A0.25 0.25 0 0 0 17 11.25L17 11.75A0.25 0.25 0 0 1 16.75 12L16.25 12A0.25 0.25 0 0 1 16 11.75L16 11.25A0.25 0.25 0 0 0 15.75 11L15.25 11A0.25 0.25 0 0 1 15 10.75L15 10.25A0.25 0.25 0 0 1 15.25 10L16.75 10A0.25 0.25 0 0 0 17 9.75L17 9.25A0.25 0.25 0 0 0 16.75 9L16.25 9A0.25 0.25 0 0 1 16 8.75L16 8.25A0.25 0.25 0 0 1 16.25 8L16.75 8A0.25 0.25 0 0 0 17 7.75L17 6.25A0.25 0.25 0 0 0 16.75 6L16.25 6A0.25 0.25 0 0 1 16 5.75L16 5.25A0.25 0.25 0 0 1 16.25 5L16.75 5A0.25 0.25 0 0 0 17 4.75L17 4.25A0.25 0.25 0 0 1 17.25 4L18.75 4A0.25 0.25 0 0 1 19 4.25L19 4.75A0.25 0.25 0 0 1 18.75 5L18.25 5A0.25 0.25 0 0 0 18 5.25L18 6.75A0.25 0.25 0 0 0 18.25 7L18.75 7A0.25 0.25 0 0 1 19 7.25L19 7.75A0.25 0.25 0 0 1 18.75 8L18.25 8A0.25 0.25 0 0 0 18 8.25L18 8.75A0.25 0.25 0 0 0 18.25 9L18.75 9A0.25 0.25 0 0 0 19 8.75L19 8.25A0.25 0.25 0 0 1 19.25 8L19.75 8A0.25 0.25 0 0 1 20 8.25L20 10.75A0.25 0.25 0 0 0 20.25 11L21.75 11A0.25 0.25 0 0 0 22 10.75L22 9.25A0.25 0.25 0 0 1 22.25 9L22.75 9A0.25 0.25 0 0 0 23 8.75L23 8.25A0.25 0.25 0 0 0 22.75 8L22.25 8A0.25 0.25 0 0 0 22 8.25L22 8.75A0.25 0.25 0 0 1 21.75 9L21.25 9A0.25 0.25 0 0 1 21 8.75L21 5.25A0.25 0.25 0 0 0 20.75 5L20.25 5A0.25 0.25 0 0 1 20 4.75L20 3.25A0.25 0.25 0 0 1 20.25 3L20.75 3A0.25 0.25 0 0 0 21 2.75L21 2.25A0.25 0.25 0 0 0 20.75 2L20.25 2A0.25 0.25 0 0 1 20 1.75L20 0.25A0.25 0.25 0 0 0 19.75 0L18.25 0A0.25 0.25 0 0 0 18 0.25L18 1.75A0.25 0.25 0 0 0 18.25 2L18.75 2A0.25 0.25 0 0 1 19 2.25L19 2.75A0.25 0.25 0 0 1 18.75 3L17.25 3A0.25 0.25 0 0 0 17 3.25L17 3.75A0.25 0.25 0 0 1 16.75 4L16.25 4A0.25 0.25 0 0 1 16 3.75L16 1.25A0.25 0.25 0 0 1 16.25 1L16.75 1A0.25 0.25 0 0 0 17 0.75L17 0.25A0.25 0.25 0 0 0 16.75 0L16.25 0A0.25 0.25 0 0 0 16 0.25ZM12 1.25L12 2.75A0.25 0.25 0 0 1 11.75 3L11.25 3A0.25 0.25 0 0 0 11 3.25L11 4.75A0.25 0.25 0 0 1 10.75 5L9.25 5A0.25 0.25 0 0 1 9 4.75L9 4.25A0.25 0.25 0 0 0 8.75 4L8.25 4A0.25 0.25 0 0 0 8 4.25L8 4.75A0.25 0.25 0 0 0 8.25 5L8.75 5A0.25 0.25 0 0 1 9 5.25L9 5.75A0.25 0.25 0 0 1 8.75 6L8.25 6A0.25 0.25 0 0 0 8 6.25L8 7.75A0.25 0.25 0 0 0 8.25 8L9.75 8A0.25 0.25 0 0 0 10 7.75L10 7.25A0.25 0.25 0 0 1 10.25 7L10.75 7A0.25 0.25 0 0 0 11 6.75L11 5.25A0.25 0.25 0 0 1 11.25 5L11.75 5A0.25 0.25 0 0 0 12 4.75L12 3.25A0.25 0.25 0 0 1 12.25 3L13.75 3A0.25 0.25 0 0 0 14 2.75L14 2.25A0.25 0.25 0 0 0 13.75 2L13.25 2A0.25 0.25 0 0 1 13 1.75L13 1.25A0.25 0.25 0 0 0 12.75 1L12.25 1A0.25 0.25 0 0 0 12 1.25ZM19 5.25L19 6.75A0.25 0.25 0 0 0 19.25 7L19.75 7A0.25 0.25 0 0 0 20 6.75L20 5.25A0.25 0.25 0 0 0 19.75 5L19.25 5A0.25 0.25 0 0 0 19 5.25ZM9 6.25L9 6.75A0.25 0.25 0 0 0 9.25 7L9.75 7A0.25 0.25 0 0 0 10 6.75L10 6.25A0.25 0.25 0 0 0 9.75 6L9.25 6A0.25 0.25 0 0 0 9 6.25ZM13 6.25L13 6.75A0.25 0.25 0 0 0 13.25 7L13.75 7A0.25 0.25 0 0 0 14 6.75L14 6.25A0.25 0.25 0 0 0 13.75 6L13.25 6A0.25 0.25 0 0 0 13 6.25ZM15 6.25L15 7.75A0.25 0.25 0 0 1 14.75 8L14.25 8A0.25 0.25 0 0 0 14 8.25L14 8.75A0.25 0.25 0 0 0 14.25 9L14.75 9A0.25 0.25 0 0 0 15 8.75L15 8.25A0.25 0.25 0 0 1 15.25 8L15.75 8A0.25 0.25 0 0 0 16 7.75L16 6.25A0.25 0.25 0 0 0 15.75 6L15.25 6A0.25 0.25 0 0 0 15 6.25ZM5 9.25L5 9.75A0.25 0.25 0 0 1 4.75 10L1.25 10A0.25 0.25 0 0 0 1 10.25L1 10.75A0.25 0.25 0 0 0 1.25 11L1.75 11A0.25 0.25 0 0 1 2 11.25L2 11.75A0.25 0.25 0 0 0 2.25 12L6.75 12A0.25 0.25 0 0 1 7 12.25L7 12.75A0.25 0.25 0 0 1 6.75 13L6.25 13A0.25 0.25 0 0 0 6 13.25L6 13.75A0.25 0.25 0 0 0 6.25 14L6.75 14A0.25 0.25 0 0 1 7 14.25L7 14.75A0.25 0.25 0 0 1 6.75 15L6.25 15A0.25 0.25 0 0 0 6 15.25L6 15.75A0.25 0.25 0 0 0 6.25 16L6.75 16A0.25 0.25 0 0 0 7 15.75L7 15.25A0.25 0.25 0 0 1 7.25 15L7.75 15A0.25 0.25 0 0 1 8 15.25L8 16.75A0.25 0.25 0 0 0 8.25 17L8.75 17A0.25 0.25 0 0 1 9 17.25L9 17.75A0.25 0.25 0 0 0 9.25 18L9.75 18A0.25 0.25 0 0 1 10 18.25L10 18.75A0.25 0.25 0 0 0 10.25 19L11.75 19A0.25 0.25 0 0 0 12 18.75L12 18.25A0.25 0.25 0 0 0 11.75 18L11.25 18A0.25 0.25 0 0 1 11 17.75L11 17.25A0.25 0.25 0 0 1 11.25 17L11.75 17A0.25 0.25 0 0 0 12 16.75L12 16.25A0.25 0.25 0 0 0 11.75 16L10.25 16A0.25 0.25 0 0 1 10 15.75L10 15.25A0.25 0.25 0 0 1 10.25 15L11.75 15A0.25 0.25 0 0 0 12 14.75L12 14.25A0.25 0.25 0 0 0 11.75 14L10.25 14A0.25 0.25 0 0 1 10 13.75L10 13.25A0.25 0.25 0 0 1 10.25 13L10.75 13A0.25 0.25 0 0 0 11 12.75L11 10.25A0.25 0.25 0 0 0 10.75 10L10.25 10A0.25 0.25 0 0 0 10 10.25L10 11.75A0.25 0.25 0 0 1 9.75 12L9.25 12A0.25 0.25 0 0 1 9 11.75L9 10.25A0.25 0.25 0 0 0 8.75 10L7.25 10A0.25 0.25 0 0 1 7 9.75L7 9.25A0.25 0.25 0 0 0 6.75 9L5.25 9A0.25 0.25 0 0 0 5 9.25ZM5 10.25L5 10.75A0.25 0.25 0 0 0 5.25 11L6.75 11A0.25 0.25 0 0 0 7 10.75L7 10.25A0.25 0.25 0 0 0 6.75 10L5.25 10A0.25 0.25 0 0 0 5 10.25ZM24 10.25L24 10.75A0.25 0.25 0 0 0 24.25 11L24.75 11A0.25 0.25 0 0 0 25 10.75L25 10.25A0.25 0.25 0 0 0 24.75 10L24.25 10A0.25 0.25 0 0 0 24 10.25ZM12 11.25L12 12.75A0.25 0.25 0 0 0 12.25 13L12.75 13A0.25 0.25 0 0 0 13 12.75L13 11.25A0.25 0.25 0 0 0 12.75 11L12.25 11A0.25 0.25 0 0 0 12 11.25ZM14 11.25L14 11.75A0.25 0.25 0 0 0 14.25 12L14.75 12A0.25 0.25 0 0 0 15 11.75L15 11.25A0.25 0.25 0 0 0 14.75 11L14.25 11A0.25 0.25 0 0 0 14 11.25ZM7 13.25L7 13.75A0.25 0.25 0 0 0 7.25 14L7.75 14A0.25 0.25 0 0 1 8 14.25L8 14.75A0.25 0.25 0 0 0 8.25 15L8.75 15A0.25 0.25 0 0 0 9 14.75L9 13.25A0.25 0.25 0 0 0 8.75 13L7.25 13A0.25 0.25 0 0 0 7 13.25ZM9 16.25L9 16.75A0.25 0.25 0 0 0 9.25 17L9.75 17A0.25 0.25 0 0 0 10 16.75L10 16.25A0.25 0.25 0 0 0 9.75 16L9.25 16A0.25 0.25 0 0 0 9 16.25ZM25 20.25L25 20.75A0.25 0.25 0 0 0 25.25 21L25.75 21A0.25 0.25 0 0 0 26 20.75L26 20.25A0.25 0.25 0 0 0 25.75 20L25.25 20A0.25 0.25 0 0 0 25 20.25ZM21 21.25L21 23.75A0.25 0.25 0 0 0 21.25 24L23.75 24A0.25 0.25 0 0 0 24 23.75L24 21.25A0.25 0.25 0 0 0 23.75 21L21.25 21A0.25 0.25 0 0 0 21 21.25ZM22 22.25L22 22.75A0.25 0.25 0 0 0 22.25 23L22.75 23A0.25 0.25 0 0 0 23 22.75L23 22.25A0.25 0.25 0 0 0 22.75 22L22.25 22A0.25 0.25 0 0 0 22 22.25ZM10 25.25L10 26.75A0.25 0.25 0 0 0 10.25 27L10.75 27A0.25 0.25 0 0 0 11 26.75L11 26.25A0.25 0.25 0 0 1 11.25 26L11.75 26A0.25 0.25 0 0 0 12 25.75L12 25.25A0.25 0.25 0 0 0 11.75 25L10.25 25A0.25 0.25 0 0 0 10 25.25ZM13 25.25L13 25.75A0.25 0.25 0 0 0 13.25 26L13.75 26A0.25 0.25 0 0 1 14 26.25L14 26.75A0.25 0.25 0 0 0 14.25 27L14.75 27A0.25 0.25 0 0 0 15 26.75L15 26.25A0.25 0.25 0 0 0 14.75 26L14.25 26A0.25 0.25 0 0 1 14 25.75L14 25.25A0.25 0.25 0 0 0 13.75 25L13.25 25A0.25 0.25 0 0 0 13 25.25ZM19 25.25L19 25.75A0.25 0.25 0 0 0 19.25 26L19.75 26A0.25 0.25 0 0 0 20 25.75L20 25.25A0.25 0.25 0 0 0 19.75 25L19.25 25A0.25 0.25 0 0 0 19 25.25ZM23 27.25L23 27.75A0.25 0.25 0 0 0 23.25 28L23.75 28A0.25 0.25 0 0 0 24 27.75L24 27.25A0.25 0.25 0 0 0 23.75 27L23.25 27A0.25 0.25 0 0 0 23 27.25ZM0 0.25L0 6.75A0.25 0.25 0 0 0 0.25 7L6.75 7A0.25 0.25 0 0 0 7 6.75L7 0.25A0.25 0.25 0 0 0 6.75 0L0.25 0A0.25 0.25 0 0 0 0 0.25ZM1 1.25L1 5.75A0.25 0.25 0 0 0 1.25 6L5.75 6A0.25 0.25 0 0 0 6 5.75L6 1.25A0.25 0.25 0 0 0 5.75 1L1.25 1A0.25 0.25 0 0 0 1 1.25ZM2 2.25L2 4.75A0.25 0.25 0 0 0 2.25 5L4.75 5A0.25 0.25 0 0 0 5 4.75L5 2.25A0.25 0.25 0 0 0 4.75 2L2.25 2A0.25 0.25 0 0 0 2 2.25ZM22 0.25L22 6.75A0.25 0.25 0 0 0 22.25 7L28.75 7A0.25 0.25 0 0 0 29 6.75L29 0.25A0.25 0.25 0 0 0 28.75 0L22.25 0A0.25 0.25 0 0 0 22 0.25ZM23 1.25L23 5.75A0.25 0.25 0 0 0 23.25 6L27.75 6A0.25 0.25 0 0 0 28 5.75L28 1.25A0.25 0.25 0 0 0 27.75 1L23.25 1A0.25 0.25 0 0 0 23 1.25ZM24 2.25L24 4.75A0.25 0.25 0 0 0 24.25 5L26.75 5A0.25 0.25 0 0 0 27 4.75L27 2.25A0.25 0.25 0 0 0 26.75 2L24.25 2A0.25 0.25 0 0 0 24 2.25ZM0 22.25L0 28.75A0.25 0.25 0 0 0 0.25 29L6.75 29A0.25 0.25 0 0 0 7 28.75L7 22.25A0.25 0.25 0 0 0 6.75 22L0.25 22A0.25 0.25 0 0 0 0 22.25ZM1 23.25L1 27.75A0.25 0.25 0 0 0 1.25 28L5.75 28A0.25 0.25 0 0 0 6 27.75L6 23.25A0.25 0.25 0 0 0 5.75 23L1.25 23A0.25 0.25 0 0 0 1 23.25ZM2 24.25L2 26.75A0.25 0.25 0 0 0 2.25 27L4.75 27A0.25 0.25 0 0 0 5 26.75L5 24.25A0.25 0.25 0 0 0 4.75 24L2.25 24A0.25 0.25 0 0 0 2 24.25Z" fill="#000000"/></g></g></svg>
