<?xml version="1.0" encoding="UTF-8"?>
<svg xmlns="http://www.w3.org/2000/svg" version="1.1" width="200" height="200" viewBox="0 0 200 200"><rect x="0" y="0" width="200" height="200" fill="#ffffff"/><g transform="scale(6.897)"><g transform="translate(0,0)"><path fill-rule="evenodd" d="M8 0.25L8 2.75A0.25 0.25 0 0 0 8.25 3L8.75 3A0.25 0.25 0 0 0 9 2.75L9 0.25A0.25 0.25 0 0 0 8.75 0L8.25 0A0.25 0.25 0 0 0 8 0.25ZM18 0.25L18 1.75A0.25 0.25 0 0 0 18.25 2L18.75 2A0.25 0.25 0 0 1 19 2.25L19 3.75A0.25 0.25 0 0 1 18.75 4L18.25 4A0.25 0.25 0 0 1 18 3.75L18 3.25A0.25 0.25 0 0 0 17.75 3L17.25 3A0.25 0.25 0 0 1 17 2.75L17 2.25A0.25 0.25 0 0 0 16.75 2L16.25 2A0.25 0.25 0 0 1 16 1.75L16 1.25A0.25 0.25 0 0 0 15.75 1L15.25 1A0.25 0.25 0 0 0 15 1.25L15 1.75A0.25 0.25 0 0 1 14.75 2L14.25 2A0.25 0.25 0 0 0 14 2.25L14 2.75A0.25 0.25 0 0 0 14.25 3L14.75 3A0.25 0.25 0 0 1 15 3.25L15 3.75A0.25 0.25 0 0 0 15.25 4L15.75 4A0.25 0.25 0 0 1 16 4.25L16 4.75A0.25 0.25 0 0 1 15.75 5L15.25 5A0.25 0.25 0 0 0 15 5.25L15 5.75A0.25 0.25 0 0 1 14.75 6L14.25 6A0.25 0.25 0 0 0 14 6.25L14 6.75A0.25 0.25 0 0 1 13.75 7L13.25 7A0.25 0.25 0 0 1 13 6.75L13 5.25A0.25 0.25 0 0 1 13.25 5L13.75 5A0.25 0.25 0 0 0 14 4.75L14 4.25A0.25 0.25 0 0 0 13.75 4L13.25 4A0.25 0.25 0 0 1 13 3.75L13 1.25A0.25 0.25 0 0 0 12.75 1L10.25 1A0.25 0.25 0 0 0 10 1.25L10 2.75A0.25 0.25 0 0 0 10.25 3L10.75 3A0.25 0.25 0 0 0 11 2.75L11 2.25A0.25 0.25 0 0 1 11.25 2L11.75 2A0.25 0.25 0 0 1 12 2.25L12 3.75A0.25 0.25 0 0 0 12.25 4L12.75 4A0.25 0.25 0 0 1 13 4.25L13 4.75A0.25 0.25 0 0 1 12.75 5L11.25 5A0.25 0.25 0 0 1 11 4.75L11 4.25A0.25 0.25 0 0 0 10.75 4L10.25 4A0.25 0.25 0 0 0 10 4.25L10 6.75A0.25 0.25 0 0 1 9.75 7L9.25 7A0.25 0.25 0 0 1 9 6.75L9 5.25A0.25 0.25 0 0 0 8.75 5L8.25 5A0.25 0.25 0 0 0 8 5.25L8 8.75A0.25 0.25 0 0 0 8.25 9L8.75 9A0.25 0.25 0 0 1 9 9.25L9 9.75A0.25 0.25 0 0 0 9.25 10L9.75 10A0.25 0.25 0 0 0 10 9.75L10 9.25A0.25 0.25 0 0 1 10.25 9L10.75 9A0.25 0.25 0 0 1 11 9.25L11 11.75A0.25 0.25 0 0 0 11.25 12L11.75 12A0.25 0.25 0 0 1 12 12.25L12 12.75A0.25 0.25 0 0 1 11.75 13L8.25 13A0.25 0.25 0 0 0 8 13.25L8 13.75A0.25 0.25 0 0 0 8.25 14L8.75 14A0.25 0.25 0 0 1 9 14.25L9 14.75A0.25 0.25 0 0 0 9.25 15L9.75 15A0.25 0.25 0 0 0 10 14.75L10 14.25A0.25 0.25 0 0 1 10.25 14L11.75 14A0.25 0.25 0 0 0 12 13.75L12 13.25A0.25 0.25 0 0 1 12.25 13L12.75 13A0.25 0.25 0 0 1 13 13.25L13 14.75A0.25 0.25 0 0 1 12.75 15L11.25 15A0.25 0.25 0 0 0 11 15.25L11 15.75A0.25 0.25 0 0 1 10.75 16L9.25 16A0.25 0.25 0 0 0 9 16.25L9 16.75A0.25 0.25 0 0 0 9.25 17L9.75 17A0.25 0.25 0 0 1 10 17.25L10 17.75A0.25 0.25 0 0 1 9.75 18L9.25 18A0.25 0.25 0 0 0 9 18.25L9 18.75A0.25 0.25 0 0 1 8.75 19L8.25 19A0.25 0.25 0 0 1 8 18.75L8 18.25A0.25 0.25 0 0 0 7.75 18L6.25 18A0.25 0.25 0 0 1 6 17.75L6 17.25A0.25 0.25 0 0 1 6.25 17L7.75 17A0.25 0.25 0 0 0 8 16.75L8 16.25A0.25 0.25 0 0 0 7.75 16L6.25 16A0.25 0.25 0 0 1 6 15.75L6 15.25A0.25 0.25 0 0 1 6.25 15L6.75 15A0.25 0.25 0 0 0 7 14.75L7 14.25A0.25 0.25 0 0 0 6.75 14L6.25 14A0.25 0.25 0 0 1 6 13.75L6 13.25A0.25 0.25 0 0 1 6.25 13L6.75 13A0.25 0.25 0 0 0 7 12.75L7 12.25A0.25 0.25 0 0 1 7.25 12L7.75 12A0.25 0.25 0 0 0 8 11.75L8 10.25A0.25 0.25 0 0 0 7.75 10L6.25 10A0.25 0.25 0 0 1 6 9.75L6 9.25A0.25 0.25 0 0 1 6.25 9L6.75 9A0.25 0.25 0 0 0 7 8.75L7 8.25A0.25 0.25 0 0 0 6.75 8L6.25 8A0.25 0.25 0 0 0 6 8.25L6 8.75A0.25 0.25 0 0 1 5.75 9L5.25 9A0.25 0.25 0 0 1 5 8.75L5 8.25A0.25 0.25 0 0 0 4.75 8L2.25 8A0.25 0.25 0 0 0 2 8.25L2 8.75A0.25 0.25 0 0 1 1.75 9L1.25 9A0.25 0.25 0 0 0 1 9.25L1 9.75A0.25 0.25 0 0 1 0.75 10L0.25 10A0.25 0.25 0 0 0 0 10.25L0 12.75A0.25 0.25 0 0 0 0.25 13L0.75 13A0.25 0.25 0 0 0 1 12.75L1 11.25A0.25 0.25 0 0 1 1.25 11L1.75 11A0.25 0.25 0 0 0 2 10.75L2 9.25A0.25 0.25 0 0 1 2.25 9L2.75 9A0.25 0.25 0 0 1 3 9.25L3 12.75A0.25 0.25 0 0 1 2.75 13L2.25 13A0.25 0.25 0 0 0 2 13.25L2 13.75A0.25 0.25 0 0 1 1.75 14L0.25 14A0.25 0.25 0 0 0 0 14.25L0 15.75A0.25 0.25 0 0 0 0.25 16L0.75 16A0.25 0.25 0 0 0 1 15.75L1 15.25A0.25 0.25 0 0 1 1.25 15L3.75 15A0.25 0.25 0 0 1 4 15.25L4 15.75A0.25 0.25 0 0 1 3.75 16L3.25 16A0.25 0.25 0 0 0 3 16.25L3 16.75A0.25 0.25 0 0 1 2.75 17L2.25 17A0.25 0.25 0 0 0 2 17.25L2 18.75A0.25 0.25 0 0 0 2.25 19L3.75 19A0.25 0.25 0 0 0 4 18.75L4 18.25A0.25 0.25 0 0 1 4.25 18L5.75 18A0.25 0.25 0 0 1 6 18.25L6 18.75A0.25 0.25 0 0 1 5.75 19L5.25 19A0.25 0.25 0 0 0 5 19.25L5 19.75A0.25 0.25 0 0 1 4.75 20L3.25 20A0.25 0.25 0 0 0 3 20.25L3 20.75A0.25 0.25 0 0 0 3.25 21L4.75 21A0.25 0.25 0 0 0 5 20.75L5 20.25A0.25 0.25 0 0 1 5.25 20L5.75 20A0.25 0.25 0 0 1 6 20.25L6 20.75A0.25 0.25 0 0 0 6.25 21L6.75 21A0.25 0.25 0 0 0 7 20.75L7 20.25A0.25 0.25 0 0 0 6.75 20L6.25 20A0.25 0.25 0 0 1 6 19.75L6 19.25A0.25 0.25 0 0 1 6.25 19L7.75 19A0.25 0.25 0 0 1 8 19.25L8 19.75A0.25 0.25 0 0 0 8.25 20L8.75 20A0.25 0.25 0 0 1 9 20.25L9 20.75A0.25 0.25 0 0 1 8.75 21L8.25 21A0.25 0.25 0 0 0 8 21.25L8 21.75A0.25 0.25 0 0 0 8.25 22L9.75 22A0.25 0.25 0 0 0 10 21.75L10 21.25A0.25 0.25 0 0 1 10.25 21L10.75 21A0.25 0.25 0 0 1 11 21.25L11 21.75A0.25 0.25 0 0 0 11.25 22L11.75 22A0.25 0.25 0 0 1 12 22.25L12 22.75A0.25 0.25 0 0 0 12.25 23L12.75 23A0.25 0.25 0 0 1 13 23.25L13 23.75A0.25 0.25 0 0 0 13.25 24L13.75 24A0.25 0.25 0 0 1 14 24.25L14 25.75A0.25 0.25 0 0 1 13.75 26L13.25 26A0.25 0.25 0 0 1 13 25.75L13 25.25A0.25 0.25 0 0 0 12.75 25L12.25 25A0.25 0.25 0 0 1 12 24.75L12 24.25A0.25 0.25 0 0 0 11.75 24L11.25 24A0.25 0.25 0 0 0 11 24.25L11 25.75A0.25 0.25 0 0 1 10.75 26L9.25 26A0.25 0.25 0 0 1 9 25.75L9 25.25A0.25 0.25 0 0 1 9.25 25L9.75 25A0.25 0.25 0 0 0 10 24.75L10 23.25A0.25 0.25 0 0 0 9.75 23L9.25 23A0.25 0.25 0 0 0 9 23.25L9 23.75A0.25 0.25 0 0 1 8.75 24L8.25 24A0.25 0.25 0 0 0 8 24.25L8 26.75A0.25 0.25 0 0 0 8.25 27L8.75 27A0.25 0.25 0 0 1 9 27.25L9 27.75A0.25 0.25 0 0 0 9.25 28L9.75 28A0.25 0.25 0 0 1 10 28.25L10 28.75A0.25 0.25 0 0 0 10.25 29L10.75 29A0.25 0.25 0 0 0 11 28.75L11 28.25A0.25 0.25 0 0 1 11.25 28L12.75 28A0.25 0.25 0 0 0 13 27.75L13 27.25A0.25 0.25 0 0 1 13.25 27L13.75 27A0.25 0.25 0 0 1 14 27.25L14 27.75A0.25 0.25 0 0 0 14.25 28L14.75 28A0.25 0.25 0 0 1 15 28.25L15 28.75A0.25 0.25 0 0 0 15.25 29L18.75 29A0.25 0.25 0 0 0 19 28.75L19 28.25A0.25 0.25 0 0 0 18.75 28L18.25 28A0.25 0.25 0 0 1 18 27.75L18 27.25A0.25 0.25 0 0 1 18.25 27L18.75 27A0.25 0.25 0 0 0 19 26.75L19 26.25A0.25 0.25 0 0 0 18.75 26L18.25 26A0.25 0.25 0 0 1 18 25.75L18 25.25A0.25 0.25 0 0 0 17.75 25L17.25 25A0.25 0.25 0 0 0 17 25.25L17 27.75A0.25 0.25 0 0 1 16.75 28L16.25 28A0.25 0.25 0 0 1 16 27.75L16 27.25A0.25 0.25 0 0 0 15.75 27L15.25 27A0.25 0.25 0 0 1 15 26.75L15 25.25A0.25 0.25 0 0 1 15.25 25L15.75 25A0.25 0.25 0 0 0 16 24.75L16 24.25A0.25 0.25 0 0 1 16.25 24L18.75 24A0.25 0.25 0 0 0 19 23.75L19 23.25A0.25 0.25 0 0 1 19.25 23L19.75 23A0.25 0.25 0 0 1 20 23.25L20 24.75A0.25 0.25 0 0 0 20.25 25L20.75 25A0.25 0.25 0 0 1 21 25.25L21 25.75A0.25 0.25 0 0 0 21.25 26L21.75 26A0.25 0.25 0 0 1 22 26.25L22 26.75A0.25 0.25 0 0 0 22.25 27L24.75 27A0.25 0.25 0 0 1 25 27.25L25 27.75A0.25 0.25 0 0 1 24.75 28L23.25 28A0.25 0.25 0 0 0 23 28.25L23 28.75A0.25 0.25 0 0 0 23.25 29L24.75 29A0.25 0.25 0 0 0 25 28.75L25 28.25A0.25 0.25 0 0 1 25.25 28L25.75 28A0.25 0.25 0 0 1 26 28.25L26 28.75A0.25 0.25 0 0 0 26.25 29L26.75 29A0.25 0.25 0 0 0 27 28.75L27 28.25A0.25 0.25 0 0 1 27.25 28L27.75 28A0.25 0.25 0 0 0 28 27.75L28 26.25A0.25 0.25 0 0 0 27.75 26L26.25 26A0.25 0.25 0 0 0 26 26.25L26 26.75A0.25 0.25 0 0 1 25.75 27L25.25 27A0.25 0.25 0 0 1 25 26.75L25 26.25A0.25 0.25 0 0 0 24.75 26L22.25 26A0.25 0.25 0 0 1 22 25.75L22 25.25A0.25 0.25 0 0 1 22.25 25L24.75 25A0.25 0.25 0 0 0 25 24.75L25 24.25A0.25 0.25 0 0 1 25.25 24L25.75 24A0.25 0.25 0 0 1 26 24.25L26 24.75A0.25 0.25 0 0 0 26.25 25L26.75 25A0.25 0.25 0 0 0 27 24.75L27 24.25A0.25 0.25 0 0 0 26.75 24L26.25 24A0.25 0.25 0 0 1 26 23.75L26 23.25A0.25 0.25 0 0 0 25.75 23L25.25 23A0.25 0.25 0 0 1 25 22.75L25 22.25A0.25 0.25 0 0 1 25.25 22L25.75 22A0.25 0.25 0 0 0 26 21.75L26 21.25A0.25 0.25 0 0 1 26.25 21L26.75 21A0.25 0.25 0 0 0 27 20.75L27 20.25A0.25 0.25 0 0 1 27.25 20L27.75 20A0.25 0.25 0 0 0 28 19.75L28 19.25A0.25 0.25 0 0 0 27.75 19L27.25 19A0.25 0.25 0 0 0 27 19.25L27 19.75A0.25 0.25 0 0 1 26.75 20L25.25 20A0.25 0.25 0 0 1 25 19.75L25 18.25A0.25 0.25 0 0 1 25.25 18L25.75 18A0.25 0.25 0 0 0 26 17.75L26 17.25A0.25 0.25 0 0 1 26.25 17L26.75 17A0.25 0.25 0 0 1 27 17.25L27 17.75A0.25 0.25 0 0 0 27.25 18L28.75 18A0.25 0.25 0 0 0 29 17.75L29 17.25A0.25 0.25 0 0 0 28.75 17L28.25 17A0.25 0.25 0 0 1 28 16.75L28 16.25A0.25 0.25 0 0 0 27.75 16L26.25 16A0.25 0.25 0 0 1 26 15.75L26 15.25A0.25 0.25 0 0 1 26.25 15L27.75 15A0.25 0.25 0 0 0 28 14.75L28 14.25A0.25 0.25 0 0 1 28.25 14L28.75 14A0.25 0.25 0 0 0 29 13.75L29 13.25A0.25 0.25 0 0 0 28.75 13L28.25 13A0.25 0.25 0 0 1 28 12.75L28 12.25A0.25 0.25 0 0 0 27.75 12L26.25 12A0.25 0.25 0 0 1 26 11.75L26 9.25A0.25 0.25 0 0 1 26.25 9L26.75 9A0.25 0.25 0 0 1 27 9.25L27 9.75A0.25 0.25 0 0 0 27.25 10L28.75 10A0.25 0.25 0 0 0 29 9.75L29 8.25A0.25 0.25 0 0 0 28.75 8L26.25 8A0.25 0.25 0 0 0 26 8.25L26 8.75A0.25 0.25 0 0 1 25.75 9L24.25 9A0.25 0.25 0 0 1 24 8.75L24 8.25A0.25 0.25 0 0 0 23.75 8L21.25 8A0.25 0.25 0 0 1 21 7.75L21 6.25A0.25 0.25 0 0 0 20.75 6L20.25 6A0.25 0.25 0 0 0 20 6.25L20 8.75A0.25 0.25 0 0 0 20.25 9L20.75 9A0.25 0.25 0 0 1 21 9.25L21 9.75A0.25 0.25 0 0 1 20.75 10L20.25 10A0.25 0.25 0 0 0 20 10.25L20 10.75A0.25 0.25 0 0 0 20.25 11L21.75 11A0.25 0.25 0 0 1 22 11.25L22 11.75A0.25 0.25 0 0 1 21.75 12L20.25 12A0.25 0.25 0 0 0 20 12.25L20 12.75A0.25 0.25 0 0 1 19.75 13L18.25 13A0.25 0.25 0 0 1 18 12.75L18 12.25A0.25 0.25 0 0 1 18.25 12L18.75 12A0.25 0.25 0 0 0 19 11.75L19 10.25A0.25 0.25 0 0 0 18.75 10L18.25 10A0.25 0.25 0 0 1 18 9.75L18 9.25A0.25 0.25 0 0 1 18.25 9L18.75 9A0.25 0.25 0 0 0 19 8.75L19 8.25A0.25 0.25 0 0 0 18.75 8L18.25 8A0.25 0.25 0 0 0 18 8.25L18 8.75A0.25 0.25 0 0 1 17.75 9L16.25 9A0.25 0.25 0 0 1 16 8.75L16 8.25A0.25 0.25 0 0 1 16.25 8L16.75 8A0.25 0.25 0 0 0 17 7.75L17 4.25A0.25 0.25 0 0 1 17.25 4L17.75 4A0.25 0.25 0 0 1 18 4.25L18 6.75A0.25 0.25 0 0 0 18.25 7L18.75 7A0.25 0.25 0 0 0 19 6.75L19 5.25A0.25 0.25 0 0 1 19.25 5L19.75 5A0.25 0.25 0 0 0 20 4.75L20 4.25A0.25 0.25 0 0 1 20.25 4L20.75 4A0.25 0.25 0 0 0 21 3.75L21 2.25A0.25 0.25 0 0 0 20.75 2L20.25 2A0.25 0.25 0 0 1 20 1.75L20 1.25A0.25 0.25 0 0 1 20.25 1L20.75 1A0.25 0.25 0 0 0 21 0.75L21 0.25A0.25 0.25 0 0 0 20.75 0L20.25 0A0.25 0.25 0 0 0 20 0.25L20 0.75A0.25 0.25 0 0 1 19.75 1L19.25 1A0.25 0.25 0 0 1 19 0.75L19 0.25A0.25 0.25 0 0 0 18.75 0L18.25 0A0.25 0.25 0 0 0 18 0.25ZM11 6.25L11 6.75A0.25 0.25 0 0 0 11.25 7L11.75 7A0.25 0.25 0 0 0 12 6.75L12 6.25A0.25 0.25 0 0 0 11.75 6L11.25 6A0.25 0.25 0 0 0 11 6.25ZM15 6.25L15 6.75A0.25 0.25 0 0 1 14.75 7L14.25 7A0.25 0.25 0 0 0 14 7.25L14 7.75A0.25 0.25 0 0 0 14.25 8L14.75 8A0.25 0.25 0 0 0 15 7.75L15 7.25A0.25 0.25 0 0 1 15.25 7L15.75 7A0.25 0.25 0 0 0 16 6.75L16 6.25A0.25 0.25 0 0 0 15.75 6L15.25 6A0.25 0.25 0 0 0 15 6.25ZM12 8.25L12 10.75A0.25 0.25 0 0 0 12.25 11L12.75 11A0.25 0.25 0 0 1 13 11.25L13 12.75A0.25 0.25 0 0 0 13.25 13L14.75 13A0.25 0.25 0 0 1 15 13.25L15 13.75A0.25 0.25 0 0 1 14.75 14L14.25 14A0.25 0.25 0 0 0 14 14.25L14 15.75A0.25 0.25 0 0 1 13.75 16L12.25 16A0.25 0.25 0 0 0 12 16.25L12 17.75A0.25 0.25 0 0 0 12.25 18L12.75 18A0.25 0.25 0 0 0 13 17.75L13 17.25A0.25 0.25 0 0 1 13.25 17L13.75 17A0.25 0.25 0 0 1 14 17.25L14 17.75A0.25 0.25 0 0 0 14.25 18L14.75 18A0.25 0.25 0 0 0 15 17.75L15 17.25A0.25 0.25 0 0 0 14.75 17L14.25 17A0.25 0.25 0 0 1 14 16.75L14 16.25A0.25 0.25 0 0 1 14.25 16L15.75 16A0.25 0.25 0 0 1 16 16.25L16 16.75A0.25 0.25 0 0 0 16.25 17L16.75 17A0.25 0.25 0 0 0 17 16.75L17 16.25A0.25 0.25 0 0 0 16.75 16L16.25 16A0.25 0.25 0 0 1 16 15.75L16 15.25A0.25 0.25 0 0 0 15.75 15L15.25 15A0.25 0.25 0 0 1 15 14.75L15 14.25A0.25 0.25 0 0 1 15.25 14L15.75 14A0.25 0.25 0 0 0 16 13.75L16 13.25A0.25 0.25 0 0 0 15.75 13L15.25 13A0.25 0.25 0 0 1 15 12.75L15 12.25A0.25 0.25 0 0 1 15.25 12L15.75 12A0.25 0.25 0 0 0 16 11.75L16 9.25A0.25 0.25 0 0 0 15.75 9L13.25 9A0.25 0.25 0 0 1 13 8.75L13 8.25A0.25 0.25 0 0 0 12.75 8L12.25 8A0.25 0.25 0 0 0 12 8.25ZM4 10.25L4 11.75A0.25 0.25 0 0 0 4.25 12L6.75 12A0.25 0.25 0 0 0 7 11.75L7 11.25A0.25 0.25 0 0 0 6.75 11L5.25 11A0.25 0.25 0 0 1 5 10.75L5 10.25A0.25 0.25 0 0 0 4.75 10L4.25 10A0.25 0.25 0 0 0 4 10.25ZM17 10.25L17 11.75A0.25 0.25 0 0 0 17.25 12L17.75 12A0.25 0.25 0 0 0 18 11.75L18 10.25A0.25 0.25 0 0 0 17.75 10L17.25 10A0.25 0.25 0 0 0 17 10.25ZM22 10.25L22 10.75A0.25 0.25 0 0 0 22.25 11L22.75 11A0.25 0.25 0 0 1 23 11.25L23 11.75A0.25 0.25 0 0 1 22.75 12L22.25 12A0.25 0.25 0 0 0 22 12.25L22 12.75A0.25 0.25 0 0 1 21.75 13L20.25 13A0.25 0.25 0 0 0 20 13.25L20 13.75A0.25 0.25 0 0 1 19.75 14L19.25 14A0.25 0.25 0 0 0 19 14.25L19 14.75A0.25 0.25 0 0 1 18.75 15L18.25 15A0.25 0.25 0 0 1 18 14.75L18 14.25A0.25 0.25 0 0 0 17.75 14L17.25 14A0.25 0.25 0 0 0 17 14.25L17 14.75A0.25 0.25 0 0 0 17.25 15L17.75 15A0.25 0.25 0 0 1 18 15.25L18 17.75A0.25 0.25 0 0 1 17.75 18L16.25 18A0.25 0.25 0 0 0 16 18.25L16 18.75A0.25 0.25 0 0 0 16.25 19L18.75 19A0.25 0.25 0 0 0 19 18.75L19 18.25A0.25 0.25 0 0 1 19.25 18L19.75 18A0.25 0.25 0 0 1 20 18.25L20 18.75A0.25 0.25 0 0 0 20.25 19L20.75 19A0.25 0.25 0 0 1 21 19.25L21 19.75A0.25 0.25 0 0 0 21.25 20L23.75 20A0.25 0.25 0 0 0 24 19.75L24 19.25A0.25 0.25 0 0 0 23.75 19L23.25 19A0.25 0.25 0 0 1 23 18.75L23 18.25A0.25 0.25 0 0 1 23.25 18L23.75 18A0.25 0.25 0 0 0 24 17.75L24 17.25A0.25 0.25 0 0 1 24.25 17L25.75 17A0.25 0.25 0 0 0 26 16.75L26 16.25A0.25 0.25 0 0 0 25.75 16L24.25 16A0.25 0.25 0 0 0 24 16.25L24 16.75A0.25 0.25 0 0 1 23.75 17L23.25 17A0.25 0.25 0 0 1 23 16.75L23 16.25A0.25 0.25 0 0 0 22.75 16L22.25 16A0.25 0.25 0 0 1 22 15.75L22 15.25A0.25 0.25 0 0 1 22.25 15L23.75 15A0.25 0.25 0 0 0 24 14.75L24 13.25A0.25 0.25 0 0 1 24.25 13L24.75 13A0.25 0.25 0 0 1 25 13.25L25 14.75A0.25 0.25 0 0 0 25.25 15L25.75 15A0.25 0.25 0 0 0 26 14.75L26 14.25A0.25 0.25 0 0 1 26.25 14L27.75 14A0.25 0.25 0 0 0 28 13.75L28 13.25A0.25 0.25 0 0 0 27.75 13L26.25 13A0.25 0.25 0 0 1 26 12.75L26 12.25A0.25 0.25 0 0 0 25.75 12L25.25 12A0.25 0.25 0 0 1 25 11.75L25 11.25A0.25 0.25 0 0 0 24.75 11L24.25 11A0.25 0.25 0 0 1 24 10.75L24 10.25A0.25 0.25 0 0 0 23.75 10L22.25 10A0.25 0.25 0 0 0 22 10.25ZM9 11.25L9 11.75A0.25 0.25 0 0 0 9.25 12L9.75 12A0.25 0.25 0 0 0 10 11.75L10 11.25A0.25 0.25 0 0 0 9.75 11L9.25 11A0.25 0.25 0 0 0 9 11.25ZM14 11.25L14 11.75A0.25 0.25 0 0 0 14.25 12L14.75 12A0.25 0.25 0 0 0 15 11.75L15 11.25A0.25 0.25 0 0 0 14.75 11L14.25 11A0.25 0.25 0 0 0 14 11.25ZM23 12.25L23 12.75A0.25 0.25 0 0 1 22.75 13L22.25 13A0.25 0.25 0 0 0 22 13.25L22 13.75A0.25 0.25 0 0 1 21.75 14L20.25 14A0.25 0.25 0 0 0 20 14.25L20 14.75A0.25 0.25 0 0 1 19.75 15L19.25 15A0.25 0.25 0 0 0 19 15.25L19 15.75A0.25 0.25 0 0 0 19.25 16L19.75 16A0.25 0.25 0 0 0 20 15.75L20 15.25A0.25 0.25 0 0 1 20.25 15L21.75 15A0.25 0.25 0 0 0 22 14.75L22 14.25A0.25 0.25 0 0 1 22.25 14L22.75 14A0.25 0.25 0 0 0 23 13.75L23 13.25A0.25 0.25 0 0 1 23.25 13L23.75 13A0.25 0.25 0 0 0 24 12.75L24 12.25A0.25 0.25 0 0 0 23.75 12L23.25 12A0.25 0.25 0 0 0 23 12.25ZM3 13.25L3 13.75A0.25 0.25 0 0 0 3.25 14L3.75 14A0.25 0.25 0 0 0 4 13.75L4 13.25A0.25 0.25 0 0 0 3.75 13L3.25 13A0.25 0.25 0 0 0 3 13.25ZM5 14.25L5 14.75A0.25 0.25 0 0 0 5.25 15L5.75 15A0.25 0.25 0 0 0 6 14.75L6 14.25A0.25 0.25 0 0 0 5.75 14L5.25 14A0.25 0.25 0 0 0 5 14.25ZM4 16.25L4 16.75A0.25 0.25 0 0 1 3.75 17L3.25 17A0.25 0.25 0 0 0 3 17.25L3 17.75A0.25 0.25 0 0 0 3.25 18L3.75 18A0.25 0.25 0 0 0 4 17.75L4 17.25A0.25 0.25 0 0 1 4.25 17L4.75 17A0.25 0.25 0 0 0 5 16.75L5 16.25A0.25 0.25 0 0 0 4.75 16L4.25 16A0.25 0.25 0 0 0 4 16.25ZM0 17.25L0 20.75A0.25 0.25 0 0 0 0.25 21L0.75 21A0.25 0.25 0 0 0 1 20.75L1 17.25A0.25 0.25 0 0 0 0.75 17L0.25 17A0.25 0.25 0 0 0 0 17.25ZM20 17.25L20 17.75A0.25 0.25 0 0 0 20.25 18L22.75 18A0.25 0.25 0 0 0 23 17.75L23 17.25A0.25 0.25 0 0 0 22.75 17L20.25 17A0.25 0.25 0 0 0 20 17.25ZM9 19.25L9 19.75A0.25 0.25 0 0 0 9.25 20L9.75 20A0.25 0.25 0 0 0 10 19.75L10 19.25A0.25 0.25 0 0 0 9.75 19L9.25 19A0.25 0.25 0 0 0 9 19.25ZM11 19.25L11 20.75A0.25 0.25 0 0 0 11.25 21L11.75 21A0.25 0.25 0 0 0 12 20.75L12 19.25A0.25 0.25 0 0 0 11.75 19L11.25 19A0.25 0.25 0 0 0 11 19.25ZM13 19.25L13 22.75A0.25 0.25 0 0 0 13.25 23L13.75 23A0.25 0.25 0 0 1 14 23.25L14 23.75A0.25 0.25 0 0 0 14.25 24L14.75 24A0.25 0.25 0 0 0 15 23.75L15 22.25A0.25 0.25 0 0 1 15.25 22L15.75 22A0.25 0.25 0 0 0 16 21.75L16 21.25A0.25 0.25 0 0 1 16.25 21L16.75 21A0.25 0.25 0 0 0 17 20.75L17 20.25A0.25 0.25 0 0 0 16.75 20L16.25 20A0.25 0.25 0 0 0 16 20.25L16 20.75A0.25 0.25 0 0 1 15.75 21L15.25 21A0.25 0.25 0 0 1 15 20.75L15 20.25A0.25 0.25 0 0 0 14.75 20L14.25 20A0.25 0.25 0 0 1 14 19.75L14 19.25A0.25 0.25 0 0 0 13.75 19L13.25 19A0.25 0.25 0 0 0 13 19.25ZM18 20.25L18 21.75A0.25 0.25 0 0 1 17.75 22L17.25 22A0.25 0.25 0 0 0 17 22.25L17 22.75A0.25 0.25 0 0 0 17.25 23L18.75 23A0.25 0.25 0 0 0 19 22.75L19 20.25A0.25 0.25 0 0 0 18.75 20L18.25 20A0.25 0.25 0 0 0 18 20.25ZM21 21.25L21 23.75A0.25 0.25 0 0 0 21.25 24L23.75 24A0.25 0.25 0 0 0 24 23.75L24 21.25A0.25 0.25 0 0 0 23.75 21L21.25 21A0.25 0.25 0 0 0 21 21.25ZM28 21.25L28 21.75A0.25 0.25 0 0 1 27.75 22L27.25 22A0.25 0.25 0 0 0 27 22.25L27 22.75A0.25 0.25 0 0 0 27.25 23L27.75 23A0.25 0.25 0 0 0 28 22.75L28 22.25A0.25 0.25 0 0 1 28.25 22L28.75 22A0.25 0.25 0 0 0 29 21.75L29 21.25A0.25 0.25 0 0 0 28.75 21L28.25 21A0.25 0.25 0 0 0 28 21.25ZM22 22.25L22 22.75A0.25 0.25 0 0 0 22.25 23L22.75 23A0.25 0.25 0 0 0 23 22.75L23 22.25A0.25 0.25 0 0 0 22.75 22L22.25 22A0.25 0.25 0 0 0 22 22.25ZM26 27.25L26 27.75A0.25 0.25 0 0 0 26.25 28L26.75 28A0.25 0.25 0 0 0 27 27.75L27 27.25A0.25 0.25 0 0 0 26.75 27L26.25 27A0.25 0.25 0 0 0 26 27.25ZM21 28.25L21 28.75A0.25 0.25 0 0 0 21.25 29L21.75 29A0.25 0.25 0 0 0 22 28.75L22 28.25A0.25 0.25 0 0 0 21.75 28L21.25 28A0.25 0.25 0 0 0 21 28.25ZM0 0.25L0 6.75A0.25 0.25 0 0 0 0.25 7L6.75 7A0.25 0.25 0 0 0 7 6.75L7 0.25A0.25 0.25 0 0 0 6.75 0L0.25 0A0.25 0.25 0 0 0 0 0.25ZM1 1.25L1 5.75A0.25 0.25 0 0 0 1.25 6L5.75 6A0.25 0.25 0 0 0 6 5.75L6 1.25A0.25 0.25 0 0 0 5.75 1L1.25 1A0.25 0.25 0 0 0 1 1.25ZM2 2.25L2 4.75A0.25 0.25 0 0 0 2.25 5L4.75 5A0.25 0.25 0 0 0 5 4.75L5 2.25A0.25 0.25 0 0 0 4.75 2L2.25 2A0.25 0.25 0 0 0 2 2.25ZM22 0.25L22 6.75A0.25 0.25 0 0 0 22.25 7L28.75 7A0.25 0.25 0 0 0 29 6.75L29 0.25A0.25 0.25 0 0 0 28.75 0L22.25 0A0.25 0.25 0 0 0 22 0.25ZM23 1.25L23 5.75A0.25 0.25 0 0 0 23.25 6L27.75 6A0.25 0.25 0 0 0 28 5.75L28 1.25A0.25 0.25 0 0 0 27.75 1L23.25 1A0.25 0.25 0 0 0 23 1.25ZM24 2.25L24 4.75A0.25 0.25 0 0 0 24.25 5L26.75 5A0.25 0.25 0 0 0 27 4.75L27 2.25A0.25 0.25 0 0 0 26.75 2L24.25 2A0.25 0.25 0 0 0 24 2.25ZM0 22.25L0 28.75A0.25 0.25 0 0 0 0.25 29L6.75 29A0.25 0.25 0 0 0 7 28.75L7 22.25A0.25 0.25 0 0 0 6.75 22L0.25 22A0.25 0.25 0 0 0 0 22.25ZM1 23.25L1 27.75A0.25 0.25 0 0 0 1.25 28L5.75 28A0.25 0.25 0 0 0 6 27.75L6 23.25A0.25 0.25 0 0 0 5.75 23L1.25 23A0.25 0.25 0 0 0 1 23.25ZM2 24.25L2 26.75A0.25 0.25 0 0 0 2.25 27L4.75 27A0.25 0.25 0 0 0 5 26.75L5 24.25A0.25 0.25 0 0 0 4.75 24L2.25 24A0.25 0.25 0 0 0 2 24.25Z" fill="#000000"/></g></g></svg>
