<?xml version="1.0" encoding="UTF-8"?>
<svg xmlns="http://www.w3.org/2000/svg" version="1.1" width="200" height="200" viewBox="0 0 200 200"><rect x="0" y="0" width="200" height="200" fill="#ffffff"/><g transform="scale(6.897)"><g transform="translate(0,0)"><path fill-rule="evenodd" d="M8 0.25L8 0.75A0.25 0.25 0 0 0 8.25 1L9.75 1A0.25 0.25 0 0 0 10 0.75L10 0.25A0.25 0.25 0 0 0 9.75 0L8.25 0A0.25 0.25 0 0 0 8 0.25ZM12 0.25L12 1.75A0.25 0.25 0 0 1 11.75 2L8.25 2A0.25 0.25 0 0 0 8 2.25L8 2.75A0.25 0.25 0 0 0 8.25 3L8.75 3A0.25 0.25 0 0 1 9 3.25L9 3.75A0.25 0.25 0 0 1 8.75 4L8.25 4A0.25 0.25 0 0 0 8 4.25L8 4.75A0.25 0.25 0 0 0 8.25 5L11.75 5A0.25 0.25 0 0 1 12 5.25L12 6.75A0.25 0.25 0 0 0 12.25 7L12.75 7A0.25 0.25 0 0 0 13 6.75L13 5.25A0.25 0.25 0 0 0 12.75 5L12.25 5A0.25 0.25 0 0 1 12 4.75L12 4.25A0.25 0.25 0 0 1 12.25 4L12.75 4A0.25 0.25 0 0 0 13 3.75L13 1.25A0.25 0.25 0 0 1 13.25 1L13.75 1A0.25 0.25 0 0 1 14 1.25L14 1.75A0.25 0.25 0 0 0 14.25 2L14.75 2A0.25 0.25 0 0 1 15 2.25L15 2.75A0.25 0.25 0 0 0 15.25 3L15.75 3A0.25 0.25 0 0 0 16 2.75L16 2.25A0.25 0.25 0 0 1 16.25 2L16.75 2A0.25 0.25 0 0 0 17 1.75L17 1.25A0.25 0.25 0 0 1 17.25 1L18.75 1A0.25 0.25 0 0 1 19 1.25L19 3.75A0.25 0.25 0 0 1 18.75 4L18.25 4A0.25 0.25 0 0 1 18 3.75L18 3.25A0.25 0.25 0 0 0 17.75 3L17.25 3A0.25 0.25 0 0 0 17 3.25L17 3.75A0.25 0.25 0 0 1 16.75 4L16.25 4A0.25 0.25 0 0 0 16 4.25L16 6.75A0.25 0.25 0 0 1 15.75 7L15.25 7A0.25 0.25 0 0 1 15 6.75L15 4.25A0.25 0.25 0 0 0 14.75 4L14.25 4A0.25 0.25 0 0 0 14 4.25L14 6.75A0.25 0.25 0 0 0 14.25 7L14.75 7A0.25 0.25 0 0 1 15 7.25L15 7.75A0.25 0.25 0 0 1 14.75 8L13.25 8A0.25 0.25 0 0 0 13 8.25L13 10.75A0.25 0.25 0 0 1 12.75 11L12.25 11A0.25 0.25 0 0 1 12 10.75L12 8.25A0.25 0.25 0 0 0 11.75 8L11.25 8A0.25 0.25 0 0 1 11 7.75L11 6.25A0.25 0.25 0 0 0 10.75 6L10.25 6A0.25 0.25 0 0 0 10 6.25L10 8.75A0.25 0.25 0 0 0 10.25 9L10.75 9A0.25 0.25 0 0 1 11 9.25L11 9.75A0.25 0.25 0 0 1 10.75 10L10.25 10A0.25 0.25 0 0 0 10 10.25L10 10.75A0.25 0.25 0 0 1 9.75 11L9.25 11A0.25 0.25 0 0 0 9 11.25L9 12.75A0.25 0.25 0 0 0 9.25 13L9.75 13A0.25 0.25 0 0 1 10 13.25L10 13.75A0.25 0.25 0 0 1 9.75 14L9.25 14A0.25 0.25 0 0 0 9 14.25L9 14.75A0.25 0.25 0 0 1 8.75 15L8.25 15A0.25 0.25 0 0 1 8 14.75L8 14.25A0.25 0.25 0 0 0 7.75 14L6.25 14A0.25 0.25 0 0 1 6 13.75L6 13.25A0.25 0.25 0 0 1 6.25 13L6.75 13A0.25 0.25 0 0 0 7 12.75L7 12.25A0.25 0.25 0 0 0 6.75 12L6.25 12A0.25 0.25 0 0 0 6 12.25L6 12.75A0.25 0.25 0 0 1 5.75 13L4.25 13A0.25 0.25 0 0 1 4 12.75L4 12.25A0.25 0.25 0 0 1 4.25 12L4.75 12A0.25 0.25 0 0 0 5 11.75L5 11.25A0.25 0.25 0 0 1 5.25 11L6.75 11A0.25 0.25 0 0 0 7 10.75L7 10.25A0.25 0.25 0 0 1 7.25 10L7.75 10A0.25 0.25 0 0 0 8 9.75L8 9.25A0.25 0.25 0 0 0 7.75 9L7.25 9A0.25 0.25 0 0 1 7 8.75L7 8.25A0.25 0.25 0 0 0 6.75 8L5.25 8A0.25 0.25 0 0 0 5 8.25L5 8.75A0.25 0.25 0 0 0 5.25 9L6.75 9A0.25 0.25 0 0 1 7 9.25L7 9.75A0.25 0.25 0 0 1 6.75 10L5.25 10A0.25 0.25 0 0 0 5 10.25L5 10.75A0.25 0.25 0 0 1 4.75 11L4.25 11A0.25 0.25 0 0 1 4 10.75L4 10.25A0.25 0.25 0 0 0 3.75 10L2.25 10A0.25 0.25 0 0 1 2 9.75L2 9.25A0.25 0.25 0 0 0 1.75 9L0.25 9A0.25 0.25 0 0 0 0 9.25L0 12.75A0.25 0.25 0 0 0 0.25 13L0.75 13A0.25 0.25 0 0 1 1 13.25L1 13.75A0.25 0.25 0 0 1 0.75 14L0.25 14A0.25 0.25 0 0 0 0 14.25L0 14.75A0.25 0.25 0 0 0 0.25 15L0.75 15A0.25 0.25 0 0 1 1 15.25L1 15.75A0.25 0.25 0 0 0 1.25 16L1.75 16A0.25 0.25 0 0 0 2 15.75L2 15.25A0.25 0.25 0 0 0 1.75 15L1.25 15A0.25 0.25 0 0 1 1 14.75L1 14.25A0.25 0.25 0 0 1 1.25 14L2.75 14A0.25 0.25 0 0 1 3 14.25L3 15.75A0.25 0.25 0 0 0 3.25 16L3.75 16A0.25 0.25 0 0 1 4 16.25L4 17.75A0.25 0.25 0 0 1 3.75 18L3.25 18A0.25 0.25 0 0 1 3 17.75L3 17.25A0.25 0.25 0 0 0 2.75 17L0.25 17A0.25 0.25 0 0 0 0 17.25L0 20.75A0.25 0.25 0 0 0 0.25 21L0.75 21A0.25 0.25 0 0 0 1 20.75L1 19.25A0.25 0.25 0 0 1 1.25 19L4.75 19A0.25 0.25 0 0 1 5 19.25L5 20.75A0.25 0.25 0 0 0 5.25 21L7.75 21A0.25 0.25 0 0 1 8 21.25L8 21.75A0.25 0.25 0 0 0 8.25 22L9.75 22A0.25 0.25 0 0 1 10 22.25L10 23.75A0.25 0.25 0 0 1 9.75 24L9.25 24A0.25 0.25 0 0 1 9 23.75L9 23.25A0.25 0.25 0 0 0 8.75 23L8.25 23A0.25 0.25 0 0 0 8 23.25L8 23.75A0.25 0.25 0 0 0 8.25 24L8.75 24A0.25 0.25 0 0 1 9 24.25L9 24.75A0.25 0.25 0 0 0 9.25 25L9.75 25A0.25 0.25 0 0 1 10 25.25L10 25.75A0.25 0.25 0 0 1 9.75 26L9.25 26A0.25 0.25 0 0 0 9 26.25L9 28.75A0.25 0.25 0 0 0 9.25 29L12.75 29A0.25 0.25 0 0 0 13 28.75L13 28.25A0.25 0.25 0 0 1 13.25 28L13.75 28A0.25 0.25 0 0 1 14 28.25L14 28.75A0.25 0.25 0 0 0 14.25 29L14.75 29A0.25 0.25 0 0 0 15 28.75L15 28.25A0.25 0.25 0 0 0 14.75 28L14.25 28A0.25 0.25 0 0 1 14 27.75L14 27.25A0.25 0.25 0 0 1 14.25 27L15.75 27A0.25 0.25 0 0 1 16 27.25L16 27.75A0.25 0.25 0 0 0 16.25 28L16.75 28A0.25 0.25 0 0 1 17 28.25L17 28.75A0.25 0.25 0 0 0 17.25 29L18.75 29A0.25 0.25 0 0 0 19 28.75L19 28.25A0.25 0.25 0 0 0 18.75 28L17.25 28A0.25 0.25 0 0 1 17 27.75L17 26.25A0.25 0.25 0 0 1 17.25 26L18.75 26A0.25 0.25 0 0 1 19 26.25L19 26.75A0.25 0.25 0 0 0 19.25 27L19.75 27A0.25 0.25 0 0 1 20 27.25L20 27.75A0.25 0.25 0 0 0 20.25 28L20.75 28A0.25 0.25 0 0 0 21 27.75L21 27.25A0.25 0.25 0 0 1 21.25 27L21.75 27A0.25 0.25 0 0 1 22 27.25L22 28.75A0.25 0.25 0 0 0 22.25 29L22.75 29A0.25 0.25 0 0 0 23 28.75L23 28.25A0.25 0.25 0 0 1 23.25 28L23.75 28A0.25 0.25 0 0 1 24 28.25L24 28.75A0.25 0.25 0 0 0 24.25 29L26.75 29A0.25 0.25 0 0 0 27 28.75L27 27.25A0.25 0.25 0 0 1 27.25 27L27.75 27A0.25 0.25 0 0 1 28 27.25L28 27.75A0.25 0.25 0 0 0 28.25 28L28.75 28A0.25 0.25 0 0 0 29 27.75L29 27.25A0.25 0.25 0 0 0 28.75 27L28.25 27A0.25 0.25 0 0 1 28 26.75L28 25.25A0.25 0.25 0 0 1 28.25 25L28.75 25A0.25 0.25 0 0 0 29 24.75L29 24.25A0.25 0.25 0 0 0 28.75 24L28.25 24A0.25 0.25 0 0 0 28 24.25L28 24.75A0.25 0.25 0 0 1 27.75 25L27.25 25A0.25 0.25 0 0 0 27 25.25L27 26.75A0.25 0.25 0 0 1 26.75 27L26.25 27A0.25 0.25 0 0 0 26 27.25L26 27.75A0.25 0.25 0 0 1 25.75 28L24.25 28A0.25 0.25 0 0 1 24 27.75L24 27.25A0.25 0.25 0 0 1 24.25 27L24.75 27A0.25 0.25 0 0 0 25 26.75L25 26.25A0.25 0.25 0 0 1 25.25 26L25.75 26A0.25 0.25 0 0 0 26 25.75L26 25.25A0.25 0.25 0 0 0 25.75 25L25.25 25A0.25 0.25 0 0 1 25 24.75L25 20.25A0.25 0.25 0 0 1 25.25 20L25.75 20A0.25 0.25 0 0 1 26 20.25L26 22.75A0.25 0.25 0 0 0 26.25 23L27.75 23A0.25 0.25 0 0 0 28 22.75L28 21.25A0.25 0.25 0 0 0 27.75 21L27.25 21A0.25 0.25 0 0 1 27 20.75L27 20.25A0.25 0.25 0 0 0 26.75 20L26.25 20A0.25 0.25 0 0 1 26 19.75L26 19.25A0.25 0.25 0 0 0 25.75 19L23.25 19A0.25 0.25 0 0 1 23 18.75L23 18.25A0.25 0.25 0 0 1 23.25 18L25.75 18A0.25 0.25 0 0 0 26 17.75L26 17.25A0.25 0.25 0 0 1 26.25 17L26.75 17A0.25 0.25 0 0 1 27 17.25L27 18.75A0.25 0.25 0 0 0 27.25 19L28.75 19A0.25 0.25 0 0 0 29 18.75L29 17.25A0.25 0.25 0 0 0 28.75 17L28.25 17A0.25 0.25 0 0 1 28 16.75L28 16.25A0.25 0.25 0 0 1 28.25 16L28.75 16A0.25 0.25 0 0 0 29 15.75L29 15.25A0.25 0.25 0 0 0 28.75 15L28.25 15A0.25 0.25 0 0 1 28 14.75L28 14.25A0.25 0.25 0 0 1 28.25 14L28.75 14A0.25 0.25 0 0 0 29 13.75L29 11.25A0.25 0.25 0 0 0 28.75 11L28.25 11A0.25 0.25 0 0 1 28 10.75L28 9.25A0.25 0.25 0 0 1 28.25 9L28.75 9A0.25 0.25 0 0 0 29 8.75L29 8.25A0.25 0.25 0 0 0 28.75 8L28.25 8A0.25 0.25 0 0 0 28 8.25L28 8.75A0.25 0.25 0 0 1 27.75 9L27.25 9A0.25 0.25 0 0 1 27 8.75L27 8.25A0.25 0.25 0 0 0 26.75 8L26.25 8A0.25 0.25 0 0 0 26 8.25L26 10.75A0.25 0.25 0 0 0 26.25 11L27.75 11A0.25 0.25 0 0 1 28 11.25L28 12.75A0.25 0.25 0 0 1 27.75 13L27.25 13A0.25 0.25 0 0 0 27 13.25L27 14.75A0.25 0.25 0 0 1 26.75 15L26.25 15A0.25 0.25 0 0 0 26 15.25L26 15.75A0.25 0.25 0 0 1 25.75 16L25.25 16A0.25 0.25 0 0 1 25 15.75L25 13.25A0.25 0.25 0 0 0 24.75 13L24.25 13A0.25 0.25 0 0 0 24 13.25L24 15.75A0.25 0.25 0 0 0 24.25 16L24.75 16A0.25 0.25 0 0 1 25 16.25L25 16.75A0.25 0.25 0 0 1 24.75 17L22.25 17A0.25 0.25 0 0 0 22 17.25L22 17.75A0.25 0.25 0 0 1 21.75 18L21.25 18A0.25 0.25 0 0 1 21 17.75L21 17.25A0.25 0.25 0 0 0 20.75 17L20.25 17A0.25 0.25 0 0 0 20 17.25L20 18.75A0.25 0.25 0 0 1 19.75 19L18.25 19A0.25 0.25 0 0 0 18 19.25L18 19.75A0.25 0.25 0 0 0 18.25 20L18.75 20A0.25 0.25 0 0 1 19 20.25L19 20.75A0.25 0.25 0 0 0 19.25 21L19.75 21A0.25 0.25 0 0 1 20 21.25L20 21.75A0.25 0.25 0 0 1 19.75 22L18.25 22A0.25 0.25 0 0 1 18 21.75L18 21.25A0.25 0.25 0 0 0 17.75 21L17.25 21A0.25 0.25 0 0 0 17 21.25L17 22.75A0.25 0.25 0 0 0 17.25 23L18.75 23A0.25 0.25 0 0 1 19 23.25L19 24.75A0.25 0.25 0 0 1 18.75 25L17.25 25A0.25 0.25 0 0 1 17 24.75L17 24.25A0.25 0.25 0 0 0 16.75 24L15.25 24A0.25 0.25 0 0 1 15 23.75L15 23.25A0.25 0.25 0 0 0 14.75 23L14.25 23A0.25 0.25 0 0 0 14 23.25L14 23.75A0.25 0.25 0 0 0 14.25 24L14.75 24A0.25 0.25 0 0 1 15 24.25L15 24.75A0.25 0.25 0 0 0 15.25 25L15.75 25A0.25 0.25 0 0 1 16 25.25L16 25.75A0.25 0.25 0 0 1 15.75 26L14.25 26A0.25 0.25 0 0 1 14 25.75L14 25.25A0.25 0.25 0 0 0 13.75 25L11.25 25A0.25 0.25 0 0 1 11 24.75L11 21.25A0.25 0.25 0 0 0 10.75 21L9.25 21A0.25 0.25 0 0 1 9 20.75L9 19.25A0.25 0.25 0 0 1 9.25 19L9.75 19A0.25 0.25 0 0 1 10 19.25L10 19.75A0.25 0.25 0 0 0 10.25 20L10.75 20A0.25 0.25 0 0 0 11 19.75L11 19.25A0.25 0.25 0 0 1 11.25 19L11.75 19A0.25 0.25 0 0 1 12 19.25L12 20.75A0.25 0.25 0 0 0 12.25 21L13.75 21A0.25 0.25 0 0 0 14 20.75L14 20.25A0.25 0.25 0 0 1 14.25 20L14.75 20A0.25 0.25 0 0 1 15 20.25L15 20.75A0.25 0.25 0 0 0 15.25 21L15.75 21A0.25 0.25 0 0 0 16 20.75L16 20.25A0.25 0.25 0 0 1 16.25 20L16.75 20A0.25 0.25 0 0 0 17 19.75L17 18.25A0.25 0.25 0 0 1 17.25 18L17.75 18A0.25 0.25 0 0 0 18 17.75L18 15.25A0.25 0.25 0 0 0 17.75 15L17.25 15A0.25 0.25 0 0 1 17 14.75L17 13.25A0.25 0.25 0 0 1 17.25 13L17.75 13A0.25 0.25 0 0 1 18 13.25L18 13.75A0.25 0.25 0 0 0 18.25 14L19.75 14A0.25 0.25 0 0 1 20 14.25L20 15.75A0.25 0.25 0 0 0 20.25 16L20.75 16A0.25 0.25 0 0 0 21 15.75L21 15.25A0.25 0.25 0 0 1 21.25 15L21.75 15A0.25 0.25 0 0 0 22 14.75L22 14.25A0.25 0.25 0 0 1 22.25 14L22.75 14A0.25 0.25 0 0 0 23 13.75L23 11.25A0.25 0.25 0 0 1 23.25 11L23.75 11A0.25 0.25 0 0 1 24 11.25L24 11.75A0.25 0.25 0 0 0 24.25 12L24.75 12A0.25 0.25 0 0 0 25 11.75L25 11.25A0.25 0.25 0 0 0 24.75 11L24.25 11A0.25 0.25 0 0 1 24 10.75L24 10.25A0.25 0.25 0 0 1 24.25 10L24.75 10A0.25 0.25 0 0 0 25 9.75L25 8.25A0.25 0.25 0 0 0 24.75 8L24.25 8A0.25 0.25 0 0 0 24 8.25L24 9.75A0.25 0.25 0 0 1 23.75 10L23.25 10A0.25 0.25 0 0 0 23 10.25L23 10.75A0.25 0.25 0 0 1 22.75 11L22.25 11A0.25 0.25 0 0 1 22 10.75L22 9.25A0.25 0.25 0 0 1 22.25 9L22.75 9A0.25 0.25 0 0 0 23 8.75L23 8.25A0.25 0.25 0 0 0 22.75 8L22.25 8A0.25 0.25 0 0 0 22 8.25L22 8.75A0.25 0.25 0 0 1 21.75 9L21.25 9A0.25 0.25 0 0 1 21 8.75L21 8.25A0.25 0.25 0 0 0 20.75 8L20.25 8A0.25 0.25 0 0 0 20 8.25L20 10.75A0.25 0.25 0 0 0 20.25 11L21.75 11A0.25 0.25 0 0 1 22 11.25L22 13.75A0.25 0.25 0 0 1 21.75 14L21.25 14A0.25 0.25 0 0 1 21 13.75L21 12.25A0.25 0.25 0 0 0 20.75 12L19.25 12A0.25 0.25 0 0 1 19 11.75L19 11.25A0.25 0.25 0 0 0 18.75 11L18.25 11A0.25 0.25 0 0 0 18 11.25L18 11.75A0.25 0.25 0 0 1 17.75 12L17.25 12A0.25 0.25 0 0 1 17 11.75L17 10.25A0.25 0.25 0 0 1 17.25 10L17.75 10A0.25 0.25 0 0 0 18 9.75L18 9.25A0.25 0.25 0 0 1 18.25 9L18.75 9A0.25 0.25 0 0 0 19 8.75L19 8.25A0.25 0.25 0 0 0 18.75 8L18.25 8A0.25 0.25 0 0 0 18 8.25L18 8.75A0.25 0.25 0 0 1 17.75 9L16.25 9A0.25 0.25 0 0 0 16 9.25L16 14.75A0.25 0.25 0 0 0 16.25 15L16.75 15A0.25 0.25 0 0 1 17 15.25L17 15.75A0.25 0.25 0 0 1 16.75 16L16.25 16A0.25 0.25 0 0 0 16 16.25L16 17.75A0.25 0.25 0 0 1 15.75 18L15.25 18A0.25 0.25 0 0 1 15 17.75L15 15.25A0.25 0.25 0 0 0 14.75 15L13.25 15A0.25 0.25 0 0 1 13 14.75L13 14.25A0.25 0.25 0 0 1 13.25 14L14.75 14A0.25 0.25 0 0 0 15 13.75L15 12.25A0.25 0.25 0 0 0 14.75 12L14.25 12A0.25 0.25 0 0 0 14 12.25L14 12.75A0.25 0.25 0 0 1 13.75 13L13.25 13A0.25 0.25 0 0 1 13 12.75L13 11.25A0.25 0.25 0 0 1 13.25 11L13.75 11A0.25 0.25 0 0 0 14 10.75L14 10.25A0.25 0.25 0 0 1 14.25 10L14.75 10A0.25 0.25 0 0 0 15 9.75L15 8.25A0.25 0.25 0 0 1 15.25 8L15.75 8A0.25 0.25 0 0 0 16 7.75L16 7.25A0.25 0.25 0 0 1 16.25 7L16.75 7A0.25 0.25 0 0 0 17 6.75L17 4.25A0.25 0.25 0 0 1 17.25 4L17.75 4A0.25 0.25 0 0 1 18 4.25L18 6.75A0.25 0.25 0 0 0 18.25 7L18.75 7A0.25 0.25 0 0 0 19 6.75L19 5.25A0.25 0.25 0 0 1 19.25 5L19.75 5A0.25 0.25 0 0 1 20 5.25L20 6.75A0.25 0.25 0 0 0 20.25 7L20.75 7A0.25 0.25 0 0 0 21 6.75L21 2.25A0.25 0.25 0 0 0 20.75 2L20.25 2A0.25 0.25 0 0 1 20 1.75L20 0.25A0.25 0.25 0 0 0 19.75 0L16.25 0A0.25 0.25 0 0 0 16 0.25L16 0.75A0.25 0.25 0 0 1 15.75 1L14.25 1A0.25 0.25 0 0 1 14 0.75L14 0.25A0.25 0.25 0 0 0 13.75 0L12.25 0A0.25 0.25 0 0 0 12 0.25ZM11 3.25L11 3.75A0.25 0.25 0 0 0 11.25 4L11.75 4A0.25 0.25 0 0 0 12 3.75L12 3.25A0.25 0.25 0 0 0 11.75 3L11.25 3A0.25 0.25 0 0 0 11 3.25ZM8 6.25L8 7.75A0.25 0.25 0 0 0 8.25 8L8.75 8A0.25 0.25 0 0 0 9 7.75L9 6.25A0.25 0.25 0 0 0 8.75 6L8.25 6A0.25 0.25 0 0 0 8 6.25ZM2 11.25L2 11.75A0.25 0.25 0 0 1 1.75 12L1.25 12A0.25 0.25 0 0 0 1 12.25L1 12.75A0.25 0.25 0 0 0 1.25 13L1.75 13A0.25 0.25 0 0 0 2 12.75L2 12.25A0.25 0.25 0 0 1 2.25 12L2.75 12A0.25 0.25 0 0 0 3 11.75L3 11.25A0.25 0.25 0 0 0 2.75 11L2.25 11A0.25 0.25 0 0 0 2 11.25ZM10 11.25L10 12.75A0.25 0.25 0 0 0 10.25 13L11.75 13A0.25 0.25 0 0 1 12 13.25L12 13.75A0.25 0.25 0 0 0 12.25 14L12.75 14A0.25 0.25 0 0 0 13 13.75L13 13.25A0.25 0.25 0 0 0 12.75 13L12.25 13A0.25 0.25 0 0 1 12 12.75L12 12.25A0.25 0.25 0 0 0 11.75 12L11.25 12A0.25 0.25 0 0 1 11 11.75L11 11.25A0.25 0.25 0 0 0 10.75 11L10.25 11A0.25 0.25 0 0 0 10 11.25ZM3 13.25L3 13.75A0.25 0.25 0 0 0 3.25 14L3.75 14A0.25 0.25 0 0 1 4 14.25L4 14.75A0.25 0.25 0 0 0 4.25 15L4.75 15A0.25 0.25 0 0 0 5 14.75L5 14.25A0.25 0.25 0 0 0 4.75 14L4.25 14A0.25 0.25 0 0 1 4 13.75L4 13.25A0.25 0.25 0 0 0 3.75 13L3.25 13A0.25 0.25 0 0 0 3 13.25ZM10 14.25L10 16.75A0.25 0.25 0 0 1 9.75 17L8.25 17A0.25 0.25 0 0 1 8 16.75L8 16.25A0.25 0.25 0 0 0 7.75 16L7.25 16A0.25 0.25 0 0 1 7 15.75L7 15.25A0.25 0.25 0 0 0 6.75 15L6.25 15A0.25 0.25 0 0 0 6 15.25L6 15.75A0.25 0.25 0 0 0 6.25 16L6.75 16A0.25 0.25 0 0 1 7 16.25L7 16.75A0.25 0.25 0 0 1 6.75 17L5.25 17A0.25 0.25 0 0 0 5 17.25L5 18.75A0.25 0.25 0 0 0 5.25 19L5.75 19A0.25 0.25 0 0 1 6 19.25L6 19.75A0.25 0.25 0 0 0 6.25 20L7.75 20A0.25 0.25 0 0 0 8 19.75L8 19.25A0.25 0.25 0 0 1 8.25 19L8.75 19A0.25 0.25 0 0 0 9 18.75L9 18.25A0.25 0.25 0 0 1 9.25 18L10.75 18A0.25 0.25 0 0 0 11 17.75L11 17.25A0.25 0.25 0 0 1 11.25 17L11.75 17A0.25 0.25 0 0 0 12 16.75L12 16.25A0.25 0.25 0 0 1 12.25 16L12.75 16A0.25 0.25 0 0 1 13 16.25L13 16.75A0.25 0.25 0 0 0 13.25 17L13.75 17A0.25 0.25 0 0 0 14 16.75L14 16.25A0.25 0.25 0 0 0 13.75 16L13.25 16A0.25 0.25 0 0 1 13 15.75L13 15.25A0.25 0.25 0 0 0 12.75 15L11.25 15A0.25 0.25 0 0 1 11 14.75L11 14.25A0.25 0.25 0 0 0 10.75 14L10.25 14A0.25 0.25 0 0 0 10 14.25ZM7 17.25L7 17.75A0.25 0.25 0 0 1 6.75 18L6.25 18A0.25 0.25 0 0 0 6 18.25L6 18.75A0.25 0.25 0 0 0 6.25 19L6.75 19A0.25 0.25 0 0 0 7 18.75L7 18.25A0.25 0.25 0 0 1 7.25 18L7.75 18A0.25 0.25 0 0 0 8 17.75L8 17.25A0.25 0.25 0 0 0 7.75 17L7.25 17A0.25 0.25 0 0 0 7 17.25ZM12 18.25L12 18.75A0.25 0.25 0 0 0 12.25 19L12.75 19A0.25 0.25 0 0 1 13 19.25L13 19.75A0.25 0.25 0 0 0 13.25 20L13.75 20A0.25 0.25 0 0 0 14 19.75L14 19.25A0.25 0.25 0 0 1 14.25 19L14.75 19A0.25 0.25 0 0 1 15 19.25L15 19.75A0.25 0.25 0 0 0 15.25 20L15.75 20A0.25 0.25 0 0 0 16 19.75L16 19.25A0.25 0.25 0 0 0 15.75 19L15.25 19A0.25 0.25 0 0 1 15 18.75L15 18.25A0.25 0.25 0 0 0 14.75 18L14.25 18A0.25 0.25 0 0 0 14 18.25L14 18.75A0.25 0.25 0 0 1 13.75 19L13.25 19A0.25 0.25 0 0 1 13 18.75L13 18.25A0.25 0.25 0 0 0 12.75 18L12.25 18A0.25 0.25 0 0 0 12 18.25ZM2 20.25L2 20.75A0.25 0.25 0 0 0 2.25 21L3.75 21A0.25 0.25 0 0 0 4 20.75L4 20.25A0.25 0.25 0 0 0 3.75 20L2.25 20A0.25 0.25 0 0 0 2 20.25ZM21 21.25L21 23.75A0.25 0.25 0 0 0 21.25 24L23.75 24A0.25 0.25 0 0 0 24 23.75L24 21.25A0.25 0.25 0 0 0 23.75 21L21.25 21A0.25 0.25 0 0 0 21 21.25ZM22 22.25L22 22.75A0.25 0.25 0 0 0 22.25 23L22.75 23A0.25 0.25 0 0 0 23 22.75L23 22.25A0.25 0.25 0 0 0 22.75 22L22.25 22A0.25 0.25 0 0 0 22 22.25ZM12 23.25L12 23.75A0.25 0.25 0 0 0 12.25 24L12.75 24A0.25 0.25 0 0 0 13 23.75L13 23.25A0.25 0.25 0 0 0 12.75 23L12.25 23A0.25 0.25 0 0 0 12 23.25ZM20 25.25L20 26.75A0.25 0.25 0 0 0 20.25 27L20.75 27A0.25 0.25 0 0 0 21 26.75L21 25.25A0.25 0.25 0 0 0 20.75 25L20.25 25A0.25 0.25 0 0 0 20 25.25ZM22 25.25L22 25.75A0.25 0.25 0 0 0 22.25 26L22.75 26A0.25 0.25 0 0 1 23 26.25L23 26.75A0.25 0.25 0 0 0 23.25 27L23.75 27A0.25 0.25 0 0 0 24 26.75L24 26.25A0.25 0.25 0 0 1 24.25 26L24.75 26A0.25 0.25 0 0 0 25 25.75L25 25.25A0.25 0.25 0 0 0 24.75 25L24.25 25A0.25 0.25 0 0 0 24 25.25L24 25.75A0.25 0.25 0 0 1 23.75 26L23.25 26A0.25 0.25 0 0 1 23 25.75L23 25.25A0.25 0.25 0 0 0 22.75 25L22.25 25A0.25 0.25 0 0 0 22 25.25ZM12 26.25L12 26.75A0.25 0.25 0 0 1 11.75 27L11.25 27A0.25 0.25 0 0 0 11 27.25L11 27.75A0.25 0.25 0 0 0 11.25 28L11.75 28A0.25 0.25 0 0 0 12 27.75L12 27.25A0.25 0.25 0 0 1 12.25 27L12.75 27A0.25 0.25 0 0 0 13 26.75L13 26.25A0.25 0.25 0 0 0 12.75 26L12.25 26A0.25 0.25 0 0 0 12 26.25ZM0 0.25L0 6.75A0.25 0.25 0 0 0 0.25 7L6.75 7A0.25 0.25 0 0 0 7 6.75L7 0.25A0.25 0.25 0 0 0 6.75 0L0.25 0A0.25 0.25 0 0 0 0 0.25ZM1 1.25L1 5.75A0.25 0.25 0 0 0 1.25 6L5.75 6A0.25 0.25 0 0 0 6 5.75L6 1.25A0.25 0.25 0 0 0 5.75 1L1.25 1A0.25 0.25 0 0 0 1 1.25ZM2 2.25L2 4.75A0.25 0.25 0 0 0 2.25 5L4.75 5A0.25 0.25 0 0 0 5 4.75L5 2.25A0.25 0.25 0 0 0 4.75 2L2.25 2A0.25 0.25 0 0 0 2 2.25ZM22 0.25L22 6.75A0.25 0.25 0 0 0 22.25 7L28.75 7A0.25 0.25 0 0 0 29 6.75L29 0.25A0.25 0.25 0 0 0 28.75 0L22.25 0A0.25 0.25 0 0 0 22 0.25ZM23 1.25L23 5.75A0.25 0.25 0 0 0 23.25 6L27.75 6A0.25 0.25 0 0 0 28 5.75L28 1.25A0.25 0.25 0 0 0 27.75 1L23.25 1A0.25 0.25 0 0 0 23 1.25ZM24 2.25L24 4.75A0.25 0.25 0 0 0 24.25 5L26.75 5A0.25 0.25 0 0 0 27 4.75L27 2.25A0.25 0.25 0 0 0 26.75 2L24.25 2A0.25 0.25 0 0 0 24 2.25ZM0 22.25L0 28.75A0.25 0.25 0 0 0 0.25 29L6.75 29A0.25 0.25 0 0 0 7 28.75L7 22.25A0.25 0.25 0 0 0 6.75 22L0.25 22A0.25 0.25 0 0 0 0 22.25ZM1 23.25L1 27.75A0.25 0.25 0 0 0 1.25 28L5.75 28A0.25 0.25 0 0 0 6 27.75L6 23.25A0.25 0.25 0 0 0 5.75 23L1.25 23A0.25 0.25 0 0 0 1 23.25ZM2 24.25L2 26.75A0.25 0.25 0 0 0 2.25 27L4.75 27A0.25 0.25 0 0 0 5 26.75L5 24.25A0.25 0.25 0 0 0 4.75 24L2.25 24A0.25 0.25 0 0 0 2 24.25Z" fill="#000000"/></g></g></svg>
