<?xml version="1.0" encoding="UTF-8"?>
<svg xmlns="http://www.w3.org/2000/svg" version="1.1" width="200" height="200" viewBox="0 0 200 200"><rect x="0" y="0" width="200" height="200" fill="#ffffff"/><g transform="scale(6.897)"><g transform="translate(0,0)"><path fill-rule="evenodd" d="M8 0.25L8 2.75A0.25 0.25 0 0 0 8.25 3L8.75 3A0.25 0.25 0 0 0 9 2.75L9 2.25A0.25 0.25 0 0 1 9.25 2L12.75 2A0.25 0.25 0 0 0 13 1.75L13 0.25A0.25 0.25 0 0 0 12.75 0L11.25 0A0.25 0.25 0 0 0 11 0.25L11 0.75A0.25 0.25 0 0 1 10.75 1L9.25 1A0.25 0.25 0 0 1 9 0.75L9 0.25A0.25 0.25 0 0 0 8.75 0L8.25 0A0.25 0.25 0 0 0 8 0.25ZM14 0.25L14 3.75A0.25 0.25 0 0 1 13.75 4L13.25 4A0.25 0.25 0 0 1 13 3.75L13 3.25A0.25 0.25 0 0 0 12.75 3L10.25 3A0.25 0.25 0 0 0 10 3.25L10 3.75A0.25 0.25 0 0 0 10.25 4L11.75 4A0.25 0.25 0 0 1 12 4.25L12 7.75A0.25 0.25 0 0 1 11.75 8L11.25 8A0.25 0.25 0 0 1 11 7.75L11 6.25A0.25 0.25 0 0 0 10.75 6L10.25 6A0.25 0.25 0 0 0 10 6.25L10 6.75A0.25 0.25 0 0 1 9.75 7L9.25 7A0.25 0.25 0 0 1 9 6.75L9 5.25A0.25 0.25 0 0 0 8.75 5L8.25 5A0.25 0.25 0 0 0 8 5.25L8 8.75A0.25 0.25 0 0 1 7.75 9L7.25 9A0.25 0.25 0 0 1 7 8.75L7 8.25A0.25 0.25 0 0 0 6.75 8L6.25 8A0.25 0.25 0 0 0 6 8.25L6 8.75A0.25 0.25 0 0 0 6.25 9L6.75 9A0.25 0.25 0 0 1 7 9.25L7 9.75A0.25 0.25 0 0 1 6.75 10L6.25 10A0.25 0.25 0 0 0 6 10.25L6 10.75A0.25 0.25 0 0 1 5.75 11L5.25 11A0.25 0.25 0 0 1 5 10.75L5 8.25A0.25 0.25 0 0 0 4.75 8L2.25 8A0.25 0.25 0 0 0 2 8.25L2 8.75A0.25 0.25 0 0 1 1.75 9L1.25 9A0.25 0.25 0 0 0 1 9.25L1 12.75A0.25 0.25 0 0 0 1.25 13L2.75 13A0.25 0.25 0 0 1 3 13.25L3 13.75A0.25 0.25 0 0 1 2.75 14L0.25 14A0.25 0.25 0 0 0 0 14.25L0 14.75A0.25 0.25 0 0 0 0.25 15L2.75 15A0.25 0.25 0 0 1 3 15.25L3 15.75A0.25 0.25 0 0 0 3.25 16L3.75 16A0.25 0.25 0 0 1 4 16.25L4 16.75A0.25 0.25 0 0 0 4.25 17L8.75 17A0.25 0.25 0 0 1 9 17.25L9 17.75A0.25 0.25 0 0 0 9.25 18L9.75 18A0.25 0.25 0 0 0 10 17.75L10 17.25A0.25 0.25 0 0 0 9.75 17L9.25 17A0.25 0.25 0 0 1 9 16.75L9 16.25A0.25 0.25 0 0 1 9.25 16L10.75 16A0.25 0.25 0 0 1 11 16.25L11 17.75A0.25 0.25 0 0 0 11.25 18L11.75 18A0.25 0.25 0 0 0 12 17.75L12 15.25A0.25 0.25 0 0 1 12.25 15L12.75 15A0.25 0.25 0 0 1 13 15.25L13 15.75A0.25 0.25 0 0 0 13.25 16L14.75 16A0.25 0.25 0 0 1 15 16.25L15 17.75A0.25 0.25 0 0 1 14.75 18L13.25 18A0.25 0.25 0 0 0 13 18.25L13 19.75A0.25 0.25 0 0 1 12.75 20L12.25 20A0.25 0.25 0 0 0 12 20.25L12 20.75A0.25 0.25 0 0 1 11.75 21L10.25 21A0.25 0.25 0 0 1 10 20.75L10 19.25A0.25 0.25 0 0 0 9.75 19L7.25 19A0.25 0.25 0 0 1 7 18.75L7 18.25A0.25 0.25 0 0 0 6.75 18L6.25 18A0.25 0.25 0 0 0 6 18.25L6 18.75A0.25 0.25 0 0 0 6.25 19L6.75 19A0.25 0.25 0 0 1 7 19.25L7 19.75A0.25 0.25 0 0 1 6.75 20L5.25 20A0.25 0.25 0 0 1 5 19.75L5 19.25A0.25 0.25 0 0 0 4.75 19L4.25 19A0.25 0.25 0 0 1 4 18.75L4 18.25A0.25 0.25 0 0 0 3.75 18L2.25 18A0.25 0.25 0 0 0 2 18.25L2 20.75A0.25 0.25 0 0 0 2.25 21L2.75 21A0.25 0.25 0 0 0 3 20.75L3 20.25A0.25 0.25 0 0 1 3.25 20L3.75 20A0.25 0.25 0 0 1 4 20.25L4 20.75A0.25 0.25 0 0 0 4.25 21L6.75 21A0.25 0.25 0 0 0 7 20.75L7 20.25A0.25 0.25 0 0 1 7.25 20L7.75 20A0.25 0.25 0 0 1 8 20.25L8 21.75A0.25 0.25 0 0 0 8.25 22L8.75 22A0.25 0.25 0 0 1 9 22.25L9 22.75A0.25 0.25 0 0 0 9.25 23L9.75 23A0.25 0.25 0 0 0 10 22.75L10 22.25A0.25 0.25 0 0 1 10.25 22L10.75 22A0.25 0.25 0 0 1 11 22.25L11 22.75A0.25 0.25 0 0 0 11.25 23L11.75 23A0.25 0.25 0 0 0 12 22.75L12 21.25A0.25 0.25 0 0 1 12.25 21L12.75 21A0.25 0.25 0 0 1 13 21.25L13 23.75A0.25 0.25 0 0 1 12.75 24L12.25 24A0.25 0.25 0 0 0 12 24.25L12 24.75A0.25 0.25 0 0 1 11.75 25L11.25 25A0.25 0.25 0 0 0 11 25.25L11 25.75A0.25 0.25 0 0 1 10.75 26L10.25 26A0.25 0.25 0 0 1 10 25.75L10 25.25A0.25 0.25 0 0 0 9.75 25L9.25 25A0.25 0.25 0 0 1 9 24.75L9 24.25A0.25 0.25 0 0 0 8.75 24L8.25 24A0.25 0.25 0 0 0 8 24.25L8 26.75A0.25 0.25 0 0 0 8.25 27L8.75 27A0.25 0.25 0 0 1 9 27.25L9 27.75A0.25 0.25 0 0 0 9.25 28L9.75 28A0.25 0.25 0 0 1 10 28.25L10 28.75A0.25 0.25 0 0 0 10.25 29L10.75 29A0.25 0.25 0 0 0 11 28.75L11 28.25A0.25 0.25 0 0 1 11.25 28L11.75 28A0.25 0.25 0 0 1 12 28.25L12 28.75A0.25 0.25 0 0 0 12.25 29L13.75 29A0.25 0.25 0 0 0 14 28.75L14 28.25A0.25 0.25 0 0 0 13.75 28L12.25 28A0.25 0.25 0 0 1 12 27.75L12 27.25A0.25 0.25 0 0 1 12.25 27L13.75 27A0.25 0.25 0 0 0 14 26.75L14 25.25A0.25 0.25 0 0 1 14.25 25L14.75 25A0.25 0.25 0 0 1 15 25.25L15 25.75A0.25 0.25 0 0 0 15.25 26L15.75 26A0.25 0.25 0 0 1 16 26.25L16 26.75A0.25 0.25 0 0 1 15.75 27L15.25 27A0.25 0.25 0 0 0 15 27.25L15 28.75A0.25 0.25 0 0 0 15.25 29L15.75 29A0.25 0.25 0 0 0 16 28.75L16 27.25A0.25 0.25 0 0 1 16.25 27L16.75 27A0.25 0.25 0 0 0 17 26.75L17 26.25A0.25 0.25 0 0 1 17.25 26L18.75 26A0.25 0.25 0 0 0 19 25.75L19 23.25A0.25 0.25 0 0 1 19.25 23L19.75 23A0.25 0.25 0 0 1 20 23.25L20 24.75A0.25 0.25 0 0 0 20.25 25L20.75 25A0.25 0.25 0 0 1 21 25.25L21 25.75A0.25 0.25 0 0 0 21.25 26L21.75 26A0.25 0.25 0 0 1 22 26.25L22 26.75A0.25 0.25 0 0 1 21.75 27L21.25 27A0.25 0.25 0 0 0 21 27.25L21 28.75A0.25 0.25 0 0 0 21.25 29L26.75 29A0.25 0.25 0 0 0 27 28.75L27 28.25A0.25 0.25 0 0 1 27.25 28L27.75 28A0.25 0.25 0 0 0 28 27.75L28 26.25A0.25 0.25 0 0 0 27.75 26L27.25 26A0.25 0.25 0 0 1 27 25.75L27 25.25A0.25 0.25 0 0 1 27.25 25L27.75 25A0.25 0.25 0 0 0 28 24.75L28 24.25A0.25 0.25 0 0 0 27.75 24L25.25 24A0.25 0.25 0 0 1 25 23.75L25 21.25A0.25 0.25 0 0 1 25.25 21L26.75 21A0.25 0.25 0 0 0 27 20.75L27 20.25A0.25 0.25 0 0 1 27.25 20L27.75 20A0.25 0.25 0 0 0 28 19.75L28 18.25A0.25 0.25 0 0 1 28.25 18L28.75 18A0.25 0.25 0 0 0 29 17.75L29 17.25A0.25 0.25 0 0 0 28.75 17L28.25 17A0.25 0.25 0 0 0 28 17.25L28 17.75A0.25 0.25 0 0 1 27.75 18L27.25 18A0.25 0.25 0 0 0 27 18.25L27 19.75A0.25 0.25 0 0 1 26.75 20L25.25 20A0.25 0.25 0 0 1 25 19.75L25 19.25A0.25 0.25 0 0 0 24.75 19L22.25 19A0.25 0.25 0 0 1 22 18.75L22 18.25A0.25 0.25 0 0 1 22.25 18L24.75 18A0.25 0.25 0 0 0 25 17.75L25 17.25A0.25 0.25 0 0 0 24.75 17L20.25 17A0.25 0.25 0 0 0 20 17.25L20 17.75A0.25 0.25 0 0 1 19.75 18L19.25 18A0.25 0.25 0 0 0 19 18.25L19 18.75A0.25 0.25 0 0 1 18.75 19L18.25 19A0.25 0.25 0 0 0 18 19.25L18 19.75A0.25 0.25 0 0 0 18.25 20L18.75 20A0.25 0.25 0 0 1 19 20.25L19 20.75A0.25 0.25 0 0 1 18.75 21L18.25 21A0.25 0.25 0 0 0 18 21.25L18 21.75A0.25 0.25 0 0 1 17.75 22L17.25 22A0.25 0.25 0 0 1 17 21.75L17 20.25A0.25 0.25 0 0 0 16.75 20L15.25 20A0.25 0.25 0 0 1 15 19.75L15 19.25A0.25 0.25 0 0 1 15.25 19L16.75 19A0.25 0.25 0 0 0 17 18.75L17 17.25A0.25 0.25 0 0 1 17.25 17L17.75 17A0.25 0.25 0 0 0 18 16.75L18 16.25A0.25 0.25 0 0 0 17.75 16L17.25 16A0.25 0.25 0 0 1 17 15.75L17 15.25A0.25 0.25 0 0 1 17.25 15L17.75 15A0.25 0.25 0 0 0 18 14.75L18 14.25A0.25 0.25 0 0 0 17.75 14L17.25 14A0.25 0.25 0 0 0 17 14.25L17 14.75A0.25 0.25 0 0 1 16.75 15L16.25 15A0.25 0.25 0 0 0 16 15.25L16 15.75A0.25 0.25 0 0 1 15.75 16L15.25 16A0.25 0.25 0 0 1 15 15.75L15 14.25A0.25 0.25 0 0 1 15.25 14L15.75 14A0.25 0.25 0 0 0 16 13.75L16 13.25A0.25 0.25 0 0 1 16.25 13L17.75 13A0.25 0.25 0 0 0 18 12.75L18 12.25A0.25 0.25 0 0 1 18.25 12L18.75 12A0.25 0.25 0 0 0 19 11.75L19 11.25A0.25 0.25 0 0 0 18.75 11L18.25 11A0.25 0.25 0 0 1 18 10.75L18 10.25A0.25 0.25 0 0 0 17.75 10L17.25 10A0.25 0.25 0 0 0 17 10.25L17 10.75A0.25 0.25 0 0 1 16.75 11L15.25 11A0.25 0.25 0 0 1 15 10.75L15 10.25A0.25 0.25 0 0 1 15.25 10L15.75 10A0.25 0.25 0 0 0 16 9.75L16 9.25A0.25 0.25 0 0 1 16.25 9L16.75 9A0.25 0.25 0 0 0 17 8.75L17 8.25A0.25 0.25 0 0 0 16.75 8L16.25 8A0.25 0.25 0 0 1 16 7.75L16 7.25A0.25 0.25 0 0 1 16.25 7L16.75 7A0.25 0.25 0 0 0 17 6.75L17 6.25A0.25 0.25 0 0 0 16.75 6L16.25 6A0.25 0.25 0 0 0 16 6.25L16 6.75A0.25 0.25 0 0 1 15.75 7L15.25 7A0.25 0.25 0 0 1 15 6.75L15 6.25A0.25 0.25 0 0 0 14.75 6L14.25 6A0.25 0.25 0 0 0 14 6.25L14 6.75A0.25 0.25 0 0 1 13.75 7L13.25 7A0.25 0.25 0 0 1 13 6.75L13 5.25A0.25 0.25 0 0 1 13.25 5L13.75 5A0.25 0.25 0 0 0 14 4.75L14 4.25A0.25 0.25 0 0 1 14.25 4L15.75 4A0.25 0.25 0 0 1 16 4.25L16 4.75A0.25 0.25 0 0 0 16.25 5L16.75 5A0.25 0.25 0 0 0 17 4.75L17 4.25A0.25 0.25 0 0 1 17.25 4L17.75 4A0.25 0.25 0 0 1 18 4.25L18 6.75A0.25 0.25 0 0 0 18.25 7L18.75 7A0.25 0.25 0 0 1 19 7.25L19 7.75A0.25 0.25 0 0 1 18.75 8L18.25 8A0.25 0.25 0 0 0 18 8.25L18 8.75A0.25 0.25 0 0 0 18.25 9L18.75 9A0.25 0.25 0 0 0 19 8.75L19 8.25A0.25 0.25 0 0 1 19.25 8L19.75 8A0.25 0.25 0 0 1 20 8.25L20 8.75A0.25 0.25 0 0 0 20.25 9L21.75 9A0.25 0.25 0 0 1 22 9.25L22 9.75A0.25 0.25 0 0 1 21.75 10L20.25 10A0.25 0.25 0 0 0 20 10.25L20 10.75A0.25 0.25 0 0 0 20.25 11L21.75 11A0.25 0.25 0 0 1 22 11.25L22 11.75A0.25 0.25 0 0 0 22.25 12L22.75 12A0.25 0.25 0 0 0 23 11.75L23 11.25A0.25 0.25 0 0 0 22.75 11L22.25 11A0.25 0.25 0 0 1 22 10.75L22 10.25A0.25 0.25 0 0 1 22.25 10L22.75 10A0.25 0.25 0 0 0 23 9.75L23 9.25A0.25 0.25 0 0 1 23.25 9L23.75 9A0.25 0.25 0 0 1 24 9.25L24 9.75A0.25 0.25 0 0 0 24.25 10L24.75 10A0.25 0.25 0 0 1 25 10.25L25 10.75A0.25 0.25 0 0 1 24.75 11L24.25 11A0.25 0.25 0 0 0 24 11.25L24 11.75A0.25 0.25 0 0 0 24.25 12L24.75 12A0.25 0.25 0 0 1 25 12.25L25 12.75A0.25 0.25 0 0 1 24.75 13L21.25 13A0.25 0.25 0 0 1 21 12.75L21 12.25A0.25 0.25 0 0 0 20.75 12L20.25 12A0.25 0.25 0 0 0 20 12.25L20 12.75A0.25 0.25 0 0 1 19.75 13L19.25 13A0.25 0.25 0 0 0 19 13.25L19 13.75A0.25 0.25 0 0 0 19.25 14L19.75 14A0.25 0.25 0 0 1 20 14.25L20 14.75A0.25 0.25 0 0 1 19.75 15L19.25 15A0.25 0.25 0 0 0 19 15.25L19 15.75A0.25 0.25 0 0 0 19.25 16L21.75 16A0.25 0.25 0 0 0 22 15.75L22 15.25A0.25 0.25 0 0 1 22.25 15L22.75 15A0.25 0.25 0 0 1 23 15.25L23 15.75A0.25 0.25 0 0 0 23.25 16L25.75 16A0.25 0.25 0 0 1 26 16.25L26 16.75A0.25 0.25 0 0 0 26.25 17L26.75 17A0.25 0.25 0 0 0 27 16.75L27 16.25A0.25 0.25 0 0 1 27.25 16L28.75 16A0.25 0.25 0 0 0 29 15.75L29 15.25A0.25 0.25 0 0 0 28.75 15L27.25 15A0.25 0.25 0 0 1 27 14.75L27 14.25A0.25 0.25 0 0 1 27.25 14L28.75 14A0.25 0.25 0 0 0 29 13.75L29 13.25A0.25 0.25 0 0 0 28.75 13L28.25 13A0.25 0.25 0 0 1 28 12.75L28 10.25A0.25 0.25 0 0 1 28.25 10L28.75 10A0.25 0.25 0 0 0 29 9.75L29 8.25A0.25 0.25 0 0 0 28.75 8L26.25 8A0.25 0.25 0 0 0 26 8.25L26 8.75A0.25 0.25 0 0 1 25.75 9L24.25 9A0.25 0.25 0 0 1 24 8.75L24 8.25A0.25 0.25 0 0 0 23.75 8L21.25 8A0.25 0.25 0 0 1 21 7.75L21 5.25A0.25 0.25 0 0 0 20.75 5L20.25 5A0.25 0.25 0 0 1 20 4.75L20 4.25A0.25 0.25 0 0 1 20.25 4L20.75 4A0.25 0.25 0 0 0 21 3.75L21 2.25A0.25 0.25 0 0 0 20.75 2L20.25 2A0.25 0.25 0 0 1 20 1.75L20 1.25A0.25 0.25 0 0 1 20.25 1L20.75 1A0.25 0.25 0 0 0 21 0.75L21 0.25A0.25 0.25 0 0 0 20.75 0L20.25 0A0.25 0.25 0 0 0 20 0.25L20 0.75A0.25 0.25 0 0 1 19.75 1L19.25 1A0.25 0.25 0 0 1 19 0.75L19 0.25A0.25 0.25 0 0 0 18.75 0L18.25 0A0.25 0.25 0 0 0 18 0.25L18 0.75A0.25 0.25 0 0 1 17.75 1L16.25 1A0.25 0.25 0 0 1 16 0.75L16 0.25A0.25 0.25 0 0 0 15.75 0L14.25 0A0.25 0.25 0 0 0 14 0.25ZM15 2.25L15 2.75A0.25 0.25 0 0 0 15.25 3L15.75 3A0.25 0.25 0 0 1 16 3.25L16 3.75A0.25 0.25 0 0 0 16.25 4L16.75 4A0.25 0.25 0 0 0 17 3.75L17 3.25A0.25 0.25 0 0 1 17.25 3L17.75 3A0.25 0.25 0 0 1 18 3.25L18 3.75A0.25 0.25 0 0 0 18.25 4L18.75 4A0.25 0.25 0 0 0 19 3.75L19 2.25A0.25 0.25 0 0 0 18.75 2L17.25 2A0.25 0.25 0 0 0 17 2.25L17 2.75A0.25 0.25 0 0 1 16.75 3L16.25 3A0.25 0.25 0 0 1 16 2.75L16 2.25A0.25 0.25 0 0 0 15.75 2L15.25 2A0.25 0.25 0 0 0 15 2.25ZM19 5.25L19 6.75A0.25 0.25 0 0 0 19.25 7L19.75 7A0.25 0.25 0 0 0 20 6.75L20 5.25A0.25 0.25 0 0 0 19.75 5L19.25 5A0.25 0.25 0 0 0 19 5.25ZM12 8.25L12 8.75A0.25 0.25 0 0 1 11.75 9L9.25 9A0.25 0.25 0 0 0 9 9.25L9 9.75A0.25 0.25 0 0 1 8.75 10L7.25 10A0.25 0.25 0 0 0 7 10.25L7 10.75A0.25 0.25 0 0 1 6.75 11L6.25 11A0.25 0.25 0 0 0 6 11.25L6 11.75A0.25 0.25 0 0 0 6.25 12L6.75 12A0.25 0.25 0 0 0 7 11.75L7 11.25A0.25 0.25 0 0 1 7.25 11L8.75 11A0.25 0.25 0 0 1 9 11.25L9 12.75A0.25 0.25 0 0 1 8.75 13L6.25 13A0.25 0.25 0 0 0 6 13.25L6 13.75A0.25 0.25 0 0 1 5.75 14L5.25 14A0.25 0.25 0 0 0 5 14.25L5 15.75A0.25 0.25 0 0 0 5.25 16L6.75 16A0.25 0.25 0 0 0 7 15.75L7 15.25A0.25 0.25 0 0 0 6.75 15L6.25 15A0.25 0.25 0 0 1 6 14.75L6 14.25A0.25 0.25 0 0 1 6.25 14L8.75 14A0.25 0.25 0 0 1 9 14.25L9 14.75A0.25 0.25 0 0 0 9.25 15L9.75 15A0.25 0.25 0 0 0 10 14.75L10 14.25A0.25 0.25 0 0 0 9.75 14L9.25 14A0.25 0.25 0 0 1 9 13.75L9 13.25A0.25 0.25 0 0 1 9.25 13L10.75 13A0.25 0.25 0 0 1 11 13.25L11 14.75A0.25 0.25 0 0 0 11.25 15L11.75 15A0.25 0.25 0 0 0 12 14.75L12 11.25A0.25 0.25 0 0 1 12.25 11L13.75 11A0.25 0.25 0 0 1 14 11.25L14 11.75A0.25 0.25 0 0 1 13.75 12L13.25 12A0.25 0.25 0 0 0 13 12.25L13 13.75A0.25 0.25 0 0 0 13.25 14L13.75 14A0.25 0.25 0 0 0 14 13.75L14 13.25A0.25 0.25 0 0 1 14.25 13L14.75 13A0.25 0.25 0 0 0 15 12.75L15 11.25A0.25 0.25 0 0 0 14.75 11L14.25 11A0.25 0.25 0 0 1 14 10.75L14 10.25A0.25 0.25 0 0 1 14.25 10L14.75 10A0.25 0.25 0 0 0 15 9.75L15 8.25A0.25 0.25 0 0 0 14.75 8L14.25 8A0.25 0.25 0 0 0 14 8.25L14 9.75A0.25 0.25 0 0 1 13.75 10L12.25 10A0.25 0.25 0 0 1 12 9.75L12 9.25A0.25 0.25 0 0 1 12.25 9L12.75 9A0.25 0.25 0 0 0 13 8.75L13 8.25A0.25 0.25 0 0 0 12.75 8L12.25 8A0.25 0.25 0 0 0 12 8.25ZM26 9.25L26 10.75A0.25 0.25 0 0 1 25.75 11L25.25 11A0.25 0.25 0 0 0 25 11.25L25 11.75A0.25 0.25 0 0 0 25.25 12L26.75 12A0.25 0.25 0 0 0 27 11.75L27 10.25A0.25 0.25 0 0 1 27.25 10L27.75 10A0.25 0.25 0 0 0 28 9.75L28 9.25A0.25 0.25 0 0 0 27.75 9L26.25 9A0.25 0.25 0 0 0 26 9.25ZM2 10.25L2 10.75A0.25 0.25 0 0 0 2.25 11L2.75 11A0.25 0.25 0 0 1 3 11.25L3 11.75A0.25 0.25 0 0 0 3.25 12L3.75 12A0.25 0.25 0 0 0 4 11.75L4 11.25A0.25 0.25 0 0 0 3.75 11L3.25 11A0.25 0.25 0 0 1 3 10.75L3 10.25A0.25 0.25 0 0 0 2.75 10L2.25 10A0.25 0.25 0 0 0 2 10.25ZM9 10.25L9 10.75A0.25 0.25 0 0 0 9.25 11L9.75 11A0.25 0.25 0 0 1 10 11.25L10 11.75A0.25 0.25 0 0 0 10.25 12L10.75 12A0.25 0.25 0 0 0 11 11.75L11 10.25A0.25 0.25 0 0 0 10.75 10L9.25 10A0.25 0.25 0 0 0 9 10.25ZM17 11.25L17 11.75A0.25 0.25 0 0 0 17.25 12L17.75 12A0.25 0.25 0 0 0 18 11.75L18 11.25A0.25 0.25 0 0 0 17.75 11L17.25 11A0.25 0.25 0 0 0 17 11.25ZM20 13.25L20 13.75A0.25 0.25 0 0 0 20.25 14L20.75 14A0.25 0.25 0 0 0 21 13.75L21 13.25A0.25 0.25 0 0 0 20.75 13L20.25 13A0.25 0.25 0 0 0 20 13.25ZM25 13.25L25 13.75A0.25 0.25 0 0 0 25.25 14L26.75 14A0.25 0.25 0 0 0 27 13.75L27 13.25A0.25 0.25 0 0 0 26.75 13L25.25 13A0.25 0.25 0 0 0 25 13.25ZM3 14.25L3 14.75A0.25 0.25 0 0 0 3.25 15L3.75 15A0.25 0.25 0 0 0 4 14.75L4 14.25A0.25 0.25 0 0 0 3.75 14L3.25 14A0.25 0.25 0 0 0 3 14.25ZM26 15.25L26 15.75A0.25 0.25 0 0 0 26.25 16L26.75 16A0.25 0.25 0 0 0 27 15.75L27 15.25A0.25 0.25 0 0 0 26.75 15L26.25 15A0.25 0.25 0 0 0 26 15.25ZM0 17.25L0 20.75A0.25 0.25 0 0 0 0.25 21L0.75 21A0.25 0.25 0 0 0 1 20.75L1 17.25A0.25 0.25 0 0 0 0.75 17L0.25 17A0.25 0.25 0 0 0 0 17.25ZM20 18.25L20 18.75A0.25 0.25 0 0 0 20.25 19L20.75 19A0.25 0.25 0 0 0 21 18.75L21 18.25A0.25 0.25 0 0 0 20.75 18L20.25 18A0.25 0.25 0 0 0 20 18.25ZM13 20.25L13 20.75A0.25 0.25 0 0 0 13.25 21L13.75 21A0.25 0.25 0 0 0 14 20.75L14 20.25A0.25 0.25 0 0 0 13.75 20L13.25 20A0.25 0.25 0 0 0 13 20.25ZM9 21.25L9 21.75A0.25 0.25 0 0 0 9.25 22L9.75 22A0.25 0.25 0 0 0 10 21.75L10 21.25A0.25 0.25 0 0 0 9.75 21L9.25 21A0.25 0.25 0 0 0 9 21.25ZM15 21.25L15 21.75A0.25 0.25 0 0 1 14.75 22L14.25 22A0.25 0.25 0 0 0 14 22.25L14 23.75A0.25 0.25 0 0 1 13.75 24L13.25 24A0.25 0.25 0 0 0 13 24.25L13 24.75A0.25 0.25 0 0 1 12.75 25L12.25 25A0.25 0.25 0 0 0 12 25.25L12 25.75A0.25 0.25 0 0 0 12.25 26L12.75 26A0.25 0.25 0 0 0 13 25.75L13 25.25A0.25 0.25 0 0 1 13.25 25L13.75 25A0.25 0.25 0 0 0 14 24.75L14 24.25A0.25 0.25 0 0 1 14.25 24L14.75 24A0.25 0.25 0 0 0 15 23.75L15 22.25A0.25 0.25 0 0 1 15.25 22L15.75 22A0.25 0.25 0 0 0 16 21.75L16 21.25A0.25 0.25 0 0 0 15.75 21L15.25 21A0.25 0.25 0 0 0 15 21.25ZM21 21.25L21 23.75A0.25 0.25 0 0 0 21.25 24L23.75 24A0.25 0.25 0 0 0 24 23.75L24 21.25A0.25 0.25 0 0 0 23.75 21L21.25 21A0.25 0.25 0 0 0 21 21.25ZM28 21.25L28 21.75A0.25 0.25 0 0 1 27.75 22L26.25 22A0.25 0.25 0 0 0 26 22.25L26 22.75A0.25 0.25 0 0 0 26.25 23L27.75 23A0.25 0.25 0 0 0 28 22.75L28 22.25A0.25 0.25 0 0 1 28.25 22L28.75 22A0.25 0.25 0 0 0 29 21.75L29 21.25A0.25 0.25 0 0 0 28.75 21L28.25 21A0.25 0.25 0 0 0 28 21.25ZM18 22.25L18 22.75A0.25 0.25 0 0 0 18.25 23L18.75 23A0.25 0.25 0 0 0 19 22.75L19 22.25A0.25 0.25 0 0 0 18.75 22L18.25 22A0.25 0.25 0 0 0 18 22.25ZM22 22.25L22 22.75A0.25 0.25 0 0 0 22.25 23L22.75 23A0.25 0.25 0 0 0 23 22.75L23 22.25A0.25 0.25 0 0 0 22.75 22L22.25 22A0.25 0.25 0 0 0 22 22.25ZM16 23.25L16 25.75A0.25 0.25 0 0 0 16.25 26L16.75 26A0.25 0.25 0 0 0 17 25.75L17 23.25A0.25 0.25 0 0 0 16.75 23L16.25 23A0.25 0.25 0 0 0 16 23.25ZM22 25.25L22 25.75A0.25 0.25 0 0 0 22.25 26L22.75 26A0.25 0.25 0 0 1 23 26.25L23 26.75A0.25 0.25 0 0 1 22.75 27L22.25 27A0.25 0.25 0 0 0 22 27.25L22 27.75A0.25 0.25 0 0 0 22.25 28L22.75 28A0.25 0.25 0 0 0 23 27.75L23 27.25A0.25 0.25 0 0 1 23.25 27L23.75 27A0.25 0.25 0 0 0 24 26.75L24 26.25A0.25 0.25 0 0 1 24.25 26L24.75 26A0.25 0.25 0 0 1 25 26.25L25 27.75A0.25 0.25 0 0 0 25.25 28L26.75 28A0.25 0.25 0 0 0 27 27.75L27 26.25A0.25 0.25 0 0 0 26.75 26L26.25 26A0.25 0.25 0 0 1 26 25.75L26 25.25A0.25 0.25 0 0 0 25.75 25L24.25 25A0.25 0.25 0 0 0 24 25.25L24 25.75A0.25 0.25 0 0 1 23.75 26L23.25 26A0.25 0.25 0 0 1 23 25.75L23 25.25A0.25 0.25 0 0 0 22.75 25L22.25 25A0.25 0.25 0 0 0 22 25.25ZM10 27.25L10 27.75A0.25 0.25 0 0 0 10.25 28L10.75 28A0.25 0.25 0 0 0 11 27.75L11 27.25A0.25 0.25 0 0 0 10.75 27L10.25 27A0.25 0.25 0 0 0 10 27.25ZM18 27.25L18 27.75A0.25 0.25 0 0 1 17.75 28L17.25 28A0.25 0.25 0 0 0 17 28.25L17 28.75A0.25 0.25 0 0 0 17.25 29L18.75 29A0.25 0.25 0 0 0 19 28.75L19 27.25A0.25 0.25 0 0 0 18.75 27L18.25 27A0.25 0.25 0 0 0 18 27.25ZM0 0.25L0 6.75A0.25 0.25 0 0 0 0.25 7L6.75 7A0.25 0.25 0 0 0 7 6.75L7 0.25A0.25 0.25 0 0 0 6.75 0L0.25 0A0.25 0.25 0 0 0 0 0.25ZM1 1.25L1 5.75A0.25 0.25 0 0 0 1.25 6L5.75 6A0.25 0.25 0 0 0 6 5.75L6 1.25A0.25 0.25 0 0 0 5.75 1L1.25 1A0.25 0.25 0 0 0 1 1.25ZM2 2.25L2 4.75A0.25 0.25 0 0 0 2.25 5L4.75 5A0.25 0.25 0 0 0 5 4.75L5 2.25A0.25 0.25 0 0 0 4.75 2L2.25 2A0.25 0.25 0 0 0 2 2.25ZM22 0.25L22 6.75A0.25 0.25 0 0 0 22.25 7L28.75 7A0.25 0.25 0 0 0 29 6.75L29 0.25A0.25 0.25 0 0 0 28.75 0L22.25 0A0.25 0.25 0 0 0 22 0.25ZM23 1.25L23 5.75A0.25 0.25 0 0 0 23.25 6L27.75 6A0.25 0.25 0 0 0 28 5.75L28 1.25A0.25 0.25 0 0 0 27.75 1L23.25 1A0.25 0.25 0 0 0 23 1.25ZM24 2.25L24 4.75A0.25 0.25 0 0 0 24.25 5L26.75 5A0.25 0.25 0 0 0 27 4.75L27 2.25A0.25 0.25 0 0 0 26.75 2L24.25 2A0.25 0.25 0 0 0 24 2.25ZM0 22.25L0 28.75A0.25 0.25 0 0 0 0.25 29L6.75 29A0.25 0.25 0 0 0 7 28.75L7 22.25A0.25 0.25 0 0 0 6.75 22L0.25 22A0.25 0.25 0 0 0 0 22.25ZM1 23.25L1 27.75A0.25 0.25 0 0 0 1.25 28L5.75 28A0.25 0.25 0 0 0 6 27.75L6 23.25A0.25 0.25 0 0 0 5.75 23L1.25 23A0.25 0.25 0 0 0 1 23.25ZM2 24.25L2 26.75A0.25 0.25 0 0 0 2.25 27L4.75 27A0.25 0.25 0 0 0 5 26.75L5 24.25A0.25 0.25 0 0 0 4.75 24L2.25 24A0.25 0.25 0 0 0 2 24.25Z" fill="#000000"/></g></g></svg>
