<?xml version="1.0" encoding="UTF-8"?>
<svg xmlns="http://www.w3.org/2000/svg" version="1.1" width="200" height="200" viewBox="0 0 200 200"><rect x="0" y="0" width="200" height="200" fill="#ffffff"/><g transform="scale(6.897)"><g transform="translate(0,0)"><path fill-rule="evenodd" d="M8 0.25L8 2.75A0.25 0.25 0 0 0 8.25 3L8.75 3A0.25 0.25 0 0 1 9 3.25L9 3.75A0.25 0.25 0 0 0 9.25 4L10.75 4A0.25 0.25 0 0 0 11 3.75L11 1.25A0.25 0.25 0 0 0 10.75 1L10.25 1A0.25 0.25 0 0 1 10 0.75L10 0.25A0.25 0.25 0 0 0 9.75 0L8.25 0A0.25 0.25 0 0 0 8 0.25ZM12 0.25L12 0.75A0.25 0.25 0 0 0 12.25 1L13.75 1A0.25 0.25 0 0 1 14 1.25L14 1.75A0.25 0.25 0 0 1 13.75 2L13.25 2A0.25 0.25 0 0 0 13 2.25L13 2.75A0.25 0.25 0 0 0 13.25 3L13.75 3A0.25 0.25 0 0 0 14 2.75L14 2.25A0.25 0.25 0 0 1 14.25 2L14.75 2A0.25 0.25 0 0 1 15 2.25L15 2.75A0.25 0.25 0 0 0 15.25 3L15.75 3A0.25 0.25 0 0 1 16 3.25L16 3.75A0.25 0.25 0 0 0 16.25 4L18.75 4A0.25 0.25 0 0 1 19 4.25L19 4.75A0.25 0.25 0 0 1 18.75 5L18.25 5A0.25 0.25 0 0 0 18 5.25L18 6.75A0.25 0.25 0 0 0 18.25 7L18.75 7A0.25 0.25 0 0 0 19 6.75L19 5.25A0.25 0.25 0 0 1 19.25 5L19.75 5A0.25 0.25 0 0 1 20 5.25L20 6.75A0.25 0.25 0 0 0 20.25 7L20.75 7A0.25 0.25 0 0 0 21 6.75L21 5.25A0.25 0.25 0 0 0 20.75 5L20.25 5A0.25 0.25 0 0 1 20 4.75L20 4.25A0.25 0.25 0 0 1 20.25 4L20.75 4A0.25 0.25 0 0 0 21 3.75L21 2.25A0.25 0.25 0 0 0 20.75 2L20.25 2A0.25 0.25 0 0 1 20 1.75L20 1.25A0.25 0.25 0 0 1 20.25 1L20.75 1A0.25 0.25 0 0 0 21 0.75L21 0.25A0.25 0.25 0 0 0 20.75 0L20.25 0A0.25 0.25 0 0 0 20 0.25L20 0.75A0.25 0.25 0 0 1 19.75 1L19.25 1A0.25 0.25 0 0 1 19 0.75L19 0.25A0.25 0.25 0 0 0 18.75 0L18.25 0A0.25 0.25 0 0 0 18 0.25L18 0.75A0.25 0.25 0 0 1 17.75 1L17.25 1A0.25 0.25 0 0 1 17 0.75L17 0.25A0.25 0.25 0 0 0 16.75 0L12.25 0A0.25 0.25 0 0 0 12 0.25ZM9 1.25L9 1.75A0.25 0.25 0 0 0 9.25 2L9.75 2A0.25 0.25 0 0 0 10 1.75L10 1.25A0.25 0.25 0 0 0 9.75 1L9.25 1A0.25 0.25 0 0 0 9 1.25ZM15 1.25L15 1.75A0.25 0.25 0 0 0 15.25 2L15.75 2A0.25 0.25 0 0 1 16 2.25L16 2.75A0.25 0.25 0 0 0 16.25 3L17.75 3A0.25 0.25 0 0 0 18 2.75L18 2.25A0.25 0.25 0 0 1 18.25 2L18.75 2A0.25 0.25 0 0 0 19 1.75L19 1.25A0.25 0.25 0 0 0 18.75 1L18.25 1A0.25 0.25 0 0 0 18 1.25L18 1.75A0.25 0.25 0 0 1 17.75 2L17.25 2A0.25 0.25 0 0 1 17 1.75L17 1.25A0.25 0.25 0 0 0 16.75 1L15.25 1A0.25 0.25 0 0 0 15 1.25ZM12 4.25L12 4.75A0.25 0.25 0 0 0 12.25 5L12.75 5A0.25 0.25 0 0 1 13 5.25L13 5.75A0.25 0.25 0 0 1 12.75 6L12.25 6A0.25 0.25 0 0 0 12 6.25L12 6.75A0.25 0.25 0 0 1 11.75 7L11.25 7A0.25 0.25 0 0 1 11 6.75L11 6.25A0.25 0.25 0 0 0 10.75 6L10.25 6A0.25 0.25 0 0 0 10 6.25L10 6.75A0.25 0.25 0 0 1 9.75 7L9.25 7A0.25 0.25 0 0 1 9 6.75L9 5.25A0.25 0.25 0 0 0 8.75 5L8.25 5A0.25 0.25 0 0 0 8 5.25L8 9.75A0.25 0.25 0 0 1 7.75 10L5.25 10A0.25 0.25 0 0 0 5 10.25L5 10.75A0.25 0.25 0 0 1 4.75 11L4.25 11A0.25 0.25 0 0 1 4 10.75L4 9.25A0.25 0.25 0 0 1 4.25 9L4.75 9A0.25 0.25 0 0 0 5 8.75L5 8.25A0.25 0.25 0 0 0 4.75 8L2.25 8A0.25 0.25 0 0 0 2 8.25L2 8.75A0.25 0.25 0 0 1 1.75 9L1.25 9A0.25 0.25 0 0 0 1 9.25L1 10.75A0.25 0.25 0 0 1 0.75 11L0.25 11A0.25 0.25 0 0 0 0 11.25L0 11.75A0.25 0.25 0 0 0 0.25 12L0.75 12A0.25 0.25 0 0 1 1 12.25L1 12.75A0.25 0.25 0 0 1 0.75 13L0.25 13A0.25 0.25 0 0 0 0 13.25L0 15.75A0.25 0.25 0 0 0 0.25 16L0.75 16A0.25 0.25 0 0 1 1 16.25L1 16.75A0.25 0.25 0 0 1 0.75 17L0.25 17A0.25 0.25 0 0 0 0 17.25L0 20.75A0.25 0.25 0 0 0 0.25 21L0.75 21A0.25 0.25 0 0 0 1 20.75L1 17.25A0.25 0.25 0 0 1 1.25 17L2.75 17A0.25 0.25 0 0 1 3 17.25L3 17.75A0.25 0.25 0 0 1 2.75 18L2.25 18A0.25 0.25 0 0 0 2 18.25L2 18.75A0.25 0.25 0 0 0 2.25 19L2.75 19A0.25 0.25 0 0 1 3 19.25L3 20.75A0.25 0.25 0 0 0 3.25 21L4.75 21A0.25 0.25 0 0 0 5 20.75L5 20.25A0.25 0.25 0 0 1 5.25 20L5.75 20A0.25 0.25 0 0 1 6 20.25L6 20.75A0.25 0.25 0 0 0 6.25 21L6.75 21A0.25 0.25 0 0 0 7 20.75L7 20.25A0.25 0.25 0 0 0 6.75 20L6.25 20A0.25 0.25 0 0 1 6 19.75L6 19.25A0.25 0.25 0 0 1 6.25 19L8.75 19A0.25 0.25 0 0 0 9 18.75L9 18.25A0.25 0.25 0 0 0 8.75 18L6.25 18A0.25 0.25 0 0 0 6 18.25L6 18.75A0.25 0.25 0 0 1 5.75 19L3.25 19A0.25 0.25 0 0 1 3 18.75L3 18.25A0.25 0.25 0 0 1 3.25 18L4.75 18A0.25 0.25 0 0 0 5 17.75L5 16.25A0.25 0.25 0 0 1 5.25 16L5.75 16A0.25 0.25 0 0 1 6 16.25L6 16.75A0.25 0.25 0 0 0 6.25 17L11.75 17A0.25 0.25 0 0 1 12 17.25L12 17.75A0.25 0.25 0 0 0 12.25 18L13.75 18A0.25 0.25 0 0 1 14 18.25L14 18.75A0.25 0.25 0 0 1 13.75 19L13.25 19A0.25 0.25 0 0 0 13 19.25L13 19.75A0.25 0.25 0 0 0 13.25 20L13.75 20A0.25 0.25 0 0 1 14 20.25L14 20.75A0.25 0.25 0 0 0 14.25 21L14.75 21A0.25 0.25 0 0 1 15 21.25L15 21.75A0.25 0.25 0 0 1 14.75 22L13.25 22A0.25 0.25 0 0 1 13 21.75L13 21.25A0.25 0.25 0 0 0 12.75 21L12.25 21A0.25 0.25 0 0 1 12 20.75L12 20.25A0.25 0.25 0 0 0 11.75 20L11.25 20A0.25 0.25 0 0 1 11 19.75L11 18.25A0.25 0.25 0 0 0 10.75 18L10.25 18A0.25 0.25 0 0 0 10 18.25L10 19.75A0.25 0.25 0 0 0 10.25 20L10.75 20A0.25 0.25 0 0 1 11 20.25L11 20.75A0.25 0.25 0 0 0 11.25 21L11.75 21A0.25 0.25 0 0 1 12 21.25L12 23.75A0.25 0.25 0 0 0 12.25 24L12.75 24A0.25 0.25 0 0 0 13 23.75L13 23.25A0.25 0.25 0 0 1 13.25 23L13.75 23A0.25 0.25 0 0 1 14 23.25L14 24.75A0.25 0.25 0 0 1 13.75 25L11.25 25A0.25 0.25 0 0 0 11 25.25L11 25.75A0.25 0.25 0 0 1 10.75 26L10.25 26A0.25 0.25 0 0 1 10 25.75L10 25.25A0.25 0.25 0 0 0 9.75 25L9.25 25A0.25 0.25 0 0 1 9 24.75L9 24.25A0.25 0.25 0 0 0 8.75 24L8.25 24A0.25 0.25 0 0 0 8 24.25L8 26.75A0.25 0.25 0 0 0 8.25 27L8.75 27A0.25 0.25 0 0 0 9 26.75L9 26.25A0.25 0.25 0 0 1 9.25 26L9.75 26A0.25 0.25 0 0 1 10 26.25L10 26.75A0.25 0.25 0 0 0 10.25 27L10.75 27A0.25 0.25 0 0 0 11 26.75L11 26.25A0.25 0.25 0 0 1 11.25 26L12.75 26A0.25 0.25 0 0 1 13 26.25L13 26.75A0.25 0.25 0 0 0 13.25 27L13.75 27A0.25 0.25 0 0 0 14 26.75L14 26.25A0.25 0.25 0 0 1 14.25 26L14.75 26A0.25 0.25 0 0 1 15 26.25L15 27.75A0.25 0.25 0 0 1 14.75 28L12.25 28A0.25 0.25 0 0 0 12 28.25L12 28.75A0.25 0.25 0 0 0 12.25 29L14.75 29A0.25 0.25 0 0 0 15 28.75L15 28.25A0.25 0.25 0 0 1 15.25 28L16.75 28A0.25 0.25 0 0 1 17 28.25L17 28.75A0.25 0.25 0 0 0 17.25 29L18.75 29A0.25 0.25 0 0 0 19 28.75L19 26.25A0.25 0.25 0 0 1 19.25 26L21.75 26A0.25 0.25 0 0 1 22 26.25L22 26.75A0.25 0.25 0 0 1 21.75 27L21.25 27A0.25 0.25 0 0 0 21 27.25L21 28.75A0.25 0.25 0 0 0 21.25 29L21.75 29A0.25 0.25 0 0 0 22 28.75L22 27.25A0.25 0.25 0 0 1 22.25 27L22.75 27A0.25 0.25 0 0 1 23 27.25L23 27.75A0.25 0.25 0 0 0 23.25 28L24.75 28A0.25 0.25 0 0 1 25 28.25L25 28.75A0.25 0.25 0 0 0 25.25 29L26.75 29A0.25 0.25 0 0 0 27 28.75L27 28.25A0.25 0.25 0 0 1 27.25 28L27.75 28A0.25 0.25 0 0 0 28 27.75L28 26.25A0.25 0.25 0 0 0 27.75 26L26.25 26A0.25 0.25 0 0 0 26 26.25L26 26.75A0.25 0.25 0 0 0 26.25 27L26.75 27A0.25 0.25 0 0 1 27 27.25L27 27.75A0.25 0.25 0 0 1 26.75 28L25.25 28A0.25 0.25 0 0 1 25 27.75L25 26.25A0.25 0.25 0 0 0 24.75 26L22.25 26A0.25 0.25 0 0 1 22 25.75L22 25.25A0.25 0.25 0 0 1 22.25 25L28.75 25A0.25 0.25 0 0 0 29 24.75L29 24.25A0.25 0.25 0 0 0 28.75 24L28.25 24A0.25 0.25 0 0 1 28 23.75L28 23.25A0.25 0.25 0 0 0 27.75 23L27.25 23A0.25 0.25 0 0 1 27 22.75L27 22.25A0.25 0.25 0 0 1 27.25 22L28.75 22A0.25 0.25 0 0 0 29 21.75L29 21.25A0.25 0.25 0 0 0 28.75 21L27.25 21A0.25 0.25 0 0 1 27 20.75L27 20.25A0.25 0.25 0 0 1 27.25 20L27.75 20A0.25 0.25 0 0 0 28 19.75L28 18.25A0.25 0.25 0 0 1 28.25 18L28.75 18A0.25 0.25 0 0 0 29 17.75L29 17.25A0.25 0.25 0 0 0 28.75 17L28.25 17A0.25 0.25 0 0 1 28 16.75L28 16.25A0.25 0.25 0 0 0 27.75 16L25.25 16A0.25 0.25 0 0 1 25 15.75L25 15.25A0.25 0.25 0 0 1 25.25 15L27.75 15A0.25 0.25 0 0 0 28 14.75L28 14.25A0.25 0.25 0 0 1 28.25 14L28.75 14A0.25 0.25 0 0 0 29 13.75L29 13.25A0.25 0.25 0 0 0 28.75 13L28.25 13A0.25 0.25 0 0 0 28 13.25L28 13.75A0.25 0.25 0 0 1 27.75 14L25.25 14A0.25 0.25 0 0 1 25 13.75L25 13.25A0.25 0.25 0 0 0 24.75 13L22.25 13A0.25 0.25 0 0 1 22 12.75L22 11.25A0.25 0.25 0 0 0 21.75 11L21.25 11A0.25 0.25 0 0 1 21 10.75L21 10.25A0.25 0.25 0 0 0 20.75 10L20.25 10A0.25 0.25 0 0 0 20 10.25L20 10.75A0.25 0.25 0 0 0 20.25 11L20.75 11A0.25 0.25 0 0 1 21 11.25L21 11.75A0.25 0.25 0 0 1 20.75 12L20.25 12A0.25 0.25 0 0 0 20 12.25L20 12.75A0.25 0.25 0 0 1 19.75 13L19.25 13A0.25 0.25 0 0 0 19 13.25L19 13.75A0.25 0.25 0 0 0 19.25 14L19.75 14A0.25 0.25 0 0 1 20 14.25L20 14.75A0.25 0.25 0 0 0 20.25 15L20.75 15A0.25 0.25 0 0 1 21 15.25L21 16.75A0.25 0.25 0 0 1 20.75 17L20.25 17A0.25 0.25 0 0 0 20 17.25L20 17.75A0.25 0.25 0 0 1 19.75 18L19.25 18A0.25 0.25 0 0 1 19 17.75L19 17.25A0.25 0.25 0 0 0 18.75 17L18.25 17A0.25 0.25 0 0 1 18 16.75L18 16.25A0.25 0.25 0 0 1 18.25 16L18.75 16A0.25 0.25 0 0 0 19 15.75L19 15.25A0.25 0.25 0 0 0 18.75 15L18.25 15A0.25 0.25 0 0 1 18 14.75L18 14.25A0.25 0.25 0 0 0 17.75 14L16.25 14A0.25 0.25 0 0 1 16 13.75L16 13.25A0.25 0.25 0 0 0 15.75 13L15.25 13A0.25 0.25 0 0 0 15 13.25L15 13.75A0.25 0.25 0 0 1 14.75 14L14.25 14A0.25 0.25 0 0 1 14 13.75L14 13.25A0.25 0.25 0 0 0 13.75 13L13.25 13A0.25 0.25 0 0 0 13 13.25L13 13.75A0.25 0.25 0 0 1 12.75 14L12.25 14A0.25 0.25 0 0 0 12 14.25L12 14.75A0.25 0.25 0 0 0 12.25 15L12.75 15A0.25 0.25 0 0 0 13 14.75L13 14.25A0.25 0.25 0 0 1 13.25 14L13.75 14A0.25 0.25 0 0 1 14 14.25L14 14.75A0.25 0.25 0 0 0 14.25 15L15.75 15A0.25 0.25 0 0 1 16 15.25L16 15.75A0.25 0.25 0 0 0 16.25 16L16.75 16A0.25 0.25 0 0 1 17 16.25L17 16.75A0.25 0.25 0 0 0 17.25 17L17.75 17A0.25 0.25 0 0 1 18 17.25L18 18.75A0.25 0.25 0 0 0 18.25 19L18.75 19A0.25 0.25 0 0 1 19 19.25L19 19.75A0.25 0.25 0 0 1 18.75 20L17.25 20A0.25 0.25 0 0 1 17 19.75L17 18.25A0.25 0.25 0 0 0 16.75 18L16.25 18A0.25 0.25 0 0 1 16 17.75L16 17.25A0.25 0.25 0 0 0 15.75 17L15.25 17A0.25 0.25 0 0 0 15 17.25L15 17.75A0.25 0.25 0 0 1 14.75 18L14.25 18A0.25 0.25 0 0 1 14 17.75L14 17.25A0.25 0.25 0 0 0 13.75 17L13.25 17A0.25 0.25 0 0 1 13 16.75L13 16.25A0.25 0.25 0 0 0 12.75 16L11.25 16A0.25 0.25 0 0 1 11 15.75L11 15.25A0.25 0.25 0 0 0 10.75 15L10.25 15A0.25 0.25 0 0 0 10 15.25L10 15.75A0.25 0.25 0 0 1 9.75 16L9.25 16A0.25 0.25 0 0 1 9 15.75L9 14.25A0.25 0.25 0 0 1 9.25 14L10.75 14A0.25 0.25 0 0 0 11 13.75L11 13.25A0.25 0.25 0 0 0 10.75 13L10.25 13A0.25 0.25 0 0 1 10 12.75L10 12.25A0.25 0.25 0 0 1 10.25 12L11.75 12A0.25 0.25 0 0 0 12 11.75L12 9.25A0.25 0.25 0 0 0 11.75 9L11.25 9A0.25 0.25 0 0 1 11 8.75L11 8.25A0.25 0.25 0 0 1 11.25 8L11.75 8A0.25 0.25 0 0 0 12 7.75L12 7.25A0.25 0.25 0 0 1 12.25 7L12.75 7A0.25 0.25 0 0 0 13 6.75L13 6.25A0.25 0.25 0 0 1 13.25 6L13.75 6A0.25 0.25 0 0 1 14 6.25L14 6.75A0.25 0.25 0 0 0 14.25 7L14.75 7A0.25 0.25 0 0 1 15 7.25L15 7.75A0.25 0.25 0 0 1 14.75 8L13.25 8A0.25 0.25 0 0 0 13 8.25L13 8.75A0.25 0.25 0 0 0 13.25 9L14.75 9A0.25 0.25 0 0 0 15 8.75L15 8.25A0.25 0.25 0 0 1 15.25 8L15.75 8A0.25 0.25 0 0 1 16 8.25L16 10.75A0.25 0.25 0 0 1 15.75 11L15.25 11A0.25 0.25 0 0 1 15 10.75L15 10.25A0.25 0.25 0 0 0 14.75 10L13.25 10A0.25 0.25 0 0 0 13 10.25L13 11.75A0.25 0.25 0 0 0 13.25 12L13.75 12A0.25 0.25 0 0 0 14 11.75L14 11.25A0.25 0.25 0 0 1 14.25 11L14.75 11A0.25 0.25 0 0 1 15 11.25L15 11.75A0.25 0.25 0 0 0 15.25 12L15.75 12A0.25 0.25 0 0 0 16 11.75L16 11.25A0.25 0.25 0 0 1 16.25 11L16.75 11A0.25 0.25 0 0 0 17 10.75L17 10.25A0.25 0.25 0 0 1 17.25 10L17.75 10A0.25 0.25 0 0 0 18 9.75L18 9.25A0.25 0.25 0 0 1 18.25 9L18.75 9A0.25 0.25 0 0 0 19 8.75L19 8.25A0.25 0.25 0 0 0 18.75 8L18.25 8A0.25 0.25 0 0 0 18 8.25L18 8.75A0.25 0.25 0 0 1 17.75 9L17.25 9A0.25 0.25 0 0 1 17 8.75L17 8.25A0.25 0.25 0 0 0 16.75 8L16.25 8A0.25 0.25 0 0 1 16 7.75L16 7.25A0.25 0.25 0 0 1 16.25 7L16.75 7A0.25 0.25 0 0 0 17 6.75L17 6.25A0.25 0.25 0 0 0 16.75 6L16.25 6A0.25 0.25 0 0 0 16 6.25L16 6.75A0.25 0.25 0 0 1 15.75 7L15.25 7A0.25 0.25 0 0 1 15 6.75L15 5.25A0.25 0.25 0 0 0 14.75 5L14.25 5A0.25 0.25 0 0 1 14 4.75L14 4.25A0.25 0.25 0 0 0 13.75 4L12.25 4A0.25 0.25 0 0 0 12 4.25ZM10 7.25L10 7.75A0.25 0.25 0 0 1 9.75 8L9.25 8A0.25 0.25 0 0 0 9 8.25L9 9.75A0.25 0.25 0 0 0 9.25 10L10.75 10A0.25 0.25 0 0 0 11 9.75L11 9.25A0.25 0.25 0 0 0 10.75 9L10.25 9A0.25 0.25 0 0 1 10 8.75L10 8.25A0.25 0.25 0 0 1 10.25 8L10.75 8A0.25 0.25 0 0 0 11 7.75L11 7.25A0.25 0.25 0 0 0 10.75 7L10.25 7A0.25 0.25 0 0 0 10 7.25ZM6 8.25L6 8.75A0.25 0.25 0 0 0 6.25 9L6.75 9A0.25 0.25 0 0 0 7 8.75L7 8.25A0.25 0.25 0 0 0 6.75 8L6.25 8A0.25 0.25 0 0 0 6 8.25ZM20 8.25L20 8.75A0.25 0.25 0 0 0 20.25 9L21.75 9A0.25 0.25 0 0 1 22 9.25L22 9.75A0.25 0.25 0 0 0 22.25 10L22.75 10A0.25 0.25 0 0 1 23 10.25L23 11.75A0.25 0.25 0 0 0 23.25 12L25.75 12A0.25 0.25 0 0 1 26 12.25L26 12.75A0.25 0.25 0 0 0 26.25 13L26.75 13A0.25 0.25 0 0 0 27 12.75L27 12.25A0.25 0.25 0 0 1 27.25 12L27.75 12A0.25 0.25 0 0 0 28 11.75L28 10.25A0.25 0.25 0 0 1 28.25 10L28.75 10A0.25 0.25 0 0 0 29 9.75L29 8.25A0.25 0.25 0 0 0 28.75 8L26.25 8A0.25 0.25 0 0 0 26 8.25L26 8.75A0.25 0.25 0 0 1 25.75 9L24.25 9A0.25 0.25 0 0 1 24 8.75L24 8.25A0.25 0.25 0 0 0 23.75 8L20.25 8A0.25 0.25 0 0 0 20 8.25ZM23 9.25L23 9.75A0.25 0.25 0 0 0 23.25 10L23.75 10A0.25 0.25 0 0 0 24 9.75L24 9.25A0.25 0.25 0 0 0 23.75 9L23.25 9A0.25 0.25 0 0 0 23 9.25ZM26 9.25L26 11.75A0.25 0.25 0 0 0 26.25 12L26.75 12A0.25 0.25 0 0 0 27 11.75L27 10.25A0.25 0.25 0 0 1 27.25 10L27.75 10A0.25 0.25 0 0 0 28 9.75L28 9.25A0.25 0.25 0 0 0 27.75 9L26.25 9A0.25 0.25 0 0 0 26 9.25ZM3 11.25L3 11.75A0.25 0.25 0 0 1 2.75 12L2.25 12A0.25 0.25 0 0 0 2 12.25L2 13.75A0.25 0.25 0 0 0 2.25 14L2.75 14A0.25 0.25 0 0 0 3 13.75L3 12.25A0.25 0.25 0 0 1 3.25 12L3.75 12A0.25 0.25 0 0 1 4 12.25L4 12.75A0.25 0.25 0 0 0 4.25 13L4.75 13A0.25 0.25 0 0 1 5 13.25L5 13.75A0.25 0.25 0 0 1 4.75 14L4.25 14A0.25 0.25 0 0 0 4 14.25L4 15.75A0.25 0.25 0 0 1 3.75 16L3.25 16A0.25 0.25 0 0 1 3 15.75L3 15.25A0.25 0.25 0 0 0 2.75 15L2.25 15A0.25 0.25 0 0 0 2 15.25L2 15.75A0.25 0.25 0 0 0 2.25 16L2.75 16A0.25 0.25 0 0 1 3 16.25L3 16.75A0.25 0.25 0 0 0 3.25 17L3.75 17A0.25 0.25 0 0 0 4 16.75L4 16.25A0.25 0.25 0 0 1 4.25 16L4.75 16A0.25 0.25 0 0 0 5 15.75L5 14.25A0.25 0.25 0 0 1 5.25 14L6.75 14A0.25 0.25 0 0 1 7 14.25L7 14.75A0.25 0.25 0 0 1 6.75 15L6.25 15A0.25 0.25 0 0 0 6 15.25L6 15.75A0.25 0.25 0 0 0 6.25 16L6.75 16A0.25 0.25 0 0 0 7 15.75L7 15.25A0.25 0.25 0 0 1 7.25 15L7.75 15A0.25 0.25 0 0 0 8 14.75L8 14.25A0.25 0.25 0 0 1 8.25 14L8.75 14A0.25 0.25 0 0 0 9 13.75L9 11.25A0.25 0.25 0 0 0 8.75 11L6.25 11A0.25 0.25 0 0 0 6 11.25L6 11.75A0.25 0.25 0 0 1 5.75 12L4.25 12A0.25 0.25 0 0 1 4 11.75L4 11.25A0.25 0.25 0 0 0 3.75 11L3.25 11A0.25 0.25 0 0 0 3 11.25ZM6 12.25L6 12.75A0.25 0.25 0 0 0 6.25 13L6.75 13A0.25 0.25 0 0 0 7 12.75L7 12.25A0.25 0.25 0 0 0 6.75 12L6.25 12A0.25 0.25 0 0 0 6 12.25ZM17 12.25L17 12.75A0.25 0.25 0 0 0 17.25 13L17.75 13A0.25 0.25 0 0 0 18 12.75L18 12.25A0.25 0.25 0 0 0 17.75 12L17.25 12A0.25 0.25 0 0 0 17 12.25ZM20 13.25L20 13.75A0.25 0.25 0 0 0 20.25 14L21.75 14A0.25 0.25 0 0 0 22 13.75L22 13.25A0.25 0.25 0 0 0 21.75 13L20.25 13A0.25 0.25 0 0 0 20 13.25ZM17 15.25L17 15.75A0.25 0.25 0 0 0 17.25 16L17.75 16A0.25 0.25 0 0 0 18 15.75L18 15.25A0.25 0.25 0 0 0 17.75 15L17.25 15A0.25 0.25 0 0 0 17 15.25ZM22 15.25L22 16.75A0.25 0.25 0 0 1 21.75 17L21.25 17A0.25 0.25 0 0 0 21 17.25L21 17.75A0.25 0.25 0 0 1 20.75 18L20.25 18A0.25 0.25 0 0 0 20 18.25L20 18.75A0.25 0.25 0 0 0 20.25 19L21.75 19A0.25 0.25 0 0 1 22 19.25L22 19.75A0.25 0.25 0 0 0 22.25 20L24.75 20A0.25 0.25 0 0 1 25 20.25L25 23.75A0.25 0.25 0 0 0 25.25 24L26.75 24A0.25 0.25 0 0 0 27 23.75L27 23.25A0.25 0.25 0 0 0 26.75 23L26.25 23A0.25 0.25 0 0 1 26 22.75L26 22.25A0.25 0.25 0 0 1 26.25 22L26.75 22A0.25 0.25 0 0 0 27 21.75L27 21.25A0.25 0.25 0 0 0 26.75 21L26.25 21A0.25 0.25 0 0 1 26 20.75L26 20.25A0.25 0.25 0 0 1 26.25 20L26.75 20A0.25 0.25 0 0 0 27 19.75L27 19.25A0.25 0.25 0 0 0 26.75 19L26.25 19A0.25 0.25 0 0 1 26 18.75L26 18.25A0.25 0.25 0 0 1 26.25 18L27.75 18A0.25 0.25 0 0 0 28 17.75L28 17.25A0.25 0.25 0 0 0 27.75 17L25.25 17A0.25 0.25 0 0 1 25 16.75L25 16.25A0.25 0.25 0 0 0 24.75 16L24.25 16A0.25 0.25 0 0 0 24 16.25L24 16.75A0.25 0.25 0 0 1 23.75 17L23.25 17A0.25 0.25 0 0 1 23 16.75L23 15.25A0.25 0.25 0 0 0 22.75 15L22.25 15A0.25 0.25 0 0 0 22 15.25ZM22 17.25L22 17.75A0.25 0.25 0 0 0 22.25 18L22.75 18A0.25 0.25 0 0 0 23 17.75L23 17.25A0.25 0.25 0 0 0 22.75 17L22.25 17A0.25 0.25 0 0 0 22 17.25ZM24 17.25L24 18.75A0.25 0.25 0 0 0 24.25 19L24.75 19A0.25 0.25 0 0 1 25 19.25L25 19.75A0.25 0.25 0 0 0 25.25 20L25.75 20A0.25 0.25 0 0 0 26 19.75L26 19.25A0.25 0.25 0 0 0 25.75 19L25.25 19A0.25 0.25 0 0 1 25 18.75L25 17.25A0.25 0.25 0 0 0 24.75 17L24.25 17A0.25 0.25 0 0 0 24 17.25ZM14 19.25L14 19.75A0.25 0.25 0 0 0 14.25 20L14.75 20A0.25 0.25 0 0 1 15 20.25L15 20.75A0.25 0.25 0 0 0 15.25 21L16.75 21A0.25 0.25 0 0 1 17 21.25L17 21.75A0.25 0.25 0 0 0 17.25 22L17.75 22A0.25 0.25 0 0 0 18 21.75L18 21.25A0.25 0.25 0 0 0 17.75 21L17.25 21A0.25 0.25 0 0 1 17 20.75L17 20.25A0.25 0.25 0 0 0 16.75 20L16.25 20A0.25 0.25 0 0 1 16 19.75L16 19.25A0.25 0.25 0 0 0 15.75 19L14.25 19A0.25 0.25 0 0 0 14 19.25ZM8 21.25L8 21.75A0.25 0.25 0 0 0 8.25 22L9.75 22A0.25 0.25 0 0 1 10 22.25L10 22.75A0.25 0.25 0 0 0 10.25 23L10.75 23A0.25 0.25 0 0 0 11 22.75L11 22.25A0.25 0.25 0 0 0 10.75 22L10.25 22A0.25 0.25 0 0 1 10 21.75L10 21.25A0.25 0.25 0 0 0 9.75 21L8.25 21A0.25 0.25 0 0 0 8 21.25ZM21 21.25L21 23.75A0.25 0.25 0 0 0 21.25 24L23.75 24A0.25 0.25 0 0 0 24 23.75L24 21.25A0.25 0.25 0 0 0 23.75 21L21.25 21A0.25 0.25 0 0 0 21 21.25ZM15 22.25L15 25.75A0.25 0.25 0 0 0 15.25 26L16.75 26A0.25 0.25 0 0 1 17 26.25L17 27.75A0.25 0.25 0 0 0 17.25 28L17.75 28A0.25 0.25 0 0 0 18 27.75L18 26.25A0.25 0.25 0 0 1 18.25 26L18.75 26A0.25 0.25 0 0 0 19 25.75L19 25.25A0.25 0.25 0 0 1 19.25 25L19.75 25A0.25 0.25 0 0 0 20 24.75L20 23.25A0.25 0.25 0 0 0 19.75 23L18.25 23A0.25 0.25 0 0 0 18 23.25L18 25.75A0.25 0.25 0 0 1 17.75 26L17.25 26A0.25 0.25 0 0 1 17 25.75L17 24.25A0.25 0.25 0 0 0 16.75 24L16.25 24A0.25 0.25 0 0 1 16 23.75L16 22.25A0.25 0.25 0 0 0 15.75 22L15.25 22A0.25 0.25 0 0 0 15 22.25ZM22 22.25L22 22.75A0.25 0.25 0 0 0 22.25 23L22.75 23A0.25 0.25 0 0 0 23 22.75L23 22.25A0.25 0.25 0 0 0 22.75 22L22.25 22A0.25 0.25 0 0 0 22 22.25ZM9 28.25L9 28.75A0.25 0.25 0 0 0 9.25 29L10.75 29A0.25 0.25 0 0 0 11 28.75L11 28.25A0.25 0.25 0 0 0 10.75 28L9.25 28A0.25 0.25 0 0 0 9 28.25ZM0 0.25L0 6.75A0.25 0.25 0 0 0 0.25 7L6.75 7A0.25 0.25 0 0 0 7 6.75L7 0.25A0.25 0.25 0 0 0 6.75 0L0.25 0A0.25 0.25 0 0 0 0 0.25ZM1 1.25L1 5.75A0.25 0.25 0 0 0 1.25 6L5.75 6A0.25 0.25 0 0 0 6 5.75L6 1.25A0.25 0.25 0 0 0 5.75 1L1.25 1A0.25 0.25 0 0 0 1 1.25ZM2 2.25L2 4.75A0.25 0.25 0 0 0 2.25 5L4.75 5A0.25 0.25 0 0 0 5 4.75L5 2.25A0.25 0.25 0 0 0 4.75 2L2.25 2A0.25 0.25 0 0 0 2 2.25ZM22 0.25L22 6.75A0.25 0.25 0 0 0 22.25 7L28.75 7A0.25 0.25 0 0 0 29 6.75L29 0.25A0.25 0.25 0 0 0 28.75 0L22.25 0A0.25 0.25 0 0 0 22 0.25ZM23 1.25L23 5.75A0.25 0.25 0 0 0 23.25 6L27.75 6A0.25 0.25 0 0 0 28 5.75L28 1.25A0.25 0.25 0 0 0 27.75 1L23.25 1A0.25 0.25 0 0 0 23 1.25ZM24 2.25L24 4.75A0.25 0.25 0 0 0 24.25 5L26.75 5A0.25 0.25 0 0 0 27 4.75L27 2.25A0.25 0.25 0 0 0 26.75 2L24.25 2A0.25 0.25 0 0 0 24 2.25ZM0 22.25L0 28.75A0.25 0.25 0 0 0 0.25 29L6.75 29A0.25 0.25 0 0 0 7 28.75L7 22.25A0.25 0.25 0 0 0 6.75 22L0.25 22A0.25 0.25 0 0 0 0 22.25ZM1 23.25L1 27.75A0.25 0.25 0 0 0 1.25 28L5.75 28A0.25 0.25 0 0 0 6 27.75L6 23.25A0.25 0.25 0 0 0 5.75 23L1.25 23A0.25 0.25 0 0 0 1 23.25ZM2 24.25L2 26.75A0.25 0.25 0 0 0 2.25 27L4.75 27A0.25 0.25 0 0 0 5 26.75L5 24.25A0.25 0.25 0 0 0 4.75 24L2.25 24A0.25 0.25 0 0 0 2 24.25Z" fill="#000000"/></g></g></svg>
