<?xml version="1.0" encoding="UTF-8"?>
<svg xmlns="http://www.w3.org/2000/svg" version="1.1" width="200" height="200" viewBox="0 0 200 200"><rect x="0" y="0" width="200" height="200" fill="#ffffff"/><g transform="scale(6.897)"><g transform="translate(0,0)"><path fill-rule="evenodd" d="M9 0.25L9 0.75A0.25 0.25 0 0 1 8.75 1L8.25 1A0.25 0.25 0 0 0 8 1.25L8 1.75A0.25 0.25 0 0 0 8.25 2L8.75 2A0.25 0.25 0 0 1 9 2.25L9 2.75A0.25 0.25 0 0 0 9.25 3L9.75 3A0.25 0.25 0 0 1 10 3.25L10 4.75A0.25 0.25 0 0 1 9.75 5L8.25 5A0.25 0.25 0 0 0 8 5.25L8 7.75A0.25 0.25 0 0 1 7.75 8L4.25 8A0.25 0.25 0 0 0 4 8.25L4 9.75A0.25 0.25 0 0 1 3.75 10L3.25 10A0.25 0.25 0 0 1 3 9.75L3 9.25A0.25 0.25 0 0 0 2.75 9L1.25 9A0.25 0.25 0 0 0 1 9.25L1 9.75A0.25 0.25 0 0 0 1.25 10L2.75 10A0.25 0.25 0 0 1 3 10.25L3 10.75A0.25 0.25 0 0 0 3.25 11L8.75 11A0.25 0.25 0 0 1 9 11.25L9 11.75A0.25 0.25 0 0 1 8.75 12L8.25 12A0.25 0.25 0 0 0 8 12.25L8 12.75A0.25 0.25 0 0 0 8.25 13L8.75 13A0.25 0.25 0 0 0 9 12.75L9 12.25A0.25 0.25 0 0 1 9.25 12L9.75 12A0.25 0.25 0 0 1 10 12.25L10 12.75A0.25 0.25 0 0 0 10.25 13L10.75 13A0.25 0.25 0 0 0 11 12.75L11 12.25A0.25 0.25 0 0 1 11.25 12L11.75 12A0.25 0.25 0 0 1 12 12.25L12 12.75A0.25 0.25 0 0 0 12.25 13L13.75 13A0.25 0.25 0 0 0 14 12.75L14 12.25A0.25 0.25 0 0 0 13.75 12L12.25 12A0.25 0.25 0 0 1 12 11.75L12 10.25A0.25 0.25 0 0 1 12.25 10L12.75 10A0.25 0.25 0 0 0 13 9.75L13 9.25A0.25 0.25 0 0 1 13.25 9L14.75 9A0.25 0.25 0 0 1 15 9.25L15 9.75A0.25 0.25 0 0 1 14.75 10L14.25 10A0.25 0.25 0 0 0 14 10.25L14 10.75A0.25 0.25 0 0 0 14.25 11L14.75 11A0.25 0.25 0 0 1 15 11.25L15 11.75A0.25 0.25 0 0 0 15.25 12L15.75 12A0.25 0.25 0 0 0 16 11.75L16 9.25A0.25 0.25 0 0 0 15.75 9L15.25 9A0.25 0.25 0 0 1 15 8.75L15 8.25A0.25 0.25 0 0 0 14.75 8L14.25 8A0.25 0.25 0 0 1 14 7.75L14 7.25A0.25 0.25 0 0 1 14.25 7L14.75 7A0.25 0.25 0 0 0 15 6.75L15 6.25A0.25 0.25 0 0 1 15.25 6L15.75 6A0.25 0.25 0 0 1 16 6.25L16 7.75A0.25 0.25 0 0 0 16.25 8L17.75 8A0.25 0.25 0 0 1 18 8.25L18 8.75A0.25 0.25 0 0 0 18.25 9L18.75 9A0.25 0.25 0 0 1 19 9.25L19 9.75A0.25 0.25 0 0 0 19.25 10L19.75 10A0.25 0.25 0 0 1 20 10.25L20 10.75A0.25 0.25 0 0 0 20.25 11L20.75 11A0.25 0.25 0 0 1 21 11.25L21 12.75A0.25 0.25 0 0 1 20.75 13L20.25 13A0.25 0.25 0 0 1 20 12.75L20 12.25A0.25 0.25 0 0 0 19.75 12L19.25 12A0.25 0.25 0 0 1 19 11.75L19 11.25A0.25 0.25 0 0 0 18.75 11L17.25 11A0.25 0.25 0 0 0 17 11.25L17 11.75A0.25 0.25 0 0 0 17.25 12L17.75 12A0.25 0.25 0 0 1 18 12.25L18 12.75A0.25 0.25 0 0 1 17.75 13L17.25 13A0.25 0.25 0 0 0 17 13.25L17 13.75A0.25 0.25 0 0 0 17.25 14L18.75 14A0.25 0.25 0 0 0 19 13.75L19 13.25A0.25 0.25 0 0 1 19.25 13L19.75 13A0.25 0.25 0 0 1 20 13.25L20 13.75A0.25 0.25 0 0 0 20.25 14L20.75 14A0.25 0.25 0 0 1 21 14.25L21 15.75A0.25 0.25 0 0 1 20.75 16L20.25 16A0.25 0.25 0 0 1 20 15.75L20 15.25A0.25 0.25 0 0 0 19.75 15L19.25 15A0.25 0.25 0 0 0 19 15.25L19 17.75A0.25 0.25 0 0 1 18.75 18L18.25 18A0.25 0.25 0 0 0 18 18.25L18 18.75A0.25 0.25 0 0 1 17.75 19L17.25 19A0.25 0.25 0 0 1 17 18.75L17 15.25A0.25 0.25 0 0 0 16.75 15L16.25 15A0.25 0.25 0 0 1 16 14.75L16 14.25A0.25 0.25 0 0 0 15.75 14L14.25 14A0.25 0.25 0 0 0 14 14.25L14 15.75A0.25 0.25 0 0 0 14.25 16L14.75 16A0.25 0.25 0 0 0 15 15.75L15 15.25A0.25 0.25 0 0 1 15.25 15L15.75 15A0.25 0.25 0 0 1 16 15.25L16 18.75A0.25 0.25 0 0 1 15.75 19L13.25 19A0.25 0.25 0 0 1 13 18.75L13 18.25A0.25 0.25 0 0 1 13.25 18L14.75 18A0.25 0.25 0 0 0 15 17.75L15 17.25A0.25 0.25 0 0 0 14.75 17L13.25 17A0.25 0.25 0 0 0 13 17.25L13 17.75A0.25 0.25 0 0 1 12.75 18L12.25 18A0.25 0.25 0 0 1 12 17.75L12 17.25A0.25 0.25 0 0 0 11.75 17L11.25 17A0.25 0.25 0 0 1 11 16.75L11 15.25A0.25 0.25 0 0 0 10.75 15L9.25 15A0.25 0.25 0 0 1 9 14.75L9 14.25A0.25 0.25 0 0 0 8.75 14L8.25 14A0.25 0.25 0 0 0 8 14.25L8 15.75A0.25 0.25 0 0 0 8.25 16L9.75 16A0.25 0.25 0 0 1 10 16.25L10 16.75A0.25 0.25 0 0 1 9.75 17L9.25 17A0.25 0.25 0 0 0 9 17.25L9 17.75A0.25 0.25 0 0 0 9.25 18L9.75 18A0.25 0.25 0 0 1 10 18.25L10 18.75A0.25 0.25 0 0 1 9.75 19L8.25 19A0.25 0.25 0 0 1 8 18.75L8 18.25A0.25 0.25 0 0 0 7.75 18L6.25 18A0.25 0.25 0 0 1 6 17.75L6 17.25A0.25 0.25 0 0 1 6.25 17L6.75 17A0.25 0.25 0 0 0 7 16.75L7 16.25A0.25 0.25 0 0 0 6.75 16L6.25 16A0.25 0.25 0 0 1 6 15.75L6 15.25A0.25 0.25 0 0 1 6.25 15L6.75 15A0.25 0.25 0 0 0 7 14.75L7 14.25A0.25 0.25 0 0 0 6.75 14L6.25 14A0.25 0.25 0 0 1 6 13.75L6 13.25A0.25 0.25 0 0 1 6.25 13L6.75 13A0.25 0.25 0 0 0 7 12.75L7 12.25A0.25 0.25 0 0 0 6.75 12L6.25 12A0.25 0.25 0 0 0 6 12.25L6 12.75A0.25 0.25 0 0 1 5.75 13L5.25 13A0.25 0.25 0 0 1 5 12.75L5 12.25A0.25 0.25 0 0 0 4.75 12L4.25 12A0.25 0.25 0 0 0 4 12.25L4 13.75A0.25 0.25 0 0 1 3.75 14L3.25 14A0.25 0.25 0 0 0 3 14.25L3 14.75A0.25 0.25 0 0 0 3.25 15L4.75 15A0.25 0.25 0 0 1 5 15.25L5 15.75A0.25 0.25 0 0 0 5.25 16L5.75 16A0.25 0.25 0 0 1 6 16.25L6 16.75A0.25 0.25 0 0 1 5.75 17L4.25 17A0.25 0.25 0 0 1 4 16.75L4 16.25A0.25 0.25 0 0 0 3.75 16L3.25 16A0.25 0.25 0 0 0 3 16.25L3 16.75A0.25 0.25 0 0 0 3.25 17L3.75 17A0.25 0.25 0 0 1 4 17.25L4 18.75A0.25 0.25 0 0 1 3.75 19L3.25 19A0.25 0.25 0 0 1 3 18.75L3 18.25A0.25 0.25 0 0 0 2.75 18L2.25 18A0.25 0.25 0 0 0 2 18.25L2 19.75A0.25 0.25 0 0 1 1.75 20L0.25 20A0.25 0.25 0 0 0 0 20.25L0 20.75A0.25 0.25 0 0 0 0.25 21L1.75 21A0.25 0.25 0 0 0 2 20.75L2 20.25A0.25 0.25 0 0 1 2.25 20L2.75 20A0.25 0.25 0 0 1 3 20.25L3 20.75A0.25 0.25 0 0 0 3.25 21L6.75 21A0.25 0.25 0 0 0 7 20.75L7 20.25A0.25 0.25 0 0 0 6.75 20L6.25 20A0.25 0.25 0 0 1 6 19.75L6 19.25A0.25 0.25 0 0 1 6.25 19L7.75 19A0.25 0.25 0 0 1 8 19.25L8 24.75A0.25 0.25 0 0 0 8.25 25L8.75 25A0.25 0.25 0 0 0 9 24.75L9 24.25A0.25 0.25 0 0 1 9.25 24L9.75 24A0.25 0.25 0 0 1 10 24.25L10 25.75A0.25 0.25 0 0 1 9.75 26L9.25 26A0.25 0.25 0 0 0 9 26.25L9 26.75A0.25 0.25 0 0 0 9.25 27L9.75 27A0.25 0.25 0 0 0 10 26.75L10 26.25A0.25 0.25 0 0 1 10.25 26L11.75 26A0.25 0.25 0 0 1 12 26.25L12 26.75A0.25 0.25 0 0 0 12.25 27L12.75 27A0.25 0.25 0 0 1 13 27.25L13 28.75A0.25 0.25 0 0 0 13.25 29L14.75 29A0.25 0.25 0 0 0 15 28.75L15 28.25A0.25 0.25 0 0 0 14.75 28L14.25 28A0.25 0.25 0 0 1 14 27.75L14 27.25A0.25 0.25 0 0 1 14.25 27L15.75 27A0.25 0.25 0 0 1 16 27.25L16 28.75A0.25 0.25 0 0 0 16.25 29L16.75 29A0.25 0.25 0 0 0 17 28.75L17 28.25A0.25 0.25 0 0 1 17.25 28L17.75 28A0.25 0.25 0 0 1 18 28.25L18 28.75A0.25 0.25 0 0 0 18.25 29L20.75 29A0.25 0.25 0 0 0 21 28.75L21 28.25A0.25 0.25 0 0 0 20.75 28L18.25 28A0.25 0.25 0 0 1 18 27.75L18 27.25A0.25 0.25 0 0 0 17.75 27L17.25 27A0.25 0.25 0 0 1 17 26.75L17 26.25A0.25 0.25 0 0 0 16.75 26L16.25 26A0.25 0.25 0 0 1 16 25.75L16 24.25A0.25 0.25 0 0 1 16.25 24L16.75 24A0.25 0.25 0 0 1 17 24.25L17 24.75A0.25 0.25 0 0 0 17.25 25L17.75 25A0.25 0.25 0 0 0 18 24.75L18 24.25A0.25 0.25 0 0 0 17.75 24L17.25 24A0.25 0.25 0 0 1 17 23.75L17 23.25A0.25 0.25 0 0 1 17.25 23L17.75 23A0.25 0.25 0 0 0 18 22.75L18 22.25A0.25 0.25 0 0 1 18.25 22L18.75 22A0.25 0.25 0 0 1 19 22.25L19 25.75A0.25 0.25 0 0 0 19.25 26L20.75 26A0.25 0.25 0 0 0 21 25.75L21 25.25A0.25 0.25 0 0 1 21.25 25L24.75 25A0.25 0.25 0 0 1 25 25.25L25 25.75A0.25 0.25 0 0 0 25.25 26L25.75 26A0.25 0.25 0 0 1 26 26.25L26 26.75A0.25 0.25 0 0 0 26.25 27L26.75 27A0.25 0.25 0 0 1 27 27.25L27 28.75A0.25 0.25 0 0 0 27.25 29L27.75 29A0.25 0.25 0 0 0 28 28.75L28 28.25A0.25 0.25 0 0 1 28.25 28L28.75 28A0.25 0.25 0 0 0 29 27.75L29 26.25A0.25 0.25 0 0 0 28.75 26L28.25 26A0.25 0.25 0 0 1 28 25.75L28 25.25A0.25 0.25 0 0 0 27.75 25L26.25 25A0.25 0.25 0 0 1 26 24.75L26 23.25A0.25 0.25 0 0 1 26.25 23L26.75 23A0.25 0.25 0 0 1 27 23.25L27 23.75A0.25 0.25 0 0 0 27.25 24L27.75 24A0.25 0.25 0 0 0 28 23.75L28 23.25A0.25 0.25 0 0 1 28.25 23L28.75 23A0.25 0.25 0 0 0 29 22.75L29 21.25A0.25 0.25 0 0 0 28.75 21L28.25 21A0.25 0.25 0 0 1 28 20.75L28 20.25A0.25 0.25 0 0 1 28.25 20L28.75 20A0.25 0.25 0 0 0 29 19.75L29 17.25A0.25 0.25 0 0 0 28.75 17L28.25 17A0.25 0.25 0 0 1 28 16.75L28 16.25A0.25 0.25 0 0 1 28.25 16L28.75 16A0.25 0.25 0 0 0 29 15.75L29 13.25A0.25 0.25 0 0 0 28.75 13L28.25 13A0.25 0.25 0 0 1 28 12.75L28 12.25A0.25 0.25 0 0 1 28.25 12L28.75 12A0.25 0.25 0 0 0 29 11.75L29 9.25A0.25 0.25 0 0 0 28.75 9L28.25 9A0.25 0.25 0 0 1 28 8.75L28 8.25A0.25 0.25 0 0 0 27.75 8L27.25 8A0.25 0.25 0 0 0 27 8.25L27 8.75A0.25 0.25 0 0 1 26.75 9L24.25 9A0.25 0.25 0 0 1 24 8.75L24 8.25A0.25 0.25 0 0 0 23.75 8L22.25 8A0.25 0.25 0 0 0 22 8.25L22 8.75A0.25 0.25 0 0 1 21.75 9L20.25 9A0.25 0.25 0 0 1 20 8.75L20 8.25A0.25 0.25 0 0 0 19.75 8L19.25 8A0.25 0.25 0 0 1 19 7.75L19 6.25A0.25 0.25 0 0 1 19.25 6L19.75 6A0.25 0.25 0 0 1 20 6.25L20 6.75A0.25 0.25 0 0 0 20.25 7L20.75 7A0.25 0.25 0 0 0 21 6.75L21 1.25A0.25 0.25 0 0 0 20.75 1L20.25 1A0.25 0.25 0 0 1 20 0.75L20 0.25A0.25 0.25 0 0 0 19.75 0L18.25 0A0.25 0.25 0 0 0 18 0.25L18 0.75A0.25 0.25 0 0 1 17.75 1L17.25 1A0.25 0.25 0 0 0 17 1.25L17 1.75A0.25 0.25 0 0 1 16.75 2L16.25 2A0.25 0.25 0 0 1 16 1.75L16 1.25A0.25 0.25 0 0 0 15.75 1L15.25 1A0.25 0.25 0 0 0 15 1.25L15 1.75A0.25 0.25 0 0 1 14.75 2L14.25 2A0.25 0.25 0 0 1 14 1.75L14 1.25A0.25 0.25 0 0 0 13.75 1L13.25 1A0.25 0.25 0 0 1 13 0.75L13 0.25A0.25 0.25 0 0 0 12.75 0L12.25 0A0.25 0.25 0 0 0 12 0.25L12 1.75A0.25 0.25 0 0 0 12.25 2L13.75 2A0.25 0.25 0 0 1 14 2.25L14 2.75A0.25 0.25 0 0 1 13.75 3L13.25 3A0.25 0.25 0 0 0 13 3.25L13 3.75A0.25 0.25 0 0 1 12.75 4L11.25 4A0.25 0.25 0 0 1 11 3.75L11 3.25A0.25 0.25 0 0 0 10.75 3L10.25 3A0.25 0.25 0 0 1 10 2.75L10 2.25A0.25 0.25 0 0 1 10.25 2L10.75 2A0.25 0.25 0 0 0 11 1.75L11 1.25A0.25 0.25 0 0 0 10.75 1L10.25 1A0.25 0.25 0 0 1 10 0.75L10 0.25A0.25 0.25 0 0 0 9.75 0L9.25 0A0.25 0.25 0 0 0 9 0.25ZM9 1.25L9 1.75A0.25 0.25 0 0 0 9.25 2L9.75 2A0.25 0.25 0 0 0 10 1.75L10 1.25A0.25 0.25 0 0 0 9.75 1L9.25 1A0.25 0.25 0 0 0 9 1.25ZM19 1.25L19 1.75A0.25 0.25 0 0 1 18.75 2L18.25 2A0.25 0.25 0 0 0 18 2.25L18 2.75A0.25 0.25 0 0 1 17.75 3L17.25 3A0.25 0.25 0 0 0 17 3.25L17 4.75A0.25 0.25 0 0 1 16.75 5L16.25 5A0.25 0.25 0 0 1 16 4.75L16 4.25A0.25 0.25 0 0 0 15.75 4L14.25 4A0.25 0.25 0 0 0 14 4.25L14 4.75A0.25 0.25 0 0 0 14.25 5L15.75 5A0.25 0.25 0 0 1 16 5.25L16 5.75A0.25 0.25 0 0 0 16.25 6L16.75 6A0.25 0.25 0 0 1 17 6.25L17 6.75A0.25 0.25 0 0 0 17.25 7L17.75 7A0.25 0.25 0 0 0 18 6.75L18 5.25A0.25 0.25 0 0 1 18.25 5L19.75 5A0.25 0.25 0 0 0 20 4.75L20 4.25A0.25 0.25 0 0 0 19.75 4L19.25 4A0.25 0.25 0 0 1 19 3.75L19 2.25A0.25 0.25 0 0 1 19.25 2L19.75 2A0.25 0.25 0 0 0 20 1.75L20 1.25A0.25 0.25 0 0 0 19.75 1L19.25 1A0.25 0.25 0 0 0 19 1.25ZM15 2.25L15 2.75A0.25 0.25 0 0 0 15.25 3L15.75 3A0.25 0.25 0 0 0 16 2.75L16 2.25A0.25 0.25 0 0 0 15.75 2L15.25 2A0.25 0.25 0 0 0 15 2.25ZM10 5.25L10 5.75A0.25 0.25 0 0 1 9.75 6L9.25 6A0.25 0.25 0 0 0 9 6.25L9 7.75A0.25 0.25 0 0 1 8.75 8L8.25 8A0.25 0.25 0 0 0 8 8.25L8 8.75A0.25 0.25 0 0 0 8.25 9L8.75 9A0.25 0.25 0 0 1 9 9.25L9 9.75A0.25 0.25 0 0 0 9.25 10L9.75 10A0.25 0.25 0 0 0 10 9.75L10 9.25A0.25 0.25 0 0 0 9.75 9L9.25 9A0.25 0.25 0 0 1 9 8.75L9 8.25A0.25 0.25 0 0 1 9.25 8L9.75 8A0.25 0.25 0 0 0 10 7.75L10 6.25A0.25 0.25 0 0 1 10.25 6L10.75 6A0.25 0.25 0 0 1 11 6.25L11 6.75A0.25 0.25 0 0 0 11.25 7L11.75 7A0.25 0.25 0 0 0 12 6.75L12 6.25A0.25 0.25 0 0 0 11.75 6L11.25 6A0.25 0.25 0 0 1 11 5.75L11 5.25A0.25 0.25 0 0 0 10.75 5L10.25 5A0.25 0.25 0 0 0 10 5.25ZM13 6.25L13 6.75A0.25 0.25 0 0 0 13.25 7L13.75 7A0.25 0.25 0 0 0 14 6.75L14 6.25A0.25 0.25 0 0 0 13.75 6L13.25 6A0.25 0.25 0 0 0 13 6.25ZM11 8.25L11 9.75A0.25 0.25 0 0 0 11.25 10L11.75 10A0.25 0.25 0 0 0 12 9.75L12 9.25A0.25 0.25 0 0 1 12.25 9L12.75 9A0.25 0.25 0 0 0 13 8.75L13 8.25A0.25 0.25 0 0 0 12.75 8L11.25 8A0.25 0.25 0 0 0 11 8.25ZM6 9.25L6 9.75A0.25 0.25 0 0 0 6.25 10L6.75 10A0.25 0.25 0 0 0 7 9.75L7 9.25A0.25 0.25 0 0 0 6.75 9L6.25 9A0.25 0.25 0 0 0 6 9.25ZM23 9.25L23 9.75A0.25 0.25 0 0 1 22.75 10L22.25 10A0.25 0.25 0 0 0 22 10.25L22 10.75A0.25 0.25 0 0 0 22.25 11L22.75 11A0.25 0.25 0 0 0 23 10.75L23 10.25A0.25 0.25 0 0 1 23.25 10L23.75 10A0.25 0.25 0 0 0 24 9.75L24 9.25A0.25 0.25 0 0 0 23.75 9L23.25 9A0.25 0.25 0 0 0 23 9.25ZM25 10.25L25 10.75A0.25 0.25 0 0 1 24.75 11L24.25 11A0.25 0.25 0 0 0 24 11.25L24 12.75A0.25 0.25 0 0 1 23.75 13L23.25 13A0.25 0.25 0 0 1 23 12.75L23 12.25A0.25 0.25 0 0 0 22.75 12L22.25 12A0.25 0.25 0 0 0 22 12.25L22 12.75A0.25 0.25 0 0 1 21.75 13L21.25 13A0.25 0.25 0 0 0 21 13.25L21 13.75A0.25 0.25 0 0 0 21.25 14L21.75 14A0.25 0.25 0 0 0 22 13.75L22 13.25A0.25 0.25 0 0 1 22.25 13L22.75 13A0.25 0.25 0 0 1 23 13.25L23 14.75A0.25 0.25 0 0 1 22.75 15L22.25 15A0.25 0.25 0 0 0 22 15.25L22 16.75A0.25 0.25 0 0 1 21.75 17L20.25 17A0.25 0.25 0 0 0 20 17.25L20 18.75A0.25 0.25 0 0 0 20.25 19L21.75 19A0.25 0.25 0 0 1 22 19.25L22 19.75A0.25 0.25 0 0 0 22.25 20L22.75 20A0.25 0.25 0 0 0 23 19.75L23 19.25A0.25 0.25 0 0 1 23.25 19L23.75 19A0.25 0.25 0 0 1 24 19.25L24 19.75A0.25 0.25 0 0 0 24.25 20L24.75 20A0.25 0.25 0 0 0 25 19.75L25 19.25A0.25 0.25 0 0 1 25.25 19L25.75 19A0.25 0.25 0 0 1 26 19.25L26 20.75A0.25 0.25 0 0 1 25.75 21L25.25 21A0.25 0.25 0 0 0 25 21.25L25 21.75A0.25 0.25 0 0 0 25.25 22L25.75 22A0.25 0.25 0 0 0 26 21.75L26 21.25A0.25 0.25 0 0 1 26.25 21L26.75 21A0.25 0.25 0 0 1 27 21.25L27 22.75A0.25 0.25 0 0 0 27.25 23L27.75 23A0.25 0.25 0 0 0 28 22.75L28 21.25A0.25 0.25 0 0 0 27.75 21L27.25 21A0.25 0.25 0 0 1 27 20.75L27 19.25A0.25 0.25 0 0 0 26.75 19L26.25 19A0.25 0.25 0 0 1 26 18.75L26 18.25A0.25 0.25 0 0 0 25.75 18L24.25 18A0.25 0.25 0 0 1 24 17.75L24 17.25A0.25 0.25 0 0 1 24.25 17L26.75 17A0.25 0.25 0 0 0 27 16.75L27 16.25A0.25 0.25 0 0 1 27.25 16L27.75 16A0.25 0.25 0 0 0 28 15.75L28 15.25A0.25 0.25 0 0 0 27.75 15L25.25 15A0.25 0.25 0 0 1 25 14.75L25 14.25A0.25 0.25 0 0 0 24.75 14L24.25 14A0.25 0.25 0 0 1 24 13.75L24 13.25A0.25 0.25 0 0 1 24.25 13L26.75 13A0.25 0.25 0 0 0 27 12.75L27 11.25A0.25 0.25 0 0 0 26.75 11L26.25 11A0.25 0.25 0 0 1 26 10.75L26 10.25A0.25 0.25 0 0 0 25.75 10L25.25 10A0.25 0.25 0 0 0 25 10.25ZM0 12.25L0 13.75A0.25 0.25 0 0 0 0.25 14L0.75 14A0.25 0.25 0 0 1 1 14.25L1 14.75A0.25 0.25 0 0 1 0.75 15L0.25 15A0.25 0.25 0 0 0 0 15.25L0 15.75A0.25 0.25 0 0 0 0.25 16L0.75 16A0.25 0.25 0 0 1 1 16.25L1 16.75A0.25 0.25 0 0 1 0.75 17L0.25 17A0.25 0.25 0 0 0 0 17.25L0 17.75A0.25 0.25 0 0 0 0.25 18L0.75 18A0.25 0.25 0 0 0 1 17.75L1 17.25A0.25 0.25 0 0 1 1.25 17L1.75 17A0.25 0.25 0 0 0 2 16.75L2 12.25A0.25 0.25 0 0 0 1.75 12L0.25 12A0.25 0.25 0 0 0 0 12.25ZM5 14.25L5 14.75A0.25 0.25 0 0 0 5.25 15L5.75 15A0.25 0.25 0 0 0 6 14.75L6 14.25A0.25 0.25 0 0 0 5.75 14L5.25 14A0.25 0.25 0 0 0 5 14.25ZM12 15.25L12 15.75A0.25 0.25 0 0 0 12.25 16L12.75 16A0.25 0.25 0 0 0 13 15.75L13 15.25A0.25 0.25 0 0 0 12.75 15L12.25 15A0.25 0.25 0 0 0 12 15.25ZM23 16.25L23 16.75A0.25 0.25 0 0 1 22.75 17L22.25 17A0.25 0.25 0 0 0 22 17.25L22 18.75A0.25 0.25 0 0 0 22.25 19L22.75 19A0.25 0.25 0 0 0 23 18.75L23 17.25A0.25 0.25 0 0 1 23.25 17L23.75 17A0.25 0.25 0 0 0 24 16.75L24 16.25A0.25 0.25 0 0 0 23.75 16L23.25 16A0.25 0.25 0 0 0 23 16.25ZM5 18.25L5 18.75A0.25 0.25 0 0 1 4.75 19L4.25 19A0.25 0.25 0 0 0 4 19.25L4 19.75A0.25 0.25 0 0 0 4.25 20L4.75 20A0.25 0.25 0 0 0 5 19.75L5 19.25A0.25 0.25 0 0 1 5.25 19L5.75 19A0.25 0.25 0 0 0 6 18.75L6 18.25A0.25 0.25 0 0 0 5.75 18L5.25 18A0.25 0.25 0 0 0 5 18.25ZM11 18.25L11 18.75A0.25 0.25 0 0 1 10.75 19L10.25 19A0.25 0.25 0 0 0 10 19.25L10 19.75A0.25 0.25 0 0 1 9.75 20L9.25 20A0.25 0.25 0 0 0 9 20.25L9 20.75A0.25 0.25 0 0 0 9.25 21L9.75 21A0.25 0.25 0 0 0 10 20.75L10 20.25A0.25 0.25 0 0 1 10.25 20L10.75 20A0.25 0.25 0 0 0 11 19.75L11 19.25A0.25 0.25 0 0 1 11.25 19L11.75 19A0.25 0.25 0 0 1 12 19.25L12 19.75A0.25 0.25 0 0 0 12.25 20L12.75 20A0.25 0.25 0 0 1 13 20.25L13 20.75A0.25 0.25 0 0 1 12.75 21L12.25 21A0.25 0.25 0 0 0 12 21.25L12 21.75A0.25 0.25 0 0 1 11.75 22L11.25 22A0.25 0.25 0 0 0 11 22.25L11 22.75A0.25 0.25 0 0 1 10.75 23L10.25 23A0.25 0.25 0 0 0 10 23.25L10 23.75A0.25 0.25 0 0 0 10.25 24L10.75 24A0.25 0.25 0 0 1 11 24.25L11 24.75A0.25 0.25 0 0 0 11.25 25L11.75 25A0.25 0.25 0 0 0 12 24.75L12 24.25A0.25 0.25 0 0 1 12.25 24L12.75 24A0.25 0.25 0 0 0 13 23.75L13 23.25A0.25 0.25 0 0 1 13.25 23L13.75 23A0.25 0.25 0 0 1 14 23.25L14 23.75A0.25 0.25 0 0 0 14.25 24L14.75 24A0.25 0.25 0 0 0 15 23.75L15 23.25A0.25 0.25 0 0 1 15.25 23L16.75 23A0.25 0.25 0 0 0 17 22.75L17 21.25A0.25 0.25 0 0 1 17.25 21L19.75 21A0.25 0.25 0 0 0 20 20.75L20 20.25A0.25 0.25 0 0 0 19.75 20L19.25 20A0.25 0.25 0 0 1 19 19.75L19 19.25A0.25 0.25 0 0 0 18.75 19L18.25 19A0.25 0.25 0 0 0 18 19.25L18 19.75A0.25 0.25 0 0 1 17.75 20L17.25 20A0.25 0.25 0 0 1 17 19.75L17 19.25A0.25 0.25 0 0 0 16.75 19L16.25 19A0.25 0.25 0 0 0 16 19.25L16 19.75A0.25 0.25 0 0 0 16.25 20L16.75 20A0.25 0.25 0 0 1 17 20.25L17 20.75A0.25 0.25 0 0 1 16.75 21L15.25 21A0.25 0.25 0 0 1 15 20.75L15 20.25A0.25 0.25 0 0 0 14.75 20L13.25 20A0.25 0.25 0 0 1 13 19.75L13 19.25A0.25 0.25 0 0 0 12.75 19L12.25 19A0.25 0.25 0 0 1 12 18.75L12 18.25A0.25 0.25 0 0 0 11.75 18L11.25 18A0.25 0.25 0 0 0 11 18.25ZM13 21.25L13 21.75A0.25 0.25 0 0 0 13.25 22L14.75 22A0.25 0.25 0 0 0 15 21.75L15 21.25A0.25 0.25 0 0 0 14.75 21L13.25 21A0.25 0.25 0 0 0 13 21.25ZM21 21.25L21 23.75A0.25 0.25 0 0 0 21.25 24L23.75 24A0.25 0.25 0 0 0 24 23.75L24 21.25A0.25 0.25 0 0 0 23.75 21L21.25 21A0.25 0.25 0 0 0 21 21.25ZM22 22.25L22 22.75A0.25 0.25 0 0 0 22.25 23L22.75 23A0.25 0.25 0 0 0 23 22.75L23 22.25A0.25 0.25 0 0 0 22.75 22L22.25 22A0.25 0.25 0 0 0 22 22.25ZM13 25.25L13 25.75A0.25 0.25 0 0 0 13.25 26L13.75 26A0.25 0.25 0 0 0 14 25.75L14 25.25A0.25 0.25 0 0 0 13.75 25L13.25 25A0.25 0.25 0 0 0 13 25.25ZM22 27.25L22 27.75A0.25 0.25 0 0 0 22.25 28L22.75 28A0.25 0.25 0 0 1 23 28.25L23 28.75A0.25 0.25 0 0 0 23.25 29L24.75 29A0.25 0.25 0 0 0 25 28.75L25 28.25A0.25 0.25 0 0 0 24.75 28L23.25 28A0.25 0.25 0 0 1 23 27.75L23 27.25A0.25 0.25 0 0 0 22.75 27L22.25 27A0.25 0.25 0 0 0 22 27.25ZM9 28.25L9 28.75A0.25 0.25 0 0 0 9.25 29L10.75 29A0.25 0.25 0 0 0 11 28.75L11 28.25A0.25 0.25 0 0 0 10.75 28L9.25 28A0.25 0.25 0 0 0 9 28.25ZM0 0.25L0 6.75A0.25 0.25 0 0 0 0.25 7L6.75 7A0.25 0.25 0 0 0 7 6.75L7 0.25A0.25 0.25 0 0 0 6.75 0L0.25 0A0.25 0.25 0 0 0 0 0.25ZM1 1.25L1 5.75A0.25 0.25 0 0 0 1.25 6L5.75 6A0.25 0.25 0 0 0 6 5.75L6 1.25A0.25 0.25 0 0 0 5.75 1L1.25 1A0.25 0.25 0 0 0 1 1.25ZM2 2.25L2 4.75A0.25 0.25 0 0 0 2.25 5L4.75 5A0.25 0.25 0 0 0 5 4.75L5 2.25A0.25 0.25 0 0 0 4.75 2L2.25 2A0.25 0.25 0 0 0 2 2.25ZM22 0.25L22 6.75A0.25 0.25 0 0 0 22.25 7L28.75 7A0.25 0.25 0 0 0 29 6.75L29 0.25A0.25 0.25 0 0 0 28.75 0L22.25 0A0.25 0.25 0 0 0 22 0.25ZM23 1.25L23 5.75A0.25 0.25 0 0 0 23.25 6L27.75 6A0.25 0.25 0 0 0 28 5.75L28 1.25A0.25 0.25 0 0 0 27.75 1L23.25 1A0.25 0.25 0 0 0 23 1.25ZM24 2.25L24 4.75A0.25 0.25 0 0 0 24.25 5L26.75 5A0.25 0.25 0 0 0 27 4.75L27 2.25A0.25 0.25 0 0 0 26.75 2L24.25 2A0.25 0.25 0 0 0 24 2.25ZM0 22.25L0 28.75A0.25 0.25 0 0 0 0.25 29L6.75 29A0.25 0.25 0 0 0 7 28.75L7 22.25A0.25 0.25 0 0 0 6.75 22L0.25 22A0.25 0.25 0 0 0 0 22.25ZM1 23.25L1 27.75A0.25 0.25 0 0 0 1.25 28L5.75 28A0.25 0.25 0 0 0 6 27.75L6 23.25A0.25 0.25 0 0 0 5.75 23L1.25 23A0.25 0.25 0 0 0 1 23.25ZM2 24.25L2 26.75A0.25 0.25 0 0 0 2.25 27L4.75 27A0.25 0.25 0 0 0 5 26.75L5 24.25A0.25 0.25 0 0 0 4.75 24L2.25 24A0.25 0.25 0 0 0 2 24.25Z" fill="#000000"/></g></g></svg>
