<?xml version="1.0" encoding="UTF-8"?>
<svg xmlns="http://www.w3.org/2000/svg" version="1.1" width="200" height="200" viewBox="0 0 200 200"><rect x="0" y="0" width="200" height="200" fill="#ffffff"/><g transform="scale(6.897)"><g transform="translate(0,0)"><path fill-rule="evenodd" d="M8 0.25L8 0.75A0.25 0.25 0 0 0 8.25 1L8.75 1A0.25 0.25 0 0 0 9 0.75L9 0.25A0.25 0.25 0 0 0 8.75 0L8.25 0A0.25 0.25 0 0 0 8 0.25ZM10 0.25L10 0.75A0.25 0.25 0 0 0 10.25 1L11.75 1A0.25 0.25 0 0 1 12 1.25L12 1.75A0.25 0.25 0 0 1 11.75 2L11.25 2A0.25 0.25 0 0 0 11 2.25L11 3.75A0.25 0.25 0 0 1 10.75 4L10.25 4A0.25 0.25 0 0 1 10 3.75L10 2.25A0.25 0.25 0 0 0 9.75 2L8.25 2A0.25 0.25 0 0 0 8 2.25L8 2.75A0.25 0.25 0 0 0 8.25 3L8.75 3A0.25 0.25 0 0 1 9 3.25L9 3.75A0.25 0.25 0 0 1 8.75 4L8.25 4A0.25 0.25 0 0 0 8 4.25L8 4.75A0.25 0.25 0 0 0 8.25 5L8.75 5A0.25 0.25 0 0 1 9 5.25L9 5.75A0.25 0.25 0 0 1 8.75 6L8.25 6A0.25 0.25 0 0 0 8 6.25L8 7.75A0.25 0.25 0 0 0 8.25 8L10.75 8A0.25 0.25 0 0 1 11 8.25L11 8.75A0.25 0.25 0 0 0 11.25 9L11.75 9A0.25 0.25 0 0 0 12 8.75L12 8.25A0.25 0.25 0 0 0 11.75 8L11.25 8A0.25 0.25 0 0 1 11 7.75L11 6.25A0.25 0.25 0 0 1 11.25 6L11.75 6A0.25 0.25 0 0 1 12 6.25L12 6.75A0.25 0.25 0 0 0 12.25 7L12.75 7A0.25 0.25 0 0 1 13 7.25L13 8.75A0.25 0.25 0 0 0 13.25 9L13.75 9A0.25 0.25 0 0 1 14 9.25L14 9.75A0.25 0.25 0 0 1 13.75 10L13.25 10A0.25 0.25 0 0 0 13 10.25L13 11.75A0.25 0.25 0 0 1 12.75 12L12.25 12A0.25 0.25 0 0 1 12 11.75L12 11.25A0.25 0.25 0 0 0 11.75 11L11.25 11A0.25 0.25 0 0 1 11 10.75L11 10.25A0.25 0.25 0 0 0 10.75 10L10.25 10A0.25 0.25 0 0 1 10 9.75L10 9.25A0.25 0.25 0 0 0 9.75 9L9.25 9A0.25 0.25 0 0 0 9 9.25L9 9.75A0.25 0.25 0 0 1 8.75 10L5.25 10A0.25 0.25 0 0 1 5 9.75L5 9.25A0.25 0.25 0 0 1 5.25 9L6.75 9A0.25 0.25 0 0 0 7 8.75L7 8.25A0.25 0.25 0 0 0 6.75 8L5.25 8A0.25 0.25 0 0 0 5 8.25L5 8.75A0.25 0.25 0 0 1 4.75 9L4.25 9A0.25 0.25 0 0 0 4 9.25L4 10.75A0.25 0.25 0 0 1 3.75 11L2.25 11A0.25 0.25 0 0 1 2 10.75L2 10.25A0.25 0.25 0 0 1 2.25 10L2.75 10A0.25 0.25 0 0 0 3 9.75L3 9.25A0.25 0.25 0 0 0 2.75 9L2.25 9A0.25 0.25 0 0 0 2 9.25L2 9.75A0.25 0.25 0 0 1 1.75 10L0.25 10A0.25 0.25 0 0 0 0 10.25L0 10.75A0.25 0.25 0 0 0 0.25 11L0.75 11A0.25 0.25 0 0 1 1 11.25L1 11.75A0.25 0.25 0 0 1 0.75 12L0.25 12A0.25 0.25 0 0 0 0 12.25L0 12.75A0.25 0.25 0 0 0 0.25 13L0.75 13A0.25 0.25 0 0 0 1 12.75L1 12.25A0.25 0.25 0 0 1 1.25 12L1.75 12A0.25 0.25 0 0 1 2 12.25L2 12.75A0.25 0.25 0 0 0 2.25 13L4.75 13A0.25 0.25 0 0 0 5 12.75L5 12.25A0.25 0.25 0 0 0 4.75 12L4.25 12A0.25 0.25 0 0 1 4 11.75L4 11.25A0.25 0.25 0 0 1 4.25 11L7.75 11A0.25 0.25 0 0 1 8 11.25L8 11.75A0.25 0.25 0 0 0 8.25 12L8.75 12A0.25 0.25 0 0 1 9 12.25L9 13.75A0.25 0.25 0 0 0 9.25 14L10.75 14A0.25 0.25 0 0 0 11 13.75L11 13.25A0.25 0.25 0 0 0 10.75 13L10.25 13A0.25 0.25 0 0 1 10 12.75L10 12.25A0.25 0.25 0 0 1 10.25 12L11.75 12A0.25 0.25 0 0 1 12 12.25L12 14.75A0.25 0.25 0 0 1 11.75 15L11.25 15A0.25 0.25 0 0 0 11 15.25L11 15.75A0.25 0.25 0 0 1 10.75 16L10.25 16A0.25 0.25 0 0 1 10 15.75L10 15.25A0.25 0.25 0 0 0 9.75 15L8.25 15A0.25 0.25 0 0 1 8 14.75L8 13.25A0.25 0.25 0 0 0 7.75 13L7.25 13A0.25 0.25 0 0 1 7 12.75L7 12.25A0.25 0.25 0 0 0 6.75 12L6.25 12A0.25 0.25 0 0 0 6 12.25L6 12.75A0.25 0.25 0 0 0 6.25 13L6.75 13A0.25 0.25 0 0 1 7 13.25L7 13.75A0.25 0.25 0 0 1 6.75 14L6.25 14A0.25 0.25 0 0 0 6 14.25L6 14.75A0.25 0.25 0 0 1 5.75 15L5.25 15A0.25 0.25 0 0 0 5 15.25L5 15.75A0.25 0.25 0 0 1 4.75 16L4.25 16A0.25 0.25 0 0 0 4 16.25L4 16.75A0.25 0.25 0 0 1 3.75 17L3.25 17A0.25 0.25 0 0 1 3 16.75L3 16.25A0.25 0.25 0 0 0 2.75 16L2.25 16A0.25 0.25 0 0 1 2 15.75L2 14.25A0.25 0.25 0 0 0 1.75 14L0.25 14A0.25 0.25 0 0 0 0 14.25L0 20.75A0.25 0.25 0 0 0 0.25 21L0.75 21A0.25 0.25 0 0 0 1 20.75L1 19.25A0.25 0.25 0 0 1 1.25 19L1.75 19A0.25 0.25 0 0 0 2 18.75L2 18.25A0.25 0.25 0 0 1 2.25 18L2.75 18A0.25 0.25 0 0 1 3 18.25L3 19.75A0.25 0.25 0 0 1 2.75 20L2.25 20A0.25 0.25 0 0 0 2 20.25L2 20.75A0.25 0.25 0 0 0 2.25 21L2.75 21A0.25 0.25 0 0 0 3 20.75L3 20.25A0.25 0.25 0 0 1 3.25 20L3.75 20A0.25 0.25 0 0 0 4 19.75L4 19.25A0.25 0.25 0 0 1 4.25 19L4.75 19A0.25 0.25 0 0 1 5 19.25L5 19.75A0.25 0.25 0 0 0 5.25 20L5.75 20A0.25 0.25 0 0 1 6 20.25L6 20.75A0.25 0.25 0 0 0 6.25 21L6.75 21A0.25 0.25 0 0 0 7 20.75L7 20.25A0.25 0.25 0 0 0 6.75 20L6.25 20A0.25 0.25 0 0 1 6 19.75L6 19.25A0.25 0.25 0 0 1 6.25 19L7.75 19A0.25 0.25 0 0 1 8 19.25L8 19.75A0.25 0.25 0 0 0 8.25 20L9.75 20A0.25 0.25 0 0 1 10 20.25L10 20.75A0.25 0.25 0 0 1 9.75 21L8.25 21A0.25 0.25 0 0 0 8 21.25L8 21.75A0.25 0.25 0 0 0 8.25 22L9.75 22A0.25 0.25 0 0 0 10 21.75L10 21.25A0.25 0.25 0 0 1 10.25 21L10.75 21A0.25 0.25 0 0 0 11 20.75L11 20.25A0.25 0.25 0 0 1 11.25 20L11.75 20A0.25 0.25 0 0 1 12 20.25L12 21.75A0.25 0.25 0 0 0 12.25 22L12.75 22A0.25 0.25 0 0 1 13 22.25L13 22.75A0.25 0.25 0 0 1 12.75 23L12.25 23A0.25 0.25 0 0 0 12 23.25L12 23.75A0.25 0.25 0 0 1 11.75 24L11.25 24A0.25 0.25 0 0 0 11 24.25L11 24.75A0.25 0.25 0 0 1 10.75 25L10.25 25A0.25 0.25 0 0 1 10 24.75L10 23.25A0.25 0.25 0 0 0 9.75 23L8.25 23A0.25 0.25 0 0 0 8 23.25L8 23.75A0.25 0.25 0 0 0 8.25 24L8.75 24A0.25 0.25 0 0 1 9 24.25L9 25.75A0.25 0.25 0 0 0 9.25 26L9.75 26A0.25 0.25 0 0 1 10 26.25L10 26.75A0.25 0.25 0 0 0 10.25 27L11.75 27A0.25 0.25 0 0 1 12 27.25L12 27.75A0.25 0.25 0 0 1 11.75 28L10.25 28A0.25 0.25 0 0 0 10 28.25L10 28.75A0.25 0.25 0 0 0 10.25 29L11.75 29A0.25 0.25 0 0 0 12 28.75L12 28.25A0.25 0.25 0 0 1 12.25 28L13.75 28A0.25 0.25 0 0 1 14 28.25L14 28.75A0.25 0.25 0 0 0 14.25 29L14.75 29A0.25 0.25 0 0 0 15 28.75L15 28.25A0.25 0.25 0 0 0 14.75 28L14.25 28A0.25 0.25 0 0 1 14 27.75L14 26.25A0.25 0.25 0 0 0 13.75 26L13.25 26A0.25 0.25 0 0 1 13 25.75L13 24.25A0.25 0.25 0 0 1 13.25 24L13.75 24A0.25 0.25 0 0 0 14 23.75L14 22.25A0.25 0.25 0 0 0 13.75 22L13.25 22A0.25 0.25 0 0 1 13 21.75L13 20.25A0.25 0.25 0 0 1 13.25 20L13.75 20A0.25 0.25 0 0 1 14 20.25L14 20.75A0.25 0.25 0 0 0 14.25 21L14.75 21A0.25 0.25 0 0 1 15 21.25L15 24.75A0.25 0.25 0 0 0 15.25 25L15.75 25A0.25 0.25 0 0 1 16 25.25L16 25.75A0.25 0.25 0 0 1 15.75 26L15.25 26A0.25 0.25 0 0 0 15 26.25L15 26.75A0.25 0.25 0 0 0 15.25 27L15.75 27A0.25 0.25 0 0 0 16 26.75L16 26.25A0.25 0.25 0 0 1 16.25 26L17.75 26A0.25 0.25 0 0 1 18 26.25L18 26.75A0.25 0.25 0 0 1 17.75 27L17.25 27A0.25 0.25 0 0 0 17 27.25L17 27.75A0.25 0.25 0 0 1 16.75 28L16.25 28A0.25 0.25 0 0 0 16 28.25L16 28.75A0.25 0.25 0 0 0 16.25 29L16.75 29A0.25 0.25 0 0 0 17 28.75L17 28.25A0.25 0.25 0 0 1 17.25 28L17.75 28A0.25 0.25 0 0 0 18 27.75L18 27.25A0.25 0.25 0 0 1 18.25 27L18.75 27A0.25 0.25 0 0 0 19 26.75L19 26.25A0.25 0.25 0 0 1 19.25 26L20.75 26A0.25 0.25 0 0 1 21 26.25L21 26.75A0.25 0.25 0 0 1 20.75 27L20.25 27A0.25 0.25 0 0 0 20 27.25L20 27.75A0.25 0.25 0 0 0 20.25 28L20.75 28A0.25 0.25 0 0 1 21 28.25L21 28.75A0.25 0.25 0 0 0 21.25 29L22.75 29A0.25 0.25 0 0 0 23 28.75L23 27.25A0.25 0.25 0 0 1 23.25 27L24.75 27A0.25 0.25 0 0 0 25 26.75L25 26.25A0.25 0.25 0 0 1 25.25 26L25.75 26A0.25 0.25 0 0 1 26 26.25L26 27.75A0.25 0.25 0 0 1 25.75 28L24.25 28A0.25 0.25 0 0 0 24 28.25L24 28.75A0.25 0.25 0 0 0 24.25 29L26.75 29A0.25 0.25 0 0 0 27 28.75L27 27.25A0.25 0.25 0 0 1 27.25 27L27.75 27A0.25 0.25 0 0 1 28 27.25L28 27.75A0.25 0.25 0 0 0 28.25 28L28.75 28A0.25 0.25 0 0 0 29 27.75L29 27.25A0.25 0.25 0 0 0 28.75 27L28.25 27A0.25 0.25 0 0 1 28 26.75L28 25.25A0.25 0.25 0 0 1 28.25 25L28.75 25A0.25 0.25 0 0 0 29 24.75L29 23.25A0.25 0.25 0 0 0 28.75 23L28.25 23A0.25 0.25 0 0 0 28 23.25L28 23.75A0.25 0.25 0 0 1 27.75 24L27.25 24A0.25 0.25 0 0 0 27 24.25L27 25.75A0.25 0.25 0 0 1 26.75 26L26.25 26A0.25 0.25 0 0 1 26 25.75L26 25.25A0.25 0.25 0 0 0 25.75 25L25.25 25A0.25 0.25 0 0 1 25 24.75L25 23.25A0.25 0.25 0 0 1 25.25 23L26.75 23A0.25 0.25 0 0 0 27 22.75L27 20.25A0.25 0.25 0 0 0 26.75 20L25.25 20A0.25 0.25 0 0 1 25 19.75L25 19.25A0.25 0.25 0 0 1 25.25 19L25.75 19A0.25 0.25 0 0 0 26 18.75L26 17.25A0.25 0.25 0 0 1 26.25 17L26.75 17A0.25 0.25 0 0 1 27 17.25L27 18.75A0.25 0.25 0 0 0 27.25 19L28.75 19A0.25 0.25 0 0 0 29 18.75L29 17.25A0.25 0.25 0 0 0 28.75 17L28.25 17A0.25 0.25 0 0 1 28 16.75L28 14.25A0.25 0.25 0 0 1 28.25 14L28.75 14A0.25 0.25 0 0 0 29 13.75L29 13.25A0.25 0.25 0 0 0 28.75 13L28.25 13A0.25 0.25 0 0 1 28 12.75L28 11.25A0.25 0.25 0 0 0 27.75 11L27.25 11A0.25 0.25 0 0 1 27 10.75L27 8.25A0.25 0.25 0 0 0 26.75 8L26.25 8A0.25 0.25 0 0 0 26 8.25L26 9.75A0.25 0.25 0 0 1 25.75 10L25.25 10A0.25 0.25 0 0 1 25 9.75L25 8.25A0.25 0.25 0 0 0 24.75 8L24.25 8A0.25 0.25 0 0 0 24 8.25L24 8.75A0.25 0.25 0 0 1 23.75 9L23.25 9A0.25 0.25 0 0 1 23 8.75L23 8.25A0.25 0.25 0 0 0 22.75 8L22.25 8A0.25 0.25 0 0 0 22 8.25L22 8.75A0.25 0.25 0 0 0 22.25 9L22.75 9A0.25 0.25 0 0 1 23 9.25L23 10.75A0.25 0.25 0 0 1 22.75 11L22.25 11A0.25 0.25 0 0 1 22 10.75L22 10.25A0.25 0.25 0 0 0 21.75 10L21.25 10A0.25 0.25 0 0 1 21 9.75L21 8.25A0.25 0.25 0 0 0 20.75 8L20.25 8A0.25 0.25 0 0 1 20 7.75L20 7.25A0.25 0.25 0 0 1 20.25 7L20.75 7A0.25 0.25 0 0 0 21 6.75L21 6.25A0.25 0.25 0 0 0 20.75 6L20.25 6A0.25 0.25 0 0 0 20 6.25L20 6.75A0.25 0.25 0 0 1 19.75 7L19.25 7A0.25 0.25 0 0 1 19 6.75L19 5.25A0.25 0.25 0 0 1 19.25 5L19.75 5A0.25 0.25 0 0 0 20 4.75L20 3.25A0.25 0.25 0 0 1 20.25 3L20.75 3A0.25 0.25 0 0 0 21 2.75L21 2.25A0.25 0.25 0 0 0 20.75 2L20.25 2A0.25 0.25 0 0 1 20 1.75L20 0.25A0.25 0.25 0 0 0 19.75 0L17.25 0A0.25 0.25 0 0 0 17 0.25L17 0.75A0.25 0.25 0 0 1 16.75 1L16.25 1A0.25 0.25 0 0 0 16 1.25L16 1.75A0.25 0.25 0 0 1 15.75 2L15.25 2A0.25 0.25 0 0 0 15 2.25L15 2.75A0.25 0.25 0 0 0 15.25 3L16.75 3A0.25 0.25 0 0 1 17 3.25L17 3.75A0.25 0.25 0 0 1 16.75 4L16.25 4A0.25 0.25 0 0 0 16 4.25L16 6.75A0.25 0.25 0 0 1 15.75 7L15.25 7A0.25 0.25 0 0 1 15 6.75L15 6.25A0.25 0.25 0 0 0 14.75 6L14.25 6A0.25 0.25 0 0 1 14 5.75L14 5.25A0.25 0.25 0 0 1 14.25 5L14.75 5A0.25 0.25 0 0 0 15 4.75L15 4.25A0.25 0.25 0 0 0 14.75 4L13.25 4A0.25 0.25 0 0 0 13 4.25L13 5.75A0.25 0.25 0 0 1 12.75 6L12.25 6A0.25 0.25 0 0 1 12 5.75L12 2.25A0.25 0.25 0 0 1 12.25 2L12.75 2A0.25 0.25 0 0 1 13 2.25L13 2.75A0.25 0.25 0 0 0 13.25 3L13.75 3A0.25 0.25 0 0 0 14 2.75L14 2.25A0.25 0.25 0 0 0 13.75 2L13.25 2A0.25 0.25 0 0 1 13 1.75L13 1.25A0.25 0.25 0 0 1 13.25 1L13.75 1A0.25 0.25 0 0 0 14 0.75L14 0.25A0.25 0.25 0 0 0 13.75 0L13.25 0A0.25 0.25 0 0 0 13 0.25L13 0.75A0.25 0.25 0 0 1 12.75 1L12.25 1A0.25 0.25 0 0 1 12 0.75L12 0.25A0.25 0.25 0 0 0 11.75 0L10.25 0A0.25 0.25 0 0 0 10 0.25ZM17 1.25L17 2.75A0.25 0.25 0 0 0 17.25 3L17.75 3A0.25 0.25 0 0 1 18 3.25L18 3.75A0.25 0.25 0 0 1 17.75 4L17.25 4A0.25 0.25 0 0 0 17 4.25L17 6.75A0.25 0.25 0 0 1 16.75 7L16.25 7A0.25 0.25 0 0 0 16 7.25L16 7.75A0.25 0.25 0 0 1 15.75 8L15.25 8A0.25 0.25 0 0 0 15 8.25L15 9.75A0.25 0.25 0 0 0 15.25 10L16.75 10A0.25 0.25 0 0 1 17 10.25L17 11.75A0.25 0.25 0 0 0 17.25 12L17.75 12A0.25 0.25 0 0 1 18 12.25L18 13.75A0.25 0.25 0 0 1 17.75 14L17.25 14A0.25 0.25 0 0 1 17 13.75L17 13.25A0.25 0.25 0 0 0 16.75 13L16.25 13A0.25 0.25 0 0 1 16 12.75L16 12.25A0.25 0.25 0 0 0 15.75 12L15.25 12A0.25 0.25 0 0 0 15 12.25L15 12.75A0.25 0.25 0 0 1 14.75 13L14.25 13A0.25 0.25 0 0 0 14 13.25L14 14.75A0.25 0.25 0 0 0 14.25 15L14.75 15A0.25 0.25 0 0 1 15 15.25L15 15.75A0.25 0.25 0 0 0 15.25 16L15.75 16A0.25 0.25 0 0 1 16 16.25L16 16.75A0.25 0.25 0 0 1 15.75 17L14.25 17A0.25 0.25 0 0 1 14 16.75L14 16.25A0.25 0.25 0 0 0 13.75 16L11.25 16A0.25 0.25 0 0 0 11 16.25L11 16.75A0.25 0.25 0 0 1 10.75 17L10.25 17A0.25 0.25 0 0 1 10 16.75L10 16.25A0.25 0.25 0 0 0 9.75 16L9.25 16A0.25 0.25 0 0 0 9 16.25L9 16.75A0.25 0.25 0 0 0 9.25 17L9.75 17A0.25 0.25 0 0 1 10 17.25L10 19.75A0.25 0.25 0 0 0 10.25 20L10.75 20A0.25 0.25 0 0 0 11 19.75L11 17.25A0.25 0.25 0 0 1 11.25 17L11.75 17A0.25 0.25 0 0 1 12 17.25L12 19.75A0.25 0.25 0 0 0 12.25 20L12.75 20A0.25 0.25 0 0 0 13 19.75L13 19.25A0.25 0.25 0 0 1 13.25 19L13.75 19A0.25 0.25 0 0 0 14 18.75L14 18.25A0.25 0.25 0 0 1 14.25 18L14.75 18A0.25 0.25 0 0 1 15 18.25L15 20.75A0.25 0.25 0 0 0 15.25 21L17.75 21A0.25 0.25 0 0 0 18 20.75L18 19.25A0.25 0.25 0 0 0 17.75 19L17.25 19A0.25 0.25 0 0 0 17 19.25L17 19.75A0.25 0.25 0 0 1 16.75 20L16.25 20A0.25 0.25 0 0 1 16 19.75L16 17.25A0.25 0.25 0 0 1 16.25 17L16.75 17A0.25 0.25 0 0 1 17 17.25L17 17.75A0.25 0.25 0 0 0 17.25 18L18.75 18A0.25 0.25 0 0 1 19 18.25L19 18.75A0.25 0.25 0 0 0 19.25 19L19.75 19A0.25 0.25 0 0 0 20 18.75L20 17.25A0.25 0.25 0 0 1 20.25 17L20.75 17A0.25 0.25 0 0 1 21 17.25L21 19.75A0.25 0.25 0 0 0 21.25 20L21.75 20A0.25 0.25 0 0 0 22 19.75L22 17.25A0.25 0.25 0 0 1 22.25 17L22.75 17A0.25 0.25 0 0 1 23 17.25L23 17.75A0.25 0.25 0 0 0 23.25 18L23.75 18A0.25 0.25 0 0 0 24 17.75L24 17.25A0.25 0.25 0 0 1 24.25 17L25.75 17A0.25 0.25 0 0 0 26 16.75L26 16.25A0.25 0.25 0 0 0 25.75 16L24.25 16A0.25 0.25 0 0 1 24 15.75L24 15.25A0.25 0.25 0 0 1 24.25 15L25.75 15A0.25 0.25 0 0 0 26 14.75L26 14.25A0.25 0.25 0 0 1 26.25 14L26.75 14A0.25 0.25 0 0 0 27 13.75L27 11.25A0.25 0.25 0 0 0 26.75 11L25.25 11A0.25 0.25 0 0 0 25 11.25L25 11.75A0.25 0.25 0 0 1 24.75 12L23.25 12A0.25 0.25 0 0 0 23 12.25L23 13.75A0.25 0.25 0 0 1 22.75 14L21.25 14A0.25 0.25 0 0 0 21 14.25L21 14.75A0.25 0.25 0 0 1 20.75 15L20.25 15A0.25 0.25 0 0 1 20 14.75L20 14.25A0.25 0.25 0 0 0 19.75 14L19.25 14A0.25 0.25 0 0 1 19 13.75L19 12.25A0.25 0.25 0 0 1 19.25 12L20.75 12A0.25 0.25 0 0 0 21 11.75L21 11.25A0.25 0.25 0 0 0 20.75 11L20.25 11A0.25 0.25 0 0 1 20 10.75L20 8.25A0.25 0.25 0 0 0 19.75 8L19.25 8A0.25 0.25 0 0 1 19 7.75L19 7.25A0.25 0.25 0 0 0 18.75 7L18.25 7A0.25 0.25 0 0 1 18 6.75L18 4.25A0.25 0.25 0 0 1 18.25 4L18.75 4A0.25 0.25 0 0 0 19 3.75L19 2.25A0.25 0.25 0 0 0 18.75 2L18.25 2A0.25 0.25 0 0 1 18 1.75L18 1.25A0.25 0.25 0 0 0 17.75 1L17.25 1A0.25 0.25 0 0 0 17 1.25ZM9 4.25L9 4.75A0.25 0.25 0 0 0 9.25 5L9.75 5A0.25 0.25 0 0 0 10 4.75L10 4.25A0.25 0.25 0 0 0 9.75 4L9.25 4A0.25 0.25 0 0 0 9 4.25ZM9 6.25L9 6.75A0.25 0.25 0 0 0 9.25 7L9.75 7A0.25 0.25 0 0 0 10 6.75L10 6.25A0.25 0.25 0 0 0 9.75 6L9.25 6A0.25 0.25 0 0 0 9 6.25ZM13 6.25L13 6.75A0.25 0.25 0 0 0 13.25 7L13.75 7A0.25 0.25 0 0 0 14 6.75L14 6.25A0.25 0.25 0 0 0 13.75 6L13.25 6A0.25 0.25 0 0 0 13 6.25ZM16 8.25L16 8.75A0.25 0.25 0 0 0 16.25 9L16.75 9A0.25 0.25 0 0 1 17 9.25L17 9.75A0.25 0.25 0 0 0 17.25 10L17.75 10A0.25 0.25 0 0 0 18 9.75L18 9.25A0.25 0.25 0 0 1 18.25 9L18.75 9A0.25 0.25 0 0 0 19 8.75L19 8.25A0.25 0.25 0 0 0 18.75 8L18.25 8A0.25 0.25 0 0 0 18 8.25L18 8.75A0.25 0.25 0 0 1 17.75 9L17.25 9A0.25 0.25 0 0 1 17 8.75L17 8.25A0.25 0.25 0 0 0 16.75 8L16.25 8A0.25 0.25 0 0 0 16 8.25ZM28 8.25L28 8.75A0.25 0.25 0 0 0 28.25 9L28.75 9A0.25 0.25 0 0 0 29 8.75L29 8.25A0.25 0.25 0 0 0 28.75 8L28.25 8A0.25 0.25 0 0 0 28 8.25ZM9 11.25L9 11.75A0.25 0.25 0 0 0 9.25 12L9.75 12A0.25 0.25 0 0 0 10 11.75L10 11.25A0.25 0.25 0 0 0 9.75 11L9.25 11A0.25 0.25 0 0 0 9 11.25ZM18 11.25L18 11.75A0.25 0.25 0 0 0 18.25 12L18.75 12A0.25 0.25 0 0 0 19 11.75L19 11.25A0.25 0.25 0 0 0 18.75 11L18.25 11A0.25 0.25 0 0 0 18 11.25ZM15 13.25L15 13.75A0.25 0.25 0 0 0 15.25 14L15.75 14A0.25 0.25 0 0 0 16 13.75L16 13.25A0.25 0.25 0 0 0 15.75 13L15.25 13A0.25 0.25 0 0 0 15 13.25ZM24 13.25L24 13.75A0.25 0.25 0 0 1 23.75 14L23.25 14A0.25 0.25 0 0 0 23 14.25L23 14.75A0.25 0.25 0 0 0 23.25 15L23.75 15A0.25 0.25 0 0 0 24 14.75L24 14.25A0.25 0.25 0 0 1 24.25 14L25.75 14A0.25 0.25 0 0 0 26 13.75L26 13.25A0.25 0.25 0 0 0 25.75 13L24.25 13A0.25 0.25 0 0 0 24 13.25ZM3 14.25L3 14.75A0.25 0.25 0 0 0 3.25 15L3.75 15A0.25 0.25 0 0 0 4 14.75L4 14.25A0.25 0.25 0 0 0 3.75 14L3.25 14A0.25 0.25 0 0 0 3 14.25ZM6 15.25L6 15.75A0.25 0.25 0 0 0 6.25 16L6.75 16A0.25 0.25 0 0 1 7 16.25L7 16.75A0.25 0.25 0 0 1 6.75 17L4.25 17A0.25 0.25 0 0 0 4 17.25L4 17.75A0.25 0.25 0 0 0 4.25 18L7.75 18A0.25 0.25 0 0 1 8 18.25L8 18.75A0.25 0.25 0 0 0 8.25 19L8.75 19A0.25 0.25 0 0 0 9 18.75L9 18.25A0.25 0.25 0 0 0 8.75 18L8.25 18A0.25 0.25 0 0 1 8 17.75L8 16.25A0.25 0.25 0 0 0 7.75 16L7.25 16A0.25 0.25 0 0 1 7 15.75L7 15.25A0.25 0.25 0 0 0 6.75 15L6.25 15A0.25 0.25 0 0 0 6 15.25ZM17 15.25L17 15.75A0.25 0.25 0 0 0 17.25 16L17.75 16A0.25 0.25 0 0 1 18 16.25L18 16.75A0.25 0.25 0 0 0 18.25 17L18.75 17A0.25 0.25 0 0 0 19 16.75L19 15.25A0.25 0.25 0 0 0 18.75 15L17.25 15A0.25 0.25 0 0 0 17 15.25ZM1 16.25L1 17.75A0.25 0.25 0 0 0 1.25 18L1.75 18A0.25 0.25 0 0 0 2 17.75L2 16.25A0.25 0.25 0 0 0 1.75 16L1.25 16A0.25 0.25 0 0 0 1 16.25ZM23 16.25L23 16.75A0.25 0.25 0 0 0 23.25 17L23.75 17A0.25 0.25 0 0 0 24 16.75L24 16.25A0.25 0.25 0 0 0 23.75 16L23.25 16A0.25 0.25 0 0 0 23 16.25ZM13 17.25L13 17.75A0.25 0.25 0 0 0 13.25 18L13.75 18A0.25 0.25 0 0 0 14 17.75L14 17.25A0.25 0.25 0 0 0 13.75 17L13.25 17A0.25 0.25 0 0 0 13 17.25ZM23 19.25L23 19.75A0.25 0.25 0 0 0 23.25 20L23.75 20A0.25 0.25 0 0 0 24 19.75L24 19.25A0.25 0.25 0 0 0 23.75 19L23.25 19A0.25 0.25 0 0 0 23 19.25ZM19 21.25L19 21.75A0.25 0.25 0 0 0 19.25 22L19.75 22A0.25 0.25 0 0 0 20 21.75L20 21.25A0.25 0.25 0 0 0 19.75 21L19.25 21A0.25 0.25 0 0 0 19 21.25ZM21 21.25L21 23.75A0.25 0.25 0 0 0 21.25 24L23.75 24A0.25 0.25 0 0 0 24 23.75L24 21.25A0.25 0.25 0 0 0 23.75 21L21.25 21A0.25 0.25 0 0 0 21 21.25ZM25 21.25L25 21.75A0.25 0.25 0 0 0 25.25 22L25.75 22A0.25 0.25 0 0 0 26 21.75L26 21.25A0.25 0.25 0 0 0 25.75 21L25.25 21A0.25 0.25 0 0 0 25 21.25ZM16 22.25L16 24.75A0.25 0.25 0 0 0 16.25 25L17.75 25A0.25 0.25 0 0 1 18 25.25L18 25.75A0.25 0.25 0 0 0 18.25 26L18.75 26A0.25 0.25 0 0 0 19 25.75L19 24.25A0.25 0.25 0 0 0 18.75 24L18.25 24A0.25 0.25 0 0 1 18 23.75L18 22.25A0.25 0.25 0 0 0 17.75 22L16.25 22A0.25 0.25 0 0 0 16 22.25ZM22 22.25L22 22.75A0.25 0.25 0 0 0 22.25 23L22.75 23A0.25 0.25 0 0 0 23 22.75L23 22.25A0.25 0.25 0 0 0 22.75 22L22.25 22A0.25 0.25 0 0 0 22 22.25ZM22 25.25L22 25.75A0.25 0.25 0 0 0 22.25 26L24.75 26A0.25 0.25 0 0 0 25 25.75L25 25.25A0.25 0.25 0 0 0 24.75 25L22.25 25A0.25 0.25 0 0 0 22 25.25ZM12 26.25L12 26.75A0.25 0.25 0 0 0 12.25 27L12.75 27A0.25 0.25 0 0 0 13 26.75L13 26.25A0.25 0.25 0 0 0 12.75 26L12.25 26A0.25 0.25 0 0 0 12 26.25ZM21 27.25L21 27.75A0.25 0.25 0 0 0 21.25 28L21.75 28A0.25 0.25 0 0 0 22 27.75L22 27.25A0.25 0.25 0 0 0 21.75 27L21.25 27A0.25 0.25 0 0 0 21 27.25ZM0 0.25L0 6.75A0.25 0.25 0 0 0 0.25 7L6.75 7A0.25 0.25 0 0 0 7 6.75L7 0.25A0.25 0.25 0 0 0 6.75 0L0.25 0A0.25 0.25 0 0 0 0 0.25ZM1 1.25L1 5.75A0.25 0.25 0 0 0 1.25 6L5.75 6A0.25 0.25 0 0 0 6 5.75L6 1.25A0.25 0.25 0 0 0 5.75 1L1.25 1A0.25 0.25 0 0 0 1 1.25ZM2 2.25L2 4.75A0.25 0.25 0 0 0 2.25 5L4.75 5A0.25 0.25 0 0 0 5 4.75L5 2.25A0.25 0.25 0 0 0 4.75 2L2.25 2A0.25 0.25 0 0 0 2 2.25ZM22 0.25L22 6.75A0.25 0.25 0 0 0 22.25 7L28.75 7A0.25 0.25 0 0 0 29 6.75L29 0.25A0.25 0.25 0 0 0 28.75 0L22.25 0A0.25 0.25 0 0 0 22 0.25ZM23 1.25L23 5.75A0.25 0.25 0 0 0 23.25 6L27.75 6A0.25 0.25 0 0 0 28 5.75L28 1.25A0.25 0.25 0 0 0 27.75 1L23.25 1A0.25 0.25 0 0 0 23 1.25ZM24 2.25L24 4.75A0.25 0.25 0 0 0 24.25 5L26.75 5A0.25 0.25 0 0 0 27 4.75L27 2.25A0.25 0.25 0 0 0 26.75 2L24.25 2A0.25 0.25 0 0 0 24 2.25ZM0 22.25L0 28.75A0.25 0.25 0 0 0 0.25 29L6.75 29A0.25 0.25 0 0 0 7 28.75L7 22.25A0.25 0.25 0 0 0 6.75 22L0.25 22A0.25 0.25 0 0 0 0 22.25ZM1 23.25L1 27.75A0.25 0.25 0 0 0 1.25 28L5.75 28A0.25 0.25 0 0 0 6 27.75L6 23.25A0.25 0.25 0 0 0 5.75 23L1.25 23A0.25 0.25 0 0 0 1 23.25ZM2 24.25L2 26.75A0.25 0.25 0 0 0 2.25 27L4.75 27A0.25 0.25 0 0 0 5 26.75L5 24.25A0.25 0.25 0 0 0 4.75 24L2.25 24A0.25 0.25 0 0 0 2 24.25Z" fill="#000000"/></g></g></svg>
