<?xml version="1.0" encoding="UTF-8"?>
<svg xmlns="http://www.w3.org/2000/svg" version="1.1" width="200" height="200" viewBox="0 0 200 200"><rect x="0" y="0" width="200" height="200" fill="#ffffff"/><g transform="scale(6.897)"><g transform="translate(0,0)"><path fill-rule="evenodd" d="M8 0.25L8 2.75A0.25 0.25 0 0 0 8.25 3L9.75 3A0.25 0.25 0 0 1 10 3.25L10 3.75A0.25 0.25 0 0 1 9.75 4L9.25 4A0.25 0.25 0 0 0 9 4.25L9 4.75A0.25 0.25 0 0 1 8.75 5L8.25 5A0.25 0.25 0 0 0 8 5.25L8 8.75A0.25 0.25 0 0 1 7.75 9L7.25 9A0.25 0.25 0 0 1 7 8.75L7 8.25A0.25 0.25 0 0 0 6.75 8L6.25 8A0.25 0.25 0 0 0 6 8.25L6 8.75A0.25 0.25 0 0 0 6.25 9L6.75 9A0.25 0.25 0 0 1 7 9.25L7 9.75A0.25 0.25 0 0 1 6.75 10L5.25 10A0.25 0.25 0 0 0 5 10.25L5 11.75A0.25 0.25 0 0 0 5.25 12L5.75 12A0.25 0.25 0 0 1 6 12.25L6 12.75A0.25 0.25 0 0 1 5.75 13L4.25 13A0.25 0.25 0 0 1 4 12.75L4 10.25A0.25 0.25 0 0 0 3.75 10L2.25 10A0.25 0.25 0 0 0 2 10.25L2 10.75A0.25 0.25 0 0 1 1.75 11L1.25 11A0.25 0.25 0 0 0 1 11.25L1 12.75A0.25 0.25 0 0 0 1.25 13L3.75 13A0.25 0.25 0 0 1 4 13.25L4 13.75A0.25 0.25 0 0 0 4.25 14L5.75 14A0.25 0.25 0 0 1 6 14.25L6 14.75A0.25 0.25 0 0 1 5.75 15L5.25 15A0.25 0.25 0 0 0 5 15.25L5 15.75A0.25 0.25 0 0 1 4.75 16L4.25 16A0.25 0.25 0 0 1 4 15.75L4 15.25A0.25 0.25 0 0 0 3.75 15L3.25 15A0.25 0.25 0 0 1 3 14.75L3 14.25A0.25 0.25 0 0 0 2.75 14L0.25 14A0.25 0.25 0 0 0 0 14.25L0 14.75A0.25 0.25 0 0 0 0.25 15L0.75 15A0.25 0.25 0 0 1 1 15.25L1 15.75A0.25 0.25 0 0 0 1.25 16L1.75 16A0.25 0.25 0 0 1 2 16.25L2 16.75A0.25 0.25 0 0 1 1.75 17L0.25 17A0.25 0.25 0 0 0 0 17.25L0 20.75A0.25 0.25 0 0 0 0.25 21L0.75 21A0.25 0.25 0 0 0 1 20.75L1 18.25A0.25 0.25 0 0 1 1.25 18L1.75 18A0.25 0.25 0 0 1 2 18.25L2 18.75A0.25 0.25 0 0 0 2.25 19L3.75 19A0.25 0.25 0 0 1 4 19.25L4 20.75A0.25 0.25 0 0 0 4.25 21L4.75 21A0.25 0.25 0 0 0 5 20.75L5 20.25A0.25 0.25 0 0 1 5.25 20L5.75 20A0.25 0.25 0 0 1 6 20.25L6 20.75A0.25 0.25 0 0 0 6.25 21L6.75 21A0.25 0.25 0 0 0 7 20.75L7 20.25A0.25 0.25 0 0 1 7.25 20L7.75 20A0.25 0.25 0 0 1 8 20.25L8 21.75A0.25 0.25 0 0 0 8.25 22L8.75 22A0.25 0.25 0 0 1 9 22.25L9 23.75A0.25 0.25 0 0 1 8.75 24L8.25 24A0.25 0.25 0 0 0 8 24.25L8 26.75A0.25 0.25 0 0 0 8.25 27L9.75 27A0.25 0.25 0 0 1 10 27.25L10 27.75A0.25 0.25 0 0 1 9.75 28L9.25 28A0.25 0.25 0 0 0 9 28.25L9 28.75A0.25 0.25 0 0 0 9.25 29L9.75 29A0.25 0.25 0 0 0 10 28.75L10 28.25A0.25 0.25 0 0 1 10.25 28L10.75 28A0.25 0.25 0 0 1 11 28.25L11 28.75A0.25 0.25 0 0 0 11.25 29L12.75 29A0.25 0.25 0 0 0 13 28.75L13 27.25A0.25 0.25 0 0 1 13.25 27L13.75 27A0.25 0.25 0 0 0 14 26.75L14 26.25A0.25 0.25 0 0 1 14.25 26L14.75 26A0.25 0.25 0 0 1 15 26.25L15 27.75A0.25 0.25 0 0 0 15.25 28L15.75 28A0.25 0.25 0 0 1 16 28.25L16 28.75A0.25 0.25 0 0 0 16.25 29L18.75 29A0.25 0.25 0 0 0 19 28.75L19 28.25A0.25 0.25 0 0 0 18.75 28L16.25 28A0.25 0.25 0 0 1 16 27.75L16 26.25A0.25 0.25 0 0 1 16.25 26L18.75 26A0.25 0.25 0 0 1 19 26.25L19 26.75A0.25 0.25 0 0 0 19.25 27L19.75 27A0.25 0.25 0 0 0 20 26.75L20 26.25A0.25 0.25 0 0 0 19.75 26L19.25 26A0.25 0.25 0 0 1 19 25.75L19 24.25A0.25 0.25 0 0 0 18.75 24L17.25 24A0.25 0.25 0 0 1 17 23.75L17 23.25A0.25 0.25 0 0 0 16.75 23L16.25 23A0.25 0.25 0 0 1 16 22.75L16 21.25A0.25 0.25 0 0 1 16.25 21L16.75 21A0.25 0.25 0 0 1 17 21.25L17 21.75A0.25 0.25 0 0 0 17.25 22L17.75 22A0.25 0.25 0 0 1 18 22.25L18 22.75A0.25 0.25 0 0 0 18.25 23L19.75 23A0.25 0.25 0 0 1 20 23.25L20 24.75A0.25 0.25 0 0 0 20.25 25L20.75 25A0.25 0.25 0 0 1 21 25.25L21 25.75A0.25 0.25 0 0 0 21.25 26L21.75 26A0.25 0.25 0 0 1 22 26.25L22 26.75A0.25 0.25 0 0 1 21.75 27L21.25 27A0.25 0.25 0 0 0 21 27.25L21 27.75A0.25 0.25 0 0 0 21.25 28L21.75 28A0.25 0.25 0 0 1 22 28.25L22 28.75A0.25 0.25 0 0 0 22.25 29L22.75 29A0.25 0.25 0 0 0 23 28.75L23 28.25A0.25 0.25 0 0 0 22.75 28L22.25 28A0.25 0.25 0 0 1 22 27.75L22 27.25A0.25 0.25 0 0 1 22.25 27L22.75 27A0.25 0.25 0 0 0 23 26.75L23 26.25A0.25 0.25 0 0 1 23.25 26L23.75 26A0.25 0.25 0 0 1 24 26.25L24 28.75A0.25 0.25 0 0 0 24.25 29L26.75 29A0.25 0.25 0 0 0 27 28.75L27 28.25A0.25 0.25 0 0 1 27.25 28L27.75 28A0.25 0.25 0 0 0 28 27.75L28 26.25A0.25 0.25 0 0 0 27.75 26L27.25 26A0.25 0.25 0 0 0 27 26.25L27 27.75A0.25 0.25 0 0 1 26.75 28L25.25 28A0.25 0.25 0 0 1 25 27.75L25 26.25A0.25 0.25 0 0 1 25.25 26L25.75 26A0.25 0.25 0 0 0 26 25.75L26 25.25A0.25 0.25 0 0 1 26.25 25L27.75 25A0.25 0.25 0 0 0 28 24.75L28 24.25A0.25 0.25 0 0 0 27.75 24L25.25 24A0.25 0.25 0 0 1 25 23.75L25 21.25A0.25 0.25 0 0 1 25.25 21L26.75 21A0.25 0.25 0 0 1 27 21.25L27 21.75A0.25 0.25 0 0 1 26.75 22L26.25 22A0.25 0.25 0 0 0 26 22.25L26 22.75A0.25 0.25 0 0 0 26.25 23L26.75 23A0.25 0.25 0 0 0 27 22.75L27 22.25A0.25 0.25 0 0 1 27.25 22L28.75 22A0.25 0.25 0 0 0 29 21.75L29 21.25A0.25 0.25 0 0 0 28.75 21L27.25 21A0.25 0.25 0 0 1 27 20.75L27 20.25A0.25 0.25 0 0 1 27.25 20L27.75 20A0.25 0.25 0 0 0 28 19.75L28 18.25A0.25 0.25 0 0 1 28.25 18L28.75 18A0.25 0.25 0 0 0 29 17.75L29 17.25A0.25 0.25 0 0 0 28.75 17L28.25 17A0.25 0.25 0 0 0 28 17.25L28 17.75A0.25 0.25 0 0 1 27.75 18L27.25 18A0.25 0.25 0 0 0 27 18.25L27 19.75A0.25 0.25 0 0 1 26.75 20L25.25 20A0.25 0.25 0 0 1 25 19.75L25 19.25A0.25 0.25 0 0 0 24.75 19L24.25 19A0.25 0.25 0 0 0 24 19.25L24 19.75A0.25 0.25 0 0 1 23.75 20L22.25 20A0.25 0.25 0 0 1 22 19.75L22 18.25A0.25 0.25 0 0 1 22.25 18L22.75 18A0.25 0.25 0 0 0 23 17.75L23 17.25A0.25 0.25 0 0 1 23.25 17L23.75 17A0.25 0.25 0 0 1 24 17.25L24 17.75A0.25 0.25 0 0 0 24.25 18L25.75 18A0.25 0.25 0 0 0 26 17.75L26 17.25A0.25 0.25 0 0 1 26.25 17L26.75 17A0.25 0.25 0 0 0 27 16.75L27 16.25A0.25 0.25 0 0 1 27.25 16L27.75 16A0.25 0.25 0 0 0 28 15.75L28 15.25A0.25 0.25 0 0 0 27.75 15L27.25 15A0.25 0.25 0 0 1 27 14.75L27 14.25A0.25 0.25 0 0 1 27.25 14L28.75 14A0.25 0.25 0 0 0 29 13.75L29 13.25A0.25 0.25 0 0 0 28.75 13L28.25 13A0.25 0.25 0 0 1 28 12.75L28 12.25A0.25 0.25 0 0 0 27.75 12L25.25 12A0.25 0.25 0 0 1 25 11.75L25 10.25A0.25 0.25 0 0 1 25.25 10L25.75 10A0.25 0.25 0 0 0 26 9.75L26 9.25A0.25 0.25 0 0 1 26.25 9L27.75 9A0.25 0.25 0 0 1 28 9.25L28 9.75A0.25 0.25 0 0 1 27.75 10L27.25 10A0.25 0.25 0 0 0 27 10.25L27 10.75A0.25 0.25 0 0 0 27.25 11L27.75 11A0.25 0.25 0 0 0 28 10.75L28 10.25A0.25 0.25 0 0 1 28.25 10L28.75 10A0.25 0.25 0 0 0 29 9.75L29 8.25A0.25 0.25 0 0 0 28.75 8L26.25 8A0.25 0.25 0 0 0 26 8.25L26 8.75A0.25 0.25 0 0 1 25.75 9L24.25 9A0.25 0.25 0 0 1 24 8.75L24 8.25A0.25 0.25 0 0 0 23.75 8L20.25 8A0.25 0.25 0 0 1 20 7.75L20 7.25A0.25 0.25 0 0 1 20.25 7L20.75 7A0.25 0.25 0 0 0 21 6.75L21 5.25A0.25 0.25 0 0 0 20.75 5L20.25 5A0.25 0.25 0 0 1 20 4.75L20 4.25A0.25 0.25 0 0 1 20.25 4L20.75 4A0.25 0.25 0 0 0 21 3.75L21 2.25A0.25 0.25 0 0 0 20.75 2L20.25 2A0.25 0.25 0 0 1 20 1.75L20 1.25A0.25 0.25 0 0 1 20.25 1L20.75 1A0.25 0.25 0 0 0 21 0.75L21 0.25A0.25 0.25 0 0 0 20.75 0L20.25 0A0.25 0.25 0 0 0 20 0.25L20 0.75A0.25 0.25 0 0 1 19.75 1L19.25 1A0.25 0.25 0 0 1 19 0.75L19 0.25A0.25 0.25 0 0 0 18.75 0L18.25 0A0.25 0.25 0 0 0 18 0.25L18 0.75A0.25 0.25 0 0 0 18.25 1L18.75 1A0.25 0.25 0 0 1 19 1.25L19 1.75A0.25 0.25 0 0 1 18.75 2L18.25 2A0.25 0.25 0 0 0 18 2.25L18 2.75A0.25 0.25 0 0 1 17.75 3L17.25 3A0.25 0.25 0 0 1 17 2.75L17 2.25A0.25 0.25 0 0 0 16.75 2L16.25 2A0.25 0.25 0 0 1 16 1.75L16 0.25A0.25 0.25 0 0 0 15.75 0L15.25 0A0.25 0.25 0 0 0 15 0.25L15 0.75A0.25 0.25 0 0 1 14.75 1L14.25 1A0.25 0.25 0 0 1 14 0.75L14 0.25A0.25 0.25 0 0 0 13.75 0L12.25 0A0.25 0.25 0 0 0 12 0.25L12 0.75A0.25 0.25 0 0 0 12.25 1L13.75 1A0.25 0.25 0 0 1 14 1.25L14 1.75A0.25 0.25 0 0 1 13.75 2L12.25 2A0.25 0.25 0 0 0 12 2.25L12 2.75A0.25 0.25 0 0 1 11.75 3L11.25 3A0.25 0.25 0 0 1 11 2.75L11 2.25A0.25 0.25 0 0 0 10.75 2L9.25 2A0.25 0.25 0 0 1 9 1.75L9 0.25A0.25 0.25 0 0 0 8.75 0L8.25 0A0.25 0.25 0 0 0 8 0.25ZM15 2.25L15 2.75A0.25 0.25 0 0 1 14.75 3L14.25 3A0.25 0.25 0 0 0 14 3.25L14 5.75A0.25 0.25 0 0 1 13.75 6L13.25 6A0.25 0.25 0 0 1 13 5.75L13 3.25A0.25 0.25 0 0 0 12.75 3L12.25 3A0.25 0.25 0 0 0 12 3.25L12 3.75A0.25 0.25 0 0 1 11.75 4L11.25 4A0.25 0.25 0 0 0 11 4.25L11 4.75A0.25 0.25 0 0 1 10.75 5L9.25 5A0.25 0.25 0 0 0 9 5.25L9 7.75A0.25 0.25 0 0 0 9.25 8L9.75 8A0.25 0.25 0 0 1 10 8.25L10 8.75A0.25 0.25 0 0 0 10.25 9L10.75 9A0.25 0.25 0 0 1 11 9.25L11 9.75A0.25 0.25 0 0 0 11.25 10L11.75 10A0.25 0.25 0 0 0 12 9.75L12 8.25A0.25 0.25 0 0 1 12.25 8L13.75 8A0.25 0.25 0 0 1 14 8.25L14 11.75A0.25 0.25 0 0 0 14.25 12L14.75 12A0.25 0.25 0 0 1 15 12.25L15 12.75A0.25 0.25 0 0 0 15.25 13L17.75 13A0.25 0.25 0 0 1 18 13.25L18 13.75A0.25 0.25 0 0 1 17.75 14L15.25 14A0.25 0.25 0 0 0 15 14.25L15 14.75A0.25 0.25 0 0 1 14.75 15L14.25 15A0.25 0.25 0 0 1 14 14.75L14 14.25A0.25 0.25 0 0 0 13.75 14L13.25 14A0.25 0.25 0 0 1 13 13.75L13 11.25A0.25 0.25 0 0 0 12.75 11L11.25 11A0.25 0.25 0 0 0 11 11.25L11 11.75A0.25 0.25 0 0 0 11.25 12L11.75 12A0.25 0.25 0 0 1 12 12.25L12 12.75A0.25 0.25 0 0 1 11.75 13L11.25 13A0.25 0.25 0 0 0 11 13.25L11 13.75A0.25 0.25 0 0 1 10.75 14L10.25 14A0.25 0.25 0 0 0 10 14.25L10 14.75A0.25 0.25 0 0 0 10.25 15L10.75 15A0.25 0.25 0 0 1 11 15.25L11 16.75A0.25 0.25 0 0 1 10.75 17L9.25 17A0.25 0.25 0 0 1 9 16.75L9 15.25A0.25 0.25 0 0 0 8.75 15L8.25 15A0.25 0.25 0 0 1 8 14.75L8 14.25A0.25 0.25 0 0 1 8.25 14L8.75 14A0.25 0.25 0 0 0 9 13.75L9 13.25A0.25 0.25 0 0 0 8.75 13L6.25 13A0.25 0.25 0 0 0 6 13.25L6 13.75A0.25 0.25 0 0 0 6.25 14L6.75 14A0.25 0.25 0 0 1 7 14.25L7 14.75A0.25 0.25 0 0 1 6.75 15L6.25 15A0.25 0.25 0 0 0 6 15.25L6 15.75A0.25 0.25 0 0 0 6.25 16L6.75 16A0.25 0.25 0 0 1 7 16.25L7 16.75A0.25 0.25 0 0 1 6.75 17L5.25 17A0.25 0.25 0 0 0 5 17.25L5 18.75A0.25 0.25 0 0 0 5.25 19L5.75 19A0.25 0.25 0 0 1 6 19.25L6 19.75A0.25 0.25 0 0 0 6.25 20L6.75 20A0.25 0.25 0 0 0 7 19.75L7 19.25A0.25 0.25 0 0 0 6.75 19L6.25 19A0.25 0.25 0 0 1 6 18.75L6 18.25A0.25 0.25 0 0 1 6.25 18L7.75 18A0.25 0.25 0 0 1 8 18.25L8 18.75A0.25 0.25 0 0 0 8.25 19L8.75 19A0.25 0.25 0 0 0 9 18.75L9 18.25A0.25 0.25 0 0 1 9.25 18L10.75 18A0.25 0.25 0 0 1 11 18.25L11 18.75A0.25 0.25 0 0 1 10.75 19L10.25 19A0.25 0.25 0 0 0 10 19.25L10 19.75A0.25 0.25 0 0 1 9.75 20L9.25 20A0.25 0.25 0 0 0 9 20.25L9 20.75A0.25 0.25 0 0 0 9.25 21L9.75 21A0.25 0.25 0 0 0 10 20.75L10 20.25A0.25 0.25 0 0 1 10.25 20L10.75 20A0.25 0.25 0 0 1 11 20.25L11 20.75A0.25 0.25 0 0 0 11.25 21L12.75 21A0.25 0.25 0 0 1 13 21.25L13 21.75A0.25 0.25 0 0 0 13.25 22L13.75 22A0.25 0.25 0 0 1 14 22.25L14 22.75A0.25 0.25 0 0 1 13.75 23L12.25 23A0.25 0.25 0 0 1 12 22.75L12 22.25A0.25 0.25 0 0 0 11.75 22L11.25 22A0.25 0.25 0 0 0 11 22.25L11 22.75A0.25 0.25 0 0 1 10.75 23L10.25 23A0.25 0.25 0 0 0 10 23.25L10 24.75A0.25 0.25 0 0 1 9.75 25L9.25 25A0.25 0.25 0 0 0 9 25.25L9 25.75A0.25 0.25 0 0 0 9.25 26L9.75 26A0.25 0.25 0 0 0 10 25.75L10 25.25A0.25 0.25 0 0 1 10.25 25L10.75 25A0.25 0.25 0 0 1 11 25.25L11 25.75A0.25 0.25 0 0 0 11.25 26L12.75 26A0.25 0.25 0 0 0 13 25.75L13 24.25A0.25 0.25 0 0 1 13.25 24L13.75 24A0.25 0.25 0 0 0 14 23.75L14 23.25A0.25 0.25 0 0 1 14.25 23L14.75 23A0.25 0.25 0 0 0 15 22.75L15 22.25A0.25 0.25 0 0 0 14.75 22L14.25 22A0.25 0.25 0 0 1 14 21.75L14 19.25A0.25 0.25 0 0 0 13.75 19L13.25 19A0.25 0.25 0 0 0 13 19.25L13 19.75A0.25 0.25 0 0 1 12.75 20L11.25 20A0.25 0.25 0 0 1 11 19.75L11 19.25A0.25 0.25 0 0 1 11.25 19L11.75 19A0.25 0.25 0 0 0 12 18.75L12 18.25A0.25 0.25 0 0 1 12.25 18L14.75 18A0.25 0.25 0 0 1 15 18.25L15 19.75A0.25 0.25 0 0 0 15.25 20L16.75 20A0.25 0.25 0 0 1 17 20.25L17 20.75A0.25 0.25 0 0 0 17.25 21L17.75 21A0.25 0.25 0 0 0 18 20.75L18 20.25A0.25 0.25 0 0 0 17.75 20L17.25 20A0.25 0.25 0 0 1 17 19.75L17 19.25A0.25 0.25 0 0 1 17.25 19L18.75 19A0.25 0.25 0 0 0 19 18.75L19 18.25A0.25 0.25 0 0 1 19.25 18L19.75 18A0.25 0.25 0 0 1 20 18.25L20 18.75A0.25 0.25 0 0 0 20.25 19L20.75 19A0.25 0.25 0 0 0 21 18.75L21 18.25A0.25 0.25 0 0 0 20.75 18L20.25 18A0.25 0.25 0 0 1 20 17.75L20 17.25A0.25 0.25 0 0 1 20.25 17L22.75 17A0.25 0.25 0 0 0 23 16.75L23 16.25A0.25 0.25 0 0 1 23.25 16L23.75 16A0.25 0.25 0 0 1 24 16.25L24 16.75A0.25 0.25 0 0 0 24.25 17L25.75 17A0.25 0.25 0 0 0 26 16.75L26 16.25A0.25 0.25 0 0 1 26.25 16L26.75 16A0.25 0.25 0 0 0 27 15.75L27 15.25A0.25 0.25 0 0 0 26.75 15L26.25 15A0.25 0.25 0 0 0 26 15.25L26 15.75A0.25 0.25 0 0 1 25.75 16L25.25 16A0.25 0.25 0 0 1 25 15.75L25 15.25A0.25 0.25 0 0 0 24.75 15L24.25 15A0.25 0.25 0 0 1 24 14.75L24 13.25A0.25 0.25 0 0 1 24.25 13L24.75 13A0.25 0.25 0 0 1 25 13.25L25 13.75A0.25 0.25 0 0 0 25.25 14L26.75 14A0.25 0.25 0 0 0 27 13.75L27 13.25A0.25 0.25 0 0 0 26.75 13L25.25 13A0.25 0.25 0 0 1 25 12.75L25 12.25A0.25 0.25 0 0 0 24.75 12L24.25 12A0.25 0.25 0 0 1 24 11.75L24 9.25A0.25 0.25 0 0 0 23.75 9L23.25 9A0.25 0.25 0 0 0 23 9.25L23 9.75A0.25 0.25 0 0 1 22.75 10L22.25 10A0.25 0.25 0 0 1 22 9.75L22 9.25A0.25 0.25 0 0 0 21.75 9L20.25 9A0.25 0.25 0 0 1 20 8.75L20 8.25A0.25 0.25 0 0 0 19.75 8L19.25 8A0.25 0.25 0 0 1 19 7.75L19 7.25A0.25 0.25 0 0 1 19.25 7L19.75 7A0.25 0.25 0 0 0 20 6.75L20 5.25A0.25 0.25 0 0 0 19.75 5L19.25 5A0.25 0.25 0 0 0 19 5.25L19 6.75A0.25 0.25 0 0 1 18.75 7L18.25 7A0.25 0.25 0 0 1 18 6.75L18 4.25A0.25 0.25 0 0 1 18.25 4L18.75 4A0.25 0.25 0 0 0 19 3.75L19 3.25A0.25 0.25 0 0 0 18.75 3L18.25 3A0.25 0.25 0 0 0 18 3.25L18 3.75A0.25 0.25 0 0 1 17.75 4L16.25 4A0.25 0.25 0 0 1 16 3.75L16 2.25A0.25 0.25 0 0 0 15.75 2L15.25 2A0.25 0.25 0 0 0 15 2.25ZM15 4.25L15 4.75A0.25 0.25 0 0 0 15.25 5L15.75 5A0.25 0.25 0 0 0 16 4.75L16 4.25A0.25 0.25 0 0 0 15.75 4L15.25 4A0.25 0.25 0 0 0 15 4.25ZM11 5.25L11 5.75A0.25 0.25 0 0 1 10.75 6L10.25 6A0.25 0.25 0 0 0 10 6.25L10 7.75A0.25 0.25 0 0 0 10.25 8L11.75 8A0.25 0.25 0 0 0 12 7.75L12 7.25A0.25 0.25 0 0 1 12.25 7L12.75 7A0.25 0.25 0 0 0 13 6.75L13 6.25A0.25 0.25 0 0 0 12.75 6L12.25 6A0.25 0.25 0 0 1 12 5.75L12 5.25A0.25 0.25 0 0 0 11.75 5L11.25 5A0.25 0.25 0 0 0 11 5.25ZM11 6.25L11 6.75A0.25 0.25 0 0 0 11.25 7L11.75 7A0.25 0.25 0 0 0 12 6.75L12 6.25A0.25 0.25 0 0 0 11.75 6L11.25 6A0.25 0.25 0 0 0 11 6.25ZM14 6.25L14 7.75A0.25 0.25 0 0 0 14.25 8L14.75 8A0.25 0.25 0 0 0 15 7.75L15 6.25A0.25 0.25 0 0 0 14.75 6L14.25 6A0.25 0.25 0 0 0 14 6.25ZM16 6.25L16 7.75A0.25 0.25 0 0 0 16.25 8L16.75 8A0.25 0.25 0 0 0 17 7.75L17 6.25A0.25 0.25 0 0 0 16.75 6L16.25 6A0.25 0.25 0 0 0 16 6.25ZM2 8.25L2 8.75A0.25 0.25 0 0 0 2.25 9L4.75 9A0.25 0.25 0 0 0 5 8.75L5 8.25A0.25 0.25 0 0 0 4.75 8L2.25 8A0.25 0.25 0 0 0 2 8.25ZM18 8.25L18 8.75A0.25 0.25 0 0 0 18.25 9L18.75 9A0.25 0.25 0 0 0 19 8.75L19 8.25A0.25 0.25 0 0 0 18.75 8L18.25 8A0.25 0.25 0 0 0 18 8.25ZM16 9.25L16 9.75A0.25 0.25 0 0 1 15.75 10L15.25 10A0.25 0.25 0 0 0 15 10.25L15 11.75A0.25 0.25 0 0 0 15.25 12L15.75 12A0.25 0.25 0 0 0 16 11.75L16 10.25A0.25 0.25 0 0 1 16.25 10L16.75 10A0.25 0.25 0 0 1 17 10.25L17 11.75A0.25 0.25 0 0 0 17.25 12L18.75 12A0.25 0.25 0 0 0 19 11.75L19 10.25A0.25 0.25 0 0 0 18.75 10L17.25 10A0.25 0.25 0 0 1 17 9.75L17 9.25A0.25 0.25 0 0 0 16.75 9L16.25 9A0.25 0.25 0 0 0 16 9.25ZM7 10.25L7 10.75A0.25 0.25 0 0 1 6.75 11L6.25 11A0.25 0.25 0 0 0 6 11.25L6 11.75A0.25 0.25 0 0 0 6.25 12L6.75 12A0.25 0.25 0 0 0 7 11.75L7 11.25A0.25 0.25 0 0 1 7.25 11L7.75 11A0.25 0.25 0 0 0 8 10.75L8 10.25A0.25 0.25 0 0 0 7.75 10L7.25 10A0.25 0.25 0 0 0 7 10.25ZM9 10.25L9 11.75A0.25 0.25 0 0 0 9.25 12L9.75 12A0.25 0.25 0 0 0 10 11.75L10 10.25A0.25 0.25 0 0 0 9.75 10L9.25 10A0.25 0.25 0 0 0 9 10.25ZM20 10.25L20 10.75A0.25 0.25 0 0 0 20.25 11L20.75 11A0.25 0.25 0 0 1 21 11.25L21 12.75A0.25 0.25 0 0 1 20.75 13L19.25 13A0.25 0.25 0 0 0 19 13.25L19 13.75A0.25 0.25 0 0 1 18.75 14L18.25 14A0.25 0.25 0 0 0 18 14.25L18 15.75A0.25 0.25 0 0 1 17.75 16L17.25 16A0.25 0.25 0 0 1 17 15.75L17 15.25A0.25 0.25 0 0 0 16.75 15L16.25 15A0.25 0.25 0 0 0 16 15.25L16 16.75A0.25 0.25 0 0 0 16.25 17L16.75 17A0.25 0.25 0 0 1 17 17.25L17 17.75A0.25 0.25 0 0 1 16.75 18L16.25 18A0.25 0.25 0 0 0 16 18.25L16 18.75A0.25 0.25 0 0 0 16.25 19L16.75 19A0.25 0.25 0 0 0 17 18.75L17 18.25A0.25 0.25 0 0 1 17.25 18L18.75 18A0.25 0.25 0 0 0 19 17.75L19 17.25A0.25 0.25 0 0 0 18.75 17L18.25 17A0.25 0.25 0 0 1 18 16.75L18 16.25A0.25 0.25 0 0 1 18.25 16L19.75 16A0.25 0.25 0 0 0 20 15.75L20 15.25A0.25 0.25 0 0 0 19.75 15L19.25 15A0.25 0.25 0 0 1 19 14.75L19 14.25A0.25 0.25 0 0 1 19.25 14L20.75 14A0.25 0.25 0 0 1 21 14.25L21 15.75A0.25 0.25 0 0 0 21.25 16L21.75 16A0.25 0.25 0 0 0 22 15.75L22 14.25A0.25 0.25 0 0 1 22.25 14L22.75 14A0.25 0.25 0 0 0 23 13.75L23 13.25A0.25 0.25 0 0 1 23.25 13L23.75 13A0.25 0.25 0 0 0 24 12.75L24 12.25A0.25 0.25 0 0 0 23.75 12L23.25 12A0.25 0.25 0 0 1 23 11.75L23 11.25A0.25 0.25 0 0 0 22.75 11L21.25 11A0.25 0.25 0 0 1 21 10.75L21 10.25A0.25 0.25 0 0 0 20.75 10L20.25 10A0.25 0.25 0 0 0 20 10.25ZM22 12.25L22 12.75A0.25 0.25 0 0 1 21.75 13L21.25 13A0.25 0.25 0 0 0 21 13.25L21 13.75A0.25 0.25 0 0 0 21.25 14L21.75 14A0.25 0.25 0 0 0 22 13.75L22 13.25A0.25 0.25 0 0 1 22.25 13L22.75 13A0.25 0.25 0 0 0 23 12.75L23 12.25A0.25 0.25 0 0 0 22.75 12L22.25 12A0.25 0.25 0 0 0 22 12.25ZM2 15.25L2 15.75A0.25 0.25 0 0 0 2.25 16L2.75 16A0.25 0.25 0 0 1 3 16.25L3 16.75A0.25 0.25 0 0 1 2.75 17L2.25 17A0.25 0.25 0 0 0 2 17.25L2 17.75A0.25 0.25 0 0 0 2.25 18L2.75 18A0.25 0.25 0 0 0 3 17.75L3 17.25A0.25 0.25 0 0 1 3.25 17L3.75 17A0.25 0.25 0 0 0 4 16.75L4 16.25A0.25 0.25 0 0 0 3.75 16L3.25 16A0.25 0.25 0 0 1 3 15.75L3 15.25A0.25 0.25 0 0 0 2.75 15L2.25 15A0.25 0.25 0 0 0 2 15.25ZM7 15.25L7 15.75A0.25 0.25 0 0 0 7.25 16L7.75 16A0.25 0.25 0 0 0 8 15.75L8 15.25A0.25 0.25 0 0 0 7.75 15L7.25 15A0.25 0.25 0 0 0 7 15.25ZM12 15.25L12 15.75A0.25 0.25 0 0 0 12.25 16L12.75 16A0.25 0.25 0 0 1 13 16.25L13 16.75A0.25 0.25 0 0 0 13.25 17L14.75 17A0.25 0.25 0 0 0 15 16.75L15 16.25A0.25 0.25 0 0 0 14.75 16L13.25 16A0.25 0.25 0 0 1 13 15.75L13 15.25A0.25 0.25 0 0 0 12.75 15L12.25 15A0.25 0.25 0 0 0 12 15.25ZM21 21.25L21 23.75A0.25 0.25 0 0 0 21.25 24L23.75 24A0.25 0.25 0 0 0 24 23.75L24 21.25A0.25 0.25 0 0 0 23.75 21L21.25 21A0.25 0.25 0 0 0 21 21.25ZM22 22.25L22 22.75A0.25 0.25 0 0 0 22.25 23L22.75 23A0.25 0.25 0 0 0 23 22.75L23 22.25A0.25 0.25 0 0 0 22.75 22L22.25 22A0.25 0.25 0 0 0 22 22.25ZM11 23.25L11 24.75A0.25 0.25 0 0 0 11.25 25L11.75 25A0.25 0.25 0 0 0 12 24.75L12 23.25A0.25 0.25 0 0 0 11.75 23L11.25 23A0.25 0.25 0 0 0 11 23.25ZM15 24.25L15 24.75A0.25 0.25 0 0 0 15.25 25L15.75 25A0.25 0.25 0 0 0 16 24.75L16 24.25A0.25 0.25 0 0 0 15.75 24L15.25 24A0.25 0.25 0 0 0 15 24.25ZM22 25.25L22 25.75A0.25 0.25 0 0 0 22.25 26L22.75 26A0.25 0.25 0 0 0 23 25.75L23 25.25A0.25 0.25 0 0 0 22.75 25L22.25 25A0.25 0.25 0 0 0 22 25.25ZM24 25.25L24 25.75A0.25 0.25 0 0 0 24.25 26L24.75 26A0.25 0.25 0 0 0 25 25.75L25 25.25A0.25 0.25 0 0 0 24.75 25L24.25 25A0.25 0.25 0 0 0 24 25.25ZM0 0.25L0 6.75A0.25 0.25 0 0 0 0.25 7L6.75 7A0.25 0.25 0 0 0 7 6.75L7 0.25A0.25 0.25 0 0 0 6.75 0L0.25 0A0.25 0.25 0 0 0 0 0.25ZM1 1.25L1 5.75A0.25 0.25 0 0 0 1.25 6L5.75 6A0.25 0.25 0 0 0 6 5.75L6 1.25A0.25 0.25 0 0 0 5.75 1L1.25 1A0.25 0.25 0 0 0 1 1.25ZM2 2.25L2 4.75A0.25 0.25 0 0 0 2.25 5L4.75 5A0.25 0.25 0 0 0 5 4.75L5 2.25A0.25 0.25 0 0 0 4.75 2L2.25 2A0.25 0.25 0 0 0 2 2.25ZM22 0.25L22 6.75A0.25 0.25 0 0 0 22.25 7L28.75 7A0.25 0.25 0 0 0 29 6.75L29 0.25A0.25 0.25 0 0 0 28.75 0L22.25 0A0.25 0.25 0 0 0 22 0.25ZM23 1.25L23 5.75A0.25 0.25 0 0 0 23.25 6L27.75 6A0.25 0.25 0 0 0 28 5.75L28 1.25A0.25 0.25 0 0 0 27.75 1L23.25 1A0.25 0.25 0 0 0 23 1.25ZM24 2.25L24 4.75A0.25 0.25 0 0 0 24.25 5L26.75 5A0.25 0.25 0 0 0 27 4.75L27 2.25A0.25 0.25 0 0 0 26.75 2L24.25 2A0.25 0.25 0 0 0 24 2.25ZM0 22.25L0 28.75A0.25 0.25 0 0 0 0.25 29L6.75 29A0.25 0.25 0 0 0 7 28.75L7 22.25A0.25 0.25 0 0 0 6.75 22L0.25 22A0.25 0.25 0 0 0 0 22.25ZM1 23.25L1 27.75A0.25 0.25 0 0 0 1.25 28L5.75 28A0.25 0.25 0 0 0 6 27.75L6 23.25A0.25 0.25 0 0 0 5.75 23L1.25 23A0.25 0.25 0 0 0 1 23.25ZM2 24.25L2 26.75A0.25 0.25 0 0 0 2.25 27L4.75 27A0.25 0.25 0 0 0 5 26.75L5 24.25A0.25 0.25 0 0 0 4.75 24L2.25 24A0.25 0.25 0 0 0 2 24.25Z" fill="#000000"/></g></g></svg>
