<?xml version="1.0" encoding="UTF-8"?>
<svg xmlns="http://www.w3.org/2000/svg" version="1.1" width="200" height="200" viewBox="0 0 200 200"><rect x="0" y="0" width="200" height="200" fill="#ffffff"/><g transform="scale(6.897)"><g transform="translate(0,0)"><path fill-rule="evenodd" d="M8 0.25L8 2.75A0.25 0.25 0 0 0 8.25 3L8.75 3A0.25 0.25 0 0 0 9 2.75L9 1.25A0.25 0.25 0 0 1 9.25 1L9.75 1A0.25 0.25 0 0 0 10 0.75L10 0.25A0.25 0.25 0 0 0 9.75 0L8.25 0A0.25 0.25 0 0 0 8 0.25ZM13 0.25L13 0.75A0.25 0.25 0 0 1 12.75 1L12.25 1A0.25 0.25 0 0 0 12 1.25L12 1.75A0.25 0.25 0 0 0 12.25 2L13.75 2A0.25 0.25 0 0 1 14 2.25L14 4.75A0.25 0.25 0 0 1 13.75 5L13.25 5A0.25 0.25 0 0 1 13 4.75L13 4.25A0.25 0.25 0 0 0 12.75 4L11.25 4A0.25 0.25 0 0 0 11 4.25L11 4.75A0.25 0.25 0 0 1 10.75 5L10.25 5A0.25 0.25 0 0 1 10 4.75L10 4.25A0.25 0.25 0 0 0 9.75 4L9.25 4A0.25 0.25 0 0 0 9 4.25L9 4.75A0.25 0.25 0 0 1 8.75 5L8.25 5A0.25 0.25 0 0 0 8 5.25L8 8.75A0.25 0.25 0 0 0 8.25 9L9.75 9A0.25 0.25 0 0 0 10 8.75L10 8.25A0.25 0.25 0 0 1 10.25 8L10.75 8A0.25 0.25 0 0 1 11 8.25L11 8.75A0.25 0.25 0 0 0 11.25 9L11.75 9A0.25 0.25 0 0 1 12 9.25L12 9.75A0.25 0.25 0 0 0 12.25 10L13.75 10A0.25 0.25 0 0 1 14 10.25L14 10.75A0.25 0.25 0 0 0 14.25 11L14.75 11A0.25 0.25 0 0 0 15 10.75L15 10.25A0.25 0.25 0 0 0 14.75 10L14.25 10A0.25 0.25 0 0 1 14 9.75L14 9.25A0.25 0.25 0 0 0 13.75 9L12.25 9A0.25 0.25 0 0 1 12 8.75L12 7.25A0.25 0.25 0 0 1 12.25 7L12.75 7A0.25 0.25 0 0 1 13 7.25L13 7.75A0.25 0.25 0 0 0 13.25 8L13.75 8A0.25 0.25 0 0 0 14 7.75L14 7.25A0.25 0.25 0 0 1 14.25 7L14.75 7A0.25 0.25 0 0 0 15 6.75L15 6.25A0.25 0.25 0 0 0 14.75 6L14.25 6A0.25 0.25 0 0 1 14 5.75L14 5.25A0.25 0.25 0 0 1 14.25 5L15.75 5A0.25 0.25 0 0 1 16 5.25L16 7.75A0.25 0.25 0 0 1 15.75 8L15.25 8A0.25 0.25 0 0 0 15 8.25L15 8.75A0.25 0.25 0 0 0 15.25 9L15.75 9A0.25 0.25 0 0 1 16 9.25L16 9.75A0.25 0.25 0 0 0 16.25 10L16.75 10A0.25 0.25 0 0 1 17 10.25L17 11.75A0.25 0.25 0 0 1 16.75 12L15.25 12A0.25 0.25 0 0 0 15 12.25L15 12.75A0.25 0.25 0 0 0 15.25 13L15.75 13A0.25 0.25 0 0 1 16 13.25L16 13.75A0.25 0.25 0 0 1 15.75 14L15.25 14A0.25 0.25 0 0 0 15 14.25L15 14.75A0.25 0.25 0 0 1 14.75 15L14.25 15A0.25 0.25 0 0 1 14 14.75L14 14.25A0.25 0.25 0 0 0 13.75 14L12.25 14A0.25 0.25 0 0 1 12 13.75L12 13.25A0.25 0.25 0 0 1 12.25 13L13.75 13A0.25 0.25 0 0 0 14 12.75L14 12.25A0.25 0.25 0 0 0 13.75 12L12.25 12A0.25 0.25 0 0 1 12 11.75L12 11.25A0.25 0.25 0 0 0 11.75 11L10.25 11A0.25 0.25 0 0 0 10 11.25L10 11.75A0.25 0.25 0 0 1 9.75 12L8.25 12A0.25 0.25 0 0 1 8 11.75L8 11.25A0.25 0.25 0 0 0 7.75 11L7.25 11A0.25 0.25 0 0 1 7 10.75L7 10.25A0.25 0.25 0 0 0 6.75 10L5.25 10A0.25 0.25 0 0 1 5 9.75L5 8.25A0.25 0.25 0 0 0 4.75 8L2.25 8A0.25 0.25 0 0 0 2 8.25L2 8.75A0.25 0.25 0 0 0 2.25 9L2.75 9A0.25 0.25 0 0 1 3 9.25L3 10.75A0.25 0.25 0 0 1 2.75 11L1.25 11A0.25 0.25 0 0 1 1 10.75L1 10.25A0.25 0.25 0 0 0 0.75 10L0.25 10A0.25 0.25 0 0 0 0 10.25L0 10.75A0.25 0.25 0 0 0 0.25 11L0.75 11A0.25 0.25 0 0 1 1 11.25L1 13.75A0.25 0.25 0 0 0 1.25 14L1.75 14A0.25 0.25 0 0 1 2 14.25L2 15.75A0.25 0.25 0 0 1 1.75 16L1.25 16A0.25 0.25 0 0 1 1 15.75L1 15.25A0.25 0.25 0 0 0 0.75 15L0.25 15A0.25 0.25 0 0 0 0 15.25L0 20.75A0.25 0.25 0 0 0 0.25 21L0.75 21A0.25 0.25 0 0 0 1 20.75L1 18.25A0.25 0.25 0 0 1 1.25 18L1.75 18A0.25 0.25 0 0 0 2 17.75L2 17.25A0.25 0.25 0 0 1 2.25 17L2.75 17A0.25 0.25 0 0 1 3 17.25L3 17.75A0.25 0.25 0 0 0 3.25 18L3.75 18A0.25 0.25 0 0 1 4 18.25L4 18.75A0.25 0.25 0 0 0 4.25 19L4.75 19A0.25 0.25 0 0 1 5 19.25L5 19.75A0.25 0.25 0 0 1 4.75 20L4.25 20A0.25 0.25 0 0 0 4 20.25L4 20.75A0.25 0.25 0 0 0 4.25 21L4.75 21A0.25 0.25 0 0 0 5 20.75L5 20.25A0.25 0.25 0 0 1 5.25 20L5.75 20A0.25 0.25 0 0 1 6 20.25L6 20.75A0.25 0.25 0 0 0 6.25 21L6.75 21A0.25 0.25 0 0 0 7 20.75L7 20.25A0.25 0.25 0 0 1 7.25 20L7.75 20A0.25 0.25 0 0 0 8 19.75L8 17.25A0.25 0.25 0 0 0 7.75 17L7.25 17A0.25 0.25 0 0 1 7 16.75L7 16.25A0.25 0.25 0 0 0 6.75 16L5.25 16A0.25 0.25 0 0 1 5 15.75L5 13.25A0.25 0.25 0 0 0 4.75 13L4.25 13A0.25 0.25 0 0 1 4 12.75L4 10.25A0.25 0.25 0 0 1 4.25 10L4.75 10A0.25 0.25 0 0 1 5 10.25L5 11.75A0.25 0.25 0 0 0 5.25 12L5.75 12A0.25 0.25 0 0 1 6 12.25L6 12.75A0.25 0.25 0 0 0 6.25 13L6.75 13A0.25 0.25 0 0 1 7 13.25L7 13.75A0.25 0.25 0 0 1 6.75 14L6.25 14A0.25 0.25 0 0 0 6 14.25L6 14.75A0.25 0.25 0 0 0 6.25 15L10.75 15A0.25 0.25 0 0 1 11 15.25L11 15.75A0.25 0.25 0 0 1 10.75 16L10.25 16A0.25 0.25 0 0 0 10 16.25L10 17.75A0.25 0.25 0 0 1 9.75 18L9.25 18A0.25 0.25 0 0 0 9 18.25L9 18.75A0.25 0.25 0 0 0 9.25 19L9.75 19A0.25 0.25 0 0 0 10 18.75L10 18.25A0.25 0.25 0 0 1 10.25 18L10.75 18A0.25 0.25 0 0 1 11 18.25L11 21.75A0.25 0.25 0 0 0 11.25 22L11.75 22A0.25 0.25 0 0 1 12 22.25L12 23.75A0.25 0.25 0 0 1 11.75 24L11.25 24A0.25 0.25 0 0 1 11 23.75L11 23.25A0.25 0.25 0 0 0 10.75 23L9.25 23A0.25 0.25 0 0 0 9 23.25L9 23.75A0.25 0.25 0 0 1 8.75 24L8.25 24A0.25 0.25 0 0 0 8 24.25L8 26.75A0.25 0.25 0 0 0 8.25 27L8.75 27A0.25 0.25 0 0 1 9 27.25L9 27.75A0.25 0.25 0 0 0 9.25 28L10.75 28A0.25 0.25 0 0 0 11 27.75L11 27.25A0.25 0.25 0 0 1 11.25 27L11.75 27A0.25 0.25 0 0 1 12 27.25L12 28.75A0.25 0.25 0 0 0 12.25 29L12.75 29A0.25 0.25 0 0 0 13 28.75L13 28.25A0.25 0.25 0 0 1 13.25 28L13.75 28A0.25 0.25 0 0 1 14 28.25L14 28.75A0.25 0.25 0 0 0 14.25 29L18.75 29A0.25 0.25 0 0 0 19 28.75L19 28.25A0.25 0.25 0 0 0 18.75 28L18.25 28A0.25 0.25 0 0 1 18 27.75L18 26.25A0.25 0.25 0 0 0 17.75 26L17.25 26A0.25 0.25 0 0 0 17 26.25L17 26.75A0.25 0.25 0 0 1 16.75 27L16.25 27A0.25 0.25 0 0 1 16 26.75L16 26.25A0.25 0.25 0 0 0 15.75 26L15.25 26A0.25 0.25 0 0 1 15 25.75L15 24.25A0.25 0.25 0 0 1 15.25 24L15.75 24A0.25 0.25 0 0 0 16 23.75L16 23.25A0.25 0.25 0 0 0 15.75 23L15.25 23A0.25 0.25 0 0 1 15 22.75L15 22.25A0.25 0.25 0 0 1 15.25 22L16.75 22A0.25 0.25 0 0 0 17 21.75L17 21.25A0.25 0.25 0 0 0 16.75 21L15.25 21A0.25 0.25 0 0 1 15 20.75L15 19.25A0.25 0.25 0 0 0 14.75 19L13.25 19A0.25 0.25 0 0 1 13 18.75L13 17.25A0.25 0.25 0 0 1 13.25 17L13.75 17A0.25 0.25 0 0 1 14 17.25L14 17.75A0.25 0.25 0 0 0 14.25 18L14.75 18A0.25 0.25 0 0 0 15 17.75L15 17.25A0.25 0.25 0 0 0 14.75 17L14.25 17A0.25 0.25 0 0 1 14 16.75L14 16.25A0.25 0.25 0 0 1 14.25 16L16.75 16A0.25 0.25 0 0 0 17 15.75L17 14.25A0.25 0.25 0 0 1 17.25 14L19.75 14A0.25 0.25 0 0 1 20 14.25L20 14.75A0.25 0.25 0 0 1 19.75 15L18.25 15A0.25 0.25 0 0 0 18 15.25L18 16.75A0.25 0.25 0 0 1 17.75 17L17.25 17A0.25 0.25 0 0 0 17 17.25L17 17.75A0.25 0.25 0 0 1 16.75 18L16.25 18A0.25 0.25 0 0 0 16 18.25L16 19.75A0.25 0.25 0 0 0 16.25 20L17.75 20A0.25 0.25 0 0 0 18 19.75L18 19.25A0.25 0.25 0 0 1 18.25 19L18.75 19A0.25 0.25 0 0 1 19 19.25L19 20.75A0.25 0.25 0 0 1 18.75 21L18.25 21A0.25 0.25 0 0 0 18 21.25L18 22.75A0.25 0.25 0 0 1 17.75 23L17.25 23A0.25 0.25 0 0 0 17 23.25L17 24.75A0.25 0.25 0 0 0 17.25 25L18.75 25A0.25 0.25 0 0 0 19 24.75L19 24.25A0.25 0.25 0 0 1 19.25 24L19.75 24A0.25 0.25 0 0 1 20 24.25L20 24.75A0.25 0.25 0 0 0 20.25 25L22.75 25A0.25 0.25 0 0 1 23 25.25L23 25.75A0.25 0.25 0 0 1 22.75 26L21.25 26A0.25 0.25 0 0 0 21 26.25L21 27.75A0.25 0.25 0 0 0 21.25 28L21.75 28A0.25 0.25 0 0 1 22 28.25L22 28.75A0.25 0.25 0 0 0 22.25 29L22.75 29A0.25 0.25 0 0 0 23 28.75L23 28.25A0.25 0.25 0 0 1 23.25 28L24.75 28A0.25 0.25 0 0 1 25 28.25L25 28.75A0.25 0.25 0 0 0 25.25 29L26.75 29A0.25 0.25 0 0 0 27 28.75L27 28.25A0.25 0.25 0 0 1 27.25 28L27.75 28A0.25 0.25 0 0 0 28 27.75L28 26.25A0.25 0.25 0 0 0 27.75 26L27.25 26A0.25 0.25 0 0 0 27 26.25L27 27.75A0.25 0.25 0 0 1 26.75 28L25.25 28A0.25 0.25 0 0 1 25 27.75L25 27.25A0.25 0.25 0 0 1 25.25 27L25.75 27A0.25 0.25 0 0 0 26 26.75L26 25.25A0.25 0.25 0 0 1 26.25 25L26.75 25A0.25 0.25 0 0 0 27 24.75L27 24.25A0.25 0.25 0 0 1 27.25 24L27.75 24A0.25 0.25 0 0 0 28 23.75L28 22.25A0.25 0.25 0 0 1 28.25 22L28.75 22A0.25 0.25 0 0 0 29 21.75L29 21.25A0.25 0.25 0 0 0 28.75 21L28.25 21A0.25 0.25 0 0 0 28 21.25L28 21.75A0.25 0.25 0 0 1 27.75 22L27.25 22A0.25 0.25 0 0 1 27 21.75L27 20.25A0.25 0.25 0 0 1 27.25 20L27.75 20A0.25 0.25 0 0 0 28 19.75L28 19.25A0.25 0.25 0 0 0 27.75 19L27.25 19A0.25 0.25 0 0 0 27 19.25L27 19.75A0.25 0.25 0 0 1 26.75 20L26.25 20A0.25 0.25 0 0 1 26 19.75L26 18.25A0.25 0.25 0 0 0 25.75 18L25.25 18A0.25 0.25 0 0 1 25 17.75L25 17.25A0.25 0.25 0 0 1 25.25 17L26.75 17A0.25 0.25 0 0 1 27 17.25L27 17.75A0.25 0.25 0 0 0 27.25 18L28.75 18A0.25 0.25 0 0 0 29 17.75L29 17.25A0.25 0.25 0 0 0 28.75 17L27.25 17A0.25 0.25 0 0 1 27 16.75L27 16.25A0.25 0.25 0 0 0 26.75 16L25.25 16A0.25 0.25 0 0 1 25 15.75L25 13.25A0.25 0.25 0 0 0 24.75 13L21.25 13A0.25 0.25 0 0 1 21 12.75L21 12.25A0.25 0.25 0 0 1 21.25 12L25.75 12A0.25 0.25 0 0 1 26 12.25L26 12.75A0.25 0.25 0 0 0 26.25 13L26.75 13A0.25 0.25 0 0 1 27 13.25L27 13.75A0.25 0.25 0 0 1 26.75 14L26.25 14A0.25 0.25 0 0 0 26 14.25L26 14.75A0.25 0.25 0 0 0 26.25 15L26.75 15A0.25 0.25 0 0 0 27 14.75L27 14.25A0.25 0.25 0 0 1 27.25 14L28.75 14A0.25 0.25 0 0 0 29 13.75L29 13.25A0.25 0.25 0 0 0 28.75 13L28.25 13A0.25 0.25 0 0 1 28 12.75L28 12.25A0.25 0.25 0 0 1 28.25 12L28.75 12A0.25 0.25 0 0 0 29 11.75L29 11.25A0.25 0.25 0 0 0 28.75 11L28.25 11A0.25 0.25 0 0 1 28 10.75L28 10.25A0.25 0.25 0 0 1 28.25 10L28.75 10A0.25 0.25 0 0 0 29 9.75L29 8.25A0.25 0.25 0 0 0 28.75 8L26.25 8A0.25 0.25 0 0 0 26 8.25L26 8.75A0.25 0.25 0 0 1 25.75 9L24.25 9A0.25 0.25 0 0 1 24 8.75L24 8.25A0.25 0.25 0 0 0 23.75 8L20.25 8A0.25 0.25 0 0 0 20 8.25L20 8.75A0.25 0.25 0 0 0 20.25 9L20.75 9A0.25 0.25 0 0 1 21 9.25L21 9.75A0.25 0.25 0 0 1 20.75 10L20.25 10A0.25 0.25 0 0 0 20 10.25L20 10.75A0.25 0.25 0 0 0 20.25 11L20.75 11A0.25 0.25 0 0 1 21 11.25L21 11.75A0.25 0.25 0 0 1 20.75 12L20.25 12A0.25 0.25 0 0 0 20 12.25L20 12.75A0.25 0.25 0 0 1 19.75 13L19.25 13A0.25 0.25 0 0 1 19 12.75L19 12.25A0.25 0.25 0 0 0 18.75 12L18.25 12A0.25 0.25 0 0 1 18 11.75L18 11.25A0.25 0.25 0 0 1 18.25 11L18.75 11A0.25 0.25 0 0 0 19 10.75L19 10.25A0.25 0.25 0 0 0 18.75 10L18.25 10A0.25 0.25 0 0 1 18 9.75L18 9.25A0.25 0.25 0 0 1 18.25 9L18.75 9A0.25 0.25 0 0 0 19 8.75L19 8.25A0.25 0.25 0 0 0 18.75 8L18.25 8A0.25 0.25 0 0 0 18 8.25L18 8.75A0.25 0.25 0 0 1 17.75 9L17.25 9A0.25 0.25 0 0 1 17 8.75L17 4.25A0.25 0.25 0 0 1 17.25 4L17.75 4A0.25 0.25 0 0 1 18 4.25L18 6.75A0.25 0.25 0 0 0 18.25 7L18.75 7A0.25 0.25 0 0 0 19 6.75L19 5.25A0.25 0.25 0 0 1 19.25 5L19.75 5A0.25 0.25 0 0 1 20 5.25L20 6.75A0.25 0.25 0 0 0 20.25 7L20.75 7A0.25 0.25 0 0 0 21 6.75L21 4.25A0.25 0.25 0 0 0 20.75 4L20.25 4A0.25 0.25 0 0 1 20 3.75L20 3.25A0.25 0.25 0 0 1 20.25 3L20.75 3A0.25 0.25 0 0 0 21 2.75L21 2.25A0.25 0.25 0 0 0 20.75 2L20.25 2A0.25 0.25 0 0 1 20 1.75L20 1.25A0.25 0.25 0 0 1 20.25 1L20.75 1A0.25 0.25 0 0 0 21 0.75L21 0.25A0.25 0.25 0 0 0 20.75 0L20.25 0A0.25 0.25 0 0 0 20 0.25L20 0.75A0.25 0.25 0 0 1 19.75 1L19.25 1A0.25 0.25 0 0 1 19 0.75L19 0.25A0.25 0.25 0 0 0 18.75 0L18.25 0A0.25 0.25 0 0 0 18 0.25L18 0.75A0.25 0.25 0 0 1 17.75 1L17.25 1A0.25 0.25 0 0 0 17 1.25L17 1.75A0.25 0.25 0 0 0 17.25 2L18.75 2A0.25 0.25 0 0 1 19 2.25L19 3.75A0.25 0.25 0 0 1 18.75 4L18.25 4A0.25 0.25 0 0 1 18 3.75L18 3.25A0.25 0.25 0 0 0 17.75 3L17.25 3A0.25 0.25 0 0 0 17 3.25L17 3.75A0.25 0.25 0 0 1 16.75 4L16.25 4A0.25 0.25 0 0 1 16 3.75L16 3.25A0.25 0.25 0 0 0 15.75 3L15.25 3A0.25 0.25 0 0 1 15 2.75L15 2.25A0.25 0.25 0 0 0 14.75 2L14.25 2A0.25 0.25 0 0 1 14 1.75L14 1.25A0.25 0.25 0 0 1 14.25 1L14.75 1A0.25 0.25 0 0 0 15 0.75L15 0.25A0.25 0.25 0 0 0 14.75 0L13.25 0A0.25 0.25 0 0 0 13 0.25ZM10 2.25L10 2.75A0.25 0.25 0 0 0 10.25 3L10.75 3A0.25 0.25 0 0 0 11 2.75L11 2.25A0.25 0.25 0 0 0 10.75 2L10.25 2A0.25 0.25 0 0 0 10 2.25ZM9 5.25L9 6.75A0.25 0.25 0 0 0 9.25 7L9.75 7A0.25 0.25 0 0 0 10 6.75L10 5.25A0.25 0.25 0 0 0 9.75 5L9.25 5A0.25 0.25 0 0 0 9 5.25ZM11 5.25L11 6.75A0.25 0.25 0 0 0 11.25 7L11.75 7A0.25 0.25 0 0 0 12 6.75L12 5.25A0.25 0.25 0 0 0 11.75 5L11.25 5A0.25 0.25 0 0 0 11 5.25ZM13 6.25L13 6.75A0.25 0.25 0 0 0 13.25 7L13.75 7A0.25 0.25 0 0 0 14 6.75L14 6.25A0.25 0.25 0 0 0 13.75 6L13.25 6A0.25 0.25 0 0 0 13 6.25ZM6 8.25L6 8.75A0.25 0.25 0 0 0 6.25 9L6.75 9A0.25 0.25 0 0 0 7 8.75L7 8.25A0.25 0.25 0 0 0 6.75 8L6.25 8A0.25 0.25 0 0 0 6 8.25ZM26 9.25L26 9.75A0.25 0.25 0 0 1 25.75 10L25.25 10A0.25 0.25 0 0 0 25 10.25L25 10.75A0.25 0.25 0 0 0 25.25 11L25.75 11A0.25 0.25 0 0 1 26 11.25L26 11.75A0.25 0.25 0 0 0 26.25 12L26.75 12A0.25 0.25 0 0 0 27 11.75L27 11.25A0.25 0.25 0 0 0 26.75 11L26.25 11A0.25 0.25 0 0 1 26 10.75L26 10.25A0.25 0.25 0 0 1 26.25 10L27.75 10A0.25 0.25 0 0 0 28 9.75L28 9.25A0.25 0.25 0 0 0 27.75 9L26.25 9A0.25 0.25 0 0 0 26 9.25ZM21 10.25L21 10.75A0.25 0.25 0 0 0 21.25 11L23.75 11A0.25 0.25 0 0 0 24 10.75L24 10.25A0.25 0.25 0 0 0 23.75 10L21.25 10A0.25 0.25 0 0 0 21 10.25ZM6 11.25L6 11.75A0.25 0.25 0 0 0 6.25 12L6.75 12A0.25 0.25 0 0 0 7 11.75L7 11.25A0.25 0.25 0 0 0 6.75 11L6.25 11A0.25 0.25 0 0 0 6 11.25ZM10 12.25L10 12.75A0.25 0.25 0 0 1 9.75 13L8.25 13A0.25 0.25 0 0 0 8 13.25L8 13.75A0.25 0.25 0 0 0 8.25 14L9.75 14A0.25 0.25 0 0 0 10 13.75L10 13.25A0.25 0.25 0 0 1 10.25 13L11.75 13A0.25 0.25 0 0 0 12 12.75L12 12.25A0.25 0.25 0 0 0 11.75 12L10.25 12A0.25 0.25 0 0 0 10 12.25ZM2 13.25L2 13.75A0.25 0.25 0 0 0 2.25 14L2.75 14A0.25 0.25 0 0 1 3 14.25L3 15.75A0.25 0.25 0 0 0 3.25 16L3.75 16A0.25 0.25 0 0 0 4 15.75L4 14.25A0.25 0.25 0 0 0 3.75 14L3.25 14A0.25 0.25 0 0 1 3 13.75L3 13.25A0.25 0.25 0 0 0 2.75 13L2.25 13A0.25 0.25 0 0 0 2 13.25ZM20 13.25L20 13.75A0.25 0.25 0 0 0 20.25 14L20.75 14A0.25 0.25 0 0 0 21 13.75L21 13.25A0.25 0.25 0 0 0 20.75 13L20.25 13A0.25 0.25 0 0 0 20 13.25ZM22 14.25L22 14.75A0.25 0.25 0 0 1 21.75 15L20.25 15A0.25 0.25 0 0 0 20 15.25L20 15.75A0.25 0.25 0 0 1 19.75 16L19.25 16A0.25 0.25 0 0 0 19 16.25L19 17.75A0.25 0.25 0 0 0 19.25 18L19.75 18A0.25 0.25 0 0 1 20 18.25L20 18.75A0.25 0.25 0 0 0 20.25 19L20.75 19A0.25 0.25 0 0 0 21 18.75L21 18.25A0.25 0.25 0 0 1 21.25 18L21.75 18A0.25 0.25 0 0 1 22 18.25L22 18.75A0.25 0.25 0 0 0 22.25 19L22.75 19A0.25 0.25 0 0 1 23 19.25L23 19.75A0.25 0.25 0 0 0 23.25 20L24.75 20A0.25 0.25 0 0 1 25 20.25L25 23.75A0.25 0.25 0 0 0 25.25 24L26.75 24A0.25 0.25 0 0 0 27 23.75L27 22.25A0.25 0.25 0 0 0 26.75 22L26.25 22A0.25 0.25 0 0 1 26 21.75L26 20.25A0.25 0.25 0 0 0 25.75 20L25.25 20A0.25 0.25 0 0 1 25 19.75L25 19.25A0.25 0.25 0 0 0 24.75 19L24.25 19A0.25 0.25 0 0 1 24 18.75L24 18.25A0.25 0.25 0 0 0 23.75 18L22.25 18A0.25 0.25 0 0 1 22 17.75L22 17.25A0.25 0.25 0 0 1 22.25 17L24.75 17A0.25 0.25 0 0 0 25 16.75L25 16.25A0.25 0.25 0 0 0 24.75 16L22.25 16A0.25 0.25 0 0 1 22 15.75L22 15.25A0.25 0.25 0 0 1 22.25 15L22.75 15A0.25 0.25 0 0 0 23 14.75L23 14.25A0.25 0.25 0 0 0 22.75 14L22.25 14A0.25 0.25 0 0 0 22 14.25ZM12 15.25L12 15.75A0.25 0.25 0 0 1 11.75 16L11.25 16A0.25 0.25 0 0 0 11 16.25L11 16.75A0.25 0.25 0 0 0 11.25 17L12.75 17A0.25 0.25 0 0 0 13 16.75L13 15.25A0.25 0.25 0 0 0 12.75 15L12.25 15A0.25 0.25 0 0 0 12 15.25ZM28 15.25L28 15.75A0.25 0.25 0 0 0 28.25 16L28.75 16A0.25 0.25 0 0 0 29 15.75L29 15.25A0.25 0.25 0 0 0 28.75 15L28.25 15A0.25 0.25 0 0 0 28 15.25ZM21 16.25L21 16.75A0.25 0.25 0 0 1 20.75 17L20.25 17A0.25 0.25 0 0 0 20 17.25L20 17.75A0.25 0.25 0 0 0 20.25 18L20.75 18A0.25 0.25 0 0 0 21 17.75L21 17.25A0.25 0.25 0 0 1 21.25 17L21.75 17A0.25 0.25 0 0 0 22 16.75L22 16.25A0.25 0.25 0 0 0 21.75 16L21.25 16A0.25 0.25 0 0 0 21 16.25ZM4 17.25L4 17.75A0.25 0.25 0 0 0 4.25 18L6.75 18A0.25 0.25 0 0 0 7 17.75L7 17.25A0.25 0.25 0 0 0 6.75 17L4.25 17A0.25 0.25 0 0 0 4 17.25ZM6 19.25L6 19.75A0.25 0.25 0 0 0 6.25 20L6.75 20A0.25 0.25 0 0 0 7 19.75L7 19.25A0.25 0.25 0 0 0 6.75 19L6.25 19A0.25 0.25 0 0 0 6 19.25ZM2 20.25L2 20.75A0.25 0.25 0 0 0 2.25 21L2.75 21A0.25 0.25 0 0 0 3 20.75L3 20.25A0.25 0.25 0 0 0 2.75 20L2.25 20A0.25 0.25 0 0 0 2 20.25ZM8 21.25L8 21.75A0.25 0.25 0 0 0 8.25 22L9.75 22A0.25 0.25 0 0 0 10 21.75L10 21.25A0.25 0.25 0 0 0 9.75 21L8.25 21A0.25 0.25 0 0 0 8 21.25ZM13 21.25L13 21.75A0.25 0.25 0 0 0 13.25 22L14.75 22A0.25 0.25 0 0 0 15 21.75L15 21.25A0.25 0.25 0 0 0 14.75 21L13.25 21A0.25 0.25 0 0 0 13 21.25ZM19 21.25L19 21.75A0.25 0.25 0 0 0 19.25 22L19.75 22A0.25 0.25 0 0 0 20 21.75L20 21.25A0.25 0.25 0 0 0 19.75 21L19.25 21A0.25 0.25 0 0 0 19 21.25ZM21 21.25L21 23.75A0.25 0.25 0 0 0 21.25 24L23.75 24A0.25 0.25 0 0 0 24 23.75L24 21.25A0.25 0.25 0 0 0 23.75 21L21.25 21A0.25 0.25 0 0 0 21 21.25ZM22 22.25L22 22.75A0.25 0.25 0 0 0 22.25 23L22.75 23A0.25 0.25 0 0 0 23 22.75L23 22.25A0.25 0.25 0 0 0 22.75 22L22.25 22A0.25 0.25 0 0 0 22 22.25ZM14 23.25L14 23.75A0.25 0.25 0 0 0 14.25 24L14.75 24A0.25 0.25 0 0 0 15 23.75L15 23.25A0.25 0.25 0 0 0 14.75 23L14.25 23A0.25 0.25 0 0 0 14 23.25ZM9 24.25L9 24.75A0.25 0.25 0 0 0 9.25 25L9.75 25A0.25 0.25 0 0 1 10 25.25L10 25.75A0.25 0.25 0 0 0 10.25 26L11.75 26A0.25 0.25 0 0 1 12 26.25L12 26.75A0.25 0.25 0 0 0 12.25 27L12.75 27A0.25 0.25 0 0 0 13 26.75L13 25.25A0.25 0.25 0 0 0 12.75 25L11.25 25A0.25 0.25 0 0 1 11 24.75L11 24.25A0.25 0.25 0 0 0 10.75 24L9.25 24A0.25 0.25 0 0 0 9 24.25ZM24 25.25L24 25.75A0.25 0.25 0 0 1 23.75 26L23.25 26A0.25 0.25 0 0 0 23 26.25L23 26.75A0.25 0.25 0 0 1 22.75 27L22.25 27A0.25 0.25 0 0 0 22 27.25L22 27.75A0.25 0.25 0 0 0 22.25 28L22.75 28A0.25 0.25 0 0 0 23 27.75L23 27.25A0.25 0.25 0 0 1 23.25 27L23.75 27A0.25 0.25 0 0 0 24 26.75L24 26.25A0.25 0.25 0 0 1 24.25 26L24.75 26A0.25 0.25 0 0 0 25 25.75L25 25.25A0.25 0.25 0 0 0 24.75 25L24.25 25A0.25 0.25 0 0 0 24 25.25ZM19 26.25L19 26.75A0.25 0.25 0 0 0 19.25 27L19.75 27A0.25 0.25 0 0 0 20 26.75L20 26.25A0.25 0.25 0 0 0 19.75 26L19.25 26A0.25 0.25 0 0 0 19 26.25ZM14 27.25L14 27.75A0.25 0.25 0 0 0 14.25 28L15.75 28A0.25 0.25 0 0 0 16 27.75L16 27.25A0.25 0.25 0 0 0 15.75 27L14.25 27A0.25 0.25 0 0 0 14 27.25ZM0 0.25L0 6.75A0.25 0.25 0 0 0 0.25 7L6.75 7A0.25 0.25 0 0 0 7 6.75L7 0.25A0.25 0.25 0 0 0 6.75 0L0.25 0A0.25 0.25 0 0 0 0 0.25ZM1 1.25L1 5.75A0.25 0.25 0 0 0 1.25 6L5.75 6A0.25 0.25 0 0 0 6 5.75L6 1.25A0.25 0.25 0 0 0 5.75 1L1.25 1A0.25 0.25 0 0 0 1 1.25ZM2 2.25L2 4.75A0.25 0.25 0 0 0 2.25 5L4.75 5A0.25 0.25 0 0 0 5 4.75L5 2.25A0.25 0.25 0 0 0 4.75 2L2.25 2A0.25 0.25 0 0 0 2 2.25ZM22 0.25L22 6.75A0.25 0.25 0 0 0 22.25 7L28.75 7A0.25 0.25 0 0 0 29 6.75L29 0.25A0.25 0.25 0 0 0 28.75 0L22.25 0A0.25 0.25 0 0 0 22 0.25ZM23 1.25L23 5.75A0.25 0.25 0 0 0 23.25 6L27.75 6A0.25 0.25 0 0 0 28 5.75L28 1.25A0.25 0.25 0 0 0 27.75 1L23.25 1A0.25 0.25 0 0 0 23 1.25ZM24 2.25L24 4.75A0.25 0.25 0 0 0 24.25 5L26.75 5A0.25 0.25 0 0 0 27 4.75L27 2.25A0.25 0.25 0 0 0 26.75 2L24.25 2A0.25 0.25 0 0 0 24 2.25ZM0 22.25L0 28.75A0.25 0.25 0 0 0 0.25 29L6.75 29A0.25 0.25 0 0 0 7 28.75L7 22.25A0.25 0.25 0 0 0 6.75 22L0.25 22A0.25 0.25 0 0 0 0 22.25ZM1 23.25L1 27.75A0.25 0.25 0 0 0 1.25 28L5.75 28A0.25 0.25 0 0 0 6 27.75L6 23.25A0.25 0.25 0 0 0 5.75 23L1.25 23A0.25 0.25 0 0 0 1 23.25ZM2 24.25L2 26.75A0.25 0.25 0 0 0 2.25 27L4.75 27A0.25 0.25 0 0 0 5 26.75L5 24.25A0.25 0.25 0 0 0 4.75 24L2.25 24A0.25 0.25 0 0 0 2 24.25Z" fill="#000000"/></g></g></svg>
