<?xml version="1.0" encoding="UTF-8"?>
<svg xmlns="http://www.w3.org/2000/svg" version="1.1" width="200" height="200" viewBox="0 0 200 200"><rect x="0" y="0" width="200" height="200" fill="#ffffff"/><g transform="scale(6.897)"><g transform="translate(0,0)"><path fill-rule="evenodd" d="M8 0.25L8 2.75A0.25 0.25 0 0 0 8.25 3L9.75 3A0.25 0.25 0 0 1 10 3.25L10 3.75A0.25 0.25 0 0 0 10.25 4L11.75 4A0.25 0.25 0 0 1 12 4.25L12 4.75A0.25 0.25 0 0 1 11.75 5L10.25 5A0.25 0.25 0 0 0 10 5.25L10 6.75A0.25 0.25 0 0 0 10.25 7L10.75 7A0.25 0.25 0 0 1 11 7.25L11 7.75A0.25 0.25 0 0 1 10.75 8L9.25 8A0.25 0.25 0 0 1 9 7.75L9 5.25A0.25 0.25 0 0 0 8.75 5L8.25 5A0.25 0.25 0 0 0 8 5.25L8 8.75A0.25 0.25 0 0 1 7.75 9L7.25 9A0.25 0.25 0 0 1 7 8.75L7 8.25A0.25 0.25 0 0 0 6.75 8L6.25 8A0.25 0.25 0 0 0 6 8.25L6 8.75A0.25 0.25 0 0 0 6.25 9L6.75 9A0.25 0.25 0 0 1 7 9.25L7 9.75A0.25 0.25 0 0 1 6.75 10L4.25 10A0.25 0.25 0 0 1 4 9.75L4 9.25A0.25 0.25 0 0 1 4.25 9L4.75 9A0.25 0.25 0 0 0 5 8.75L5 8.25A0.25 0.25 0 0 0 4.75 8L2.25 8A0.25 0.25 0 0 0 2 8.25L2 8.75A0.25 0.25 0 0 1 1.75 9L0.25 9A0.25 0.25 0 0 0 0 9.25L0 10.75A0.25 0.25 0 0 0 0.25 11L1.75 11A0.25 0.25 0 0 1 2 11.25L2 11.75A0.25 0.25 0 0 1 1.75 12L0.25 12A0.25 0.25 0 0 0 0 12.25L0 12.75A0.25 0.25 0 0 0 0.25 13L0.75 13A0.25 0.25 0 0 1 1 13.25L1 15.75A0.25 0.25 0 0 1 0.75 16L0.25 16A0.25 0.25 0 0 0 0 16.25L0 20.75A0.25 0.25 0 0 0 0.25 21L0.75 21A0.25 0.25 0 0 0 1 20.75L1 18.25A0.25 0.25 0 0 1 1.25 18L1.75 18A0.25 0.25 0 0 1 2 18.25L2 19.75A0.25 0.25 0 0 0 2.25 20L2.75 20A0.25 0.25 0 0 1 3 20.25L3 20.75A0.25 0.25 0 0 0 3.25 21L4.75 21A0.25 0.25 0 0 0 5 20.75L5 20.25A0.25 0.25 0 0 0 4.75 20L3.25 20A0.25 0.25 0 0 1 3 19.75L3 17.25A0.25 0.25 0 0 0 2.75 17L1.25 17A0.25 0.25 0 0 1 1 16.75L1 16.25A0.25 0.25 0 0 1 1.25 16L3.75 16A0.25 0.25 0 0 1 4 16.25L4 18.75A0.25 0.25 0 0 0 4.25 19L4.75 19A0.25 0.25 0 0 0 5 18.75L5 17.25A0.25 0.25 0 0 1 5.25 17L6.75 17A0.25 0.25 0 0 1 7 17.25L7 17.75A0.25 0.25 0 0 1 6.75 18L6.25 18A0.25 0.25 0 0 0 6 18.25L6 18.75A0.25 0.25 0 0 0 6.25 19L6.75 19A0.25 0.25 0 0 1 7 19.25L7 19.75A0.25 0.25 0 0 1 6.75 20L6.25 20A0.25 0.25 0 0 0 6 20.25L6 20.75A0.25 0.25 0 0 0 6.25 21L6.75 21A0.25 0.25 0 0 0 7 20.75L7 20.25A0.25 0.25 0 0 1 7.25 20L7.75 20A0.25 0.25 0 0 0 8 19.75L8 19.25A0.25 0.25 0 0 0 7.75 19L7.25 19A0.25 0.25 0 0 1 7 18.75L7 18.25A0.25 0.25 0 0 1 7.25 18L8.75 18A0.25 0.25 0 0 0 9 17.75L9 16.25A0.25 0.25 0 0 1 9.25 16L9.75 16A0.25 0.25 0 0 1 10 16.25L10 16.75A0.25 0.25 0 0 0 10.25 17L10.75 17A0.25 0.25 0 0 1 11 17.25L11 18.75A0.25 0.25 0 0 0 11.25 19L11.75 19A0.25 0.25 0 0 1 12 19.25L12 19.75A0.25 0.25 0 0 0 12.25 20L12.75 20A0.25 0.25 0 0 0 13 19.75L13 19.25A0.25 0.25 0 0 0 12.75 19L12.25 19A0.25 0.25 0 0 1 12 18.75L12 17.25A0.25 0.25 0 0 1 12.25 17L12.75 17A0.25 0.25 0 0 0 13 16.75L13 15.25A0.25 0.25 0 0 0 12.75 15L12.25 15A0.25 0.25 0 0 0 12 15.25L12 15.75A0.25 0.25 0 0 1 11.75 16L10.25 16A0.25 0.25 0 0 1 10 15.75L10 14.25A0.25 0.25 0 0 0 9.75 14L9.25 14A0.25 0.25 0 0 1 9 13.75L9 13.25A0.25 0.25 0 0 1 9.25 13L10.75 13A0.25 0.25 0 0 0 11 12.75L11 12.25A0.25 0.25 0 0 1 11.25 12L11.75 12A0.25 0.25 0 0 1 12 12.25L12 13.75A0.25 0.25 0 0 0 12.25 14L13.75 14A0.25 0.25 0 0 1 14 14.25L14 16.75A0.25 0.25 0 0 0 14.25 17L14.75 17A0.25 0.25 0 0 1 15 17.25L15 17.75A0.25 0.25 0 0 1 14.75 18L14.25 18A0.25 0.25 0 0 0 14 18.25L14 20.75A0.25 0.25 0 0 1 13.75 21L12.25 21A0.25 0.25 0 0 0 12 21.25L12 22.75A0.25 0.25 0 0 1 11.75 23L10.25 23A0.25 0.25 0 0 0 10 23.25L10 24.75A0.25 0.25 0 0 1 9.75 25L9.25 25A0.25 0.25 0 0 1 9 24.75L9 24.25A0.25 0.25 0 0 0 8.75 24L8.25 24A0.25 0.25 0 0 0 8 24.25L8 26.75A0.25 0.25 0 0 0 8.25 27L9.75 27A0.25 0.25 0 0 1 10 27.25L10 27.75A0.25 0.25 0 0 0 10.25 28L10.75 28A0.25 0.25 0 0 1 11 28.25L11 28.75A0.25 0.25 0 0 0 11.25 29L12.75 29A0.25 0.25 0 0 0 13 28.75L13 28.25A0.25 0.25 0 0 1 13.25 28L13.75 28A0.25 0.25 0 0 0 14 27.75L14 26.25A0.25 0.25 0 0 1 14.25 26L14.75 26A0.25 0.25 0 0 1 15 26.25L15 28.75A0.25 0.25 0 0 0 15.25 29L15.75 29A0.25 0.25 0 0 0 16 28.75L16 26.25A0.25 0.25 0 0 1 16.25 26L16.75 26A0.25 0.25 0 0 1 17 26.25L17 26.75A0.25 0.25 0 0 0 17.25 27L17.75 27A0.25 0.25 0 0 1 18 27.25L18 27.75A0.25 0.25 0 0 0 18.25 28L18.75 28A0.25 0.25 0 0 0 19 27.75L19 26.25A0.25 0.25 0 0 1 19.25 26L21.75 26A0.25 0.25 0 0 1 22 26.25L22 26.75A0.25 0.25 0 0 1 21.75 27L21.25 27A0.25 0.25 0 0 0 21 27.25L21 28.75A0.25 0.25 0 0 0 21.25 29L21.75 29A0.25 0.25 0 0 0 22 28.75L22 27.25A0.25 0.25 0 0 1 22.25 27L22.75 27A0.25 0.25 0 0 1 23 27.25L23 27.75A0.25 0.25 0 0 0 23.25 28L24.75 28A0.25 0.25 0 0 1 25 28.25L25 28.75A0.25 0.25 0 0 0 25.25 29L26.75 29A0.25 0.25 0 0 0 27 28.75L27 28.25A0.25 0.25 0 0 1 27.25 28L27.75 28A0.25 0.25 0 0 0 28 27.75L28 26.25A0.25 0.25 0 0 0 27.75 26L26.25 26A0.25 0.25 0 0 0 26 26.25L26 26.75A0.25 0.25 0 0 0 26.25 27L26.75 27A0.25 0.25 0 0 1 27 27.25L27 27.75A0.25 0.25 0 0 1 26.75 28L25.25 28A0.25 0.25 0 0 1 25 27.75L25 26.25A0.25 0.25 0 0 0 24.75 26L24.25 26A0.25 0.25 0 0 1 24 25.75L24 25.25A0.25 0.25 0 0 1 24.25 25L27.75 25A0.25 0.25 0 0 0 28 24.75L28 24.25A0.25 0.25 0 0 0 27.75 24L25.25 24A0.25 0.25 0 0 1 25 23.75L25 21.25A0.25 0.25 0 0 1 25.25 21L26.75 21A0.25 0.25 0 0 0 27 20.75L27 20.25A0.25 0.25 0 0 1 27.25 20L27.75 20A0.25 0.25 0 0 0 28 19.75L28 19.25A0.25 0.25 0 0 0 27.75 19L27.25 19A0.25 0.25 0 0 1 27 18.75L27 18.25A0.25 0.25 0 0 1 27.25 18L28.75 18A0.25 0.25 0 0 0 29 17.75L29 17.25A0.25 0.25 0 0 0 28.75 17L27.25 17A0.25 0.25 0 0 1 27 16.75L27 16.25A0.25 0.25 0 0 1 27.25 16L28.75 16A0.25 0.25 0 0 0 29 15.75L29 15.25A0.25 0.25 0 0 0 28.75 15L28.25 15A0.25 0.25 0 0 1 28 14.75L28 14.25A0.25 0.25 0 0 1 28.25 14L28.75 14A0.25 0.25 0 0 0 29 13.75L29 13.25A0.25 0.25 0 0 0 28.75 13L28.25 13A0.25 0.25 0 0 0 28 13.25L28 13.75A0.25 0.25 0 0 1 27.75 14L26.25 14A0.25 0.25 0 0 0 26 14.25L26 14.75A0.25 0.25 0 0 1 25.75 15L25.25 15A0.25 0.25 0 0 1 25 14.75L25 13.25A0.25 0.25 0 0 1 25.25 13L26.75 13A0.25 0.25 0 0 0 27 12.75L27 12.25A0.25 0.25 0 0 0 26.75 12L25.25 12A0.25 0.25 0 0 0 25 12.25L25 12.75A0.25 0.25 0 0 1 24.75 13L24.25 13A0.25 0.25 0 0 1 24 12.75L24 12.25A0.25 0.25 0 0 0 23.75 12L23.25 12A0.25 0.25 0 0 0 23 12.25L23 12.75A0.25 0.25 0 0 1 22.75 13L21.25 13A0.25 0.25 0 0 1 21 12.75L21 12.25A0.25 0.25 0 0 0 20.75 12L20.25 12A0.25 0.25 0 0 0 20 12.25L20 12.75A0.25 0.25 0 0 1 19.75 13L19.25 13A0.25 0.25 0 0 0 19 13.25L19 13.75A0.25 0.25 0 0 0 19.25 14L19.75 14A0.25 0.25 0 0 1 20 14.25L20 14.75A0.25 0.25 0 0 0 20.25 15L21.75 15A0.25 0.25 0 0 1 22 15.25L22 15.75A0.25 0.25 0 0 1 21.75 16L21.25 16A0.25 0.25 0 0 0 21 16.25L21 16.75A0.25 0.25 0 0 1 20.75 17L20.25 17A0.25 0.25 0 0 0 20 17.25L20 17.75A0.25 0.25 0 0 1 19.75 18L18.25 18A0.25 0.25 0 0 1 18 17.75L18 17.25A0.25 0.25 0 0 1 18.25 17L18.75 17A0.25 0.25 0 0 0 19 16.75L19 16.25A0.25 0.25 0 0 0 18.75 16L17.25 16A0.25 0.25 0 0 0 17 16.25L17 16.75A0.25 0.25 0 0 1 16.75 17L15.25 17A0.25 0.25 0 0 1 15 16.75L15 15.25A0.25 0.25 0 0 1 15.25 15L15.75 15A0.25 0.25 0 0 0 16 14.75L16 13.25A0.25 0.25 0 0 0 15.75 13L15.25 13A0.25 0.25 0 0 1 15 12.75L15 12.25A0.25 0.25 0 0 0 14.75 12L12.25 12A0.25 0.25 0 0 1 12 11.75L12 9.25A0.25 0.25 0 0 0 11.75 9L11.25 9A0.25 0.25 0 0 1 11 8.75L11 8.25A0.25 0.25 0 0 1 11.25 8L12.75 8A0.25 0.25 0 0 1 13 8.25L13 10.75A0.25 0.25 0 0 0 13.25 11L14.75 11A0.25 0.25 0 0 0 15 10.75L15 10.25A0.25 0.25 0 0 1 15.25 10L15.75 10A0.25 0.25 0 0 1 16 10.25L16 11.75A0.25 0.25 0 0 0 16.25 12L17.75 12A0.25 0.25 0 0 0 18 11.75L18 11.25A0.25 0.25 0 0 1 18.25 11L18.75 11A0.25 0.25 0 0 0 19 10.75L19 10.25A0.25 0.25 0 0 0 18.75 10L18.25 10A0.25 0.25 0 0 1 18 9.75L18 9.25A0.25 0.25 0 0 1 18.25 9L18.75 9A0.25 0.25 0 0 0 19 8.75L19 8.25A0.25 0.25 0 0 0 18.75 8L18.25 8A0.25 0.25 0 0 0 18 8.25L18 8.75A0.25 0.25 0 0 1 17.75 9L17.25 9A0.25 0.25 0 0 1 17 8.75L17 8.25A0.25 0.25 0 0 0 16.75 8L16.25 8A0.25 0.25 0 0 1 16 7.75L16 7.25A0.25 0.25 0 0 1 16.25 7L16.75 7A0.25 0.25 0 0 0 17 6.75L17 4.25A0.25 0.25 0 0 1 17.25 4L18.75 4A0.25 0.25 0 0 1 19 4.25L19 4.75A0.25 0.25 0 0 1 18.75 5L18.25 5A0.25 0.25 0 0 0 18 5.25L18 6.75A0.25 0.25 0 0 0 18.25 7L18.75 7A0.25 0.25 0 0 0 19 6.75L19 5.25A0.25 0.25 0 0 1 19.25 5L19.75 5A0.25 0.25 0 0 0 20 4.75L20 4.25A0.25 0.25 0 0 1 20.25 4L20.75 4A0.25 0.25 0 0 0 21 3.75L21 2.25A0.25 0.25 0 0 0 20.75 2L20.25 2A0.25 0.25 0 0 1 20 1.75L20 1.25A0.25 0.25 0 0 1 20.25 1L20.75 1A0.25 0.25 0 0 0 21 0.75L21 0.25A0.25 0.25 0 0 0 20.75 0L20.25 0A0.25 0.25 0 0 0 20 0.25L20 0.75A0.25 0.25 0 0 1 19.75 1L19.25 1A0.25 0.25 0 0 1 19 0.75L19 0.25A0.25 0.25 0 0 0 18.75 0L18.25 0A0.25 0.25 0 0 0 18 0.25L18 0.75A0.25 0.25 0 0 0 18.25 1L18.75 1A0.25 0.25 0 0 1 19 1.25L19 2.75A0.25 0.25 0 0 1 18.75 3L16.25 3A0.25 0.25 0 0 1 16 2.75L16 2.25A0.25 0.25 0 0 1 16.25 2L16.75 2A0.25 0.25 0 0 0 17 1.75L17 1.25A0.25 0.25 0 0 0 16.75 1L14.25 1A0.25 0.25 0 0 0 14 1.25L14 1.75A0.25 0.25 0 0 1 13.75 2L12.25 2A0.25 0.25 0 0 0 12 2.25L12 2.75A0.25 0.25 0 0 1 11.75 3L11.25 3A0.25 0.25 0 0 1 11 2.75L11 1.25A0.25 0.25 0 0 1 11.25 1L11.75 1A0.25 0.25 0 0 0 12 0.75L12 0.25A0.25 0.25 0 0 0 11.75 0L11.25 0A0.25 0.25 0 0 0 11 0.25L11 0.75A0.25 0.25 0 0 1 10.75 1L10.25 1A0.25 0.25 0 0 1 10 0.75L10 0.25A0.25 0.25 0 0 0 9.75 0L8.25 0A0.25 0.25 0 0 0 8 0.25ZM14 2.25L14 2.75A0.25 0.25 0 0 1 13.75 3L13.25 3A0.25 0.25 0 0 0 13 3.25L13 4.75A0.25 0.25 0 0 0 13.25 5L14.75 5A0.25 0.25 0 0 1 15 5.25L15 6.75A0.25 0.25 0 0 1 14.75 7L14.25 7A0.25 0.25 0 0 1 14 6.75L14 6.25A0.25 0.25 0 0 0 13.75 6L13.25 6A0.25 0.25 0 0 0 13 6.25L13 7.75A0.25 0.25 0 0 0 13.25 8L13.75 8A0.25 0.25 0 0 1 14 8.25L14 9.75A0.25 0.25 0 0 0 14.25 10L14.75 10A0.25 0.25 0 0 0 15 9.75L15 7.25A0.25 0.25 0 0 1 15.25 7L15.75 7A0.25 0.25 0 0 0 16 6.75L16 4.25A0.25 0.25 0 0 0 15.75 4L14.25 4A0.25 0.25 0 0 1 14 3.75L14 3.25A0.25 0.25 0 0 1 14.25 3L14.75 3A0.25 0.25 0 0 0 15 2.75L15 2.25A0.25 0.25 0 0 0 14.75 2L14.25 2A0.25 0.25 0 0 0 14 2.25ZM11 6.25L11 6.75A0.25 0.25 0 0 0 11.25 7L11.75 7A0.25 0.25 0 0 0 12 6.75L12 6.25A0.25 0.25 0 0 0 11.75 6L11.25 6A0.25 0.25 0 0 0 11 6.25ZM20 6.25L20 8.75A0.25 0.25 0 0 0 20.25 9L21.75 9A0.25 0.25 0 0 1 22 9.25L22 9.75A0.25 0.25 0 0 1 21.75 10L20.25 10A0.25 0.25 0 0 0 20 10.25L20 10.75A0.25 0.25 0 0 0 20.25 11L22.75 11A0.25 0.25 0 0 0 23 10.75L23 9.25A0.25 0.25 0 0 1 23.25 9L23.75 9A0.25 0.25 0 0 1 24 9.25L24 10.75A0.25 0.25 0 0 0 24.25 11L24.75 11A0.25 0.25 0 0 0 25 10.75L25 9.25A0.25 0.25 0 0 0 24.75 9L24.25 9A0.25 0.25 0 0 1 24 8.75L24 8.25A0.25 0.25 0 0 0 23.75 8L21.25 8A0.25 0.25 0 0 1 21 7.75L21 6.25A0.25 0.25 0 0 0 20.75 6L20.25 6A0.25 0.25 0 0 0 20 6.25ZM26 8.25L26 9.75A0.25 0.25 0 0 0 26.25 10L28.75 10A0.25 0.25 0 0 0 29 9.75L29 8.25A0.25 0.25 0 0 0 28.75 8L26.25 8A0.25 0.25 0 0 0 26 8.25ZM2 9.25L2 9.75A0.25 0.25 0 0 0 2.25 10L2.75 10A0.25 0.25 0 0 1 3 10.25L3 11.75A0.25 0.25 0 0 1 2.75 12L2.25 12A0.25 0.25 0 0 0 2 12.25L2 14.75A0.25 0.25 0 0 0 2.25 15L2.75 15A0.25 0.25 0 0 0 3 14.75L3 14.25A0.25 0.25 0 0 1 3.25 14L3.75 14A0.25 0.25 0 0 0 4 13.75L4 13.25A0.25 0.25 0 0 1 4.25 13L4.75 13A0.25 0.25 0 0 1 5 13.25L5 14.75A0.25 0.25 0 0 1 4.75 15L4.25 15A0.25 0.25 0 0 0 4 15.25L4 15.75A0.25 0.25 0 0 0 4.25 16L6.75 16A0.25 0.25 0 0 1 7 16.25L7 16.75A0.25 0.25 0 0 0 7.25 17L7.75 17A0.25 0.25 0 0 0 8 16.75L8 16.25A0.25 0.25 0 0 1 8.25 16L8.75 16A0.25 0.25 0 0 0 9 15.75L9 15.25A0.25 0.25 0 0 0 8.75 15L8.25 15A0.25 0.25 0 0 1 8 14.75L8 13.25A0.25 0.25 0 0 1 8.25 13L8.75 13A0.25 0.25 0 0 0 9 12.75L9 12.25A0.25 0.25 0 0 1 9.25 12L10.75 12A0.25 0.25 0 0 0 11 11.75L11 10.25A0.25 0.25 0 0 0 10.75 10L10.25 10A0.25 0.25 0 0 0 10 10.25L10 10.75A0.25 0.25 0 0 1 9.75 11L9.25 11A0.25 0.25 0 0 1 9 10.75L9 9.25A0.25 0.25 0 0 0 8.75 9L8.25 9A0.25 0.25 0 0 0 8 9.25L8 11.75A0.25 0.25 0 0 1 7.75 12L7.25 12A0.25 0.25 0 0 1 7 11.75L7 11.25A0.25 0.25 0 0 0 6.75 11L5.25 11A0.25 0.25 0 0 0 5 11.25L5 11.75A0.25 0.25 0 0 1 4.75 12L4.25 12A0.25 0.25 0 0 1 4 11.75L4 10.25A0.25 0.25 0 0 0 3.75 10L3.25 10A0.25 0.25 0 0 1 3 9.75L3 9.25A0.25 0.25 0 0 0 2.75 9L2.25 9A0.25 0.25 0 0 0 2 9.25ZM16 9.25L16 9.75A0.25 0.25 0 0 0 16.25 10L16.75 10A0.25 0.25 0 0 0 17 9.75L17 9.25A0.25 0.25 0 0 0 16.75 9L16.25 9A0.25 0.25 0 0 0 16 9.25ZM3 12.25L3 12.75A0.25 0.25 0 0 0 3.25 13L3.75 13A0.25 0.25 0 0 0 4 12.75L4 12.25A0.25 0.25 0 0 0 3.75 12L3.25 12A0.25 0.25 0 0 0 3 12.25ZM6 12.25L6 12.75A0.25 0.25 0 0 0 6.25 13L6.75 13A0.25 0.25 0 0 0 7 12.75L7 12.25A0.25 0.25 0 0 0 6.75 12L6.25 12A0.25 0.25 0 0 0 6 12.25ZM14 13.25L14 13.75A0.25 0.25 0 0 0 14.25 14L14.75 14A0.25 0.25 0 0 0 15 13.75L15 13.25A0.25 0.25 0 0 0 14.75 13L14.25 13A0.25 0.25 0 0 0 14 13.25ZM17 13.25L17 14.75A0.25 0.25 0 0 0 17.25 15L17.75 15A0.25 0.25 0 0 0 18 14.75L18 13.25A0.25 0.25 0 0 0 17.75 13L17.25 13A0.25 0.25 0 0 0 17 13.25ZM20 13.25L20 13.75A0.25 0.25 0 0 0 20.25 14L20.75 14A0.25 0.25 0 0 0 21 13.75L21 13.25A0.25 0.25 0 0 0 20.75 13L20.25 13A0.25 0.25 0 0 0 20 13.25ZM23 13.25L23 13.75A0.25 0.25 0 0 1 22.75 14L22.25 14A0.25 0.25 0 0 0 22 14.25L22 14.75A0.25 0.25 0 0 0 22.25 15L23.75 15A0.25 0.25 0 0 0 24 14.75L24 13.25A0.25 0.25 0 0 0 23.75 13L23.25 13A0.25 0.25 0 0 0 23 13.25ZM6 14.25L6 14.75A0.25 0.25 0 0 0 6.25 15L6.75 15A0.25 0.25 0 0 0 7 14.75L7 14.25A0.25 0.25 0 0 0 6.75 14L6.25 14A0.25 0.25 0 0 0 6 14.25ZM26 15.25L26 15.75A0.25 0.25 0 0 1 25.75 16L24.25 16A0.25 0.25 0 0 0 24 16.25L24 16.75A0.25 0.25 0 0 1 23.75 17L23.25 17A0.25 0.25 0 0 1 23 16.75L23 16.25A0.25 0.25 0 0 0 22.75 16L22.25 16A0.25 0.25 0 0 0 22 16.25L22 16.75A0.25 0.25 0 0 1 21.75 17L21.25 17A0.25 0.25 0 0 0 21 17.25L21 17.75A0.25 0.25 0 0 1 20.75 18L20.25 18A0.25 0.25 0 0 0 20 18.25L20 18.75A0.25 0.25 0 0 0 20.25 19L21.75 19A0.25 0.25 0 0 1 22 19.25L22 19.75A0.25 0.25 0 0 0 22.25 20L22.75 20A0.25 0.25 0 0 0 23 19.75L23 19.25A0.25 0.25 0 0 1 23.25 19L24.75 19A0.25 0.25 0 0 1 25 19.25L25 19.75A0.25 0.25 0 0 0 25.25 20L26.75 20A0.25 0.25 0 0 0 27 19.75L27 19.25A0.25 0.25 0 0 0 26.75 19L26.25 19A0.25 0.25 0 0 1 26 18.75L26 18.25A0.25 0.25 0 0 1 26.25 18L26.75 18A0.25 0.25 0 0 0 27 17.75L27 17.25A0.25 0.25 0 0 0 26.75 17L26.25 17A0.25 0.25 0 0 1 26 16.75L26 16.25A0.25 0.25 0 0 1 26.25 16L26.75 16A0.25 0.25 0 0 0 27 15.75L27 15.25A0.25 0.25 0 0 0 26.75 15L26.25 15A0.25 0.25 0 0 0 26 15.25ZM22 17.25L22 17.75A0.25 0.25 0 0 0 22.25 18L22.75 18A0.25 0.25 0 0 0 23 17.75L23 17.25A0.25 0.25 0 0 0 22.75 17L22.25 17A0.25 0.25 0 0 0 22 17.25ZM24 17.25L24 17.75A0.25 0.25 0 0 0 24.25 18L24.75 18A0.25 0.25 0 0 0 25 17.75L25 17.25A0.25 0.25 0 0 0 24.75 17L24.25 17A0.25 0.25 0 0 0 24 17.25ZM15 18.25L15 19.75A0.25 0.25 0 0 0 15.25 20L15.75 20A0.25 0.25 0 0 1 16 20.25L16 20.75A0.25 0.25 0 0 1 15.75 21L15.25 21A0.25 0.25 0 0 0 15 21.25L15 22.75A0.25 0.25 0 0 0 15.25 23L15.75 23A0.25 0.25 0 0 1 16 23.25L16 24.75A0.25 0.25 0 0 1 15.75 25L15.25 25A0.25 0.25 0 0 0 15 25.25L15 25.75A0.25 0.25 0 0 0 15.25 26L15.75 26A0.25 0.25 0 0 0 16 25.75L16 25.25A0.25 0.25 0 0 1 16.25 25L16.75 25A0.25 0.25 0 0 1 17 25.25L17 25.75A0.25 0.25 0 0 0 17.25 26L17.75 26A0.25 0.25 0 0 0 18 25.75L18 25.25A0.25 0.25 0 0 1 18.25 25L19.75 25A0.25 0.25 0 0 0 20 24.75L20 24.25A0.25 0.25 0 0 0 19.75 24L19.25 24A0.25 0.25 0 0 1 19 23.75L19 23.25A0.25 0.25 0 0 0 18.75 23L18.25 23A0.25 0.25 0 0 0 18 23.25L18 23.75A0.25 0.25 0 0 1 17.75 24L17.25 24A0.25 0.25 0 0 1 17 23.75L17 22.25A0.25 0.25 0 0 1 17.25 22L19.75 22A0.25 0.25 0 0 0 20 21.75L20 21.25A0.25 0.25 0 0 0 19.75 21L19.25 21A0.25 0.25 0 0 1 19 20.75L19 19.25A0.25 0.25 0 0 0 18.75 19L18.25 19A0.25 0.25 0 0 1 18 18.75L18 18.25A0.25 0.25 0 0 0 17.75 18L17.25 18A0.25 0.25 0 0 0 17 18.25L17 18.75A0.25 0.25 0 0 1 16.75 19L16.25 19A0.25 0.25 0 0 1 16 18.75L16 18.25A0.25 0.25 0 0 0 15.75 18L15.25 18A0.25 0.25 0 0 0 15 18.25ZM9 19.25L9 19.75A0.25 0.25 0 0 0 9.25 20L9.75 20A0.25 0.25 0 0 1 10 20.25L10 20.75A0.25 0.25 0 0 1 9.75 21L8.25 21A0.25 0.25 0 0 0 8 21.25L8 21.75A0.25 0.25 0 0 0 8.25 22L9.75 22A0.25 0.25 0 0 0 10 21.75L10 21.25A0.25 0.25 0 0 1 10.25 21L10.75 21A0.25 0.25 0 0 0 11 20.75L11 20.25A0.25 0.25 0 0 0 10.75 20L10.25 20A0.25 0.25 0 0 1 10 19.75L10 19.25A0.25 0.25 0 0 0 9.75 19L9.25 19A0.25 0.25 0 0 0 9 19.25ZM17 20.25L17 20.75A0.25 0.25 0 0 0 17.25 21L17.75 21A0.25 0.25 0 0 0 18 20.75L18 20.25A0.25 0.25 0 0 0 17.75 20L17.25 20A0.25 0.25 0 0 0 17 20.25ZM21 21.25L21 23.75A0.25 0.25 0 0 0 21.25 24L23.75 24A0.25 0.25 0 0 0 24 23.75L24 21.25A0.25 0.25 0 0 0 23.75 21L21.25 21A0.25 0.25 0 0 0 21 21.25ZM28 21.25L28 21.75A0.25 0.25 0 0 1 27.75 22L26.25 22A0.25 0.25 0 0 0 26 22.25L26 22.75A0.25 0.25 0 0 0 26.25 23L27.75 23A0.25 0.25 0 0 0 28 22.75L28 22.25A0.25 0.25 0 0 1 28.25 22L28.75 22A0.25 0.25 0 0 0 29 21.75L29 21.25A0.25 0.25 0 0 0 28.75 21L28.25 21A0.25 0.25 0 0 0 28 21.25ZM22 22.25L22 22.75A0.25 0.25 0 0 0 22.25 23L22.75 23A0.25 0.25 0 0 0 23 22.75L23 22.25A0.25 0.25 0 0 0 22.75 22L22.25 22A0.25 0.25 0 0 0 22 22.25ZM12 23.25L12 23.75A0.25 0.25 0 0 1 11.75 24L11.25 24A0.25 0.25 0 0 0 11 24.25L11 25.75A0.25 0.25 0 0 1 10.75 26L10.25 26A0.25 0.25 0 0 0 10 26.25L10 26.75A0.25 0.25 0 0 0 10.25 27L10.75 27A0.25 0.25 0 0 1 11 27.25L11 27.75A0.25 0.25 0 0 0 11.25 28L11.75 28A0.25 0.25 0 0 0 12 27.75L12 27.25A0.25 0.25 0 0 0 11.75 27L11.25 27A0.25 0.25 0 0 1 11 26.75L11 26.25A0.25 0.25 0 0 1 11.25 26L11.75 26A0.25 0.25 0 0 0 12 25.75L12 24.25A0.25 0.25 0 0 1 12.25 24L13.75 24A0.25 0.25 0 0 0 14 23.75L14 23.25A0.25 0.25 0 0 0 13.75 23L12.25 23A0.25 0.25 0 0 0 12 23.25ZM22 25.25L22 25.75A0.25 0.25 0 0 0 22.25 26L22.75 26A0.25 0.25 0 0 1 23 26.25L23 26.75A0.25 0.25 0 0 0 23.25 27L23.75 27A0.25 0.25 0 0 0 24 26.75L24 26.25A0.25 0.25 0 0 0 23.75 26L23.25 26A0.25 0.25 0 0 1 23 25.75L23 25.25A0.25 0.25 0 0 0 22.75 25L22.25 25A0.25 0.25 0 0 0 22 25.25ZM0 0.25L0 6.75A0.25 0.25 0 0 0 0.25 7L6.75 7A0.25 0.25 0 0 0 7 6.75L7 0.25A0.25 0.25 0 0 0 6.75 0L0.25 0A0.25 0.25 0 0 0 0 0.25ZM1 1.25L1 5.75A0.25 0.25 0 0 0 1.25 6L5.75 6A0.25 0.25 0 0 0 6 5.75L6 1.25A0.25 0.25 0 0 0 5.75 1L1.25 1A0.25 0.25 0 0 0 1 1.25ZM2 2.25L2 4.75A0.25 0.25 0 0 0 2.25 5L4.75 5A0.25 0.25 0 0 0 5 4.75L5 2.25A0.25 0.25 0 0 0 4.75 2L2.25 2A0.25 0.25 0 0 0 2 2.25ZM22 0.25L22 6.75A0.25 0.25 0 0 0 22.25 7L28.75 7A0.25 0.25 0 0 0 29 6.75L29 0.25A0.25 0.25 0 0 0 28.75 0L22.25 0A0.25 0.25 0 0 0 22 0.25ZM23 1.25L23 5.75A0.25 0.25 0 0 0 23.25 6L27.75 6A0.25 0.25 0 0 0 28 5.75L28 1.25A0.25 0.25 0 0 0 27.75 1L23.25 1A0.25 0.25 0 0 0 23 1.25ZM24 2.25L24 4.75A0.25 0.25 0 0 0 24.25 5L26.75 5A0.25 0.25 0 0 0 27 4.75L27 2.25A0.25 0.25 0 0 0 26.75 2L24.25 2A0.25 0.25 0 0 0 24 2.25ZM0 22.25L0 28.75A0.25 0.25 0 0 0 0.25 29L6.75 29A0.25 0.25 0 0 0 7 28.75L7 22.25A0.25 0.25 0 0 0 6.75 22L0.25 22A0.25 0.25 0 0 0 0 22.25ZM1 23.25L1 27.75A0.25 0.25 0 0 0 1.25 28L5.75 28A0.25 0.25 0 0 0 6 27.75L6 23.25A0.25 0.25 0 0 0 5.75 23L1.25 23A0.25 0.25 0 0 0 1 23.25ZM2 24.25L2 26.75A0.25 0.25 0 0 0 2.25 27L4.75 27A0.25 0.25 0 0 0 5 26.75L5 24.25A0.25 0.25 0 0 0 4.75 24L2.25 24A0.25 0.25 0 0 0 2 24.25Z" fill="#000000"/></g></g></svg>
