<?xml version="1.0" encoding="UTF-8"?>
<svg xmlns="http://www.w3.org/2000/svg" version="1.1" width="200" height="200" viewBox="0 0 200 200"><rect x="0" y="0" width="200" height="200" fill="#ffffff"/><g transform="scale(6.897)"><g transform="translate(0,0)"><path fill-rule="evenodd" d="M8 0.25L8 1.75A0.25 0.25 0 0 0 8.25 2L9.75 2A0.25 0.25 0 0 1 10 2.25L10 3.75A0.25 0.25 0 0 1 9.75 4L9.25 4A0.25 0.25 0 0 1 9 3.75L9 3.25A0.25 0.25 0 0 0 8.75 3L8.25 3A0.25 0.25 0 0 0 8 3.25L8 6.75A0.25 0.25 0 0 0 8.25 7L8.75 7A0.25 0.25 0 0 0 9 6.75L9 6.25A0.25 0.25 0 0 1 9.25 6L9.75 6A0.25 0.25 0 0 1 10 6.25L10 6.75A0.25 0.25 0 0 0 10.25 7L10.75 7A0.25 0.25 0 0 1 11 7.25L11 7.75A0.25 0.25 0 0 1 10.75 8L10.25 8A0.25 0.25 0 0 0 10 8.25L10 8.75A0.25 0.25 0 0 1 9.75 9L8.25 9A0.25 0.25 0 0 0 8 9.25L8 9.75A0.25 0.25 0 0 1 7.75 10L5.25 10A0.25 0.25 0 0 1 5 9.75L5 9.25A0.25 0.25 0 0 0 4.75 9L4.25 9A0.25 0.25 0 0 1 4 8.75L4 8.25A0.25 0.25 0 0 0 3.75 8L3.25 8A0.25 0.25 0 0 0 3 8.25L3 8.75A0.25 0.25 0 0 1 2.75 9L0.25 9A0.25 0.25 0 0 0 0 9.25L0 10.75A0.25 0.25 0 0 0 0.25 11L0.75 11A0.25 0.25 0 0 1 1 11.25L1 12.75A0.25 0.25 0 0 1 0.75 13L0.25 13A0.25 0.25 0 0 0 0 13.25L0 14.75A0.25 0.25 0 0 0 0.25 15L0.75 15A0.25 0.25 0 0 0 1 14.75L1 13.25A0.25 0.25 0 0 1 1.25 13L1.75 13A0.25 0.25 0 0 1 2 13.25L2 16.75A0.25 0.25 0 0 1 1.75 17L1.25 17A0.25 0.25 0 0 1 1 16.75L1 16.25A0.25 0.25 0 0 0 0.75 16L0.25 16A0.25 0.25 0 0 0 0 16.25L0 16.75A0.25 0.25 0 0 0 0.25 17L0.75 17A0.25 0.25 0 0 1 1 17.25L1 17.75A0.25 0.25 0 0 1 0.75 18L0.25 18A0.25 0.25 0 0 0 0 18.25L0 18.75A0.25 0.25 0 0 0 0.25 19L0.75 19A0.25 0.25 0 0 0 1 18.75L1 18.25A0.25 0.25 0 0 1 1.25 18L2.75 18A0.25 0.25 0 0 1 3 18.25L3 18.75A0.25 0.25 0 0 1 2.75 19L2.25 19A0.25 0.25 0 0 0 2 19.25L2 20.75A0.25 0.25 0 0 0 2.25 21L3.75 21A0.25 0.25 0 0 0 4 20.75L4 19.25A0.25 0.25 0 0 1 4.25 19L4.75 19A0.25 0.25 0 0 0 5 18.75L5 18.25A0.25 0.25 0 0 1 5.25 18L5.75 18A0.25 0.25 0 0 1 6 18.25L6 18.75A0.25 0.25 0 0 0 6.25 19L6.75 19A0.25 0.25 0 0 1 7 19.25L7 19.75A0.25 0.25 0 0 1 6.75 20L6.25 20A0.25 0.25 0 0 0 6 20.25L6 20.75A0.25 0.25 0 0 0 6.25 21L6.75 21A0.25 0.25 0 0 0 7 20.75L7 20.25A0.25 0.25 0 0 1 7.25 20L9.75 20A0.25 0.25 0 0 1 10 20.25L10 21.75A0.25 0.25 0 0 0 10.25 22L10.75 22A0.25 0.25 0 0 1 11 22.25L11 22.75A0.25 0.25 0 0 1 10.75 23L9.25 23A0.25 0.25 0 0 0 9 23.25L9 24.75A0.25 0.25 0 0 1 8.75 25L8.25 25A0.25 0.25 0 0 0 8 25.25L8 25.75A0.25 0.25 0 0 0 8.25 26L8.75 26A0.25 0.25 0 0 1 9 26.25L9 27.75A0.25 0.25 0 0 0 9.25 28L10.75 28A0.25 0.25 0 0 0 11 27.75L11 23.25A0.25 0.25 0 0 1 11.25 23L12.75 23A0.25 0.25 0 0 1 13 23.25L13 23.75A0.25 0.25 0 0 1 12.75 24L12.25 24A0.25 0.25 0 0 0 12 24.25L12 25.75A0.25 0.25 0 0 0 12.25 26L12.75 26A0.25 0.25 0 0 0 13 25.75L13 25.25A0.25 0.25 0 0 1 13.25 25L13.75 25A0.25 0.25 0 0 0 14 24.75L14 24.25A0.25 0.25 0 0 1 14.25 24L14.75 24A0.25 0.25 0 0 0 15 23.75L15 23.25A0.25 0.25 0 0 0 14.75 23L14.25 23A0.25 0.25 0 0 1 14 22.75L14 22.25A0.25 0.25 0 0 1 14.25 22L16.75 22A0.25 0.25 0 0 1 17 22.25L17 22.75A0.25 0.25 0 0 1 16.75 23L16.25 23A0.25 0.25 0 0 0 16 23.25L16 24.75A0.25 0.25 0 0 1 15.75 25L15.25 25A0.25 0.25 0 0 0 15 25.25L15 25.75A0.25 0.25 0 0 0 15.25 26L15.75 26A0.25 0.25 0 0 1 16 26.25L16 26.75A0.25 0.25 0 0 1 15.75 27L15.25 27A0.25 0.25 0 0 0 15 27.25L15 27.75A0.25 0.25 0 0 0 15.25 28L16.75 28A0.25 0.25 0 0 1 17 28.25L17 28.75A0.25 0.25 0 0 0 17.25 29L17.75 29A0.25 0.25 0 0 0 18 28.75L18 28.25A0.25 0.25 0 0 0 17.75 28L17.25 28A0.25 0.25 0 0 1 17 27.75L17 27.25A0.25 0.25 0 0 1 17.25 27L17.75 27A0.25 0.25 0 0 0 18 26.75L18 26.25A0.25 0.25 0 0 1 18.25 26L18.75 26A0.25 0.25 0 0 1 19 26.25L19 28.75A0.25 0.25 0 0 0 19.25 29L21.75 29A0.25 0.25 0 0 0 22 28.75L22 26.25A0.25 0.25 0 0 1 22.25 26L22.75 26A0.25 0.25 0 0 1 23 26.25L23 27.75A0.25 0.25 0 0 0 23.25 28L23.75 28A0.25 0.25 0 0 1 24 28.25L24 28.75A0.25 0.25 0 0 0 24.25 29L25.75 29A0.25 0.25 0 0 0 26 28.75L26 28.25A0.25 0.25 0 0 0 25.75 28L24.25 28A0.25 0.25 0 0 1 24 27.75L24 27.25A0.25 0.25 0 0 1 24.25 27L26.75 27A0.25 0.25 0 0 1 27 27.25L27 28.75A0.25 0.25 0 0 0 27.25 29L27.75 29A0.25 0.25 0 0 0 28 28.75L28 27.25A0.25 0.25 0 0 1 28.25 27L28.75 27A0.25 0.25 0 0 0 29 26.75L29 24.25A0.25 0.25 0 0 0 28.75 24L28.25 24A0.25 0.25 0 0 1 28 23.75L28 22.25A0.25 0.25 0 0 1 28.25 22L28.75 22A0.25 0.25 0 0 0 29 21.75L29 17.25A0.25 0.25 0 0 0 28.75 17L28.25 17A0.25 0.25 0 0 1 28 16.75L28 15.25A0.25 0.25 0 0 1 28.25 15L28.75 15A0.25 0.25 0 0 0 29 14.75L29 14.25A0.25 0.25 0 0 0 28.75 14L28.25 14A0.25 0.25 0 0 1 28 13.75L28 13.25A0.25 0.25 0 0 1 28.25 13L28.75 13A0.25 0.25 0 0 0 29 12.75L29 11.25A0.25 0.25 0 0 0 28.75 11L28.25 11A0.25 0.25 0 0 1 28 10.75L28 10.25A0.25 0.25 0 0 1 28.25 10L28.75 10A0.25 0.25 0 0 0 29 9.75L29 8.25A0.25 0.25 0 0 0 28.75 8L27.25 8A0.25 0.25 0 0 0 27 8.25L27 10.75A0.25 0.25 0 0 1 26.75 11L26.25 11A0.25 0.25 0 0 1 26 10.75L26 10.25A0.25 0.25 0 0 0 25.75 10L25.25 10A0.25 0.25 0 0 0 25 10.25L25 12.75A0.25 0.25 0 0 0 25.25 13L25.75 13A0.25 0.25 0 0 0 26 12.75L26 12.25A0.25 0.25 0 0 1 26.25 12L27.75 12A0.25 0.25 0 0 1 28 12.25L28 12.75A0.25 0.25 0 0 1 27.75 13L27.25 13A0.25 0.25 0 0 0 27 13.25L27 13.75A0.25 0.25 0 0 1 26.75 14L26.25 14A0.25 0.25 0 0 0 26 14.25L26 14.75A0.25 0.25 0 0 0 26.25 15L26.75 15A0.25 0.25 0 0 1 27 15.25L27 16.75A0.25 0.25 0 0 1 26.75 17L26.25 17A0.25 0.25 0 0 1 26 16.75L26 16.25A0.25 0.25 0 0 0 25.75 16L25.25 16A0.25 0.25 0 0 0 25 16.25L25 16.75A0.25 0.25 0 0 0 25.25 17L25.75 17A0.25 0.25 0 0 1 26 17.25L26 17.75A0.25 0.25 0 0 1 25.75 18L24.25 18A0.25 0.25 0 0 0 24 18.25L24 18.75A0.25 0.25 0 0 0 24.25 19L24.75 19A0.25 0.25 0 0 1 25 19.25L25 19.75A0.25 0.25 0 0 1 24.75 20L23.25 20A0.25 0.25 0 0 1 23 19.75L23 17.25A0.25 0.25 0 0 1 23.25 17L23.75 17A0.25 0.25 0 0 0 24 16.75L24 16.25A0.25 0.25 0 0 0 23.75 16L23.25 16A0.25 0.25 0 0 0 23 16.25L23 16.75A0.25 0.25 0 0 1 22.75 17L22.25 17A0.25 0.25 0 0 1 22 16.75L22 16.25A0.25 0.25 0 0 0 21.75 16L19.25 16A0.25 0.25 0 0 0 19 16.25L19 18.75A0.25 0.25 0 0 1 18.75 19L17.25 19A0.25 0.25 0 0 1 17 18.75L17 18.25A0.25 0.25 0 0 1 17.25 18L17.75 18A0.25 0.25 0 0 0 18 17.75L18 15.25A0.25 0.25 0 0 1 18.25 15L18.75 15A0.25 0.25 0 0 0 19 14.75L19 14.25A0.25 0.25 0 0 1 19.25 14L19.75 14A0.25 0.25 0 0 1 20 14.25L20 14.75A0.25 0.25 0 0 0 20.25 15L24.75 15A0.25 0.25 0 0 0 25 14.75L25 14.25A0.25 0.25 0 0 0 24.75 14L22.25 14A0.25 0.25 0 0 1 22 13.75L22 13.25A0.25 0.25 0 0 1 22.25 13L22.75 13A0.25 0.25 0 0 0 23 12.75L23 12.25A0.25 0.25 0 0 1 23.25 12L23.75 12A0.25 0.25 0 0 0 24 11.75L24 9.25A0.25 0.25 0 0 1 24.25 9L25.75 9A0.25 0.25 0 0 0 26 8.75L26 8.25A0.25 0.25 0 0 0 25.75 8L23.25 8A0.25 0.25 0 0 0 23 8.25L23 8.75A0.25 0.25 0 0 1 22.75 9L22.25 9A0.25 0.25 0 0 0 22 9.25L22 9.75A0.25 0.25 0 0 1 21.75 10L21.25 10A0.25 0.25 0 0 0 21 10.25L21 10.75A0.25 0.25 0 0 1 20.75 11L20.25 11A0.25 0.25 0 0 1 20 10.75L20 9.25A0.25 0.25 0 0 1 20.25 9L20.75 9A0.25 0.25 0 0 0 21 8.75L21 5.25A0.25 0.25 0 0 0 20.75 5L19.25 5A0.25 0.25 0 0 1 19 4.75L19 3.25A0.25 0.25 0 0 1 19.25 3L20.75 3A0.25 0.25 0 0 0 21 2.75L21 2.25A0.25 0.25 0 0 0 20.75 2L20.25 2A0.25 0.25 0 0 1 20 1.75L20 1.25A0.25 0.25 0 0 0 19.75 1L19.25 1A0.25 0.25 0 0 1 19 0.75L19 0.25A0.25 0.25 0 0 0 18.75 0L18.25 0A0.25 0.25 0 0 0 18 0.25L18 1.75A0.25 0.25 0 0 1 17.75 2L17.25 2A0.25 0.25 0 0 1 17 1.75L17 1.25A0.25 0.25 0 0 0 16.75 1L15.25 1A0.25 0.25 0 0 1 15 0.75L15 0.25A0.25 0.25 0 0 0 14.75 0L14.25 0A0.25 0.25 0 0 0 14 0.25L14 0.75A0.25 0.25 0 0 1 13.75 1L13.25 1A0.25 0.25 0 0 1 13 0.75L13 0.25A0.25 0.25 0 0 0 12.75 0L11.25 0A0.25 0.25 0 0 0 11 0.25L11 0.75A0.25 0.25 0 0 1 10.75 1L10.25 1A0.25 0.25 0 0 1 10 0.75L10 0.25A0.25 0.25 0 0 0 9.75 0L8.25 0A0.25 0.25 0 0 0 8 0.25ZM11 1.25L11 1.75A0.25 0.25 0 0 0 11.25 2L12.75 2A0.25 0.25 0 0 1 13 2.25L13 2.75A0.25 0.25 0 0 1 12.75 3L12.25 3A0.25 0.25 0 0 0 12 3.25L12 3.75A0.25 0.25 0 0 1 11.75 4L10.25 4A0.25 0.25 0 0 0 10 4.25L10 4.75A0.25 0.25 0 0 0 10.25 5L10.75 5A0.25 0.25 0 0 1 11 5.25L11 6.75A0.25 0.25 0 0 0 11.25 7L11.75 7A0.25 0.25 0 0 1 12 7.25L12 7.75A0.25 0.25 0 0 1 11.75 8L11.25 8A0.25 0.25 0 0 0 11 8.25L11 9.75A0.25 0.25 0 0 1 10.75 10L10.25 10A0.25 0.25 0 0 0 10 10.25L10 11.75A0.25 0.25 0 0 1 9.75 12L9.25 12A0.25 0.25 0 0 1 9 11.75L9 10.25A0.25 0.25 0 0 0 8.75 10L8.25 10A0.25 0.25 0 0 0 8 10.25L8 10.75A0.25 0.25 0 0 1 7.75 11L5.25 11A0.25 0.25 0 0 1 5 10.75L5 10.25A0.25 0.25 0 0 0 4.75 10L3.25 10A0.25 0.25 0 0 0 3 10.25L3 10.75A0.25 0.25 0 0 1 2.75 11L2.25 11A0.25 0.25 0 0 1 2 10.75L2 10.25A0.25 0.25 0 0 0 1.75 10L1.25 10A0.25 0.25 0 0 0 1 10.25L1 10.75A0.25 0.25 0 0 0 1.25 11L1.75 11A0.25 0.25 0 0 1 2 11.25L2 12.75A0.25 0.25 0 0 0 2.25 13L3.75 13A0.25 0.25 0 0 1 4 13.25L4 13.75A0.25 0.25 0 0 1 3.75 14L3.25 14A0.25 0.25 0 0 0 3 14.25L3 17.75A0.25 0.25 0 0 0 3.25 18L3.75 18A0.25 0.25 0 0 0 4 17.75L4 16.25A0.25 0.25 0 0 1 4.25 16L4.75 16A0.25 0.25 0 0 1 5 16.25L5 16.75A0.25 0.25 0 0 0 5.25 17L5.75 17A0.25 0.25 0 0 1 6 17.25L6 17.75A0.25 0.25 0 0 0 6.25 18L6.75 18A0.25 0.25 0 0 0 7 17.75L7 17.25A0.25 0.25 0 0 0 6.75 17L6.25 17A0.25 0.25 0 0 1 6 16.75L6 16.25A0.25 0.25 0 0 1 6.25 16L7.75 16A0.25 0.25 0 0 1 8 16.25L8 18.75A0.25 0.25 0 0 0 8.25 19L9.75 19A0.25 0.25 0 0 0 10 18.75L10 18.25A0.25 0.25 0 0 1 10.25 18L11.75 18A0.25 0.25 0 0 1 12 18.25L12 18.75A0.25 0.25 0 0 0 12.25 19L12.75 19A0.25 0.25 0 0 1 13 19.25L13 19.75A0.25 0.25 0 0 0 13.25 20L14.75 20A0.25 0.25 0 0 0 15 19.75L15 19.25A0.25 0.25 0 0 0 14.75 19L13.25 19A0.25 0.25 0 0 1 13 18.75L13 18.25A0.25 0.25 0 0 1 13.25 18L13.75 18A0.25 0.25 0 0 0 14 17.75L14 17.25A0.25 0.25 0 0 1 14.25 17L14.75 17A0.25 0.25 0 0 1 15 17.25L15 17.75A0.25 0.25 0 0 0 15.25 18L16.75 18A0.25 0.25 0 0 0 17 17.75L17 17.25A0.25 0.25 0 0 0 16.75 17L15.25 17A0.25 0.25 0 0 1 15 16.75L15 15.25A0.25 0.25 0 0 1 15.25 15L16.75 15A0.25 0.25 0 0 0 17 14.75L17 14.25A0.25 0.25 0 0 1 17.25 14L17.75 14A0.25 0.25 0 0 0 18 13.75L18 13.25A0.25 0.25 0 0 0 17.75 13L17.25 13A0.25 0.25 0 0 1 17 12.75L17 12.25A0.25 0.25 0 0 0 16.75 12L16.25 12A0.25 0.25 0 0 0 16 12.25L16 12.75A0.25 0.25 0 0 1 15.75 13L15.25 13A0.25 0.25 0 0 1 15 12.75L15 12.25A0.25 0.25 0 0 0 14.75 12L14.25 12A0.25 0.25 0 0 1 14 11.75L14 11.25A0.25 0.25 0 0 0 13.75 11L12.25 11A0.25 0.25 0 0 0 12 11.25L12 11.75A0.25 0.25 0 0 0 12.25 12L12.75 12A0.25 0.25 0 0 1 13 12.25L13 12.75A0.25 0.25 0 0 0 13.25 13L13.75 13A0.25 0.25 0 0 1 14 13.25L14 15.75A0.25 0.25 0 0 1 13.75 16L12.25 16A0.25 0.25 0 0 1 12 15.75L12 15.25A0.25 0.25 0 0 1 12.25 15L12.75 15A0.25 0.25 0 0 0 13 14.75L13 14.25A0.25 0.25 0 0 0 12.75 14L12.25 14A0.25 0.25 0 0 1 12 13.75L12 13.25A0.25 0.25 0 0 0 11.75 13L11.25 13A0.25 0.25 0 0 1 11 12.75L11 10.25A0.25 0.25 0 0 1 11.25 10L11.75 10A0.25 0.25 0 0 0 12 9.75L12 9.25A0.25 0.25 0 0 1 12.25 9L12.75 9A0.25 0.25 0 0 1 13 9.25L13 9.75A0.25 0.25 0 0 0 13.25 10L13.75 10A0.25 0.25 0 0 0 14 9.75L14 9.25A0.25 0.25 0 0 1 14.25 9L15.75 9A0.25 0.25 0 0 1 16 9.25L16 10.75A0.25 0.25 0 0 0 16.25 11L17.75 11A0.25 0.25 0 0 1 18 11.25L18 11.75A0.25 0.25 0 0 0 18.25 12L18.75 12A0.25 0.25 0 0 1 19 12.25L19 12.75A0.25 0.25 0 0 0 19.25 13L19.75 13A0.25 0.25 0 0 1 20 13.25L20 13.75A0.25 0.25 0 0 0 20.25 14L20.75 14A0.25 0.25 0 0 0 21 13.75L21 12.25A0.25 0.25 0 0 0 20.75 12L19.25 12A0.25 0.25 0 0 1 19 11.75L19 11.25A0.25 0.25 0 0 0 18.75 11L18.25 11A0.25 0.25 0 0 1 18 10.75L18 9.25A0.25 0.25 0 0 0 17.75 9L17.25 9A0.25 0.25 0 0 1 17 8.75L17 7.25A0.25 0.25 0 0 1 17.25 7L17.75 7A0.25 0.25 0 0 0 18 6.75L18 6.25A0.25 0.25 0 0 1 18.25 6L18.75 6A0.25 0.25 0 0 1 19 6.25L19 6.75A0.25 0.25 0 0 0 19.25 7L19.75 7A0.25 0.25 0 0 0 20 6.75L20 6.25A0.25 0.25 0 0 0 19.75 6L19.25 6A0.25 0.25 0 0 1 19 5.75L19 5.25A0.25 0.25 0 0 0 18.75 5L18.25 5A0.25 0.25 0 0 1 18 4.75L18 3.25A0.25 0.25 0 0 0 17.75 3L16.25 3A0.25 0.25 0 0 0 16 3.25L16 3.75A0.25 0.25 0 0 0 16.25 4L16.75 4A0.25 0.25 0 0 1 17 4.25L17 6.75A0.25 0.25 0 0 1 16.75 7L16.25 7A0.25 0.25 0 0 1 16 6.75L16 5.25A0.25 0.25 0 0 0 15.75 5L15.25 5A0.25 0.25 0 0 0 15 5.25L15 6.75A0.25 0.25 0 0 1 14.75 7L14.25 7A0.25 0.25 0 0 1 14 6.75L14 6.25A0.25 0.25 0 0 0 13.75 6L13.25 6A0.25 0.25 0 0 1 13 5.75L13 5.25A0.25 0.25 0 0 0 12.75 5L12.25 5A0.25 0.25 0 0 1 12 4.75L12 4.25A0.25 0.25 0 0 1 12.25 4L12.75 4A0.25 0.25 0 0 0 13 3.75L13 3.25A0.25 0.25 0 0 1 13.25 3L14.75 3A0.25 0.25 0 0 0 15 2.75L15 2.25A0.25 0.25 0 0 0 14.75 2L13.25 2A0.25 0.25 0 0 1 13 1.75L13 1.25A0.25 0.25 0 0 0 12.75 1L11.25 1A0.25 0.25 0 0 0 11 1.25ZM12 6.25L12 6.75A0.25 0.25 0 0 0 12.25 7L12.75 7A0.25 0.25 0 0 1 13 7.25L13 8.75A0.25 0.25 0 0 0 13.25 9L13.75 9A0.25 0.25 0 0 0 14 8.75L14 7.25A0.25 0.25 0 0 0 13.75 7L13.25 7A0.25 0.25 0 0 1 13 6.75L13 6.25A0.25 0.25 0 0 0 12.75 6L12.25 6A0.25 0.25 0 0 0 12 6.25ZM15 7.25L15 7.75A0.25 0.25 0 0 0 15.25 8L15.75 8A0.25 0.25 0 0 0 16 7.75L16 7.25A0.25 0.25 0 0 0 15.75 7L15.25 7A0.25 0.25 0 0 0 15 7.25ZM6 8.25L6 8.75A0.25 0.25 0 0 0 6.25 9L6.75 9A0.25 0.25 0 0 0 7 8.75L7 8.25A0.25 0.25 0 0 0 6.75 8L6.25 8A0.25 0.25 0 0 0 6 8.25ZM19 8.25L19 8.75A0.25 0.25 0 0 0 19.25 9L19.75 9A0.25 0.25 0 0 0 20 8.75L20 8.25A0.25 0.25 0 0 0 19.75 8L19.25 8A0.25 0.25 0 0 0 19 8.25ZM22 10.25L22 11.75A0.25 0.25 0 0 0 22.25 12L22.75 12A0.25 0.25 0 0 0 23 11.75L23 10.25A0.25 0.25 0 0 0 22.75 10L22.25 10A0.25 0.25 0 0 0 22 10.25ZM4 11.25L4 11.75A0.25 0.25 0 0 0 4.25 12L4.75 12A0.25 0.25 0 0 1 5 12.25L5 13.75A0.25 0.25 0 0 0 5.25 14L5.75 14A0.25 0.25 0 0 1 6 14.25L6 14.75A0.25 0.25 0 0 0 6.25 15L6.75 15A0.25 0.25 0 0 0 7 14.75L7 14.25A0.25 0.25 0 0 1 7.25 14L8.75 14A0.25 0.25 0 0 1 9 14.25L9 15.75A0.25 0.25 0 0 0 9.25 16L9.75 16A0.25 0.25 0 0 1 10 16.25L10 16.75A0.25 0.25 0 0 0 10.25 17L10.75 17A0.25 0.25 0 0 0 11 16.75L11 16.25A0.25 0.25 0 0 0 10.75 16L10.25 16A0.25 0.25 0 0 1 10 15.75L10 15.25A0.25 0.25 0 0 1 10.25 15L11.75 15A0.25 0.25 0 0 0 12 14.75L12 14.25A0.25 0.25 0 0 0 11.75 14L11.25 14A0.25 0.25 0 0 1 11 13.75L11 13.25A0.25 0.25 0 0 0 10.75 13L10.25 13A0.25 0.25 0 0 0 10 13.25L10 13.75A0.25 0.25 0 0 1 9.75 14L9.25 14A0.25 0.25 0 0 1 9 13.75L9 12.25A0.25 0.25 0 0 0 8.75 12L5.25 12A0.25 0.25 0 0 1 5 11.75L5 11.25A0.25 0.25 0 0 0 4.75 11L4.25 11A0.25 0.25 0 0 0 4 11.25ZM6 13.25L6 13.75A0.25 0.25 0 0 0 6.25 14L6.75 14A0.25 0.25 0 0 0 7 13.75L7 13.25A0.25 0.25 0 0 0 6.75 13L6.25 13A0.25 0.25 0 0 0 6 13.25ZM20 17.25L20 17.75A0.25 0.25 0 0 0 20.25 18L20.75 18A0.25 0.25 0 0 1 21 18.25L21 19.75A0.25 0.25 0 0 0 21.25 20L21.75 20A0.25 0.25 0 0 0 22 19.75L22 18.25A0.25 0.25 0 0 0 21.75 18L21.25 18A0.25 0.25 0 0 1 21 17.75L21 17.25A0.25 0.25 0 0 0 20.75 17L20.25 17A0.25 0.25 0 0 0 20 17.25ZM27 17.25L27 18.75A0.25 0.25 0 0 1 26.75 19L26.25 19A0.25 0.25 0 0 0 26 19.25L26 19.75A0.25 0.25 0 0 1 25.75 20L25.25 20A0.25 0.25 0 0 0 25 20.25L25 22.75A0.25 0.25 0 0 0 25.25 23L25.75 23A0.25 0.25 0 0 0 26 22.75L26 22.25A0.25 0.25 0 0 1 26.25 22L26.75 22A0.25 0.25 0 0 0 27 21.75L27 21.25A0.25 0.25 0 0 0 26.75 21L26.25 21A0.25 0.25 0 0 1 26 20.75L26 20.25A0.25 0.25 0 0 1 26.25 20L26.75 20A0.25 0.25 0 0 0 27 19.75L27 19.25A0.25 0.25 0 0 1 27.25 19L27.75 19A0.25 0.25 0 0 0 28 18.75L28 17.25A0.25 0.25 0 0 0 27.75 17L27.25 17A0.25 0.25 0 0 0 27 17.25ZM0 20.25L0 20.75A0.25 0.25 0 0 0 0.25 21L0.75 21A0.25 0.25 0 0 0 1 20.75L1 20.25A0.25 0.25 0 0 0 0.75 20L0.25 20A0.25 0.25 0 0 0 0 20.25ZM8 21.25L8 21.75A0.25 0.25 0 0 0 8.25 22L8.75 22A0.25 0.25 0 0 0 9 21.75L9 21.25A0.25 0.25 0 0 0 8.75 21L8.25 21A0.25 0.25 0 0 0 8 21.25ZM11 21.25L11 21.75A0.25 0.25 0 0 0 11.25 22L12.75 22A0.25 0.25 0 0 0 13 21.75L13 21.25A0.25 0.25 0 0 0 12.75 21L11.25 21A0.25 0.25 0 0 0 11 21.25ZM17 21.25L17 21.75A0.25 0.25 0 0 0 17.25 22L17.75 22A0.25 0.25 0 0 0 18 21.75L18 21.25A0.25 0.25 0 0 0 17.75 21L17.25 21A0.25 0.25 0 0 0 17 21.25ZM21 21.25L21 23.75A0.25 0.25 0 0 0 21.25 24L23.75 24A0.25 0.25 0 0 0 24 23.75L24 21.25A0.25 0.25 0 0 0 23.75 21L21.25 21A0.25 0.25 0 0 0 21 21.25ZM19 22.25L19 22.75A0.25 0.25 0 0 1 18.75 23L17.25 23A0.25 0.25 0 0 0 17 23.25L17 24.75A0.25 0.25 0 0 0 17.25 25L17.75 25A0.25 0.25 0 0 0 18 24.75L18 24.25A0.25 0.25 0 0 1 18.25 24L18.75 24A0.25 0.25 0 0 1 19 24.25L19 24.75A0.25 0.25 0 0 0 19.25 25L19.75 25A0.25 0.25 0 0 0 20 24.75L20 22.25A0.25 0.25 0 0 0 19.75 22L19.25 22A0.25 0.25 0 0 0 19 22.25ZM22 22.25L22 22.75A0.25 0.25 0 0 0 22.25 23L22.75 23A0.25 0.25 0 0 0 23 22.75L23 22.25A0.25 0.25 0 0 0 22.75 22L22.25 22A0.25 0.25 0 0 0 22 22.25ZM26 24.25L26 24.75A0.25 0.25 0 0 1 25.75 25L25.25 25A0.25 0.25 0 0 0 25 25.25L25 25.75A0.25 0.25 0 0 0 25.25 26L26.75 26A0.25 0.25 0 0 1 27 26.25L27 26.75A0.25 0.25 0 0 0 27.25 27L27.75 27A0.25 0.25 0 0 0 28 26.75L28 25.25A0.25 0.25 0 0 0 27.75 25L27.25 25A0.25 0.25 0 0 1 27 24.75L27 24.25A0.25 0.25 0 0 0 26.75 24L26.25 24A0.25 0.25 0 0 0 26 24.25ZM9 25.25L9 25.75A0.25 0.25 0 0 0 9.25 26L9.75 26A0.25 0.25 0 0 0 10 25.75L10 25.25A0.25 0.25 0 0 0 9.75 25L9.25 25A0.25 0.25 0 0 0 9 25.25ZM23 25.25L23 25.75A0.25 0.25 0 0 0 23.25 26L23.75 26A0.25 0.25 0 0 0 24 25.75L24 25.25A0.25 0.25 0 0 0 23.75 25L23.25 25A0.25 0.25 0 0 0 23 25.25ZM20 26.25L20 27.75A0.25 0.25 0 0 0 20.25 28L20.75 28A0.25 0.25 0 0 0 21 27.75L21 26.25A0.25 0.25 0 0 0 20.75 26L20.25 26A0.25 0.25 0 0 0 20 26.25ZM13 27.25L13 27.75A0.25 0.25 0 0 1 12.75 28L12.25 28A0.25 0.25 0 0 0 12 28.25L12 28.75A0.25 0.25 0 0 0 12.25 29L12.75 29A0.25 0.25 0 0 0 13 28.75L13 28.25A0.25 0.25 0 0 1 13.25 28L13.75 28A0.25 0.25 0 0 0 14 27.75L14 27.25A0.25 0.25 0 0 0 13.75 27L13.25 27A0.25 0.25 0 0 0 13 27.25ZM0 0.25L0 6.75A0.25 0.25 0 0 0 0.25 7L6.75 7A0.25 0.25 0 0 0 7 6.75L7 0.25A0.25 0.25 0 0 0 6.75 0L0.25 0A0.25 0.25 0 0 0 0 0.25ZM1 1.25L1 5.75A0.25 0.25 0 0 0 1.25 6L5.75 6A0.25 0.25 0 0 0 6 5.75L6 1.25A0.25 0.25 0 0 0 5.75 1L1.25 1A0.25 0.25 0 0 0 1 1.25ZM2 2.25L2 4.75A0.25 0.25 0 0 0 2.25 5L4.75 5A0.25 0.25 0 0 0 5 4.75L5 2.25A0.25 0.25 0 0 0 4.75 2L2.25 2A0.25 0.25 0 0 0 2 2.25ZM22 0.25L22 6.75A0.25 0.25 0 0 0 22.25 7L28.75 7A0.25 0.25 0 0 0 29 6.75L29 0.25A0.25 0.25 0 0 0 28.75 0L22.25 0A0.25 0.25 0 0 0 22 0.25ZM23 1.25L23 5.75A0.25 0.25 0 0 0 23.25 6L27.75 6A0.25 0.25 0 0 0 28 5.75L28 1.25A0.25 0.25 0 0 0 27.75 1L23.25 1A0.25 0.25 0 0 0 23 1.25ZM24 2.25L24 4.75A0.25 0.25 0 0 0 24.25 5L26.75 5A0.25 0.25 0 0 0 27 4.75L27 2.25A0.25 0.25 0 0 0 26.75 2L24.25 2A0.25 0.25 0 0 0 24 2.25ZM0 22.25L0 28.75A0.25 0.25 0 0 0 0.25 29L6.75 29A0.25 0.25 0 0 0 7 28.75L7 22.25A0.25 0.25 0 0 0 6.75 22L0.25 22A0.25 0.25 0 0 0 0 22.25ZM1 23.25L1 27.75A0.25 0.25 0 0 0 1.25 28L5.75 28A0.25 0.25 0 0 0 6 27.75L6 23.25A0.25 0.25 0 0 0 5.75 23L1.25 23A0.25 0.25 0 0 0 1 23.25ZM2 24.25L2 26.75A0.25 0.25 0 0 0 2.25 27L4.75 27A0.25 0.25 0 0 0 5 26.75L5 24.25A0.25 0.25 0 0 0 4.75 24L2.25 24A0.25 0.25 0 0 0 2 24.25Z" fill="#000000"/></g></g></svg>
