<?xml version="1.0" encoding="UTF-8"?>
<svg xmlns="http://www.w3.org/2000/svg" version="1.1" width="200" height="200" viewBox="0 0 200 200"><rect x="0" y="0" width="200" height="200" fill="#ffffff"/><g transform="scale(6.897)"><g transform="translate(0,0)"><path fill-rule="evenodd" d="M8 0.25L8 2.75A0.25 0.25 0 0 0 8.25 3L8.75 3A0.25 0.25 0 0 0 9 2.75L9 1.25A0.25 0.25 0 0 1 9.25 1L9.75 1A0.25 0.25 0 0 1 10 1.25L10 3.75A0.25 0.25 0 0 0 10.25 4L10.75 4A0.25 0.25 0 0 1 11 4.25L11 5.75A0.25 0.25 0 0 1 10.75 6L10.25 6A0.25 0.25 0 0 0 10 6.25L10 6.75A0.25 0.25 0 0 0 10.25 7L10.75 7A0.25 0.25 0 0 1 11 7.25L11 9.75A0.25 0.25 0 0 1 10.75 10L10.25 10A0.25 0.25 0 0 1 10 9.75L10 8.25A0.25 0.25 0 0 0 9.75 8L9.25 8A0.25 0.25 0 0 1 9 7.75L9 5.25A0.25 0.25 0 0 0 8.75 5L8.25 5A0.25 0.25 0 0 0 8 5.25L8 9.75A0.25 0.25 0 0 1 7.75 10L6.25 10A0.25 0.25 0 0 1 6 9.75L6 9.25A0.25 0.25 0 0 1 6.25 9L6.75 9A0.25 0.25 0 0 0 7 8.75L7 8.25A0.25 0.25 0 0 0 6.75 8L6.25 8A0.25 0.25 0 0 0 6 8.25L6 8.75A0.25 0.25 0 0 1 5.75 9L5.25 9A0.25 0.25 0 0 1 5 8.75L5 8.25A0.25 0.25 0 0 0 4.75 8L2.25 8A0.25 0.25 0 0 0 2 8.25L2 8.75A0.25 0.25 0 0 1 1.75 9L1.25 9A0.25 0.25 0 0 0 1 9.25L1 9.75A0.25 0.25 0 0 1 0.75 10L0.25 10A0.25 0.25 0 0 0 0 10.25L0 15.75A0.25 0.25 0 0 0 0.25 16L0.75 16A0.25 0.25 0 0 1 1 16.25L1 16.75A0.25 0.25 0 0 1 0.75 17L0.25 17A0.25 0.25 0 0 0 0 17.25L0 20.75A0.25 0.25 0 0 0 0.25 21L0.75 21A0.25 0.25 0 0 0 1 20.75L1 17.25A0.25 0.25 0 0 1 1.25 17L2.75 17A0.25 0.25 0 0 0 3 16.75L3 16.25A0.25 0.25 0 0 0 2.75 16L1.25 16A0.25 0.25 0 0 1 1 15.75L1 14.25A0.25 0.25 0 0 1 1.25 14L1.75 14A0.25 0.25 0 0 0 2 13.75L2 13.25A0.25 0.25 0 0 0 1.75 13L1.25 13A0.25 0.25 0 0 1 1 12.75L1 12.25A0.25 0.25 0 0 1 1.25 12L5.75 12A0.25 0.25 0 0 1 6 12.25L6 12.75A0.25 0.25 0 0 1 5.75 13L5.25 13A0.25 0.25 0 0 0 5 13.25L5 13.75A0.25 0.25 0 0 1 4.75 14L3.25 14A0.25 0.25 0 0 0 3 14.25L3 14.75A0.25 0.25 0 0 0 3.25 15L4.75 15A0.25 0.25 0 0 1 5 15.25L5 15.75A0.25 0.25 0 0 1 4.75 16L4.25 16A0.25 0.25 0 0 0 4 16.25L4 18.75A0.25 0.25 0 0 1 3.75 19L3.25 19A0.25 0.25 0 0 1 3 18.75L3 18.25A0.25 0.25 0 0 0 2.75 18L2.25 18A0.25 0.25 0 0 0 2 18.25L2 18.75A0.25 0.25 0 0 0 2.25 19L2.75 19A0.25 0.25 0 0 1 3 19.25L3 19.75A0.25 0.25 0 0 1 2.75 20L2.25 20A0.25 0.25 0 0 0 2 20.25L2 20.75A0.25 0.25 0 0 0 2.25 21L6.75 21A0.25 0.25 0 0 0 7 20.75L7 20.25A0.25 0.25 0 0 0 6.75 20L4.25 20A0.25 0.25 0 0 1 4 19.75L4 19.25A0.25 0.25 0 0 1 4.25 19L7.75 19A0.25 0.25 0 0 1 8 19.25L8 21.75A0.25 0.25 0 0 0 8.25 22L8.75 22A0.25 0.25 0 0 1 9 22.25L9 22.75A0.25 0.25 0 0 0 9.25 23L9.75 23A0.25 0.25 0 0 0 10 22.75L10 22.25A0.25 0.25 0 0 1 10.25 22L10.75 22A0.25 0.25 0 0 1 11 22.25L11 22.75A0.25 0.25 0 0 0 11.25 23L11.75 23A0.25 0.25 0 0 0 12 22.75L12 22.25A0.25 0.25 0 0 1 12.25 22L12.75 22A0.25 0.25 0 0 1 13 22.25L13 23.75A0.25 0.25 0 0 1 12.75 24L12.25 24A0.25 0.25 0 0 0 12 24.25L12 24.75A0.25 0.25 0 0 0 12.25 25L12.75 25A0.25 0.25 0 0 1 13 25.25L13 25.75A0.25 0.25 0 0 1 12.75 26L12.25 26A0.25 0.25 0 0 0 12 26.25L12 26.75A0.25 0.25 0 0 1 11.75 27L10.25 27A0.25 0.25 0 0 0 10 27.25L10 27.75A0.25 0.25 0 0 1 9.75 28L9.25 28A0.25 0.25 0 0 0 9 28.25L9 28.75A0.25 0.25 0 0 0 9.25 29L9.75 29A0.25 0.25 0 0 0 10 28.75L10 28.25A0.25 0.25 0 0 1 10.25 28L11.75 28A0.25 0.25 0 0 1 12 28.25L12 28.75A0.25 0.25 0 0 0 12.25 29L14.75 29A0.25 0.25 0 0 0 15 28.75L15 28.25A0.25 0.25 0 0 0 14.75 28L14.25 28A0.25 0.25 0 0 1 14 27.75L14 27.25A0.25 0.25 0 0 1 14.25 27L15.75 27A0.25 0.25 0 0 0 16 26.75L16 26.25A0.25 0.25 0 0 1 16.25 26L16.75 26A0.25 0.25 0 0 1 17 26.25L17 28.75A0.25 0.25 0 0 0 17.25 29L17.75 29A0.25 0.25 0 0 0 18 28.75L18 28.25A0.25 0.25 0 0 1 18.25 28L18.75 28A0.25 0.25 0 0 0 19 27.75L19 27.25A0.25 0.25 0 0 0 18.75 27L18.25 27A0.25 0.25 0 0 1 18 26.75L18 26.25A0.25 0.25 0 0 1 18.25 26L19.75 26A0.25 0.25 0 0 0 20 25.75L20 25.25A0.25 0.25 0 0 1 20.25 25L20.75 25A0.25 0.25 0 0 1 21 25.25L21 25.75A0.25 0.25 0 0 0 21.25 26L21.75 26A0.25 0.25 0 0 1 22 26.25L22 26.75A0.25 0.25 0 0 1 21.75 27L21.25 27A0.25 0.25 0 0 0 21 27.25L21 27.75A0.25 0.25 0 0 0 21.25 28L21.75 28A0.25 0.25 0 0 1 22 28.25L22 28.75A0.25 0.25 0 0 0 22.25 29L26.75 29A0.25 0.25 0 0 0 27 28.75L27 28.25A0.25 0.25 0 0 1 27.25 28L27.75 28A0.25 0.25 0 0 0 28 27.75L28 26.25A0.25 0.25 0 0 0 27.75 26L26.25 26A0.25 0.25 0 0 0 26 26.25L26 26.75A0.25 0.25 0 0 0 26.25 27L26.75 27A0.25 0.25 0 0 1 27 27.25L27 27.75A0.25 0.25 0 0 1 26.75 28L25.25 28A0.25 0.25 0 0 1 25 27.75L25 26.25A0.25 0.25 0 0 0 24.75 26L22.25 26A0.25 0.25 0 0 1 22 25.75L22 25.25A0.25 0.25 0 0 1 22.25 25L26.75 25A0.25 0.25 0 0 0 27 24.75L27 24.25A0.25 0.25 0 0 0 26.75 24L25.25 24A0.25 0.25 0 0 1 25 23.75L25 20.25A0.25 0.25 0 0 1 25.25 20L25.75 20A0.25 0.25 0 0 1 26 20.25L26 20.75A0.25 0.25 0 0 0 26.25 21L26.75 21A0.25 0.25 0 0 0 27 20.75L27 20.25A0.25 0.25 0 0 1 27.25 20L27.75 20A0.25 0.25 0 0 0 28 19.75L28 18.25A0.25 0.25 0 0 1 28.25 18L28.75 18A0.25 0.25 0 0 0 29 17.75L29 17.25A0.25 0.25 0 0 0 28.75 17L28.25 17A0.25 0.25 0 0 1 28 16.75L28 15.25A0.25 0.25 0 0 0 27.75 15L27.25 15A0.25 0.25 0 0 0 27 15.25L27 15.75A0.25 0.25 0 0 1 26.75 16L26.25 16A0.25 0.25 0 0 1 26 15.75L26 14.25A0.25 0.25 0 0 0 25.75 14L25.25 14A0.25 0.25 0 0 1 25 13.75L25 13.25A0.25 0.25 0 0 1 25.25 13L26.75 13A0.25 0.25 0 0 1 27 13.25L27 13.75A0.25 0.25 0 0 0 27.25 14L28.75 14A0.25 0.25 0 0 0 29 13.75L29 13.25A0.25 0.25 0 0 0 28.75 13L28.25 13A0.25 0.25 0 0 1 28 12.75L28 12.25A0.25 0.25 0 0 1 28.25 12L28.75 12A0.25 0.25 0 0 0 29 11.75L29 11.25A0.25 0.25 0 0 0 28.75 11L27.25 11A0.25 0.25 0 0 0 27 11.25L27 11.75A0.25 0.25 0 0 1 26.75 12L25.25 12A0.25 0.25 0 0 1 25 11.75L25 11.25A0.25 0.25 0 0 1 25.25 11L25.75 11A0.25 0.25 0 0 0 26 10.75L26 10.25A0.25 0.25 0 0 0 25.75 10L25.25 10A0.25 0.25 0 0 1 25 9.75L25 9.25A0.25 0.25 0 0 0 24.75 9L24.25 9A0.25 0.25 0 0 1 24 8.75L24 8.25A0.25 0.25 0 0 0 23.75 8L18.25 8A0.25 0.25 0 0 0 18 8.25L18 8.75A0.25 0.25 0 0 1 17.75 9L17.25 9A0.25 0.25 0 0 1 17 8.75L17 5.25A0.25 0.25 0 0 0 16.75 5L16.25 5A0.25 0.25 0 0 0 16 5.25L16 6.75A0.25 0.25 0 0 1 15.75 7L15.25 7A0.25 0.25 0 0 1 15 6.75L15 6.25A0.25 0.25 0 0 0 14.75 6L14.25 6A0.25 0.25 0 0 1 14 5.75L14 5.25A0.25 0.25 0 0 1 14.25 5L14.75 5A0.25 0.25 0 0 0 15 4.75L15 4.25A0.25 0.25 0 0 1 15.25 4L18.75 4A0.25 0.25 0 0 1 19 4.25L19 4.75A0.25 0.25 0 0 1 18.75 5L18.25 5A0.25 0.25 0 0 0 18 5.25L18 6.75A0.25 0.25 0 0 0 18.25 7L18.75 7A0.25 0.25 0 0 0 19 6.75L19 5.25A0.25 0.25 0 0 1 19.25 5L20.75 5A0.25 0.25 0 0 0 21 4.75L21 4.25A0.25 0.25 0 0 0 20.75 4L20.25 4A0.25 0.25 0 0 1 20 3.75L20 3.25A0.25 0.25 0 0 1 20.25 3L20.75 3A0.25 0.25 0 0 0 21 2.75L21 2.25A0.25 0.25 0 0 0 20.75 2L20.25 2A0.25 0.25 0 0 1 20 1.75L20 1.25A0.25 0.25 0 0 1 20.25 1L20.75 1A0.25 0.25 0 0 0 21 0.75L21 0.25A0.25 0.25 0 0 0 20.75 0L20.25 0A0.25 0.25 0 0 0 20 0.25L20 0.75A0.25 0.25 0 0 1 19.75 1L19.25 1A0.25 0.25 0 0 1 19 0.75L19 0.25A0.25 0.25 0 0 0 18.75 0L18.25 0A0.25 0.25 0 0 0 18 0.25L18 0.75A0.25 0.25 0 0 0 18.25 1L18.75 1A0.25 0.25 0 0 1 19 1.25L19 1.75A0.25 0.25 0 0 1 18.75 2L18.25 2A0.25 0.25 0 0 0 18 2.25L18 2.75A0.25 0.25 0 0 1 17.75 3L17.25 3A0.25 0.25 0 0 1 17 2.75L17 0.25A0.25 0.25 0 0 0 16.75 0L15.25 0A0.25 0.25 0 0 0 15 0.25L15 2.75A0.25 0.25 0 0 1 14.75 3L14.25 3A0.25 0.25 0 0 0 14 3.25L14 4.75A0.25 0.25 0 0 1 13.75 5L13.25 5A0.25 0.25 0 0 1 13 4.75L13 4.25A0.25 0.25 0 0 0 12.75 4L12.25 4A0.25 0.25 0 0 1 12 3.75L12 0.25A0.25 0.25 0 0 0 11.75 0L8.25 0A0.25 0.25 0 0 0 8 0.25ZM13 0.25L13 0.75A0.25 0.25 0 0 0 13.25 1L13.75 1A0.25 0.25 0 0 0 14 0.75L14 0.25A0.25 0.25 0 0 0 13.75 0L13.25 0A0.25 0.25 0 0 0 13 0.25ZM11 6.25L11 6.75A0.25 0.25 0 0 0 11.25 7L11.75 7A0.25 0.25 0 0 1 12 7.25L12 7.75A0.25 0.25 0 0 0 12.25 8L13.75 8A0.25 0.25 0 0 1 14 8.25L14 9.75A0.25 0.25 0 0 1 13.75 10L13.25 10A0.25 0.25 0 0 0 13 10.25L13 11.75A0.25 0.25 0 0 1 12.75 12L12.25 12A0.25 0.25 0 0 0 12 12.25L12 12.75A0.25 0.25 0 0 1 11.75 13L11.25 13A0.25 0.25 0 0 1 11 12.75L11 12.25A0.25 0.25 0 0 0 10.75 12L10.25 12A0.25 0.25 0 0 0 10 12.25L10 12.75A0.25 0.25 0 0 1 9.75 13L9.25 13A0.25 0.25 0 0 1 9 12.75L9 12.25A0.25 0.25 0 0 0 8.75 12L7.25 12A0.25 0.25 0 0 1 7 11.75L7 11.25A0.25 0.25 0 0 0 6.75 11L6.25 11A0.25 0.25 0 0 0 6 11.25L6 11.75A0.25 0.25 0 0 0 6.25 12L6.75 12A0.25 0.25 0 0 1 7 12.25L7 12.75A0.25 0.25 0 0 1 6.75 13L6.25 13A0.25 0.25 0 0 0 6 13.25L6 13.75A0.25 0.25 0 0 0 6.25 14L6.75 14A0.25 0.25 0 0 1 7 14.25L7 14.75A0.25 0.25 0 0 1 6.75 15L6.25 15A0.25 0.25 0 0 0 6 15.25L6 15.75A0.25 0.25 0 0 0 6.25 16L6.75 16A0.25 0.25 0 0 1 7 16.25L7 16.75A0.25 0.25 0 0 1 6.75 17L5.25 17A0.25 0.25 0 0 0 5 17.25L5 17.75A0.25 0.25 0 0 0 5.25 18L8.75 18A0.25 0.25 0 0 1 9 18.25L9 18.75A0.25 0.25 0 0 0 9.25 19L11.75 19A0.25 0.25 0 0 1 12 19.25L12 19.75A0.25 0.25 0 0 1 11.75 20L11.25 20A0.25 0.25 0 0 0 11 20.25L11 20.75A0.25 0.25 0 0 0 11.25 21L11.75 21A0.25 0.25 0 0 0 12 20.75L12 20.25A0.25 0.25 0 0 1 12.25 20L12.75 20A0.25 0.25 0 0 1 13 20.25L13 21.75A0.25 0.25 0 0 0 13.25 22L13.75 22A0.25 0.25 0 0 1 14 22.25L14 23.75A0.25 0.25 0 0 1 13.75 24L13.25 24A0.25 0.25 0 0 0 13 24.25L13 24.75A0.25 0.25 0 0 0 13.25 25L13.75 25A0.25 0.25 0 0 0 14 24.75L14 24.25A0.25 0.25 0 0 1 14.25 24L14.75 24A0.25 0.25 0 0 1 15 24.25L15 25.75A0.25 0.25 0 0 0 15.25 26L15.75 26A0.25 0.25 0 0 0 16 25.75L16 24.25A0.25 0.25 0 0 0 15.75 24L15.25 24A0.25 0.25 0 0 1 15 23.75L15 22.25A0.25 0.25 0 0 1 15.25 22L15.75 22A0.25 0.25 0 0 1 16 22.25L16 22.75A0.25 0.25 0 0 0 16.25 23L16.75 23A0.25 0.25 0 0 1 17 23.25L17 23.75A0.25 0.25 0 0 0 17.25 24L17.75 24A0.25 0.25 0 0 1 18 24.25L18 24.75A0.25 0.25 0 0 1 17.75 25L17.25 25A0.25 0.25 0 0 0 17 25.25L17 25.75A0.25 0.25 0 0 0 17.25 26L17.75 26A0.25 0.25 0 0 0 18 25.75L18 25.25A0.25 0.25 0 0 1 18.25 25L19.75 25A0.25 0.25 0 0 0 20 24.75L20 23.25A0.25 0.25 0 0 0 19.75 23L17.25 23A0.25 0.25 0 0 1 17 22.75L17 22.25A0.25 0.25 0 0 1 17.25 22L17.75 22A0.25 0.25 0 0 0 18 21.75L18 21.25A0.25 0.25 0 0 1 18.25 21L18.75 21A0.25 0.25 0 0 0 19 20.75L19 20.25A0.25 0.25 0 0 0 18.75 20L18.25 20A0.25 0.25 0 0 0 18 20.25L18 20.75A0.25 0.25 0 0 1 17.75 21L17.25 21A0.25 0.25 0 0 1 17 20.75L17 19.25A0.25 0.25 0 0 1 17.25 19L18.75 19A0.25 0.25 0 0 0 19 18.75L19 18.25A0.25 0.25 0 0 1 19.25 18L19.75 18A0.25 0.25 0 0 1 20 18.25L20 18.75A0.25 0.25 0 0 0 20.25 19L20.75 19A0.25 0.25 0 0 1 21 19.25L21 19.75A0.25 0.25 0 0 0 21.25 20L21.75 20A0.25 0.25 0 0 0 22 19.75L22 19.25A0.25 0.25 0 0 1 22.25 19L24.75 19A0.25 0.25 0 0 0 25 18.75L25 18.25A0.25 0.25 0 0 1 25.25 18L25.75 18A0.25 0.25 0 0 1 26 18.25L26 19.75A0.25 0.25 0 0 0 26.25 20L26.75 20A0.25 0.25 0 0 0 27 19.75L27 18.25A0.25 0.25 0 0 1 27.25 18L27.75 18A0.25 0.25 0 0 0 28 17.75L28 17.25A0.25 0.25 0 0 0 27.75 17L26.25 17A0.25 0.25 0 0 1 26 16.75L26 16.25A0.25 0.25 0 0 0 25.75 16L23.25 16A0.25 0.25 0 0 1 23 15.75L23 15.25A0.25 0.25 0 0 1 23.25 15L23.75 15A0.25 0.25 0 0 0 24 14.75L24 13.25A0.25 0.25 0 0 1 24.25 13L24.75 13A0.25 0.25 0 0 0 25 12.75L25 12.25A0.25 0.25 0 0 0 24.75 12L24.25 12A0.25 0.25 0 0 0 24 12.25L24 12.75A0.25 0.25 0 0 1 23.75 13L23.25 13A0.25 0.25 0 0 1 23 12.75L23 10.25A0.25 0.25 0 0 1 23.25 10L23.75 10A0.25 0.25 0 0 0 24 9.75L24 9.25A0.25 0.25 0 0 0 23.75 9L23.25 9A0.25 0.25 0 0 0 23 9.25L23 9.75A0.25 0.25 0 0 1 22.75 10L22.25 10A0.25 0.25 0 0 1 22 9.75L22 9.25A0.25 0.25 0 0 0 21.75 9L18.25 9A0.25 0.25 0 0 0 18 9.25L18 9.75A0.25 0.25 0 0 1 17.75 10L17.25 10A0.25 0.25 0 0 0 17 10.25L17 10.75A0.25 0.25 0 0 0 17.25 11L17.75 11A0.25 0.25 0 0 0 18 10.75L18 10.25A0.25 0.25 0 0 1 18.25 10L18.75 10A0.25 0.25 0 0 1 19 10.25L19 12.75A0.25 0.25 0 0 0 19.25 13L19.75 13A0.25 0.25 0 0 1 20 13.25L20 13.75A0.25 0.25 0 0 1 19.75 14L19.25 14A0.25 0.25 0 0 0 19 14.25L19 14.75A0.25 0.25 0 0 0 19.25 15L19.75 15A0.25 0.25 0 0 1 20 15.25L20 15.75A0.25 0.25 0 0 1 19.75 16L19.25 16A0.25 0.25 0 0 0 19 16.25L19 17.75A0.25 0.25 0 0 1 18.75 18L17.25 18A0.25 0.25 0 0 1 17 17.75L17 16.25A0.25 0.25 0 0 1 17.25 16L17.75 16A0.25 0.25 0 0 0 18 15.75L18 13.25A0.25 0.25 0 0 0 17.75 13L17.25 13A0.25 0.25 0 0 0 17 13.25L17 15.75A0.25 0.25 0 0 1 16.75 16L16.25 16A0.25 0.25 0 0 0 16 16.25L16 17.75A0.25 0.25 0 0 1 15.75 18L15.25 18A0.25 0.25 0 0 1 15 17.75L15 14.25A0.25 0.25 0 0 0 14.75 14L13.25 14A0.25 0.25 0 0 1 13 13.75L13 13.25A0.25 0.25 0 0 1 13.25 13L14.75 13A0.25 0.25 0 0 0 15 12.75L15 12.25A0.25 0.25 0 0 1 15.25 12L15.75 12A0.25 0.25 0 0 0 16 11.75L16 11.25A0.25 0.25 0 0 0 15.75 11L14.25 11A0.25 0.25 0 0 1 14 10.75L14 10.25A0.25 0.25 0 0 1 14.25 10L14.75 10A0.25 0.25 0 0 0 15 9.75L15 8.25A0.25 0.25 0 0 0 14.75 8L14.25 8A0.25 0.25 0 0 1 14 7.75L14 6.25A0.25 0.25 0 0 0 13.75 6L13.25 6A0.25 0.25 0 0 0 13 6.25L13 6.75A0.25 0.25 0 0 1 12.75 7L12.25 7A0.25 0.25 0 0 1 12 6.75L12 6.25A0.25 0.25 0 0 0 11.75 6L11.25 6A0.25 0.25 0 0 0 11 6.25ZM20 6.25L20 6.75A0.25 0.25 0 0 0 20.25 7L20.75 7A0.25 0.25 0 0 0 21 6.75L21 6.25A0.25 0.25 0 0 0 20.75 6L20.25 6A0.25 0.25 0 0 0 20 6.25ZM26 8.25L26 8.75A0.25 0.25 0 0 0 26.25 9L26.75 9A0.25 0.25 0 0 1 27 9.25L27 9.75A0.25 0.25 0 0 0 27.25 10L28.75 10A0.25 0.25 0 0 0 29 9.75L29 8.25A0.25 0.25 0 0 0 28.75 8L26.25 8A0.25 0.25 0 0 0 26 8.25ZM2 9.25L2 9.75A0.25 0.25 0 0 0 2.25 10L2.75 10A0.25 0.25 0 0 1 3 10.25L3 10.75A0.25 0.25 0 0 0 3.25 11L3.75 11A0.25 0.25 0 0 0 4 10.75L4 10.25A0.25 0.25 0 0 1 4.25 10L4.75 10A0.25 0.25 0 0 0 5 9.75L5 9.25A0.25 0.25 0 0 0 4.75 9L4.25 9A0.25 0.25 0 0 0 4 9.25L4 9.75A0.25 0.25 0 0 1 3.75 10L3.25 10A0.25 0.25 0 0 1 3 9.75L3 9.25A0.25 0.25 0 0 0 2.75 9L2.25 9A0.25 0.25 0 0 0 2 9.25ZM9 10.25L9 10.75A0.25 0.25 0 0 0 9.25 11L9.75 11A0.25 0.25 0 0 0 10 10.75L10 10.25A0.25 0.25 0 0 0 9.75 10L9.25 10A0.25 0.25 0 0 0 9 10.25ZM20 10.25L20 10.75A0.25 0.25 0 0 0 20.25 11L20.75 11A0.25 0.25 0 0 0 21 10.75L21 10.25A0.25 0.25 0 0 0 20.75 10L20.25 10A0.25 0.25 0 0 0 20 10.25ZM20 12.25L20 12.75A0.25 0.25 0 0 0 20.25 13L21.75 13A0.25 0.25 0 0 1 22 13.25L22 13.75A0.25 0.25 0 0 1 21.75 14L20.25 14A0.25 0.25 0 0 0 20 14.25L20 14.75A0.25 0.25 0 0 0 20.25 15L20.75 15A0.25 0.25 0 0 1 21 15.25L21 15.75A0.25 0.25 0 0 0 21.25 16L21.75 16A0.25 0.25 0 0 0 22 15.75L22 15.25A0.25 0.25 0 0 1 22.25 15L22.75 15A0.25 0.25 0 0 0 23 14.75L23 13.25A0.25 0.25 0 0 0 22.75 13L22.25 13A0.25 0.25 0 0 1 22 12.75L22 12.25A0.25 0.25 0 0 0 21.75 12L20.25 12A0.25 0.25 0 0 0 20 12.25ZM7 13.25L7 13.75A0.25 0.25 0 0 0 7.25 14L8.75 14A0.25 0.25 0 0 0 9 13.75L9 13.25A0.25 0.25 0 0 0 8.75 13L7.25 13A0.25 0.25 0 0 0 7 13.25ZM11 14.25L11 14.75A0.25 0.25 0 0 0 11.25 15L11.75 15A0.25 0.25 0 0 1 12 15.25L12 15.75A0.25 0.25 0 0 0 12.25 16L12.75 16A0.25 0.25 0 0 0 13 15.75L13 15.25A0.25 0.25 0 0 0 12.75 15L12.25 15A0.25 0.25 0 0 1 12 14.75L12 14.25A0.25 0.25 0 0 0 11.75 14L11.25 14A0.25 0.25 0 0 0 11 14.25ZM7 15.25L7 15.75A0.25 0.25 0 0 0 7.25 16L7.75 16A0.25 0.25 0 0 1 8 16.25L8 16.75A0.25 0.25 0 0 0 8.25 17L8.75 17A0.25 0.25 0 0 0 9 16.75L9 16.25A0.25 0.25 0 0 1 9.25 16L9.75 16A0.25 0.25 0 0 1 10 16.25L10 16.75A0.25 0.25 0 0 0 10.25 17L10.75 17A0.25 0.25 0 0 0 11 16.75L11 16.25A0.25 0.25 0 0 0 10.75 16L10.25 16A0.25 0.25 0 0 1 10 15.75L10 15.25A0.25 0.25 0 0 0 9.75 15L7.25 15A0.25 0.25 0 0 0 7 15.25ZM13 17.25L13 17.75A0.25 0.25 0 0 1 12.75 18L12.25 18A0.25 0.25 0 0 0 12 18.25L12 18.75A0.25 0.25 0 0 0 12.25 19L12.75 19A0.25 0.25 0 0 1 13 19.25L13 19.75A0.25 0.25 0 0 0 13.25 20L13.75 20A0.25 0.25 0 0 1 14 20.25L14 20.75A0.25 0.25 0 0 0 14.25 21L14.75 21A0.25 0.25 0 0 0 15 20.75L15 20.25A0.25 0.25 0 0 0 14.75 20L14.25 20A0.25 0.25 0 0 1 14 19.75L14 19.25A0.25 0.25 0 0 1 14.25 19L14.75 19A0.25 0.25 0 0 0 15 18.75L15 18.25A0.25 0.25 0 0 0 14.75 18L14.25 18A0.25 0.25 0 0 1 14 17.75L14 17.25A0.25 0.25 0 0 0 13.75 17L13.25 17A0.25 0.25 0 0 0 13 17.25ZM20 17.25L20 17.75A0.25 0.25 0 0 0 20.25 18L24.75 18A0.25 0.25 0 0 0 25 17.75L25 17.25A0.25 0.25 0 0 0 24.75 17L20.25 17A0.25 0.25 0 0 0 20 17.25ZM16 18.25L16 18.75A0.25 0.25 0 0 0 16.25 19L16.75 19A0.25 0.25 0 0 0 17 18.75L17 18.25A0.25 0.25 0 0 0 16.75 18L16.25 18A0.25 0.25 0 0 0 16 18.25ZM9 20.25L9 21.75A0.25 0.25 0 0 0 9.25 22L9.75 22A0.25 0.25 0 0 0 10 21.75L10 20.25A0.25 0.25 0 0 0 9.75 20L9.25 20A0.25 0.25 0 0 0 9 20.25ZM21 21.25L21 23.75A0.25 0.25 0 0 0 21.25 24L23.75 24A0.25 0.25 0 0 0 24 23.75L24 21.25A0.25 0.25 0 0 0 23.75 21L21.25 21A0.25 0.25 0 0 0 21 21.25ZM28 21.25L28 21.75A0.25 0.25 0 0 1 27.75 22L26.25 22A0.25 0.25 0 0 0 26 22.25L26 22.75A0.25 0.25 0 0 0 26.25 23L27.75 23A0.25 0.25 0 0 0 28 22.75L28 22.25A0.25 0.25 0 0 1 28.25 22L28.75 22A0.25 0.25 0 0 0 29 21.75L29 21.25A0.25 0.25 0 0 0 28.75 21L28.25 21A0.25 0.25 0 0 0 28 21.25ZM22 22.25L22 22.75A0.25 0.25 0 0 0 22.25 23L22.75 23A0.25 0.25 0 0 0 23 22.75L23 22.25A0.25 0.25 0 0 0 22.75 22L22.25 22A0.25 0.25 0 0 0 22 22.25ZM8 24.25L8 26.75A0.25 0.25 0 0 0 8.25 27L8.75 27A0.25 0.25 0 0 0 9 26.75L9 24.25A0.25 0.25 0 0 0 8.75 24L8.25 24A0.25 0.25 0 0 0 8 24.25ZM10 24.25L10 25.75A0.25 0.25 0 0 0 10.25 26L10.75 26A0.25 0.25 0 0 0 11 25.75L11 24.25A0.25 0.25 0 0 0 10.75 24L10.25 24A0.25 0.25 0 0 0 10 24.25ZM13 26.25L13 26.75A0.25 0.25 0 0 0 13.25 27L13.75 27A0.25 0.25 0 0 0 14 26.75L14 26.25A0.25 0.25 0 0 0 13.75 26L13.25 26A0.25 0.25 0 0 0 13 26.25ZM22 27.25L22 27.75A0.25 0.25 0 0 0 22.25 28L22.75 28A0.25 0.25 0 0 0 23 27.75L23 27.25A0.25 0.25 0 0 0 22.75 27L22.25 27A0.25 0.25 0 0 0 22 27.25ZM0 0.25L0 6.75A0.25 0.25 0 0 0 0.25 7L6.75 7A0.25 0.25 0 0 0 7 6.75L7 0.25A0.25 0.25 0 0 0 6.75 0L0.25 0A0.25 0.25 0 0 0 0 0.25ZM1 1.25L1 5.75A0.25 0.25 0 0 0 1.25 6L5.75 6A0.25 0.25 0 0 0 6 5.75L6 1.25A0.25 0.25 0 0 0 5.75 1L1.25 1A0.25 0.25 0 0 0 1 1.25ZM2 2.25L2 4.75A0.25 0.25 0 0 0 2.25 5L4.75 5A0.25 0.25 0 0 0 5 4.75L5 2.25A0.25 0.25 0 0 0 4.75 2L2.25 2A0.25 0.25 0 0 0 2 2.25ZM22 0.25L22 6.75A0.25 0.25 0 0 0 22.25 7L28.75 7A0.25 0.25 0 0 0 29 6.75L29 0.25A0.25 0.25 0 0 0 28.75 0L22.25 0A0.25 0.25 0 0 0 22 0.25ZM23 1.25L23 5.75A0.25 0.25 0 0 0 23.25 6L27.75 6A0.25 0.25 0 0 0 28 5.75L28 1.25A0.25 0.25 0 0 0 27.75 1L23.25 1A0.25 0.25 0 0 0 23 1.25ZM24 2.25L24 4.75A0.25 0.25 0 0 0 24.25 5L26.75 5A0.25 0.25 0 0 0 27 4.75L27 2.25A0.25 0.25 0 0 0 26.75 2L24.25 2A0.25 0.25 0 0 0 24 2.25ZM0 22.25L0 28.75A0.25 0.25 0 0 0 0.25 29L6.75 29A0.25 0.25 0 0 0 7 28.75L7 22.25A0.25 0.25 0 0 0 6.75 22L0.25 22A0.25 0.25 0 0 0 0 22.25ZM1 23.25L1 27.75A0.25 0.25 0 0 0 1.25 28L5.75 28A0.25 0.25 0 0 0 6 27.75L6 23.25A0.25 0.25 0 0 0 5.75 23L1.25 23A0.25 0.25 0 0 0 1 23.25ZM2 24.25L2 26.75A0.25 0.25 0 0 0 2.25 27L4.75 27A0.25 0.25 0 0 0 5 26.75L5 24.25A0.25 0.25 0 0 0 4.75 24L2.25 24A0.25 0.25 0 0 0 2 24.25Z" fill="#000000"/></g></g></svg>
