<?xml version="1.0" encoding="UTF-8"?>
<svg xmlns="http://www.w3.org/2000/svg" version="1.1" width="200" height="200" viewBox="0 0 200 200"><rect x="0" y="0" width="200" height="200" fill="#ffffff"/><g transform="scale(6.897)"><g transform="translate(0,0)"><path fill-rule="evenodd" d="M8 0.25L8 2.75A0.25 0.25 0 0 0 8.25 3L10.75 3A0.25 0.25 0 0 0 11 2.75L11 2.25A0.25 0.25 0 0 1 11.25 2L11.75 2A0.25 0.25 0 0 1 12 2.25L12 6.75A0.25 0.25 0 0 1 11.75 7L11.25 7A0.25 0.25 0 0 1 11 6.75L11 6.25A0.25 0.25 0 0 0 10.75 6L10.25 6A0.25 0.25 0 0 1 10 5.75L10 5.25A0.25 0.25 0 0 1 10.25 5L10.75 5A0.25 0.25 0 0 0 11 4.75L11 4.25A0.25 0.25 0 0 0 10.75 4L10.25 4A0.25 0.25 0 0 0 10 4.25L10 4.75A0.25 0.25 0 0 1 9.75 5L8.25 5A0.25 0.25 0 0 0 8 5.25L8 8.75A0.25 0.25 0 0 1 7.75 9L7.25 9A0.25 0.25 0 0 1 7 8.75L7 8.25A0.25 0.25 0 0 0 6.75 8L6.25 8A0.25 0.25 0 0 0 6 8.25L6 8.75A0.25 0.25 0 0 0 6.25 9L6.75 9A0.25 0.25 0 0 1 7 9.25L7 9.75A0.25 0.25 0 0 1 6.75 10L6.25 10A0.25 0.25 0 0 0 6 10.25L6 10.75A0.25 0.25 0 0 0 6.25 11L10.75 11A0.25 0.25 0 0 0 11 10.75L11 10.25A0.25 0.25 0 0 1 11.25 10L11.75 10A0.25 0.25 0 0 0 12 9.75L12 9.25A0.25 0.25 0 0 1 12.25 9L12.75 9A0.25 0.25 0 0 1 13 9.25L13 10.75A0.25 0.25 0 0 0 13.25 11L13.75 11A0.25 0.25 0 0 1 14 11.25L14 11.75A0.25 0.25 0 0 0 14.25 12L14.75 12A0.25 0.25 0 0 1 15 12.25L15 12.75A0.25 0.25 0 0 0 15.25 13L16.75 13A0.25 0.25 0 0 1 17 13.25L17 13.75A0.25 0.25 0 0 0 17.25 14L17.75 14A0.25 0.25 0 0 1 18 14.25L18 14.75A0.25 0.25 0 0 0 18.25 15L18.75 15A0.25 0.25 0 0 0 19 14.75L19 14.25A0.25 0.25 0 0 1 19.25 14L19.75 14A0.25 0.25 0 0 0 20 13.75L20 13.25A0.25 0.25 0 0 1 20.25 13L21.75 13A0.25 0.25 0 0 1 22 13.25L22 13.75A0.25 0.25 0 0 0 22.25 14L22.75 14A0.25 0.25 0 0 1 23 14.25L23 15.75A0.25 0.25 0 0 0 23.25 16L24.75 16A0.25 0.25 0 0 1 25 16.25L25 16.75A0.25 0.25 0 0 1 24.75 17L22.25 17A0.25 0.25 0 0 1 22 16.75L22 16.25A0.25 0.25 0 0 0 21.75 16L21.25 16A0.25 0.25 0 0 0 21 16.25L21 16.75A0.25 0.25 0 0 1 20.75 17L20.25 17A0.25 0.25 0 0 1 20 16.75L20 16.25A0.25 0.25 0 0 0 19.75 16L16.25 16A0.25 0.25 0 0 1 16 15.75L16 14.25A0.25 0.25 0 0 0 15.75 14L15.25 14A0.25 0.25 0 0 0 15 14.25L15 14.75A0.25 0.25 0 0 1 14.75 15L14.25 15A0.25 0.25 0 0 1 14 14.75L14 13.25A0.25 0.25 0 0 0 13.75 13L12.25 13A0.25 0.25 0 0 1 12 12.75L12 12.25A0.25 0.25 0 0 0 11.75 12L10.25 12A0.25 0.25 0 0 0 10 12.25L10 15.75A0.25 0.25 0 0 1 9.75 16L6.25 16A0.25 0.25 0 0 1 6 15.75L6 15.25A0.25 0.25 0 0 1 6.25 15L6.75 15A0.25 0.25 0 0 0 7 14.75L7 14.25A0.25 0.25 0 0 0 6.75 14L4.25 14A0.25 0.25 0 0 1 4 13.75L4 13.25A0.25 0.25 0 0 0 3.75 13L3.25 13A0.25 0.25 0 0 1 3 12.75L3 11.25A0.25 0.25 0 0 1 3.25 11L4.75 11A0.25 0.25 0 0 0 5 10.75L5 10.25A0.25 0.25 0 0 0 4.75 10L4.25 10A0.25 0.25 0 0 1 4 9.75L4 9.25A0.25 0.25 0 0 1 4.25 9L4.75 9A0.25 0.25 0 0 0 5 8.75L5 8.25A0.25 0.25 0 0 0 4.75 8L2.25 8A0.25 0.25 0 0 0 2 8.25L2 8.75A0.25 0.25 0 0 1 1.75 9L0.25 9A0.25 0.25 0 0 0 0 9.25L0 9.75A0.25 0.25 0 0 0 0.25 10L1.75 10A0.25 0.25 0 0 0 2 9.75L2 9.25A0.25 0.25 0 0 1 2.25 9L2.75 9A0.25 0.25 0 0 1 3 9.25L3 10.75A0.25 0.25 0 0 1 2.75 11L2.25 11A0.25 0.25 0 0 0 2 11.25L2 12.75A0.25 0.25 0 0 1 1.75 13L1.25 13A0.25 0.25 0 0 1 1 12.75L1 12.25A0.25 0.25 0 0 0 0.75 12L0.25 12A0.25 0.25 0 0 0 0 12.25L0 12.75A0.25 0.25 0 0 0 0.25 13L0.75 13A0.25 0.25 0 0 1 1 13.25L1 14.75A0.25 0.25 0 0 1 0.75 15L0.25 15A0.25 0.25 0 0 0 0 15.25L0 20.75A0.25 0.25 0 0 0 0.25 21L0.75 21A0.25 0.25 0 0 0 1 20.75L1 18.25A0.25 0.25 0 0 1 1.25 18L1.75 18A0.25 0.25 0 0 1 2 18.25L2 18.75A0.25 0.25 0 0 0 2.25 19L2.75 19A0.25 0.25 0 0 1 3 19.25L3 19.75A0.25 0.25 0 0 1 2.75 20L2.25 20A0.25 0.25 0 0 0 2 20.25L2 20.75A0.25 0.25 0 0 0 2.25 21L3.75 21A0.25 0.25 0 0 0 4 20.75L4 20.25A0.25 0.25 0 0 1 4.25 20L4.75 20A0.25 0.25 0 0 1 5 20.25L5 20.75A0.25 0.25 0 0 0 5.25 21L7.75 21A0.25 0.25 0 0 1 8 21.25L8 21.75A0.25 0.25 0 0 0 8.25 22L9.75 22A0.25 0.25 0 0 1 10 22.25L10 22.75A0.25 0.25 0 0 1 9.75 23L9.25 23A0.25 0.25 0 0 0 9 23.25L9 23.75A0.25 0.25 0 0 1 8.75 24L8.25 24A0.25 0.25 0 0 0 8 24.25L8 26.75A0.25 0.25 0 0 0 8.25 27L9.75 27A0.25 0.25 0 0 0 10 26.75L10 26.25A0.25 0.25 0 0 1 10.25 26L10.75 26A0.25 0.25 0 0 1 11 26.25L11 27.75A0.25 0.25 0 0 1 10.75 28L9.25 28A0.25 0.25 0 0 0 9 28.25L9 28.75A0.25 0.25 0 0 0 9.25 29L12.75 29A0.25 0.25 0 0 0 13 28.75L13 28.25A0.25 0.25 0 0 0 12.75 28L12.25 28A0.25 0.25 0 0 1 12 27.75L12 27.25A0.25 0.25 0 0 1 12.25 27L13.75 27A0.25 0.25 0 0 1 14 27.25L14 28.75A0.25 0.25 0 0 0 14.25 29L14.75 29A0.25 0.25 0 0 0 15 28.75L15 27.25A0.25 0.25 0 0 0 14.75 27L14.25 27A0.25 0.25 0 0 1 14 26.75L14 26.25A0.25 0.25 0 0 1 14.25 26L15.75 26A0.25 0.25 0 0 1 16 26.25L16 27.75A0.25 0.25 0 0 0 16.25 28L16.75 28A0.25 0.25 0 0 0 17 27.75L17 27.25A0.25 0.25 0 0 1 17.25 27L17.75 27A0.25 0.25 0 0 0 18 26.75L18 24.25A0.25 0.25 0 0 1 18.25 24L18.75 24A0.25 0.25 0 0 0 19 23.75L19 23.25A0.25 0.25 0 0 1 19.25 23L19.75 23A0.25 0.25 0 0 1 20 23.25L20 24.75A0.25 0.25 0 0 1 19.75 25L19.25 25A0.25 0.25 0 0 0 19 25.25L19 25.75A0.25 0.25 0 0 0 19.25 26L21.75 26A0.25 0.25 0 0 1 22 26.25L22 26.75A0.25 0.25 0 0 0 22.25 27L22.75 27A0.25 0.25 0 0 0 23 26.75L23 26.25A0.25 0.25 0 0 1 23.25 26L23.75 26A0.25 0.25 0 0 1 24 26.25L24 26.75A0.25 0.25 0 0 0 24.25 27L26.75 27A0.25 0.25 0 0 1 27 27.25L27 27.75A0.25 0.25 0 0 1 26.75 28L22.25 28A0.25 0.25 0 0 0 22 28.25L22 28.75A0.25 0.25 0 0 0 22.25 29L26.75 29A0.25 0.25 0 0 0 27 28.75L27 28.25A0.25 0.25 0 0 1 27.25 28L27.75 28A0.25 0.25 0 0 0 28 27.75L28 26.25A0.25 0.25 0 0 0 27.75 26L26.25 26A0.25 0.25 0 0 1 26 25.75L26 25.25A0.25 0.25 0 0 1 26.25 25L26.75 25A0.25 0.25 0 0 0 27 24.75L27 24.25A0.25 0.25 0 0 1 27.25 24L28.75 24A0.25 0.25 0 0 0 29 23.75L29 23.25A0.25 0.25 0 0 0 28.75 23L28.25 23A0.25 0.25 0 0 1 28 22.75L28 22.25A0.25 0.25 0 0 1 28.25 22L28.75 22A0.25 0.25 0 0 0 29 21.75L29 21.25A0.25 0.25 0 0 0 28.75 21L28.25 21A0.25 0.25 0 0 0 28 21.25L28 21.75A0.25 0.25 0 0 1 27.75 22L26.25 22A0.25 0.25 0 0 1 26 21.75L26 21.25A0.25 0.25 0 0 1 26.25 21L26.75 21A0.25 0.25 0 0 0 27 20.75L27 20.25A0.25 0.25 0 0 1 27.25 20L27.75 20A0.25 0.25 0 0 0 28 19.75L28 19.25A0.25 0.25 0 0 0 27.75 19L27.25 19A0.25 0.25 0 0 1 27 18.75L27 18.25A0.25 0.25 0 0 1 27.25 18L28.75 18A0.25 0.25 0 0 0 29 17.75L29 17.25A0.25 0.25 0 0 0 28.75 17L28.25 17A0.25 0.25 0 0 1 28 16.75L28 14.25A0.25 0.25 0 0 1 28.25 14L28.75 14A0.25 0.25 0 0 0 29 13.75L29 13.25A0.25 0.25 0 0 0 28.75 13L28.25 13A0.25 0.25 0 0 0 28 13.25L28 13.75A0.25 0.25 0 0 1 27.75 14L27.25 14A0.25 0.25 0 0 0 27 14.25L27 15.75A0.25 0.25 0 0 1 26.75 16L25.25 16A0.25 0.25 0 0 1 25 15.75L25 15.25A0.25 0.25 0 0 1 25.25 15L25.75 15A0.25 0.25 0 0 0 26 14.75L26 14.25A0.25 0.25 0 0 0 25.75 14L25.25 14A0.25 0.25 0 0 1 25 13.75L25 13.25A0.25 0.25 0 0 1 25.25 13L26.75 13A0.25 0.25 0 0 0 27 12.75L27 12.25A0.25 0.25 0 0 1 27.25 12L27.75 12A0.25 0.25 0 0 0 28 11.75L28 11.25A0.25 0.25 0 0 0 27.75 11L27.25 11A0.25 0.25 0 0 0 27 11.25L27 11.75A0.25 0.25 0 0 1 26.75 12L25.25 12A0.25 0.25 0 0 1 25 11.75L25 10.25A0.25 0.25 0 0 1 25.25 10L25.75 10A0.25 0.25 0 0 0 26 9.75L26 9.25A0.25 0.25 0 0 1 26.25 9L26.75 9A0.25 0.25 0 0 1 27 9.25L27 9.75A0.25 0.25 0 0 0 27.25 10L28.75 10A0.25 0.25 0 0 0 29 9.75L29 8.25A0.25 0.25 0 0 0 28.75 8L26.25 8A0.25 0.25 0 0 0 26 8.25L26 8.75A0.25 0.25 0 0 1 25.75 9L24.25 9A0.25 0.25 0 0 1 24 8.75L24 8.25A0.25 0.25 0 0 0 23.75 8L21.25 8A0.25 0.25 0 0 1 21 7.75L21 6.25A0.25 0.25 0 0 0 20.75 6L20.25 6A0.25 0.25 0 0 0 20 6.25L20 6.75A0.25 0.25 0 0 1 19.75 7L19.25 7A0.25 0.25 0 0 1 19 6.75L19 5.25A0.25 0.25 0 0 1 19.25 5L20.75 5A0.25 0.25 0 0 0 21 4.75L21 4.25A0.25 0.25 0 0 0 20.75 4L20.25 4A0.25 0.25 0 0 1 20 3.75L20 3.25A0.25 0.25 0 0 1 20.25 3L20.75 3A0.25 0.25 0 0 0 21 2.75L21 2.25A0.25 0.25 0 0 0 20.75 2L20.25 2A0.25 0.25 0 0 1 20 1.75L20 1.25A0.25 0.25 0 0 1 20.25 1L20.75 1A0.25 0.25 0 0 0 21 0.75L21 0.25A0.25 0.25 0 0 0 20.75 0L20.25 0A0.25 0.25 0 0 0 20 0.25L20 0.75A0.25 0.25 0 0 1 19.75 1L19.25 1A0.25 0.25 0 0 1 19 0.75L19 0.25A0.25 0.25 0 0 0 18.75 0L18.25 0A0.25 0.25 0 0 0 18 0.25L18 0.75A0.25 0.25 0 0 1 17.75 1L17.25 1A0.25 0.25 0 0 1 17 0.75L17 0.25A0.25 0.25 0 0 0 16.75 0L13.25 0A0.25 0.25 0 0 0 13 0.25L13 0.75A0.25 0.25 0 0 1 12.75 1L12.25 1A0.25 0.25 0 0 1 12 0.75L12 0.25A0.25 0.25 0 0 0 11.75 0L8.25 0A0.25 0.25 0 0 0 8 0.25ZM10 1.25L10 1.75A0.25 0.25 0 0 0 10.25 2L10.75 2A0.25 0.25 0 0 0 11 1.75L11 1.25A0.25 0.25 0 0 0 10.75 1L10.25 1A0.25 0.25 0 0 0 10 1.25ZM15 2.25L15 3.75A0.25 0.25 0 0 0 15.25 4L15.75 4A0.25 0.25 0 0 1 16 4.25L16 4.75A0.25 0.25 0 0 0 16.25 5L16.75 5A0.25 0.25 0 0 1 17 5.25L17 6.75A0.25 0.25 0 0 1 16.75 7L16.25 7A0.25 0.25 0 0 1 16 6.75L16 6.25A0.25 0.25 0 0 0 15.75 6L15.25 6A0.25 0.25 0 0 0 15 6.25L15 6.75A0.25 0.25 0 0 1 14.75 7L14.25 7A0.25 0.25 0 0 1 14 6.75L14 3.25A0.25 0.25 0 0 0 13.75 3L13.25 3A0.25 0.25 0 0 0 13 3.25L13 6.75A0.25 0.25 0 0 0 13.25 7L13.75 7A0.25 0.25 0 0 1 14 7.25L14 7.75A0.25 0.25 0 0 1 13.75 8L13.25 8A0.25 0.25 0 0 0 13 8.25L13 8.75A0.25 0.25 0 0 0 13.25 9L13.75 9A0.25 0.25 0 0 1 14 9.25L14 10.75A0.25 0.25 0 0 0 14.25 11L14.75 11A0.25 0.25 0 0 1 15 11.25L15 11.75A0.25 0.25 0 0 0 15.25 12L16.75 12A0.25 0.25 0 0 0 17 11.75L17 10.25A0.25 0.25 0 0 0 16.75 10L16.25 10A0.25 0.25 0 0 0 16 10.25L16 10.75A0.25 0.25 0 0 1 15.75 11L15.25 11A0.25 0.25 0 0 1 15 10.75L15 9.25A0.25 0.25 0 0 1 15.25 9L15.75 9A0.25 0.25 0 0 0 16 8.75L16 8.25A0.25 0.25 0 0 1 16.25 8L16.75 8A0.25 0.25 0 0 1 17 8.25L17 8.75A0.25 0.25 0 0 0 17.25 9L17.75 9A0.25 0.25 0 0 1 18 9.25L18 10.75A0.25 0.25 0 0 0 18.25 11L18.75 11A0.25 0.25 0 0 1 19 11.25L19 11.75A0.25 0.25 0 0 1 18.75 12L18.25 12A0.25 0.25 0 0 0 18 12.25L18 12.75A0.25 0.25 0 0 0 18.25 13L19.75 13A0.25 0.25 0 0 0 20 12.75L20 12.25A0.25 0.25 0 0 1 20.25 12L21.75 12A0.25 0.25 0 0 1 22 12.25L22 12.75A0.25 0.25 0 0 0 22.25 13L24.75 13A0.25 0.25 0 0 0 25 12.75L25 12.25A0.25 0.25 0 0 0 24.75 12L24.25 12A0.25 0.25 0 0 1 24 11.75L24 11.25A0.25 0.25 0 0 0 23.75 11L23.25 11A0.25 0.25 0 0 1 23 10.75L23 10.25A0.25 0.25 0 0 0 22.75 10L22.25 10A0.25 0.25 0 0 0 22 10.25L22 10.75A0.25 0.25 0 0 1 21.75 11L20.25 11A0.25 0.25 0 0 1 20 10.75L20 10.25A0.25 0.25 0 0 1 20.25 10L20.75 10A0.25 0.25 0 0 0 21 9.75L21 9.25A0.25 0.25 0 0 0 20.75 9L20.25 9A0.25 0.25 0 0 1 20 8.75L20 8.25A0.25 0.25 0 0 0 19.75 8L19.25 8A0.25 0.25 0 0 1 19 7.75L19 7.25A0.25 0.25 0 0 0 18.75 7L18.25 7A0.25 0.25 0 0 1 18 6.75L18 4.25A0.25 0.25 0 0 1 18.25 4L18.75 4A0.25 0.25 0 0 0 19 3.75L19 3.25A0.25 0.25 0 0 0 18.75 3L18.25 3A0.25 0.25 0 0 1 18 2.75L18 2.25A0.25 0.25 0 0 0 17.75 2L15.25 2A0.25 0.25 0 0 0 15 2.25ZM17 3.25L17 3.75A0.25 0.25 0 0 0 17.25 4L17.75 4A0.25 0.25 0 0 0 18 3.75L18 3.25A0.25 0.25 0 0 0 17.75 3L17.25 3A0.25 0.25 0 0 0 17 3.25ZM9 6.25L9 8.75A0.25 0.25 0 0 1 8.75 9L8.25 9A0.25 0.25 0 0 0 8 9.25L8 9.75A0.25 0.25 0 0 0 8.25 10L9.75 10A0.25 0.25 0 0 0 10 9.75L10 6.25A0.25 0.25 0 0 0 9.75 6L9.25 6A0.25 0.25 0 0 0 9 6.25ZM11 8.25L11 8.75A0.25 0.25 0 0 0 11.25 9L11.75 9A0.25 0.25 0 0 0 12 8.75L12 8.25A0.25 0.25 0 0 0 11.75 8L11.25 8A0.25 0.25 0 0 0 11 8.25ZM18 8.25L18 8.75A0.25 0.25 0 0 0 18.25 9L18.75 9A0.25 0.25 0 0 0 19 8.75L19 8.25A0.25 0.25 0 0 0 18.75 8L18.25 8A0.25 0.25 0 0 0 18 8.25ZM6 12.25L6 12.75A0.25 0.25 0 0 0 6.25 13L6.75 13A0.25 0.25 0 0 0 7 12.75L7 12.25A0.25 0.25 0 0 0 6.75 12L6.25 12A0.25 0.25 0 0 0 6 12.25ZM8 13.25L8 13.75A0.25 0.25 0 0 0 8.25 14L8.75 14A0.25 0.25 0 0 0 9 13.75L9 13.25A0.25 0.25 0 0 0 8.75 13L8.25 13A0.25 0.25 0 0 0 8 13.25ZM2 14.25L2 14.75A0.25 0.25 0 0 0 2.25 15L2.75 15A0.25 0.25 0 0 1 3 15.25L3 15.75A0.25 0.25 0 0 1 2.75 16L1.25 16A0.25 0.25 0 0 0 1 16.25L1 16.75A0.25 0.25 0 0 0 1.25 17L1.75 17A0.25 0.25 0 0 1 2 17.25L2 17.75A0.25 0.25 0 0 0 2.25 18L3.75 18A0.25 0.25 0 0 1 4 18.25L4 18.75A0.25 0.25 0 0 0 4.25 19L4.75 19A0.25 0.25 0 0 0 5 18.75L5 18.25A0.25 0.25 0 0 1 5.25 18L6.75 18A0.25 0.25 0 0 0 7 17.75L7 17.25A0.25 0.25 0 0 0 6.75 17L6.25 17A0.25 0.25 0 0 1 6 16.75L6 16.25A0.25 0.25 0 0 0 5.75 16L4.25 16A0.25 0.25 0 0 1 4 15.75L4 14.25A0.25 0.25 0 0 0 3.75 14L2.25 14A0.25 0.25 0 0 0 2 14.25ZM13 15.25L13 16.75A0.25 0.25 0 0 1 12.75 17L11.25 17A0.25 0.25 0 0 1 11 16.75L11 16.25A0.25 0.25 0 0 0 10.75 16L10.25 16A0.25 0.25 0 0 0 10 16.25L10 16.75A0.25 0.25 0 0 1 9.75 17L9.25 17A0.25 0.25 0 0 0 9 17.25L9 17.75A0.25 0.25 0 0 1 8.75 18L8.25 18A0.25 0.25 0 0 0 8 18.25L8 18.75A0.25 0.25 0 0 0 8.25 19L8.75 19A0.25 0.25 0 0 1 9 19.25L9 20.75A0.25 0.25 0 0 0 9.25 21L9.75 21A0.25 0.25 0 0 1 10 21.25L10 21.75A0.25 0.25 0 0 0 10.25 22L10.75 22A0.25 0.25 0 0 0 11 21.75L11 21.25A0.25 0.25 0 0 1 11.25 21L12.75 21A0.25 0.25 0 0 1 13 21.25L13 22.75A0.25 0.25 0 0 0 13.25 23L14.75 23A0.25 0.25 0 0 0 15 22.75L15 22.25A0.25 0.25 0 0 1 15.25 22L16.75 22A0.25 0.25 0 0 1 17 22.25L17 22.75A0.25 0.25 0 0 1 16.75 23L16.25 23A0.25 0.25 0 0 0 16 23.25L16 23.75A0.25 0.25 0 0 1 15.75 24L15.25 24A0.25 0.25 0 0 0 15 24.25L15 24.75A0.25 0.25 0 0 0 15.25 25L16.75 25A0.25 0.25 0 0 0 17 24.75L17 24.25A0.25 0.25 0 0 1 17.25 24L17.75 24A0.25 0.25 0 0 0 18 23.75L18 22.25A0.25 0.25 0 0 1 18.25 22L18.75 22A0.25 0.25 0 0 0 19 21.75L19 21.25A0.25 0.25 0 0 0 18.75 21L18.25 21A0.25 0.25 0 0 1 18 20.75L18 19.25A0.25 0.25 0 0 1 18.25 19L18.75 19A0.25 0.25 0 0 0 19 18.75L19 18.25A0.25 0.25 0 0 1 19.25 18L19.75 18A0.25 0.25 0 0 1 20 18.25L20 18.75A0.25 0.25 0 0 0 20.25 19L20.75 19A0.25 0.25 0 0 0 21 18.75L21 18.25A0.25 0.25 0 0 1 21.25 18L21.75 18A0.25 0.25 0 0 1 22 18.25L22 18.75A0.25 0.25 0 0 0 22.25 19L22.75 19A0.25 0.25 0 0 1 23 19.25L23 19.75A0.25 0.25 0 0 0 23.25 20L23.75 20A0.25 0.25 0 0 0 24 19.75L24 19.25A0.25 0.25 0 0 1 24.25 19L24.75 19A0.25 0.25 0 0 1 25 19.25L25 19.75A0.25 0.25 0 0 0 25.25 20L26.75 20A0.25 0.25 0 0 0 27 19.75L27 19.25A0.25 0.25 0 0 0 26.75 19L25.25 19A0.25 0.25 0 0 1 25 18.75L25 18.25A0.25 0.25 0 0 1 25.25 18L26.75 18A0.25 0.25 0 0 0 27 17.75L27 17.25A0.25 0.25 0 0 0 26.75 17L25.25 17A0.25 0.25 0 0 0 25 17.25L25 17.75A0.25 0.25 0 0 1 24.75 18L24.25 18A0.25 0.25 0 0 0 24 18.25L24 18.75A0.25 0.25 0 0 1 23.75 19L23.25 19A0.25 0.25 0 0 1 23 18.75L23 18.25A0.25 0.25 0 0 0 22.75 18L22.25 18A0.25 0.25 0 0 1 22 17.75L22 17.25A0.25 0.25 0 0 0 21.75 17L21.25 17A0.25 0.25 0 0 0 21 17.25L21 17.75A0.25 0.25 0 0 1 20.75 18L20.25 18A0.25 0.25 0 0 1 20 17.75L20 17.25A0.25 0.25 0 0 0 19.75 17L19.25 17A0.25 0.25 0 0 0 19 17.25L19 17.75A0.25 0.25 0 0 1 18.75 18L18.25 18A0.25 0.25 0 0 1 18 17.75L18 17.25A0.25 0.25 0 0 0 17.75 17L17.25 17A0.25 0.25 0 0 0 17 17.25L17 17.75A0.25 0.25 0 0 1 16.75 18L16.25 18A0.25 0.25 0 0 0 16 18.25L16 18.75A0.25 0.25 0 0 1 15.75 19L14.25 19A0.25 0.25 0 0 0 14 19.25L14 19.75A0.25 0.25 0 0 0 14.25 20L16.75 20A0.25 0.25 0 0 1 17 20.25L17 20.75A0.25 0.25 0 0 1 16.75 21L13.25 21A0.25 0.25 0 0 1 13 20.75L13 19.25A0.25 0.25 0 0 0 12.75 19L12.25 19A0.25 0.25 0 0 0 12 19.25L12 19.75A0.25 0.25 0 0 1 11.75 20L11.25 20A0.25 0.25 0 0 1 11 19.75L11 19.25A0.25 0.25 0 0 0 10.75 19L10.25 19A0.25 0.25 0 0 1 10 18.75L10 17.25A0.25 0.25 0 0 1 10.25 17L10.75 17A0.25 0.25 0 0 1 11 17.25L11 17.75A0.25 0.25 0 0 0 11.25 18L12.75 18A0.25 0.25 0 0 0 13 17.75L13 17.25A0.25 0.25 0 0 1 13.25 17L13.75 17A0.25 0.25 0 0 1 14 17.25L14 17.75A0.25 0.25 0 0 0 14.25 18L14.75 18A0.25 0.25 0 0 0 15 17.75L15 17.25A0.25 0.25 0 0 0 14.75 17L14.25 17A0.25 0.25 0 0 1 14 16.75L14 15.25A0.25 0.25 0 0 0 13.75 15L13.25 15A0.25 0.25 0 0 0 13 15.25ZM3 16.25L3 16.75A0.25 0.25 0 0 0 3.25 17L3.75 17A0.25 0.25 0 0 1 4 17.25L4 17.75A0.25 0.25 0 0 0 4.25 18L4.75 18A0.25 0.25 0 0 0 5 17.75L5 17.25A0.25 0.25 0 0 0 4.75 17L4.25 17A0.25 0.25 0 0 1 4 16.75L4 16.25A0.25 0.25 0 0 0 3.75 16L3.25 16A0.25 0.25 0 0 0 3 16.25ZM6 19.25L6 19.75A0.25 0.25 0 0 0 6.25 20L6.75 20A0.25 0.25 0 0 0 7 19.75L7 19.25A0.25 0.25 0 0 0 6.75 19L6.25 19A0.25 0.25 0 0 0 6 19.25ZM10 20.25L10 20.75A0.25 0.25 0 0 0 10.25 21L10.75 21A0.25 0.25 0 0 0 11 20.75L11 20.25A0.25 0.25 0 0 0 10.75 20L10.25 20A0.25 0.25 0 0 0 10 20.25ZM21 21.25L21 23.75A0.25 0.25 0 0 0 21.25 24L23.75 24A0.25 0.25 0 0 0 24 23.75L24 21.25A0.25 0.25 0 0 0 23.75 21L21.25 21A0.25 0.25 0 0 0 21 21.25ZM22 22.25L22 22.75A0.25 0.25 0 0 0 22.25 23L22.75 23A0.25 0.25 0 0 0 23 22.75L23 22.25A0.25 0.25 0 0 0 22.75 22L22.25 22A0.25 0.25 0 0 0 22 22.25ZM26 23.25L26 23.75A0.25 0.25 0 0 1 25.75 24L25.25 24A0.25 0.25 0 0 0 25 24.25L25 24.75A0.25 0.25 0 0 1 24.75 25L24.25 25A0.25 0.25 0 0 0 24 25.25L24 25.75A0.25 0.25 0 0 0 24.25 26L24.75 26A0.25 0.25 0 0 0 25 25.75L25 25.25A0.25 0.25 0 0 1 25.25 25L25.75 25A0.25 0.25 0 0 0 26 24.75L26 24.25A0.25 0.25 0 0 1 26.25 24L26.75 24A0.25 0.25 0 0 0 27 23.75L27 23.25A0.25 0.25 0 0 0 26.75 23L26.25 23A0.25 0.25 0 0 0 26 23.25ZM11 24.25L11 25.75A0.25 0.25 0 0 0 11.25 26L11.75 26A0.25 0.25 0 0 0 12 25.75L12 24.25A0.25 0.25 0 0 0 11.75 24L11.25 24A0.25 0.25 0 0 0 11 24.25ZM9 25.25L9 25.75A0.25 0.25 0 0 0 9.25 26L9.75 26A0.25 0.25 0 0 0 10 25.75L10 25.25A0.25 0.25 0 0 0 9.75 25L9.25 25A0.25 0.25 0 0 0 9 25.25ZM13 25.25L13 25.75A0.25 0.25 0 0 0 13.25 26L13.75 26A0.25 0.25 0 0 0 14 25.75L14 25.25A0.25 0.25 0 0 0 13.75 25L13.25 25A0.25 0.25 0 0 0 13 25.25ZM22 25.25L22 25.75A0.25 0.25 0 0 0 22.25 26L22.75 26A0.25 0.25 0 0 0 23 25.75L23 25.25A0.25 0.25 0 0 0 22.75 25L22.25 25A0.25 0.25 0 0 0 22 25.25ZM0 0.25L0 6.75A0.25 0.25 0 0 0 0.25 7L6.75 7A0.25 0.25 0 0 0 7 6.75L7 0.25A0.25 0.25 0 0 0 6.75 0L0.25 0A0.25 0.25 0 0 0 0 0.25ZM1 1.25L1 5.75A0.25 0.25 0 0 0 1.25 6L5.75 6A0.25 0.25 0 0 0 6 5.75L6 1.25A0.25 0.25 0 0 0 5.75 1L1.25 1A0.25 0.25 0 0 0 1 1.25ZM2 2.25L2 4.75A0.25 0.25 0 0 0 2.25 5L4.75 5A0.25 0.25 0 0 0 5 4.75L5 2.25A0.25 0.25 0 0 0 4.75 2L2.25 2A0.25 0.25 0 0 0 2 2.25ZM22 0.25L22 6.75A0.25 0.25 0 0 0 22.25 7L28.75 7A0.25 0.25 0 0 0 29 6.75L29 0.25A0.25 0.25 0 0 0 28.75 0L22.25 0A0.25 0.25 0 0 0 22 0.25ZM23 1.25L23 5.75A0.25 0.25 0 0 0 23.25 6L27.75 6A0.25 0.25 0 0 0 28 5.75L28 1.25A0.25 0.25 0 0 0 27.75 1L23.25 1A0.25 0.25 0 0 0 23 1.25ZM24 2.25L24 4.75A0.25 0.25 0 0 0 24.25 5L26.75 5A0.25 0.25 0 0 0 27 4.75L27 2.25A0.25 0.25 0 0 0 26.75 2L24.25 2A0.25 0.25 0 0 0 24 2.25ZM0 22.25L0 28.75A0.25 0.25 0 0 0 0.25 29L6.75 29A0.25 0.25 0 0 0 7 28.75L7 22.25A0.25 0.25 0 0 0 6.75 22L0.25 22A0.25 0.25 0 0 0 0 22.25ZM1 23.25L1 27.75A0.25 0.25 0 0 0 1.25 28L5.75 28A0.25 0.25 0 0 0 6 27.75L6 23.25A0.25 0.25 0 0 0 5.75 23L1.25 23A0.25 0.25 0 0 0 1 23.25ZM2 24.25L2 26.75A0.25 0.25 0 0 0 2.25 27L4.75 27A0.25 0.25 0 0 0 5 26.75L5 24.25A0.25 0.25 0 0 0 4.75 24L2.25 24A0.25 0.25 0 0 0 2 24.25Z" fill="#000000"/></g></g></svg>
