<?xml version="1.0" encoding="UTF-8"?>
<svg xmlns="http://www.w3.org/2000/svg" version="1.1" width="200" height="200" viewBox="0 0 200 200"><rect x="0" y="0" width="200" height="200" fill="#ffffff"/><g transform="scale(6.897)"><g transform="translate(0,0)"><path fill-rule="evenodd" d="M9 0.25L9 0.75A0.25 0.25 0 0 1 8.75 1L8.25 1A0.25 0.25 0 0 0 8 1.25L8 6.75A0.25 0.25 0 0 0 8.25 7L8.75 7A0.25 0.25 0 0 1 9 7.25L9 7.75A0.25 0.25 0 0 1 8.75 8L5.25 8A0.25 0.25 0 0 0 5 8.25L5 8.75A0.25 0.25 0 0 0 5.25 9L6.75 9A0.25 0.25 0 0 1 7 9.25L7 9.75A0.25 0.25 0 0 1 6.75 10L4.25 10A0.25 0.25 0 0 1 4 9.75L4 9.25A0.25 0.25 0 0 0 3.75 9L3.25 9A0.25 0.25 0 0 1 3 8.75L3 8.25A0.25 0.25 0 0 0 2.75 8L2.25 8A0.25 0.25 0 0 0 2 8.25L2 8.75A0.25 0.25 0 0 0 2.25 9L2.75 9A0.25 0.25 0 0 1 3 9.25L3 11.75A0.25 0.25 0 0 0 3.25 12L3.75 12A0.25 0.25 0 0 0 4 11.75L4 11.25A0.25 0.25 0 0 1 4.25 11L4.75 11A0.25 0.25 0 0 1 5 11.25L5 11.75A0.25 0.25 0 0 0 5.25 12L5.75 12A0.25 0.25 0 0 1 6 12.25L6 12.75A0.25 0.25 0 0 1 5.75 13L5.25 13A0.25 0.25 0 0 0 5 13.25L5 13.75A0.25 0.25 0 0 1 4.75 14L4.25 14A0.25 0.25 0 0 0 4 14.25L4 15.75A0.25 0.25 0 0 1 3.75 16L3.25 16A0.25 0.25 0 0 0 3 16.25L3 16.75A0.25 0.25 0 0 1 2.75 17L2.25 17A0.25 0.25 0 0 1 2 16.75L2 15.25A0.25 0.25 0 0 1 2.25 15L2.75 15A0.25 0.25 0 0 0 3 14.75L3 13.25A0.25 0.25 0 0 0 2.75 13L2.25 13A0.25 0.25 0 0 0 2 13.25L2 14.75A0.25 0.25 0 0 1 1.75 15L1.25 15A0.25 0.25 0 0 1 1 14.75L1 14.25A0.25 0.25 0 0 0 0.75 14L0.25 14A0.25 0.25 0 0 0 0 14.25L0 16.75A0.25 0.25 0 0 0 0.25 17L0.75 17A0.25 0.25 0 0 1 1 17.25L1 17.75A0.25 0.25 0 0 1 0.75 18L0.25 18A0.25 0.25 0 0 0 0 18.25L0 18.75A0.25 0.25 0 0 0 0.25 19L1.75 19A0.25 0.25 0 0 0 2 18.75L2 18.25A0.25 0.25 0 0 1 2.25 18L2.75 18A0.25 0.25 0 0 0 3 17.75L3 17.25A0.25 0.25 0 0 1 3.25 17L3.75 17A0.25 0.25 0 0 1 4 17.25L4 17.75A0.25 0.25 0 0 0 4.25 18L4.75 18A0.25 0.25 0 0 1 5 18.25L5 18.75A0.25 0.25 0 0 1 4.75 19L3.25 19A0.25 0.25 0 0 0 3 19.25L3 19.75A0.25 0.25 0 0 1 2.75 20L0.25 20A0.25 0.25 0 0 0 0 20.25L0 20.75A0.25 0.25 0 0 0 0.25 21L3.75 21A0.25 0.25 0 0 0 4 20.75L4 20.25A0.25 0.25 0 0 1 4.25 20L4.75 20A0.25 0.25 0 0 1 5 20.25L5 20.75A0.25 0.25 0 0 0 5.25 21L7.75 21A0.25 0.25 0 0 1 8 21.25L8 23.75A0.25 0.25 0 0 0 8.25 24L8.75 24A0.25 0.25 0 0 1 9 24.25L9 25.75A0.25 0.25 0 0 1 8.75 26L8.25 26A0.25 0.25 0 0 0 8 26.25L8 26.75A0.25 0.25 0 0 0 8.25 27L8.75 27A0.25 0.25 0 0 1 9 27.25L9 28.75A0.25 0.25 0 0 0 9.25 29L9.75 29A0.25 0.25 0 0 0 10 28.75L10 27.25A0.25 0.25 0 0 0 9.75 27L9.25 27A0.25 0.25 0 0 1 9 26.75L9 26.25A0.25 0.25 0 0 1 9.25 26L9.75 26A0.25 0.25 0 0 0 10 25.75L10 25.25A0.25 0.25 0 0 1 10.25 25L10.75 25A0.25 0.25 0 0 1 11 25.25L11 26.75A0.25 0.25 0 0 0 11.25 27L11.75 27A0.25 0.25 0 0 1 12 27.25L12 28.75A0.25 0.25 0 0 0 12.25 29L12.75 29A0.25 0.25 0 0 0 13 28.75L13 28.25A0.25 0.25 0 0 1 13.25 28L13.75 28A0.25 0.25 0 0 1 14 28.25L14 28.75A0.25 0.25 0 0 0 14.25 29L14.75 29A0.25 0.25 0 0 0 15 28.75L15 28.25A0.25 0.25 0 0 0 14.75 28L14.25 28A0.25 0.25 0 0 1 14 27.75L14 27.25A0.25 0.25 0 0 1 14.25 27L16.75 27A0.25 0.25 0 0 0 17 26.75L17 25.25A0.25 0.25 0 0 0 16.75 25L16.25 25A0.25 0.25 0 0 1 16 24.75L16 23.25A0.25 0.25 0 0 1 16.25 23L16.75 23A0.25 0.25 0 0 1 17 23.25L17 23.75A0.25 0.25 0 0 0 17.25 24L17.75 24A0.25 0.25 0 0 1 18 24.25L18 25.75A0.25 0.25 0 0 0 18.25 26L18.75 26A0.25 0.25 0 0 0 19 25.75L19 25.25A0.25 0.25 0 0 1 19.25 25L19.75 25A0.25 0.25 0 0 1 20 25.25L20 26.75A0.25 0.25 0 0 0 20.25 27L20.75 27A0.25 0.25 0 0 0 21 26.75L21 25.25A0.25 0.25 0 0 1 21.25 25L23.75 25A0.25 0.25 0 0 1 24 25.25L24 26.75A0.25 0.25 0 0 1 23.75 27L23.25 27A0.25 0.25 0 0 0 23 27.25L23 27.75A0.25 0.25 0 0 1 22.75 28L22.25 28A0.25 0.25 0 0 0 22 28.25L22 28.75A0.25 0.25 0 0 0 22.25 29L25.75 29A0.25 0.25 0 0 0 26 28.75L26 25.25A0.25 0.25 0 0 0 25.75 25L25.25 25A0.25 0.25 0 0 1 25 24.75L25 22.25A0.25 0.25 0 0 1 25.25 22L25.75 22A0.25 0.25 0 0 1 26 22.25L26 22.75A0.25 0.25 0 0 0 26.25 23L26.75 23A0.25 0.25 0 0 1 27 23.25L27 23.75A0.25 0.25 0 0 0 27.25 24L27.75 24A0.25 0.25 0 0 1 28 24.25L28 24.75A0.25 0.25 0 0 1 27.75 25L27.25 25A0.25 0.25 0 0 0 27 25.25L27 26.75A0.25 0.25 0 0 0 27.25 27L28.75 27A0.25 0.25 0 0 0 29 26.75L29 26.25A0.25 0.25 0 0 0 28.75 26L28.25 26A0.25 0.25 0 0 1 28 25.75L28 25.25A0.25 0.25 0 0 1 28.25 25L28.75 25A0.25 0.25 0 0 0 29 24.75L29 24.25A0.25 0.25 0 0 0 28.75 24L28.25 24A0.25 0.25 0 0 1 28 23.75L28 23.25A0.25 0.25 0 0 1 28.25 23L28.75 23A0.25 0.25 0 0 0 29 22.75L29 20.25A0.25 0.25 0 0 0 28.75 20L28.25 20A0.25 0.25 0 0 0 28 20.25L28 20.75A0.25 0.25 0 0 1 27.75 21L27.25 21A0.25 0.25 0 0 0 27 21.25L27 21.75A0.25 0.25 0 0 1 26.75 22L26.25 22A0.25 0.25 0 0 1 26 21.75L26 21.25A0.25 0.25 0 0 0 25.75 21L25.25 21A0.25 0.25 0 0 1 25 20.75L25 20.25A0.25 0.25 0 0 0 24.75 20L23.25 20A0.25 0.25 0 0 1 23 19.75L23 16.25A0.25 0.25 0 0 1 23.25 16L23.75 16A0.25 0.25 0 0 0 24 15.75L24 15.25A0.25 0.25 0 0 1 24.25 15L26.75 15A0.25 0.25 0 0 1 27 15.25L27 15.75A0.25 0.25 0 0 0 27.25 16L27.75 16A0.25 0.25 0 0 1 28 16.25L28 16.75A0.25 0.25 0 0 1 27.75 17L27.25 17A0.25 0.25 0 0 0 27 17.25L27 17.75A0.25 0.25 0 0 1 26.75 18L26.25 18A0.25 0.25 0 0 1 26 17.75L26 17.25A0.25 0.25 0 0 0 25.75 17L25.25 17A0.25 0.25 0 0 0 25 17.25L25 17.75A0.25 0.25 0 0 1 24.75 18L24.25 18A0.25 0.25 0 0 0 24 18.25L24 18.75A0.25 0.25 0 0 0 24.25 19L24.75 19A0.25 0.25 0 0 0 25 18.75L25 18.25A0.25 0.25 0 0 1 25.25 18L25.75 18A0.25 0.25 0 0 1 26 18.25L26 18.75A0.25 0.25 0 0 0 26.25 19L28.75 19A0.25 0.25 0 0 0 29 18.75L29 16.25A0.25 0.25 0 0 0 28.75 16L28.25 16A0.25 0.25 0 0 1 28 15.75L28 15.25A0.25 0.25 0 0 1 28.25 15L28.75 15A0.25 0.25 0 0 0 29 14.75L29 12.25A0.25 0.25 0 0 0 28.75 12L28.25 12A0.25 0.25 0 0 1 28 11.75L28 11.25A0.25 0.25 0 0 1 28.25 11L28.75 11A0.25 0.25 0 0 0 29 10.75L29 9.25A0.25 0.25 0 0 0 28.75 9L28.25 9A0.25 0.25 0 0 1 28 8.75L28 8.25A0.25 0.25 0 0 0 27.75 8L23.25 8A0.25 0.25 0 0 0 23 8.25L23 8.75A0.25 0.25 0 0 1 22.75 9L22.25 9A0.25 0.25 0 0 1 22 8.75L22 8.25A0.25 0.25 0 0 0 21.75 8L21.25 8A0.25 0.25 0 0 0 21 8.25L21 11.75A0.25 0.25 0 0 1 20.75 12L18.25 12A0.25 0.25 0 0 0 18 12.25L18 13.75A0.25 0.25 0 0 0 18.25 14L18.75 14A0.25 0.25 0 0 1 19 14.25L19 14.75A0.25 0.25 0 0 0 19.25 15L20.75 15A0.25 0.25 0 0 1 21 15.25L21 15.75A0.25 0.25 0 0 1 20.75 16L20.25 16A0.25 0.25 0 0 0 20 16.25L20 18.75A0.25 0.25 0 0 1 19.75 19L19.25 19A0.25 0.25 0 0 1 19 18.75L19 17.25A0.25 0.25 0 0 0 18.75 17L18.25 17A0.25 0.25 0 0 0 18 17.25L18 18.75A0.25 0.25 0 0 0 18.25 19L18.75 19A0.25 0.25 0 0 1 19 19.25L19 19.75A0.25 0.25 0 0 1 18.75 20L17.25 20A0.25 0.25 0 0 1 17 19.75L17 19.25A0.25 0.25 0 0 0 16.75 19L16.25 19A0.25 0.25 0 0 1 16 18.75L16 18.25A0.25 0.25 0 0 1 16.25 18L16.75 18A0.25 0.25 0 0 0 17 17.75L17 16.25A0.25 0.25 0 0 1 17.25 16L17.75 16A0.25 0.25 0 0 0 18 15.75L18 15.25A0.25 0.25 0 0 0 17.75 15L16.25 15A0.25 0.25 0 0 0 16 15.25L16 15.75A0.25 0.25 0 0 1 15.75 16L14.25 16A0.25 0.25 0 0 0 14 16.25L14 16.75A0.25 0.25 0 0 0 14.25 17L14.75 17A0.25 0.25 0 0 1 15 17.25L15 19.75A0.25 0.25 0 0 1 14.75 20L14.25 20A0.25 0.25 0 0 0 14 20.25L14 21.75A0.25 0.25 0 0 1 13.75 22L13.25 22A0.25 0.25 0 0 1 13 21.75L13 21.25A0.25 0.25 0 0 0 12.75 21L12.25 21A0.25 0.25 0 0 1 12 20.75L12 20.25A0.25 0.25 0 0 1 12.25 20L12.75 20A0.25 0.25 0 0 0 13 19.75L13 17.25A0.25 0.25 0 0 0 12.75 17L12.25 17A0.25 0.25 0 0 1 12 16.75L12 16.25A0.25 0.25 0 0 1 12.25 16L12.75 16A0.25 0.25 0 0 0 13 15.75L13 15.25A0.25 0.25 0 0 1 13.25 15L14.75 15A0.25 0.25 0 0 0 15 14.75L15 14.25A0.25 0.25 0 0 0 14.75 14L13.25 14A0.25 0.25 0 0 1 13 13.75L13 13.25A0.25 0.25 0 0 0 12.75 13L12.25 13A0.25 0.25 0 0 1 12 12.75L12 12.25A0.25 0.25 0 0 1 12.25 12L12.75 12A0.25 0.25 0 0 0 13 11.75L13 11.25A0.25 0.25 0 0 1 13.25 11L14.75 11A0.25 0.25 0 0 0 15 10.75L15 10.25A0.25 0.25 0 0 1 15.25 10L15.75 10A0.25 0.25 0 0 0 16 9.75L16 9.25A0.25 0.25 0 0 0 15.75 9L15.25 9A0.25 0.25 0 0 0 15 9.25L15 9.75A0.25 0.25 0 0 1 14.75 10L14.25 10A0.25 0.25 0 0 1 14 9.75L14 9.25A0.25 0.25 0 0 0 13.75 9L13.25 9A0.25 0.25 0 0 1 13 8.75L13 8.25A0.25 0.25 0 0 1 13.25 8L14.75 8A0.25 0.25 0 0 0 15 7.75L15 6.25A0.25 0.25 0 0 1 15.25 6L15.75 6A0.25 0.25 0 0 1 16 6.25L16 7.75A0.25 0.25 0 0 0 16.25 8L16.75 8A0.25 0.25 0 0 1 17 8.25L17 9.75A0.25 0.25 0 0 0 17.25 10L18.75 10A0.25 0.25 0 0 1 19 10.25L19 10.75A0.25 0.25 0 0 0 19.25 11L19.75 11A0.25 0.25 0 0 0 20 10.75L20 10.25A0.25 0.25 0 0 0 19.75 10L19.25 10A0.25 0.25 0 0 1 19 9.75L19 9.25A0.25 0.25 0 0 1 19.25 9L19.75 9A0.25 0.25 0 0 0 20 8.75L20 7.25A0.25 0.25 0 0 1 20.25 7L20.75 7A0.25 0.25 0 0 0 21 6.75L21 6.25A0.25 0.25 0 0 0 20.75 6L20.25 6A0.25 0.25 0 0 0 20 6.25L20 6.75A0.25 0.25 0 0 1 19.75 7L19.25 7A0.25 0.25 0 0 1 19 6.75L19 6.25A0.25 0.25 0 0 0 18.75 6L18.25 6A0.25 0.25 0 0 0 18 6.25L18 7.75A0.25 0.25 0 0 1 17.75 8L17.25 8A0.25 0.25 0 0 1 17 7.75L17 5.25A0.25 0.25 0 0 1 17.25 5L18.75 5A0.25 0.25 0 0 0 19 4.75L19 4.25A0.25 0.25 0 0 1 19.25 4L19.75 4A0.25 0.25 0 0 0 20 3.75L20 3.25A0.25 0.25 0 0 0 19.75 3L19.25 3A0.25 0.25 0 0 1 19 2.75L19 2.25A0.25 0.25 0 0 1 19.25 2L19.75 2A0.25 0.25 0 0 0 20 1.75L20 0.25A0.25 0.25 0 0 0 19.75 0L16.25 0A0.25 0.25 0 0 0 16 0.25L16 0.75A0.25 0.25 0 0 0 16.25 1L16.75 1A0.25 0.25 0 0 1 17 1.25L17 1.75A0.25 0.25 0 0 1 16.75 2L15.25 2A0.25 0.25 0 0 1 15 1.75L15 0.25A0.25 0.25 0 0 0 14.75 0L11.25 0A0.25 0.25 0 0 0 11 0.25L11 0.75A0.25 0.25 0 0 1 10.75 1L10.25 1A0.25 0.25 0 0 1 10 0.75L10 0.25A0.25 0.25 0 0 0 9.75 0L9.25 0A0.25 0.25 0 0 0 9 0.25ZM9 1.25L9 2.75A0.25 0.25 0 0 0 9.25 3L9.75 3A0.25 0.25 0 0 1 10 3.25L10 4.75A0.25 0.25 0 0 1 9.75 5L9.25 5A0.25 0.25 0 0 0 9 5.25L9 6.75A0.25 0.25 0 0 0 9.25 7L9.75 7A0.25 0.25 0 0 1 10 7.25L10 7.75A0.25 0.25 0 0 1 9.75 8L9.25 8A0.25 0.25 0 0 0 9 8.25L9 8.75A0.25 0.25 0 0 0 9.25 9L10.75 9A0.25 0.25 0 0 1 11 9.25L11 9.75A0.25 0.25 0 0 0 11.25 10L11.75 10A0.25 0.25 0 0 0 12 9.75L12 8.25A0.25 0.25 0 0 1 12.25 8L12.75 8A0.25 0.25 0 0 0 13 7.75L13 7.25A0.25 0.25 0 0 1 13.25 7L13.75 7A0.25 0.25 0 0 0 14 6.75L14 6.25A0.25 0.25 0 0 0 13.75 6L13.25 6A0.25 0.25 0 0 1 13 5.75L13 5.25A0.25 0.25 0 0 0 12.75 5L12.25 5A0.25 0.25 0 0 0 12 5.25L12 5.75A0.25 0.25 0 0 1 11.75 6L11.25 6A0.25 0.25 0 0 0 11 6.25L11 6.75A0.25 0.25 0 0 1 10.75 7L10.25 7A0.25 0.25 0 0 1 10 6.75L10 5.25A0.25 0.25 0 0 1 10.25 5L10.75 5A0.25 0.25 0 0 0 11 4.75L11 4.25A0.25 0.25 0 0 1 11.25 4L13.75 4A0.25 0.25 0 0 1 14 4.25L14 4.75A0.25 0.25 0 0 0 14.25 5L16.75 5A0.25 0.25 0 0 0 17 4.75L17 4.25A0.25 0.25 0 0 0 16.75 4L15.25 4A0.25 0.25 0 0 1 15 3.75L15 2.25A0.25 0.25 0 0 0 14.75 2L14.25 2A0.25 0.25 0 0 1 14 1.75L14 1.25A0.25 0.25 0 0 0 13.75 1L13.25 1A0.25 0.25 0 0 0 13 1.25L13 2.75A0.25 0.25 0 0 1 12.75 3L12.25 3A0.25 0.25 0 0 1 12 2.75L12 1.25A0.25 0.25 0 0 0 11.75 1L11.25 1A0.25 0.25 0 0 0 11 1.25L11 1.75A0.25 0.25 0 0 1 10.75 2L10.25 2A0.25 0.25 0 0 1 10 1.75L10 1.25A0.25 0.25 0 0 0 9.75 1L9.25 1A0.25 0.25 0 0 0 9 1.25ZM18 1.25L18 1.75A0.25 0.25 0 0 0 18.25 2L18.75 2A0.25 0.25 0 0 0 19 1.75L19 1.25A0.25 0.25 0 0 0 18.75 1L18.25 1A0.25 0.25 0 0 0 18 1.25ZM12 6.25L12 6.75A0.25 0.25 0 0 1 11.75 7L11.25 7A0.25 0.25 0 0 0 11 7.25L11 7.75A0.25 0.25 0 0 0 11.25 8L11.75 8A0.25 0.25 0 0 0 12 7.75L12 7.25A0.25 0.25 0 0 1 12.25 7L12.75 7A0.25 0.25 0 0 0 13 6.75L13 6.25A0.25 0.25 0 0 0 12.75 6L12.25 6A0.25 0.25 0 0 0 12 6.25ZM0 9.25L0 10.75A0.25 0.25 0 0 0 0.25 11L1.75 11A0.25 0.25 0 0 0 2 10.75L2 10.25A0.25 0.25 0 0 0 1.75 10L1.25 10A0.25 0.25 0 0 1 1 9.75L1 9.25A0.25 0.25 0 0 0 0.75 9L0.25 9A0.25 0.25 0 0 0 0 9.25ZM23 9.25L23 10.75A0.25 0.25 0 0 1 22.75 11L22.25 11A0.25 0.25 0 0 0 22 11.25L22 11.75A0.25 0.25 0 0 0 22.25 12L23.75 12A0.25 0.25 0 0 1 24 12.25L24 13.75A0.25 0.25 0 0 1 23.75 14L23.25 14A0.25 0.25 0 0 0 23 14.25L23 14.75A0.25 0.25 0 0 0 23.25 15L23.75 15A0.25 0.25 0 0 0 24 14.75L24 14.25A0.25 0.25 0 0 1 24.25 14L26.75 14A0.25 0.25 0 0 0 27 13.75L27 11.25A0.25 0.25 0 0 0 26.75 11L25.25 11A0.25 0.25 0 0 0 25 11.25L25 11.75A0.25 0.25 0 0 1 24.75 12L24.25 12A0.25 0.25 0 0 1 24 11.75L24 10.25A0.25 0.25 0 0 1 24.25 10L24.75 10A0.25 0.25 0 0 0 25 9.75L25 9.25A0.25 0.25 0 0 0 24.75 9L23.25 9A0.25 0.25 0 0 0 23 9.25ZM26 9.25L26 9.75A0.25 0.25 0 0 0 26.25 10L26.75 10A0.25 0.25 0 0 0 27 9.75L27 9.25A0.25 0.25 0 0 0 26.75 9L26.25 9A0.25 0.25 0 0 0 26 9.25ZM9 10.25L9 12.75A0.25 0.25 0 0 1 8.75 13L8.25 13A0.25 0.25 0 0 1 8 12.75L8 11.25A0.25 0.25 0 0 0 7.75 11L6.25 11A0.25 0.25 0 0 0 6 11.25L6 11.75A0.25 0.25 0 0 0 6.25 12L6.75 12A0.25 0.25 0 0 1 7 12.25L7 12.75A0.25 0.25 0 0 1 6.75 13L6.25 13A0.25 0.25 0 0 0 6 13.25L6 13.75A0.25 0.25 0 0 0 6.25 14L7.75 14A0.25 0.25 0 0 1 8 14.25L8 14.75A0.25 0.25 0 0 1 7.75 15L5.25 15A0.25 0.25 0 0 0 5 15.25L5 17.75A0.25 0.25 0 0 0 5.25 18L6.75 18A0.25 0.25 0 0 1 7 18.25L7 18.75A0.25 0.25 0 0 1 6.75 19L6.25 19A0.25 0.25 0 0 0 6 19.25L6 19.75A0.25 0.25 0 0 0 6.25 20L7.75 20A0.25 0.25 0 0 1 8 20.25L8 20.75A0.25 0.25 0 0 0 8.25 21L8.75 21A0.25 0.25 0 0 0 9 20.75L9 20.25A0.25 0.25 0 0 0 8.75 20L8.25 20A0.25 0.25 0 0 1 8 19.75L8 18.25A0.25 0.25 0 0 1 8.25 18L8.75 18A0.25 0.25 0 0 1 9 18.25L9 18.75A0.25 0.25 0 0 0 9.25 19L9.75 19A0.25 0.25 0 0 1 10 19.25L10 19.75A0.25 0.25 0 0 0 10.25 20L11.75 20A0.25 0.25 0 0 0 12 19.75L12 19.25A0.25 0.25 0 0 0 11.75 19L11.25 19A0.25 0.25 0 0 1 11 18.75L11 15.25A0.25 0.25 0 0 0 10.75 15L10.25 15A0.25 0.25 0 0 1 10 14.75L10 14.25A0.25 0.25 0 0 0 9.75 14L9.25 14A0.25 0.25 0 0 1 9 13.75L9 13.25A0.25 0.25 0 0 1 9.25 13L10.75 13A0.25 0.25 0 0 0 11 12.75L11 12.25A0.25 0.25 0 0 0 10.75 12L10.25 12A0.25 0.25 0 0 1 10 11.75L10 10.25A0.25 0.25 0 0 0 9.75 10L9.25 10A0.25 0.25 0 0 0 9 10.25ZM0 12.25L0 12.75A0.25 0.25 0 0 0 0.25 13L0.75 13A0.25 0.25 0 0 0 1 12.75L1 12.25A0.25 0.25 0 0 0 0.75 12L0.25 12A0.25 0.25 0 0 0 0 12.25ZM14 12.25L14 12.75A0.25 0.25 0 0 0 14.25 13L15.75 13A0.25 0.25 0 0 0 16 12.75L16 12.25A0.25 0.25 0 0 0 15.75 12L14.25 12A0.25 0.25 0 0 0 14 12.25ZM12 14.25L12 14.75A0.25 0.25 0 0 0 12.25 15L12.75 15A0.25 0.25 0 0 0 13 14.75L13 14.25A0.25 0.25 0 0 0 12.75 14L12.25 14A0.25 0.25 0 0 0 12 14.25ZM8 15.25L8 15.75A0.25 0.25 0 0 0 8.25 16L9.75 16A0.25 0.25 0 0 0 10 15.75L10 15.25A0.25 0.25 0 0 0 9.75 15L8.25 15A0.25 0.25 0 0 0 8 15.25ZM6 16.25L6 16.75A0.25 0.25 0 0 0 6.25 17L6.75 17A0.25 0.25 0 0 1 7 17.25L7 17.75A0.25 0.25 0 0 0 7.25 18L7.75 18A0.25 0.25 0 0 0 8 17.75L8 17.25A0.25 0.25 0 0 0 7.75 17L7.25 17A0.25 0.25 0 0 1 7 16.75L7 16.25A0.25 0.25 0 0 0 6.75 16L6.25 16A0.25 0.25 0 0 0 6 16.25ZM21 16.25L21 17.75A0.25 0.25 0 0 0 21.25 18L21.75 18A0.25 0.25 0 0 0 22 17.75L22 16.25A0.25 0.25 0 0 0 21.75 16L21.25 16A0.25 0.25 0 0 0 21 16.25ZM15 20.25L15 21.75A0.25 0.25 0 0 0 15.25 22L16.75 22A0.25 0.25 0 0 0 17 21.75L17 20.25A0.25 0.25 0 0 0 16.75 20L15.25 20A0.25 0.25 0 0 0 15 20.25ZM19 20.25L19 20.75A0.25 0.25 0 0 0 19.25 21L19.75 21A0.25 0.25 0 0 0 20 20.75L20 20.25A0.25 0.25 0 0 0 19.75 20L19.25 20A0.25 0.25 0 0 0 19 20.25ZM10 21.25L10 22.75A0.25 0.25 0 0 1 9.75 23L9.25 23A0.25 0.25 0 0 0 9 23.25L9 23.75A0.25 0.25 0 0 0 9.25 24L9.75 24A0.25 0.25 0 0 0 10 23.75L10 23.25A0.25 0.25 0 0 1 10.25 23L10.75 23A0.25 0.25 0 0 1 11 23.25L11 24.75A0.25 0.25 0 0 0 11.25 25L11.75 25A0.25 0.25 0 0 1 12 25.25L12 26.75A0.25 0.25 0 0 0 12.25 27L13.75 27A0.25 0.25 0 0 0 14 26.75L14 25.25A0.25 0.25 0 0 1 14.25 25L14.75 25A0.25 0.25 0 0 0 15 24.75L15 23.25A0.25 0.25 0 0 0 14.75 23L14.25 23A0.25 0.25 0 0 0 14 23.25L14 23.75A0.25 0.25 0 0 1 13.75 24L13.25 24A0.25 0.25 0 0 1 13 23.75L13 22.25A0.25 0.25 0 0 0 12.75 22L11.25 22A0.25 0.25 0 0 1 11 21.75L11 21.25A0.25 0.25 0 0 0 10.75 21L10.25 21A0.25 0.25 0 0 0 10 21.25ZM21 21.25L21 23.75A0.25 0.25 0 0 0 21.25 24L23.75 24A0.25 0.25 0 0 0 24 23.75L24 21.25A0.25 0.25 0 0 0 23.75 21L21.25 21A0.25 0.25 0 0 0 21 21.25ZM19 22.25L19 23.75A0.25 0.25 0 0 0 19.25 24L19.75 24A0.25 0.25 0 0 0 20 23.75L20 22.25A0.25 0.25 0 0 0 19.75 22L19.25 22A0.25 0.25 0 0 0 19 22.25ZM22 22.25L22 22.75A0.25 0.25 0 0 0 22.25 23L22.75 23A0.25 0.25 0 0 0 23 22.75L23 22.25A0.25 0.25 0 0 0 22.75 22L22.25 22A0.25 0.25 0 0 0 22 22.25ZM12 24.25L12 24.75A0.25 0.25 0 0 0 12.25 25L12.75 25A0.25 0.25 0 0 0 13 24.75L13 24.25A0.25 0.25 0 0 0 12.75 24L12.25 24A0.25 0.25 0 0 0 12 24.25ZM18 27.25L18 27.75A0.25 0.25 0 0 1 17.75 28L16.25 28A0.25 0.25 0 0 0 16 28.25L16 28.75A0.25 0.25 0 0 0 16.25 29L20.75 29A0.25 0.25 0 0 0 21 28.75L21 28.25A0.25 0.25 0 0 0 20.75 28L19.25 28A0.25 0.25 0 0 1 19 27.75L19 27.25A0.25 0.25 0 0 0 18.75 27L18.25 27A0.25 0.25 0 0 0 18 27.25ZM24 27.25L24 27.75A0.25 0.25 0 0 0 24.25 28L24.75 28A0.25 0.25 0 0 0 25 27.75L25 27.25A0.25 0.25 0 0 0 24.75 27L24.25 27A0.25 0.25 0 0 0 24 27.25ZM28 28.25L28 28.75A0.25 0.25 0 0 0 28.25 29L28.75 29A0.25 0.25 0 0 0 29 28.75L29 28.25A0.25 0.25 0 0 0 28.75 28L28.25 28A0.25 0.25 0 0 0 28 28.25ZM0 0.25L0 6.75A0.25 0.25 0 0 0 0.25 7L6.75 7A0.25 0.25 0 0 0 7 6.75L7 0.25A0.25 0.25 0 0 0 6.75 0L0.25 0A0.25 0.25 0 0 0 0 0.25ZM1 1.25L1 5.75A0.25 0.25 0 0 0 1.25 6L5.75 6A0.25 0.25 0 0 0 6 5.75L6 1.25A0.25 0.25 0 0 0 5.75 1L1.25 1A0.25 0.25 0 0 0 1 1.25ZM2 2.25L2 4.75A0.25 0.25 0 0 0 2.25 5L4.75 5A0.25 0.25 0 0 0 5 4.75L5 2.25A0.25 0.25 0 0 0 4.75 2L2.25 2A0.25 0.25 0 0 0 2 2.25ZM22 0.25L22 6.75A0.25 0.25 0 0 0 22.25 7L28.75 7A0.25 0.25 0 0 0 29 6.75L29 0.25A0.25 0.25 0 0 0 28.75 0L22.25 0A0.25 0.25 0 0 0 22 0.25ZM23 1.25L23 5.75A0.25 0.25 0 0 0 23.25 6L27.75 6A0.25 0.25 0 0 0 28 5.75L28 1.25A0.25 0.25 0 0 0 27.75 1L23.25 1A0.25 0.25 0 0 0 23 1.25ZM24 2.25L24 4.75A0.25 0.25 0 0 0 24.25 5L26.75 5A0.25 0.25 0 0 0 27 4.75L27 2.25A0.25 0.25 0 0 0 26.75 2L24.25 2A0.25 0.25 0 0 0 24 2.25ZM0 22.25L0 28.75A0.25 0.25 0 0 0 0.25 29L6.75 29A0.25 0.25 0 0 0 7 28.75L7 22.25A0.25 0.25 0 0 0 6.75 22L0.25 22A0.25 0.25 0 0 0 0 22.25ZM1 23.25L1 27.75A0.25 0.25 0 0 0 1.25 28L5.75 28A0.25 0.25 0 0 0 6 27.75L6 23.25A0.25 0.25 0 0 0 5.75 23L1.25 23A0.25 0.25 0 0 0 1 23.25ZM2 24.25L2 26.75A0.25 0.25 0 0 0 2.25 27L4.75 27A0.25 0.25 0 0 0 5 26.75L5 24.25A0.25 0.25 0 0 0 4.75 24L2.25 24A0.25 0.25 0 0 0 2 24.25Z" fill="#000000"/></g></g></svg>
